G04*
G04 #@! TF.GenerationSoftware,Altium Limited,Altium Designer,23.3.1 (30)*
G04*
G04 Layer_Color=16711935*
%FSLAX44Y44*%
%MOMM*%
G71*
G04*
G04 #@! TF.SameCoordinates,7FF98350-13BF-4DC0-BCDE-F856E8DDA7C8*
G04*
G04*
G04 #@! TF.FilePolarity,Negative*
G04*
G01*
G75*
%ADD41C,1.7020*%
%ADD42C,1.5748*%
%ADD43C,5.7150*%
%ADD44O,1.9050X2.4130*%
%ADD45C,1.3270*%
%ADD46O,2.4130X1.9050*%
%ADD47C,1.3716*%
%ADD48C,2.1070*%
%ADD49R,2.1070X2.1070*%
%ADD50C,1.6270*%
%ADD51R,1.6270X1.6270*%
%ADD52R,1.3270X1.3270*%
%ADD53C,1.3970*%
D41*
X283210Y469900D02*
D03*
X58210D02*
D03*
X59480Y355600D02*
D03*
X284480D02*
D03*
X59690Y242570D02*
D03*
X284690D02*
D03*
X60750Y135890D02*
D03*
X285750D02*
D03*
D42*
X287383Y631305D02*
D03*
X362383D02*
D03*
X289560Y829310D02*
D03*
X364560D02*
D03*
D43*
X1397000Y55880D02*
D03*
Y965200D02*
D03*
X55880D02*
D03*
X50800Y55880D02*
D03*
D44*
X1413447Y187372D02*
D03*
Y241982D02*
D03*
X1418590Y499110D02*
D03*
Y444500D02*
D03*
X60960Y589280D02*
D03*
Y643890D02*
D03*
D45*
X914400Y405600D02*
D03*
Y355600D02*
D03*
X1319669Y192547D02*
D03*
Y242547D02*
D03*
X1318260Y357670D02*
D03*
Y407670D02*
D03*
Y525310D02*
D03*
Y575310D02*
D03*
X1316990Y696760D02*
D03*
Y746760D02*
D03*
X535940Y674470D02*
D03*
Y839470D02*
D03*
X1216660Y196380D02*
D03*
Y361480D02*
D03*
X1215390Y526580D02*
D03*
X1214120Y696760D02*
D03*
D46*
X969010Y294237D02*
D03*
X914400D02*
D03*
X481938Y951012D02*
D03*
X427328D02*
D03*
X683260Y949960D02*
D03*
X628650D02*
D03*
D47*
X171001Y846951D02*
D03*
Y808851D02*
D03*
Y770751D02*
D03*
Y732651D02*
D03*
D48*
X538480Y887730D02*
D03*
X512980D02*
D03*
D49*
X487480D02*
D03*
D50*
X528320Y45730D02*
D03*
X450850Y506720D02*
D03*
D51*
X528320Y506730D02*
D03*
X450850Y45720D02*
D03*
D52*
X1216660Y246380D02*
D03*
Y411480D02*
D03*
X1215390Y576580D02*
D03*
X1214120Y746760D02*
D03*
D53*
X1097280Y389890D02*
D03*
X515620Y645160D02*
D03*
M02*
