%TF.GenerationSoftware,Altium Limited,Altium Designer,23.3.1 (30)*%
G04 Layer_Physical_Order=1*
G04 Layer_Color=255*
%FSLAX45Y45*%
%MOMM*%
%TF.SameCoordinates,B78A920C-B21B-4EC0-8B15-6B7EDFA50413*%
%TF.FilePolarity,Positive*%
%TF.FileFunction,Copper,L1,Top,Signal*%
%TF.Part,Single*%
G01*
G75*
%TA.AperFunction,SMDPad,CuDef*%
%ADD10R,5.40000X1.50000*%
%ADD11R,3.59000X2.00000*%
%ADD12R,1.57000X0.50000*%
%ADD13R,0.86000X0.58000*%
%ADD14R,2.65000X1.75000*%
%ADD15R,2.50000X1.52000*%
%ADD16R,1.45000X0.95000*%
%ADD17R,1.40822X1.00650*%
%ADD18R,1.36213X1.05814*%
%ADD19R,1.65000X2.01000*%
%ADD20R,1.39000X1.14000*%
%ADD21R,3.40822X1.55490*%
%ADD22R,0.65000X1.52500*%
%ADD23R,1.60000X3.00000*%
%ADD24R,6.00000X6.00000*%
%TA.AperFunction,Conductor*%
%ADD25C,2.54000*%
%ADD26C,0.76200*%
%ADD27C,5.08000*%
%ADD28C,0.50800*%
%ADD29C,3.81000*%
%ADD30C,0.20320*%
%ADD31R,17.90700X37.71900*%
%TA.AperFunction,ComponentPad*%
%ADD32C,1.57500*%
%ADD33C,1.57480*%
%TA.AperFunction,ViaPad*%
%ADD34C,5.58800*%
%TA.AperFunction,ComponentPad*%
%ADD35O,1.77800X2.28600*%
%ADD36C,1.20000*%
%ADD37O,2.28600X1.77800*%
%ADD38C,1.37160*%
%ADD39C,1.98000*%
%ADD40R,1.98000X1.98000*%
%ADD41C,1.50000*%
%ADD42R,1.50000X1.50000*%
%ADD43R,1.20000X1.20000*%
%TA.AperFunction,ViaPad*%
%ADD44C,1.27000*%
G36*
X14414500Y10033000D02*
Y127000D01*
X127000D01*
Y10049412D01*
X135988Y10058384D01*
X14414500Y10033000D01*
D02*
G37*
%LPC*%
G36*
X6858000Y9614886D02*
X6807200D01*
X6777362Y9610958D01*
X6749557Y9599441D01*
X6725680Y9581120D01*
X6707359Y9557243D01*
X6695842Y9529438D01*
X6691914Y9499600D01*
X6695842Y9469762D01*
X6707359Y9441957D01*
X6725680Y9418080D01*
X6749557Y9399759D01*
X6777362Y9388242D01*
X6807200Y9384314D01*
X6858000D01*
X6887838Y9388242D01*
X6915643Y9399759D01*
X6939520Y9418080D01*
X6957841Y9441957D01*
X6969358Y9469762D01*
X6973286Y9499600D01*
X6969358Y9529438D01*
X6957841Y9557243D01*
X6939520Y9581120D01*
X6915643Y9599441D01*
X6887838Y9610958D01*
X6858000Y9614886D01*
D02*
G37*
G36*
X6311900D02*
X6261100D01*
X6231262Y9610958D01*
X6203457Y9599441D01*
X6179580Y9581120D01*
X6161259Y9557243D01*
X6149742Y9529438D01*
X6145814Y9499600D01*
X6149742Y9469762D01*
X6161259Y9441957D01*
X6179580Y9418080D01*
X6203457Y9399759D01*
X6231262Y9388242D01*
X6261100Y9384314D01*
X6311900D01*
X6341738Y9388242D01*
X6369543Y9399759D01*
X6393420Y9418080D01*
X6411741Y9441957D01*
X6423258Y9469762D01*
X6427186Y9499600D01*
X6423258Y9529438D01*
X6411741Y9557243D01*
X6393420Y9581120D01*
X6369543Y9599441D01*
X6341738Y9610958D01*
X6311900Y9614886D01*
D02*
G37*
G36*
X13993988Y9956800D02*
X13946011D01*
X13898627Y9949295D01*
X13852997Y9934469D01*
X13810249Y9912688D01*
X13771436Y9884488D01*
X13737512Y9850564D01*
X13709312Y9811750D01*
X13687531Y9769003D01*
X13672705Y9723374D01*
X13665199Y9675988D01*
Y9628012D01*
X13672705Y9580626D01*
X13687531Y9534997D01*
X13709312Y9492250D01*
X13737512Y9453436D01*
X13771436Y9419512D01*
X13810249Y9391312D01*
X13852997Y9369531D01*
X13898627Y9354705D01*
X13946011Y9347200D01*
X13993988D01*
X14041374Y9354705D01*
X14087003Y9369531D01*
X14129750Y9391312D01*
X14168564Y9419512D01*
X14202489Y9453436D01*
X14230688Y9492250D01*
X14252469Y9534997D01*
X14267294Y9580626D01*
X14274800Y9628012D01*
Y9675988D01*
X14267294Y9723374D01*
X14252469Y9769003D01*
X14230688Y9811750D01*
X14202489Y9850564D01*
X14168564Y9884488D01*
X14129750Y9912688D01*
X14087003Y9934469D01*
X14041374Y9949295D01*
X13993988Y9956800D01*
D02*
G37*
G36*
X582788D02*
X534812D01*
X487426Y9949295D01*
X441797Y9934469D01*
X399050Y9912688D01*
X360236Y9884488D01*
X326312Y9850564D01*
X298112Y9811750D01*
X276331Y9769003D01*
X261505Y9723374D01*
X254000Y9675988D01*
Y9628012D01*
X261505Y9580626D01*
X276331Y9534997D01*
X298112Y9492250D01*
X326312Y9453436D01*
X360236Y9419512D01*
X399050Y9391312D01*
X441797Y9369531D01*
X487426Y9354705D01*
X534812Y9347200D01*
X582788D01*
X630174Y9354705D01*
X675803Y9369531D01*
X718550Y9391312D01*
X757364Y9419512D01*
X791288Y9453436D01*
X819488Y9492250D01*
X841269Y9534997D01*
X856095Y9580626D01*
X863600Y9628012D01*
Y9675988D01*
X856095Y9723374D01*
X841269Y9769003D01*
X819488Y9811750D01*
X791288Y9850564D01*
X757364Y9884488D01*
X718550Y9912688D01*
X675803Y9934469D01*
X630174Y9949295D01*
X582788Y9956800D01*
D02*
G37*
G36*
X4844783Y9625401D02*
X4793983D01*
X4764145Y9621473D01*
X4736340Y9609955D01*
X4712464Y9591634D01*
X4694143Y9567758D01*
X4682625Y9539953D01*
X4678697Y9510115D01*
X4682625Y9480276D01*
X4694143Y9452471D01*
X4712464Y9428595D01*
X4736340Y9410274D01*
X4764145Y9398757D01*
X4793983Y9394828D01*
X4810056D01*
Y9001700D01*
X4750400D01*
Y8807613D01*
X4738667Y8802753D01*
X4338027Y9203392D01*
Y9402694D01*
X4356327Y9410274D01*
X4380203Y9428595D01*
X4398524Y9452471D01*
X4410041Y9480276D01*
X4413970Y9510115D01*
X4410041Y9539953D01*
X4398524Y9567758D01*
X4380203Y9591634D01*
X4356327Y9609955D01*
X4328522Y9621473D01*
X4298683Y9625401D01*
X4247883D01*
X4218045Y9621473D01*
X4190240Y9609955D01*
X4166364Y9591634D01*
X4148043Y9567758D01*
X4136525Y9539953D01*
X4132597Y9510115D01*
X4136525Y9480276D01*
X4148043Y9452471D01*
X4166364Y9428595D01*
X4190240Y9410274D01*
X4208539Y9402694D01*
Y9176574D01*
X4213468Y9151798D01*
X4227502Y9130794D01*
X4672356Y8685940D01*
Y8444810D01*
X4541289D01*
Y8406409D01*
X3716159D01*
X3691383Y8401481D01*
X3677672Y8392320D01*
X3659310Y8397240D01*
X3631890D01*
X3605404Y8390143D01*
X3581657Y8376433D01*
X3562267Y8357043D01*
X3548557Y8333297D01*
X3541460Y8306810D01*
Y8279390D01*
X3548557Y8252903D01*
X3562267Y8229157D01*
X3581657Y8209767D01*
X3605404Y8196057D01*
X3631890Y8188960D01*
X3659310D01*
X3685797Y8196057D01*
X3709544Y8209767D01*
X3728933Y8229157D01*
X3742643Y8252903D01*
X3749079Y8276921D01*
X4541289D01*
Y8238520D01*
X4932911D01*
Y8444810D01*
X4801844D01*
Y8712758D01*
X4796916Y8737534D01*
X4794133Y8741699D01*
X4800119Y8752900D01*
X4999200D01*
Y8834992D01*
X5011900Y8836664D01*
X5013878Y8829283D01*
X5030255Y8800917D01*
X5053417Y8777755D01*
X5081783Y8761378D01*
X5113422Y8752900D01*
X5146178D01*
X5177817Y8761378D01*
X5206183Y8777755D01*
X5229345Y8800917D01*
X5245722Y8829283D01*
X5250726Y8847957D01*
X5263874D01*
X5268878Y8829283D01*
X5285255Y8800917D01*
X5308417Y8777755D01*
X5336783Y8761378D01*
X5368422Y8752900D01*
X5401178D01*
X5432817Y8761378D01*
X5461183Y8777755D01*
X5484345Y8800917D01*
X5500722Y8829283D01*
X5509200Y8860922D01*
Y8893678D01*
X5500722Y8925317D01*
X5484345Y8953683D01*
X5461183Y8976845D01*
X5432817Y8993222D01*
X5401178Y9001700D01*
X5368422D01*
X5336783Y8993222D01*
X5308417Y8976845D01*
X5285255Y8953683D01*
X5268878Y8925317D01*
X5263874Y8906643D01*
X5250726D01*
X5245722Y8925317D01*
X5229345Y8953683D01*
X5206183Y8976845D01*
X5177817Y8993222D01*
X5146178Y9001700D01*
X5113422D01*
X5081783Y8993222D01*
X5053417Y8976845D01*
X5030255Y8953683D01*
X5013878Y8925317D01*
X5011900Y8917936D01*
X4999200Y8919608D01*
Y9001700D01*
X4939544D01*
Y9445851D01*
X4944624Y9452471D01*
X4956141Y9480276D01*
X4960070Y9510115D01*
X4956141Y9539953D01*
X4944624Y9567758D01*
X4926303Y9591634D01*
X4902427Y9609955D01*
X4874622Y9621473D01*
X4844783Y9625401D01*
D02*
G37*
G36*
X1722386Y8563486D02*
X1697641D01*
X1673739Y8557081D01*
X1652308Y8544709D01*
X1634811Y8527211D01*
X1622438Y8505781D01*
X1616034Y8481879D01*
Y8457133D01*
X1622438Y8433231D01*
X1634811Y8411801D01*
X1652308Y8394303D01*
X1673739Y8381931D01*
X1697641Y8375526D01*
X1722386D01*
X1746289Y8381931D01*
X1767719Y8394303D01*
X1785216Y8411801D01*
X1797589Y8433231D01*
X1803994Y8457133D01*
Y8481879D01*
X1797589Y8505781D01*
X1785216Y8527211D01*
X1767719Y8544709D01*
X1746289Y8557081D01*
X1722386Y8563486D01*
D02*
G37*
G36*
X1708620Y8243037D02*
X914400D01*
X884524Y8240095D01*
X855797Y8231381D01*
X829321Y8217229D01*
X806115Y8198185D01*
X501315Y7893385D01*
X482271Y7870179D01*
X468119Y7843703D01*
X459405Y7814976D01*
X456463Y7785100D01*
Y6438900D01*
X459405Y6409024D01*
X468119Y6380297D01*
X482271Y6353821D01*
X501315Y6330615D01*
X524521Y6311571D01*
X550997Y6297419D01*
X579724Y6288705D01*
X609600Y6285763D01*
X639476Y6288705D01*
X668203Y6297419D01*
X694679Y6311571D01*
X717885Y6330615D01*
X736929Y6353821D01*
X751081Y6380297D01*
X759795Y6409024D01*
X762737Y6438900D01*
Y7721668D01*
X977832Y7936763D01*
X1695860D01*
X1710014Y7935369D01*
X1739889Y7938311D01*
X1768617Y7947026D01*
X1795092Y7961177D01*
X1818298Y7980222D01*
X1837343Y8003428D01*
X1851494Y8029903D01*
X1860209Y8058630D01*
X1863151Y8088506D01*
X1860209Y8118382D01*
X1851494Y8147109D01*
X1837343Y8173585D01*
X1818298Y8196791D01*
X1816904Y8198185D01*
X1793698Y8217229D01*
X1767223Y8231381D01*
X1738495Y8240095D01*
X1708620Y8243037D01*
D02*
G37*
G36*
X13182600Y7542091D02*
Y7480300D01*
X13244391D01*
X13240012Y7496642D01*
X13230107Y7513798D01*
X13216098Y7527807D01*
X13198943Y7537712D01*
X13182600Y7542091D01*
D02*
G37*
G36*
X12216440Y7542840D02*
X12153900D01*
Y7480300D01*
X12216440D01*
Y7542840D01*
D02*
G37*
G36*
X12128500D02*
X12065960D01*
Y7480300D01*
X12128500D01*
Y7542840D01*
D02*
G37*
G36*
X13157201Y7542091D02*
X13140858Y7537712D01*
X13123701Y7527807D01*
X13109692Y7513798D01*
X13099788Y7496642D01*
X13095409Y7480300D01*
X13157201D01*
Y7542091D01*
D02*
G37*
G36*
X13244391Y7454900D02*
X13182600D01*
Y7393109D01*
X13198943Y7397488D01*
X13216098Y7407393D01*
X13230107Y7421402D01*
X13240012Y7438558D01*
X13244391Y7454900D01*
D02*
G37*
G36*
X13157201D02*
X13095409D01*
X13099788Y7438558D01*
X13109692Y7421402D01*
X13123701Y7407393D01*
X13140858Y7397488D01*
X13157201Y7393109D01*
Y7454900D01*
D02*
G37*
G36*
X12216440D02*
X12153900D01*
Y7392360D01*
X12216440D01*
Y7454900D01*
D02*
G37*
G36*
X12128500D02*
X12065960D01*
Y7392360D01*
X12128500D01*
Y7454900D01*
D02*
G37*
G36*
X9187800Y7480300D02*
X8887000D01*
Y7277500D01*
X9187800D01*
Y7480300D01*
D02*
G37*
G36*
Y7104300D02*
X8887000D01*
Y6901500D01*
X9187800D01*
Y7104300D01*
D02*
G37*
G36*
X13181143Y7053000D02*
X13158656D01*
X13136937Y7047180D01*
X13117464Y7035937D01*
X13101562Y7020037D01*
X13090320Y7000563D01*
X13084500Y6978843D01*
Y6956357D01*
X13090320Y6934637D01*
X13101562Y6915163D01*
X13117464Y6899263D01*
X13136937Y6888020D01*
X13158656Y6882200D01*
X13181143D01*
X13202863Y6888020D01*
X13222337Y6899263D01*
X13238237Y6915163D01*
X13249480Y6934637D01*
X13255299Y6956357D01*
Y6978843D01*
X13249480Y7000563D01*
X13238237Y7020037D01*
X13222337Y7035937D01*
X13202863Y7047180D01*
X13181143Y7053000D01*
D02*
G37*
G36*
X12152443D02*
X12129957D01*
X12108237Y7047180D01*
X12088763Y7035937D01*
X12072863Y7020037D01*
X12061620Y7000563D01*
X12055800Y6978843D01*
Y6956357D01*
X12061620Y6934637D01*
X12072863Y6915163D01*
X12088763Y6899263D01*
X12108237Y6888020D01*
X12129957Y6882200D01*
X12152443D01*
X12174163Y6888020D01*
X12193637Y6899263D01*
X12209537Y6915163D01*
X12220780Y6934637D01*
X12226600Y6956357D01*
Y6978843D01*
X12220780Y7000563D01*
X12209537Y7020037D01*
X12193637Y7035937D01*
X12174163Y7047180D01*
X12152443Y7053000D01*
D02*
G37*
G36*
X4773100Y6973038D02*
X4743224Y6970095D01*
X4714497Y6961381D01*
X4688021Y6947229D01*
X4664815Y6928185D01*
X4645931Y6909300D01*
X4492500D01*
Y6708500D01*
X4597113D01*
Y6450200D01*
X4592800D01*
Y6224400D01*
X4648039D01*
X4665622Y6209971D01*
X4692097Y6195819D01*
X4720824Y6187105D01*
X4750700Y6184162D01*
X4780576Y6187105D01*
X4809303Y6195819D01*
X4835778Y6209971D01*
X4853361Y6224400D01*
X4908600D01*
Y6450200D01*
X4903387D01*
Y6666763D01*
X5220768D01*
X5251115Y6636415D01*
X5274321Y6617371D01*
X5300797Y6603219D01*
X5329524Y6594505D01*
X5359400Y6591563D01*
X5389276Y6594505D01*
X5418003Y6603219D01*
X5444478Y6617371D01*
X5467685Y6636415D01*
X5486729Y6659622D01*
X5500881Y6686097D01*
X5509595Y6714824D01*
X5512537Y6744700D01*
X5509595Y6774576D01*
X5500881Y6803303D01*
X5486729Y6829779D01*
X5467685Y6852985D01*
X5392485Y6928185D01*
X5369279Y6947229D01*
X5342803Y6961381D01*
X5314076Y6970095D01*
X5284200Y6973037D01*
X4773102D01*
X4773100Y6973038D01*
D02*
G37*
G36*
X10217400Y6906400D02*
X10006600D01*
Y6555600D01*
X10217400D01*
Y6906400D01*
D02*
G37*
G36*
X2895600Y8573364D02*
X2851757Y8569913D01*
X2808994Y8559647D01*
X2768363Y8542817D01*
X2730865Y8519838D01*
X2697424Y8491276D01*
X2668862Y8457835D01*
X2645883Y8420337D01*
X2629053Y8379706D01*
X2618787Y8336943D01*
X2615336Y8293100D01*
Y7899137D01*
X2240882Y7524682D01*
X2212320Y7491241D01*
X2205213Y7479643D01*
X1710014D01*
X1680138Y7476701D01*
X1651410Y7467987D01*
X1624935Y7453835D01*
X1601729Y7434791D01*
X1582684Y7411585D01*
X1568533Y7385109D01*
X1559819Y7356382D01*
X1556876Y7326506D01*
X1559819Y7296630D01*
X1568533Y7267903D01*
X1582684Y7241427D01*
X1601729Y7218222D01*
X1624935Y7199177D01*
X1651410Y7185026D01*
X1680138Y7176311D01*
X1710014Y7173369D01*
X2205213D01*
X2212320Y7161771D01*
X2240882Y7128330D01*
X2605425Y6763786D01*
Y6312876D01*
X2608876Y6269033D01*
X2619142Y6226269D01*
X2635972Y6185639D01*
X2658951Y6148141D01*
X2687513Y6114699D01*
X2720954Y6086138D01*
X2758452Y6063159D01*
X2799083Y6046329D01*
X2841846Y6036063D01*
X2885689Y6032612D01*
X2929532Y6036063D01*
X2972296Y6046329D01*
X3012926Y6063159D01*
X3050424Y6086138D01*
X3083866Y6114699D01*
X3112427Y6148141D01*
X3135406Y6185639D01*
X3152236Y6226269D01*
X3162502Y6269033D01*
X3165953Y6312876D01*
Y6879875D01*
X3162503Y6923718D01*
X3152236Y6966482D01*
X3135406Y7007112D01*
X3112427Y7044610D01*
X3083866Y7078052D01*
X2835411Y7326506D01*
X3011689Y7502784D01*
X4432382D01*
Y7413755D01*
X4435832Y7369912D01*
X4446099Y7327148D01*
X4462928Y7286517D01*
X4485907Y7249020D01*
X4492500Y7241300D01*
Y7238500D01*
X4494892D01*
X4514469Y7215578D01*
X4551623Y7178424D01*
X4585065Y7149862D01*
X4622563Y7126883D01*
X4663194Y7110053D01*
X4705957Y7099787D01*
X4749800Y7096336D01*
X4793643Y7099787D01*
X4836406Y7110053D01*
X4877037Y7126883D01*
X4914535Y7149862D01*
X4926002Y7159655D01*
X5947401D01*
X5949285Y7146955D01*
X5940797Y7144380D01*
X5914321Y7130229D01*
X5891115Y7111184D01*
X5885465Y7104300D01*
X5849000D01*
Y7030692D01*
X5846263Y7002900D01*
Y6626900D01*
X5849000Y6599108D01*
Y6525500D01*
X5885465D01*
X5891115Y6518615D01*
X5909975Y6503137D01*
X5905431Y6490437D01*
X5303676D01*
X5297681Y6510203D01*
X5283529Y6536679D01*
X5264485Y6559885D01*
X5241279Y6578929D01*
X5214803Y6593081D01*
X5186076Y6601795D01*
X5156200Y6604737D01*
X5126324Y6601795D01*
X5097597Y6593081D01*
X5071121Y6578929D01*
X5047915Y6559885D01*
X5028871Y6536679D01*
X5014719Y6510203D01*
X5006005Y6481476D01*
X5003063Y6451600D01*
Y6361800D01*
X5006005Y6331924D01*
X5014719Y6303197D01*
X5022800Y6288079D01*
Y6224400D01*
X5078039D01*
X5095622Y6209971D01*
X5122097Y6195819D01*
X5150824Y6187105D01*
X5180700Y6184163D01*
X5849000D01*
Y6149500D01*
X5884231D01*
X5891115Y6142615D01*
X5914322Y6123571D01*
X5940797Y6109419D01*
X5969524Y6100705D01*
X5999400Y6097763D01*
X6029276Y6100705D01*
X6058003Y6109419D01*
X6084478Y6123571D01*
X6107685Y6142615D01*
X6113334Y6149500D01*
X6149800D01*
Y6223105D01*
X6152537Y6250900D01*
X6149800Y6278694D01*
Y6352300D01*
X6113334D01*
X6107685Y6359184D01*
X6021284Y6445585D01*
X6002167Y6461274D01*
X6006158Y6474428D01*
X6029276Y6476705D01*
X6058003Y6485419D01*
X6084479Y6499571D01*
X6107685Y6518615D01*
X6113335Y6525500D01*
X6149800D01*
Y6599108D01*
X6152537Y6626900D01*
Y7002900D01*
X6149800Y7030692D01*
Y7104300D01*
X6113335D01*
X6107685Y7111184D01*
X6084479Y7130229D01*
X6058003Y7144380D01*
X6036821Y7150806D01*
X6038090Y7163693D01*
X6039424Y7163824D01*
X6080121Y7176169D01*
X6117628Y7196217D01*
X6150503Y7223197D01*
X6177483Y7256072D01*
X6197531Y7293579D01*
X6209876Y7334276D01*
X6214045Y7376600D01*
X6209876Y7418924D01*
X6197531Y7459621D01*
X6177483Y7497128D01*
X6150503Y7530003D01*
X6117628Y7556983D01*
X6080121Y7577031D01*
X6039424Y7589376D01*
X5997100Y7593545D01*
X4992909D01*
Y7651945D01*
X5397449Y8056485D01*
X5418003Y8062719D01*
X5444479Y8076871D01*
X5467685Y8095915D01*
X5486729Y8119121D01*
X5500881Y8145597D01*
X5509595Y8174324D01*
X5512537Y8204200D01*
Y8394700D01*
X5509595Y8424576D01*
X5500881Y8453303D01*
X5486729Y8479779D01*
X5467685Y8502985D01*
X5444479Y8522029D01*
X5418003Y8536181D01*
X5389276Y8544895D01*
X5359400Y8547837D01*
X5329524Y8544895D01*
X5300797Y8536181D01*
X5274321Y8522029D01*
X5251115Y8502985D01*
X5232071Y8479779D01*
X5217919Y8453303D01*
X5209205Y8424576D01*
X5206263Y8394700D01*
Y8298436D01*
X4910345Y8002518D01*
X4901835Y8009786D01*
X4864337Y8032764D01*
X4823706Y8049595D01*
X4780943Y8059861D01*
X4737100Y8063312D01*
X3175864D01*
Y8293100D01*
X3172413Y8336943D01*
X3162147Y8379706D01*
X3145317Y8420337D01*
X3122338Y8457835D01*
X3093776Y8491276D01*
X3060335Y8519838D01*
X3022837Y8542817D01*
X2982206Y8559647D01*
X2939443Y8569913D01*
X2895600Y8573364D01*
D02*
G37*
G36*
X9757400Y6906400D02*
X9546600D01*
Y6861137D01*
X9118500D01*
X9088624Y6858195D01*
X9059897Y6849481D01*
X9033422Y6835329D01*
X9010216Y6816285D01*
X8929115Y6735184D01*
X8923466Y6728300D01*
X8887000D01*
Y6654694D01*
X8884263Y6626900D01*
X8887000Y6599105D01*
Y6525500D01*
X8923466D01*
X8929115Y6518615D01*
X8952322Y6499571D01*
X8978797Y6485419D01*
X9007524Y6476705D01*
X9037400Y6473763D01*
X9067276Y6476705D01*
X9096003Y6485419D01*
X9122478Y6499571D01*
X9145685Y6518615D01*
X9152569Y6525500D01*
X9187800D01*
Y6554863D01*
X9629000D01*
X9636487Y6555600D01*
X9757400D01*
Y6619831D01*
X9760284Y6622715D01*
X9779329Y6645921D01*
X9793481Y6672397D01*
X9802195Y6701124D01*
X9805137Y6731000D01*
X9802195Y6760876D01*
X9793481Y6789603D01*
X9779329Y6816078D01*
X9760284Y6839284D01*
X9757400Y6841652D01*
Y6906400D01*
D02*
G37*
G36*
X3637536Y6417194D02*
X3610115D01*
X3583629Y6410097D01*
X3559882Y6396387D01*
X3540493Y6376998D01*
X3526783Y6353251D01*
X3519686Y6326765D01*
Y6299344D01*
X3526783Y6272858D01*
X3540493Y6249111D01*
X3559882Y6229721D01*
X3583629Y6216011D01*
X3610115Y6208914D01*
X3637536D01*
X3664022Y6216011D01*
X3687769Y6229721D01*
X3707159Y6249111D01*
X3720869Y6272858D01*
X3727966Y6299344D01*
Y6326765D01*
X3720869Y6353251D01*
X3707159Y6376998D01*
X3687769Y6396387D01*
X3664022Y6410097D01*
X3637536Y6417194D01*
D02*
G37*
G36*
X9187800Y6352300D02*
X8887000D01*
Y6149500D01*
X9187800D01*
Y6352300D01*
D02*
G37*
G36*
X12229140Y5841040D02*
X12166600D01*
Y5778500D01*
X12229140D01*
Y5841040D01*
D02*
G37*
G36*
X12141200D02*
X12078660D01*
Y5778500D01*
X12141200D01*
Y5841040D01*
D02*
G37*
G36*
X9187800Y5976300D02*
X8887000D01*
Y5773500D01*
X9187800D01*
Y5976300D01*
D02*
G37*
G36*
X6149800D02*
X5849000D01*
Y5773500D01*
X6149800D01*
Y5976300D01*
D02*
G37*
G36*
X13169901Y5827591D02*
X13153558Y5823212D01*
X13136401Y5813307D01*
X13122392Y5799298D01*
X13112488Y5782142D01*
X13108109Y5765800D01*
X13169901D01*
Y5827591D01*
D02*
G37*
G36*
X1710014Y7860643D02*
X1344806D01*
X1314930Y7857701D01*
X1286203Y7848987D01*
X1259727Y7834835D01*
X1236522Y7815791D01*
X1047415Y7626685D01*
X1028371Y7603479D01*
X1014219Y7577003D01*
X1005505Y7548276D01*
X1002563Y7518400D01*
Y6121332D01*
X927168Y6045937D01*
X609600D01*
X579724Y6042995D01*
X550997Y6034281D01*
X524521Y6020129D01*
X501315Y6001085D01*
X482271Y5977879D01*
X468119Y5951403D01*
X459405Y5922676D01*
X456463Y5892800D01*
X459405Y5862924D01*
X468119Y5834197D01*
X482271Y5807721D01*
X501315Y5784515D01*
X524521Y5765471D01*
X550997Y5751319D01*
X579724Y5742605D01*
X609600Y5739663D01*
X990600D01*
X1020476Y5742605D01*
X1049203Y5751319D01*
X1075679Y5765471D01*
X1098885Y5784515D01*
X1263985Y5949615D01*
X1283029Y5972821D01*
X1297181Y5999297D01*
X1305895Y6028024D01*
X1308837Y6057900D01*
Y7454968D01*
X1408238Y7554369D01*
X1710014D01*
X1739889Y7557311D01*
X1768617Y7566026D01*
X1795092Y7580177D01*
X1818298Y7599222D01*
X1837343Y7622427D01*
X1851494Y7648903D01*
X1860208Y7677630D01*
X1863151Y7707506D01*
X1860208Y7737382D01*
X1851494Y7766109D01*
X1837343Y7792585D01*
X1818298Y7815791D01*
X1795092Y7834835D01*
X1768617Y7848987D01*
X1739889Y7857701D01*
X1710014Y7860643D01*
D02*
G37*
G36*
X12229140Y5753100D02*
X12166600D01*
Y5690560D01*
X12229140D01*
Y5753100D01*
D02*
G37*
G36*
X12141200D02*
X12078660D01*
Y5690560D01*
X12141200D01*
Y5753100D01*
D02*
G37*
G36*
X6149800Y5600300D02*
X5849000D01*
Y5397500D01*
X6149800D01*
Y5600300D01*
D02*
G37*
G36*
X13195300Y5827591D02*
Y5753100D01*
X13182600D01*
Y5740400D01*
X13108109D01*
X13112488Y5724058D01*
X13122392Y5706902D01*
X13136401Y5692893D01*
X13153558Y5682988D01*
X13163930Y5680209D01*
X13562357Y5281782D01*
Y5248546D01*
X13543753D01*
Y5193099D01*
X13627100D01*
X13710448D01*
Y5248546D01*
X13691844D01*
Y5308600D01*
X13686916Y5333376D01*
X13672881Y5354381D01*
X13255492Y5771771D01*
X13252711Y5782142D01*
X13242807Y5799298D01*
X13228798Y5813307D01*
X13211642Y5823212D01*
X13195300Y5827591D01*
D02*
G37*
G36*
X12165143Y5351200D02*
X12142657D01*
X12120937Y5345380D01*
X12101463Y5334137D01*
X12085563Y5318237D01*
X12074320Y5298763D01*
X12068500Y5277043D01*
Y5254557D01*
X12074320Y5232837D01*
X12085563Y5213363D01*
X12101463Y5197463D01*
X12120937Y5186220D01*
X12142657Y5180400D01*
X12165143D01*
X12186863Y5186220D01*
X12206337Y5197463D01*
X12222237Y5213363D01*
X12233480Y5232837D01*
X12239300Y5254557D01*
Y5277043D01*
X12233480Y5298763D01*
X12222237Y5318237D01*
X12206337Y5334137D01*
X12186863Y5345380D01*
X12165143Y5351200D01*
D02*
G37*
G36*
X13193843Y5338500D02*
X13171358D01*
X13149637Y5332680D01*
X13130164Y5321437D01*
X13114262Y5305537D01*
X13103020Y5286063D01*
X13097200Y5264343D01*
Y5241857D01*
X13103020Y5220137D01*
X13114262Y5200663D01*
X13130164Y5184763D01*
X13149637Y5173520D01*
X13171358Y5167700D01*
X13193843D01*
X13215562Y5173520D01*
X13235037Y5184763D01*
X13250937Y5200663D01*
X13262180Y5220137D01*
X13267999Y5241857D01*
Y5264343D01*
X13262180Y5286063D01*
X13250937Y5305537D01*
X13235037Y5321437D01*
X13215562Y5332680D01*
X13193843Y5338500D01*
D02*
G37*
G36*
X13710448Y5167699D02*
X13639799D01*
Y5112252D01*
X13710448D01*
Y5167699D01*
D02*
G37*
G36*
X13614400D02*
X13543753D01*
Y5112252D01*
X13614400D01*
Y5167699D01*
D02*
G37*
G36*
X10207400Y6406400D02*
X9556600D01*
Y5755600D01*
X9728863D01*
Y5270300D01*
X9731805Y5240424D01*
X9740520Y5211697D01*
X9754671Y5185221D01*
X9773716Y5162015D01*
X9804315Y5131415D01*
X9804700Y5131100D01*
X9804700Y5113801D01*
X9804699D01*
Y5111599D01*
X9804700D01*
Y4946800D01*
X9994500D01*
Y5039783D01*
X10184944D01*
Y4995685D01*
X10107693Y4918434D01*
X10099833Y4906671D01*
X10097073Y4892796D01*
X10097073Y4892795D01*
Y4848911D01*
X10085865Y4845108D01*
X10082361Y4844411D01*
X9949889D01*
Y4692961D01*
X10141511D01*
Y4774401D01*
X10152405Y4783862D01*
X10160236Y4783213D01*
X10165789Y4779503D01*
Y4692961D01*
X10357411D01*
Y4844411D01*
X10224939D01*
X10221435Y4845108D01*
X10210227Y4848911D01*
Y4860944D01*
X10287478Y4938196D01*
X10295337Y4949958D01*
X10298098Y4963833D01*
X10298097Y4963834D01*
Y5080971D01*
X10295337Y5094846D01*
X10293556Y5097511D01*
X10373160Y5177115D01*
X10385860Y5171855D01*
Y5085400D01*
X10483600D01*
X10581340D01*
Y5188100D01*
X10581340Y5188440D01*
X10582161Y5200800D01*
X10591500D01*
Y5365600D01*
X10401700D01*
Y5272617D01*
X10381131D01*
X10381130Y5272617D01*
X10367255Y5269857D01*
X10355492Y5261997D01*
X10226570Y5133075D01*
X10218711Y5121312D01*
X10216627Y5110839D01*
X10209297Y5112297D01*
X10209296Y5112297D01*
X10032577D01*
X10020500Y5113800D01*
Y5131100D01*
X10020884Y5131415D01*
X10039929Y5154622D01*
X10054080Y5181097D01*
X10062795Y5209824D01*
X10065737Y5239700D01*
X10062795Y5269576D01*
X10054080Y5298303D01*
X10039929Y5324778D01*
X10035137Y5330617D01*
Y5755600D01*
X10207400D01*
Y6406400D01*
D02*
G37*
G36*
X14185899Y5131786D02*
X14156062Y5127858D01*
X14128258Y5116341D01*
X14104379Y5098020D01*
X14086060Y5074143D01*
X14081358Y5062794D01*
X13720607D01*
Y5083308D01*
X13533594D01*
Y4926694D01*
X13562357D01*
Y4641211D01*
X13531290D01*
Y4489761D01*
X13722911D01*
Y4641211D01*
X13691844D01*
Y4926694D01*
X13720607D01*
Y4933306D01*
X14075601D01*
X14086060Y4908057D01*
X14104379Y4884180D01*
X14128258Y4865859D01*
X14156062Y4854342D01*
X14185899Y4850414D01*
X14215738Y4854342D01*
X14243542Y4865859D01*
X14267419Y4884180D01*
X14285741Y4908057D01*
X14297258Y4935862D01*
X14301186Y4965700D01*
Y5016500D01*
X14297258Y5046338D01*
X14285741Y5074143D01*
X14267419Y5098020D01*
X14243542Y5116341D01*
X14215738Y5127858D01*
X14185899Y5131786D01*
D02*
G37*
G36*
X4521718Y5167600D02*
X4495282D01*
X4469747Y5160758D01*
X4446853Y5147540D01*
X4428160Y5128847D01*
X4414942Y5105953D01*
X4408100Y5080418D01*
Y5053982D01*
X4414942Y5028447D01*
X4428160Y5005553D01*
X4446853Y4986860D01*
X4469747Y4973642D01*
X4495282Y4966800D01*
X4521718D01*
X4547253Y4973642D01*
X4570147Y4986860D01*
X4588840Y5005553D01*
X4602058Y5028447D01*
X4608900Y5053982D01*
Y5080418D01*
X4602058Y5105953D01*
X4588840Y5128847D01*
X4570147Y5147540D01*
X4547253Y5160758D01*
X4521718Y5167600D01*
D02*
G37*
G36*
X10581340Y5060000D02*
X10496300D01*
Y4956960D01*
X10581340D01*
Y5060000D01*
D02*
G37*
G36*
X10470900D02*
X10385860D01*
Y4956960D01*
X10470900D01*
Y5060000D01*
D02*
G37*
G36*
X594800Y4792903D02*
Y4711700D01*
X676002D01*
X669684Y4735279D01*
X657311Y4756711D01*
X639811Y4774211D01*
X618379Y4786585D01*
X594800Y4792903D01*
D02*
G37*
G36*
X569400D02*
X545821Y4786585D01*
X524389Y4774211D01*
X506889Y4756711D01*
X494515Y4735279D01*
X488197Y4711700D01*
X569400D01*
Y4792903D01*
D02*
G37*
G36*
X676002Y4686300D02*
X594800D01*
Y4605097D01*
X618379Y4611415D01*
X639811Y4623789D01*
X657311Y4641289D01*
X669684Y4662721D01*
X676002Y4686300D01*
D02*
G37*
G36*
X569400D02*
X488197D01*
X494515Y4662721D01*
X506889Y4641289D01*
X524389Y4623789D01*
X545821Y4611415D01*
X569400Y4605097D01*
Y4686300D01*
D02*
G37*
G36*
X14185899Y4585686D02*
X14156062Y4581758D01*
X14128258Y4570241D01*
X14104379Y4551920D01*
X14086060Y4528043D01*
X14074542Y4500238D01*
X14070615Y4470400D01*
Y4419600D01*
X14074542Y4389762D01*
X14086060Y4361957D01*
X14104379Y4338080D01*
X14128258Y4319759D01*
X14156062Y4308242D01*
X14185899Y4304314D01*
X14215738Y4308242D01*
X14243542Y4319759D01*
X14267419Y4338080D01*
X14285741Y4361957D01*
X14297258Y4389762D01*
X14301186Y4419600D01*
Y4470400D01*
X14297258Y4500238D01*
X14285741Y4528043D01*
X14267419Y4551920D01*
X14243542Y4570241D01*
X14215738Y4581758D01*
X14185899Y4585686D01*
D02*
G37*
G36*
X12241840Y4190040D02*
X12179300D01*
Y4127500D01*
X12241840D01*
Y4190040D01*
D02*
G37*
G36*
X12153900D02*
X12091360D01*
Y4127500D01*
X12153900D01*
Y4190040D01*
D02*
G37*
G36*
X13195300Y4151191D02*
Y4089400D01*
X13257091D01*
X13252711Y4105742D01*
X13242807Y4122898D01*
X13228798Y4136907D01*
X13211642Y4146812D01*
X13195300Y4151191D01*
D02*
G37*
G36*
X13169901D02*
X13153558Y4146812D01*
X13136401Y4136907D01*
X13122392Y4122898D01*
X13112488Y4105742D01*
X13108109Y4089400D01*
X13169901D01*
Y4151191D01*
D02*
G37*
G36*
X12241840Y4102100D02*
X12179300D01*
Y4039560D01*
X12241840D01*
Y4102100D01*
D02*
G37*
G36*
X12153900D02*
X12091360D01*
Y4039560D01*
X12153900D01*
Y4102100D01*
D02*
G37*
G36*
X13257091Y4064000D02*
X13195300D01*
Y4002209D01*
X13211642Y4006588D01*
X13228798Y4016493D01*
X13242807Y4030502D01*
X13252711Y4047658D01*
X13257091Y4064000D01*
D02*
G37*
G36*
X13169901D02*
X13108109D01*
X13112488Y4047658D01*
X13122392Y4030502D01*
X13136401Y4016493D01*
X13153558Y4006588D01*
X13169901Y4002209D01*
Y4064000D01*
D02*
G37*
G36*
X13722911Y4451039D02*
X13531290D01*
Y4299589D01*
X13550131D01*
Y4002393D01*
X13206458Y3658720D01*
X13193843Y3662100D01*
X13171358D01*
X13149637Y3656280D01*
X13130164Y3645037D01*
X13114262Y3629137D01*
X13103020Y3609663D01*
X13097200Y3587943D01*
Y3565457D01*
X13103020Y3543737D01*
X13114262Y3524263D01*
X13130164Y3508363D01*
X13149637Y3497120D01*
X13171358Y3491300D01*
X13193843D01*
X13215562Y3497120D01*
X13235037Y3508363D01*
X13250937Y3524263D01*
X13252995Y3527830D01*
X13270161Y3539300D01*
X13660657Y3929794D01*
X13674690Y3950798D01*
X13679619Y3975575D01*
Y4299589D01*
X13722911D01*
Y4451039D01*
D02*
G37*
G36*
X9037400Y5652037D02*
X9007524Y5649095D01*
X8978797Y5640380D01*
X8952321Y5626229D01*
X8929115Y5607184D01*
X8923465Y5600300D01*
X8887000D01*
Y5526692D01*
X8884263Y5498900D01*
Y4162600D01*
X8887205Y4132724D01*
X8895919Y4103997D01*
X8910071Y4077521D01*
X8929115Y4054315D01*
X9035715Y3947715D01*
X9058921Y3928671D01*
X9085397Y3914519D01*
X9114124Y3905805D01*
X9144000Y3902863D01*
X9625668D01*
X9848515Y3680015D01*
X9871721Y3660971D01*
X9898197Y3646819D01*
X9926924Y3638105D01*
X9956800Y3635162D01*
X9986676Y3638105D01*
X10015403Y3646819D01*
X10041878Y3660971D01*
X10065085Y3680015D01*
X10070529Y3686650D01*
X10141700D01*
Y3686649D01*
X10152900D01*
Y3686650D01*
X10181586D01*
X10186447Y3674916D01*
X10132274Y3620744D01*
X9200030D01*
X9196437Y3624337D01*
X9176963Y3635580D01*
X9155243Y3641400D01*
X9132757D01*
X9111037Y3635580D01*
X9091563Y3624337D01*
X9087970Y3620744D01*
X5829798D01*
Y4699000D01*
X5827826Y4708911D01*
X5822212Y4717312D01*
X5813811Y4722926D01*
X5803900Y4724898D01*
X5347944D01*
Y4966900D01*
X5383600D01*
Y5167700D01*
X5182800D01*
Y4966900D01*
X5218456D01*
Y4724898D01*
X4013200D01*
X4003289Y4722926D01*
X3994888Y4717312D01*
X3989274Y4708911D01*
X3987302Y4699000D01*
Y4319898D01*
X3783946D01*
X3759170Y4314970D01*
X3747166Y4306949D01*
X3621411D01*
X3614396Y4305554D01*
X3517511D01*
Y4230554D01*
X3357755D01*
Y4238089D01*
X3352827Y4262865D01*
X3338792Y4283870D01*
X2936250Y4686412D01*
Y4712712D01*
X2929152Y4739200D01*
X2915441Y4762950D01*
X2896050Y4782341D01*
X2872300Y4796052D01*
X2845812Y4803150D01*
X2818388D01*
X2791900Y4796052D01*
X2768150Y4782341D01*
X2748759Y4762950D01*
X2735048Y4739200D01*
X2727950Y4712712D01*
Y4685288D01*
X2735048Y4658800D01*
X2748759Y4635050D01*
X2768150Y4615659D01*
X2791900Y4601948D01*
X2818388Y4594850D01*
X2844688D01*
X3228267Y4211271D01*
Y4167054D01*
X3229511Y4160800D01*
Y4049509D01*
X3228267Y4043254D01*
Y4031029D01*
X2857388Y3660150D01*
X2831088D01*
X2804600Y3653052D01*
X2780850Y3639341D01*
X2761459Y3619950D01*
X2747748Y3596200D01*
X2740650Y3569712D01*
Y3542288D01*
X2747748Y3515800D01*
X2754621Y3503894D01*
X2747289Y3491194D01*
X1849224D01*
X1738637Y3601781D01*
X1717632Y3615816D01*
X1692856Y3620744D01*
X662978D01*
X652511Y3631211D01*
X631079Y3643585D01*
X607500Y3649903D01*
Y3556000D01*
Y3462097D01*
X631079Y3468415D01*
X652511Y3480789D01*
X662978Y3491256D01*
X1666038D01*
X1776625Y3380669D01*
X1797629Y3366634D01*
X1822406Y3361706D01*
X3121650D01*
X3146426Y3366634D01*
X3167431Y3380669D01*
X3665281Y3878519D01*
X3679316Y3899524D01*
X3682377Y3914914D01*
X3715151D01*
Y3942454D01*
X3621411D01*
X3527671D01*
Y3924033D01*
X3094832Y3491194D01*
X2942311D01*
X2934979Y3503894D01*
X2941852Y3515800D01*
X2948950Y3542288D01*
Y3568588D01*
X3338792Y3958430D01*
X3352827Y3979434D01*
X3352890Y3979754D01*
X3527671D01*
Y3967854D01*
X3621411D01*
X3715151D01*
Y3995394D01*
X3639311D01*
Y4040410D01*
X3652711D01*
X3677487Y4045338D01*
X3685593Y4050754D01*
X3725311D01*
Y4159554D01*
X3685593D01*
X3677487Y4164970D01*
X3652711Y4169898D01*
X3639311D01*
Y4203359D01*
X3747166D01*
X3759170Y4195338D01*
X3783946Y4190410D01*
X3987302D01*
Y2058395D01*
X3593000D01*
X3573919Y2054600D01*
X3486700D01*
Y1979600D01*
X3326944D01*
Y2010400D01*
X3322016Y2035177D01*
X3307981Y2056181D01*
X2951050Y2413112D01*
Y2439412D01*
X2943952Y2465900D01*
X2930241Y2489650D01*
X2910850Y2509041D01*
X2887100Y2522752D01*
X2860612Y2529850D01*
X2833188D01*
X2806700Y2522752D01*
X2782950Y2509041D01*
X2763559Y2489650D01*
X2749848Y2465900D01*
X2742750Y2439412D01*
Y2411988D01*
X2749848Y2385500D01*
X2763559Y2361750D01*
X2782950Y2342359D01*
X2806700Y2328648D01*
X2833188Y2321550D01*
X2859488D01*
X3197456Y1983582D01*
Y1916100D01*
X3198700Y1909846D01*
Y1798554D01*
X3197456Y1792300D01*
Y1790418D01*
X2870088Y1463050D01*
X2843788D01*
X2817300Y1455952D01*
X2793550Y1442241D01*
X2774159Y1422850D01*
X2760448Y1399100D01*
X2753350Y1372612D01*
Y1345188D01*
X2760448Y1318700D01*
X2767321Y1306794D01*
X2759989Y1294094D01*
X1861924D01*
X1751337Y1404681D01*
X1730332Y1418716D01*
X1705556Y1423644D01*
X675678D01*
X665211Y1434111D01*
X643779Y1446485D01*
X620200Y1452803D01*
Y1358900D01*
Y1264997D01*
X643779Y1271315D01*
X665211Y1283689D01*
X675678Y1294156D01*
X1678738D01*
X1789325Y1183569D01*
X1810329Y1169534D01*
X1835106Y1164606D01*
X3134350D01*
X3159126Y1169534D01*
X3180131Y1183569D01*
X3627181Y1630619D01*
X3641216Y1651623D01*
X3643670Y1663960D01*
X3684340D01*
Y1691500D01*
X3590600D01*
X3496860D01*
Y1683422D01*
X3107532Y1294094D01*
X2955011D01*
X2947679Y1306794D01*
X2954552Y1318700D01*
X2961650Y1345188D01*
Y1371488D01*
X3307981Y1717819D01*
X3315318Y1728800D01*
X3496860D01*
Y1716900D01*
X3590600D01*
X3684340D01*
Y1744440D01*
X3608500D01*
Y1789456D01*
X3626100D01*
X3650876Y1794384D01*
X3658982Y1799800D01*
X3694500D01*
Y1908600D01*
X3658982D01*
X3650876Y1914016D01*
X3626100Y1918944D01*
X3608500D01*
Y1953800D01*
X3694500D01*
Y1954805D01*
X3987302D01*
Y927100D01*
X3989274Y917189D01*
X3994888Y908788D01*
X4003289Y903174D01*
X4013200Y901202D01*
X4443756D01*
Y557600D01*
X4408100D01*
Y356800D01*
X4608900D01*
Y557600D01*
X4573244D01*
Y901202D01*
X5803900D01*
X5813811Y903174D01*
X5822212Y908788D01*
X5827826Y917189D01*
X5829798Y927100D01*
Y3491256D01*
X9079256D01*
Y3049789D01*
X9060957Y3042209D01*
X9037080Y3023888D01*
X9018759Y3000011D01*
X9007242Y2972207D01*
X9003314Y2942368D01*
X9007242Y2912530D01*
X9018759Y2884725D01*
X9037080Y2860848D01*
X9060957Y2842527D01*
X9088762Y2831010D01*
X9118600Y2827082D01*
X9169400D01*
X9199238Y2831010D01*
X9227043Y2842527D01*
X9250920Y2860848D01*
X9269241Y2884725D01*
X9280758Y2912530D01*
X9284686Y2942368D01*
X9280758Y2972207D01*
X9269241Y3000011D01*
X9250920Y3023888D01*
X9227043Y3042209D01*
X9208744Y3049789D01*
Y3491256D01*
X10159092D01*
X10183869Y3496184D01*
X10204873Y3510219D01*
X10339881Y3645227D01*
X10353916Y3666231D01*
X10357410Y3683798D01*
X10360262Y3686650D01*
X10395700D01*
Y3728106D01*
X10397616Y3730973D01*
X10402544Y3755750D01*
Y3820850D01*
X10397616Y3845626D01*
X10395700Y3848493D01*
Y3889950D01*
X10281400D01*
X10279900Y3889950D01*
Y3889950D01*
X10268700D01*
Y3889950D01*
X10152900D01*
Y3889950D01*
X10141700D01*
Y3889950D01*
X10070529D01*
X10065085Y3896584D01*
X9845019Y4116650D01*
X9957419Y4229050D01*
X10013200D01*
X10014700Y4229050D01*
X10025900D01*
X10027400Y4229050D01*
X10141700D01*
Y4229049D01*
X10152900D01*
Y4229050D01*
X10267200D01*
X10268700Y4229050D01*
X10279900D01*
X10281400Y4229050D01*
X10395700D01*
Y4294443D01*
X10414919D01*
X10414920Y4294443D01*
X10428795Y4297203D01*
X10440557Y4305063D01*
X10451598Y4316103D01*
X10516359D01*
X10516360Y4316103D01*
X10519863Y4316800D01*
X10560038D01*
X10898336Y3978502D01*
Y3947725D01*
X10889958Y3933214D01*
X10883900Y3910604D01*
Y3887196D01*
X10889958Y3864586D01*
X10901662Y3844314D01*
X10918214Y3827762D01*
X10938486Y3816058D01*
X10961096Y3810000D01*
X10984504D01*
X11007114Y3816058D01*
X11027386Y3827762D01*
X11043938Y3844314D01*
X11055642Y3864586D01*
X11061700Y3887196D01*
Y3910604D01*
X11055642Y3933214D01*
X11043938Y3953486D01*
X11027824Y3969599D01*
Y4005320D01*
X11022896Y4030096D01*
X11008861Y4051101D01*
X10651600Y4408362D01*
Y4462600D01*
X10455800D01*
Y4388617D01*
X10436580D01*
X10422705Y4385857D01*
X10410943Y4377998D01*
X10410942Y4377997D01*
X10408400Y4375455D01*
X10395700Y4380716D01*
Y4432350D01*
X10281400D01*
X10279900Y4432350D01*
X10268700D01*
X10267200Y4432350D01*
X10217963D01*
X10209906Y4442167D01*
X10210227Y4443780D01*
Y4498289D01*
X10221435Y4502092D01*
X10224939Y4502789D01*
X10357411D01*
Y4548443D01*
X10455800D01*
Y4511800D01*
X10651600D01*
Y4657600D01*
X10455800D01*
Y4620957D01*
X10357411D01*
Y4654239D01*
X10165789D01*
Y4567697D01*
X10160236Y4563987D01*
X10152405Y4563338D01*
X10141511Y4572799D01*
Y4654239D01*
X9949889D01*
Y4608257D01*
X9838800D01*
Y4644900D01*
X9643000D01*
Y4499100D01*
X9799722D01*
X9801605Y4486400D01*
X9796597Y4484881D01*
X9770122Y4470729D01*
X9746915Y4451685D01*
X9745131Y4449900D01*
X9643000D01*
Y4347769D01*
X9580815Y4285584D01*
X9561771Y4262378D01*
X9547619Y4235903D01*
X9539500Y4209137D01*
X9207432D01*
X9190537Y4226032D01*
Y5498900D01*
X9187800Y5526692D01*
Y5600300D01*
X9151335D01*
X9145685Y5607184D01*
X9122479Y5626229D01*
X9096003Y5640380D01*
X9067276Y5649095D01*
X9037400Y5652037D01*
D02*
G37*
G36*
X582100Y3649903D02*
X558521Y3643585D01*
X537089Y3631211D01*
X519589Y3613711D01*
X507215Y3592279D01*
X500897Y3568700D01*
X582100D01*
Y3649903D01*
D02*
G37*
G36*
X12177843Y3700200D02*
X12155357D01*
X12133637Y3694380D01*
X12114163Y3683137D01*
X12098263Y3667237D01*
X12087020Y3647763D01*
X12081200Y3626043D01*
Y3603557D01*
X12087020Y3581837D01*
X12098263Y3562363D01*
X12114163Y3546463D01*
X12133637Y3535220D01*
X12155357Y3529400D01*
X12177843D01*
X12199563Y3535220D01*
X12219037Y3546463D01*
X12234937Y3562363D01*
X12246180Y3581837D01*
X12252000Y3603557D01*
Y3626043D01*
X12246180Y3647763D01*
X12234937Y3667237D01*
X12219037Y3683137D01*
X12199563Y3694380D01*
X12177843Y3700200D01*
D02*
G37*
G36*
X582100Y3543300D02*
X500897D01*
X507215Y3519721D01*
X519589Y3498289D01*
X537089Y3480789D01*
X558521Y3468415D01*
X582100Y3462097D01*
Y3543300D01*
D02*
G37*
G36*
X9715500Y3057655D02*
X9664700D01*
X9634862Y3053726D01*
X9607057Y3042209D01*
X9583180Y3023888D01*
X9564859Y3000011D01*
X9553342Y2972207D01*
X9549414Y2942368D01*
X9553342Y2912530D01*
X9564859Y2884725D01*
X9583180Y2860848D01*
X9607057Y2842527D01*
X9634862Y2831010D01*
X9664700Y2827082D01*
X9715500D01*
X9745338Y2831010D01*
X9773143Y2842527D01*
X9797020Y2860848D01*
X9815341Y2884725D01*
X9826858Y2912530D01*
X9830786Y2942368D01*
X9826858Y2972207D01*
X9815341Y3000011D01*
X9797020Y3023888D01*
X9773143Y3042209D01*
X9745338Y3053726D01*
X9715500Y3057655D01*
D02*
G37*
G36*
X12241840Y2539040D02*
X12179300D01*
Y2476500D01*
X12241840D01*
Y2539040D01*
D02*
G37*
G36*
X12153900D02*
X12091360D01*
Y2476500D01*
X12153900D01*
Y2539040D01*
D02*
G37*
G36*
X609600Y2519603D02*
Y2438400D01*
X690803D01*
X684485Y2461979D01*
X672111Y2483411D01*
X654611Y2500911D01*
X633179Y2513285D01*
X609600Y2519603D01*
D02*
G37*
G36*
X584200D02*
X560621Y2513285D01*
X539189Y2500911D01*
X521689Y2483411D01*
X509315Y2461979D01*
X502997Y2438400D01*
X584200D01*
Y2519603D01*
D02*
G37*
G36*
X13209393Y2499958D02*
Y2438167D01*
X13271185D01*
X13266806Y2454508D01*
X13256902Y2471665D01*
X13242892Y2485673D01*
X13225735Y2495579D01*
X13209393Y2499958D01*
D02*
G37*
G36*
X13183994D02*
X13167651Y2495579D01*
X13150496Y2485673D01*
X13136487Y2471665D01*
X13126582Y2454508D01*
X13122203Y2438167D01*
X13183994D01*
Y2499958D01*
D02*
G37*
G36*
X14147168Y2548583D02*
Y2432517D01*
X14239507D01*
Y2445217D01*
X14235928Y2472403D01*
X14225433Y2497736D01*
X14208742Y2519490D01*
X14186987Y2536183D01*
X14161655Y2546676D01*
X14147168Y2548583D01*
D02*
G37*
G36*
X14121768D02*
X14107281Y2546676D01*
X14081949Y2536183D01*
X14060194Y2519490D01*
X14043501Y2497736D01*
X14033009Y2472403D01*
X14029430Y2445217D01*
Y2432517D01*
X14121768D01*
Y2548583D01*
D02*
G37*
G36*
X12241840Y2451100D02*
X12179300D01*
Y2388560D01*
X12241840D01*
Y2451100D01*
D02*
G37*
G36*
X12153900D02*
X12091360D01*
Y2388560D01*
X12153900D01*
Y2451100D01*
D02*
G37*
G36*
X13271185Y2412767D02*
X13209393D01*
Y2350975D01*
X13225735Y2355354D01*
X13242892Y2365260D01*
X13256902Y2379268D01*
X13266806Y2396425D01*
X13271185Y2412767D01*
D02*
G37*
G36*
X13183994D02*
X13122203D01*
X13126582Y2396425D01*
X13136487Y2379268D01*
X13150496Y2365260D01*
X13167651Y2355354D01*
X13183994Y2350975D01*
Y2412767D01*
D02*
G37*
G36*
X690803Y2413000D02*
X609600D01*
Y2331797D01*
X633179Y2338115D01*
X654611Y2350489D01*
X672111Y2367989D01*
X684485Y2389421D01*
X690803Y2413000D01*
D02*
G37*
G36*
X584200D02*
X502997D01*
X509315Y2389421D01*
X521689Y2367989D01*
X539189Y2350489D01*
X560621Y2338115D01*
X584200Y2331797D01*
Y2413000D01*
D02*
G37*
G36*
X14239507Y2407117D02*
X14147168D01*
Y2291050D01*
X14161655Y2292957D01*
X14186987Y2303451D01*
X14208742Y2320143D01*
X14225433Y2341897D01*
X14235928Y2367230D01*
X14239507Y2394417D01*
Y2407117D01*
D02*
G37*
G36*
X14121768D02*
X14029430D01*
Y2394417D01*
X14033009Y2367230D01*
X14043501Y2341897D01*
X14060194Y2320143D01*
X14081949Y2303451D01*
X14107281Y2292957D01*
X14121768Y2291050D01*
Y2407117D01*
D02*
G37*
G36*
X12177843Y2049200D02*
X12155357D01*
X12133637Y2043380D01*
X12114163Y2032137D01*
X12098263Y2016237D01*
X12087020Y1996763D01*
X12081200Y1975043D01*
Y1952557D01*
X12087020Y1930837D01*
X12098263Y1911363D01*
X12114163Y1895463D01*
X12133637Y1884220D01*
X12155357Y1878400D01*
X12177843D01*
X12199563Y1884220D01*
X12219037Y1895463D01*
X12234937Y1911363D01*
X12246180Y1930837D01*
X12252000Y1952557D01*
Y1975043D01*
X12246180Y1996763D01*
X12234937Y2016237D01*
X12219037Y2032137D01*
X12199563Y2043380D01*
X12177843Y2049200D01*
D02*
G37*
G36*
X13207938Y2010866D02*
X13185451D01*
X13163731Y2005047D01*
X13144257Y1993803D01*
X13128357Y1977903D01*
X13117114Y1958430D01*
X13111295Y1936710D01*
Y1914224D01*
X13117114Y1892503D01*
X13128357Y1873030D01*
X13144257Y1857130D01*
X13163731Y1845887D01*
X13185451Y1840067D01*
X13207938D01*
X13229657Y1845887D01*
X13249130Y1857130D01*
X13265031Y1873030D01*
X13276274Y1892503D01*
X13282094Y1914224D01*
Y1936710D01*
X13276274Y1958430D01*
X13265031Y1977903D01*
X13249130Y1993803D01*
X13229657Y2005047D01*
X13207938Y2010866D01*
D02*
G37*
G36*
X14134468Y2014403D02*
X14104630Y2010475D01*
X14076825Y1998957D01*
X14052948Y1980636D01*
X14034627Y1956760D01*
X14023109Y1928955D01*
X14019182Y1899117D01*
Y1848317D01*
X14023109Y1818478D01*
X14034627Y1790673D01*
X14052948Y1766797D01*
X14076825Y1748476D01*
X14104630Y1736959D01*
X14134468Y1733030D01*
X14164307Y1736959D01*
X14192111Y1748476D01*
X14215988Y1766797D01*
X14234309Y1790673D01*
X14245827Y1818478D01*
X14249754Y1848317D01*
Y1899117D01*
X14245827Y1928955D01*
X14234309Y1956760D01*
X14215988Y1980636D01*
X14192111Y1998957D01*
X14164307Y2010475D01*
X14134468Y2014403D01*
D02*
G37*
G36*
X594800Y1452803D02*
X571221Y1446485D01*
X549789Y1434111D01*
X532289Y1416611D01*
X519915Y1395179D01*
X513597Y1371600D01*
X594800D01*
Y1452803D01*
D02*
G37*
G36*
Y1346200D02*
X513597D01*
X519915Y1322621D01*
X532289Y1301189D01*
X549789Y1283689D01*
X571221Y1271315D01*
X594800Y1264997D01*
Y1346200D01*
D02*
G37*
G36*
X5296418Y557700D02*
X5269982D01*
X5244447Y550858D01*
X5221553Y537640D01*
X5202860Y518947D01*
X5189642Y496053D01*
X5182800Y470518D01*
Y444082D01*
X5189642Y418547D01*
X5202860Y395653D01*
X5221553Y376960D01*
X5244447Y363742D01*
X5269982Y356900D01*
X5296418D01*
X5321953Y363742D01*
X5344847Y376960D01*
X5363540Y395653D01*
X5376758Y418547D01*
X5383600Y444082D01*
Y470518D01*
X5376758Y496053D01*
X5363540Y518947D01*
X5344847Y537640D01*
X5321953Y550858D01*
X5296418Y557700D01*
D02*
G37*
G36*
X13993988Y863600D02*
X13946011D01*
X13898627Y856095D01*
X13852997Y841269D01*
X13810249Y819488D01*
X13771436Y791288D01*
X13737512Y757364D01*
X13709312Y718550D01*
X13687531Y675803D01*
X13672705Y630174D01*
X13665199Y582788D01*
Y534812D01*
X13672705Y487426D01*
X13687531Y441797D01*
X13709312Y399050D01*
X13737512Y360236D01*
X13771436Y326312D01*
X13810249Y298112D01*
X13852997Y276331D01*
X13898627Y261505D01*
X13946011Y254000D01*
X13993988D01*
X14041374Y261505D01*
X14087003Y276331D01*
X14129750Y298112D01*
X14168564Y326312D01*
X14202489Y360236D01*
X14230688Y399050D01*
X14252469Y441797D01*
X14267294Y487426D01*
X14274800Y534812D01*
Y582788D01*
X14267294Y630174D01*
X14252469Y675803D01*
X14230688Y718550D01*
X14202489Y757364D01*
X14168564Y791288D01*
X14129750Y819488D01*
X14087003Y841269D01*
X14041374Y856095D01*
X13993988Y863600D01*
D02*
G37*
G36*
X531988D02*
X484012D01*
X436626Y856095D01*
X390997Y841269D01*
X348250Y819488D01*
X309436Y791288D01*
X275512Y757364D01*
X247312Y718550D01*
X225531Y675803D01*
X210705Y630174D01*
X203200Y582788D01*
Y534812D01*
X210705Y487426D01*
X225531Y441797D01*
X247312Y399050D01*
X275512Y360236D01*
X309436Y326312D01*
X348250Y298112D01*
X390997Y276331D01*
X436626Y261505D01*
X484012Y254000D01*
X531988D01*
X579374Y261505D01*
X625003Y276331D01*
X667750Y298112D01*
X706564Y326312D01*
X740488Y360236D01*
X768688Y399050D01*
X790469Y441797D01*
X805295Y487426D01*
X812800Y534812D01*
Y582788D01*
X805295Y630174D01*
X790469Y675803D01*
X768688Y718550D01*
X740488Y757364D01*
X706564Y791288D01*
X667750Y819488D01*
X625003Y841269D01*
X579374Y856095D01*
X531988Y863600D01*
D02*
G37*
%LPD*%
D10*
X4787900Y6808900D02*
D03*
Y7338900D02*
D03*
D11*
X3434411Y4105154D02*
D03*
X3403600Y1854200D02*
D03*
D12*
X3621411Y4255154D02*
D03*
Y3955154D02*
D03*
X3590600Y2004200D02*
D03*
Y1704200D02*
D03*
D13*
X3656911Y4105154D02*
D03*
X3626100Y1854200D02*
D03*
D14*
X4750700Y6337300D02*
D03*
X5180700D02*
D03*
D15*
X5999400Y7378900D02*
D03*
Y7002900D02*
D03*
Y6626900D02*
D03*
Y6250900D02*
D03*
Y5874900D02*
D03*
Y5498900D02*
D03*
X9037400Y7378900D02*
D03*
Y7002900D02*
D03*
Y6626900D02*
D03*
Y6250900D02*
D03*
Y5874900D02*
D03*
Y5498900D02*
D03*
D16*
X9740900Y4377000D02*
D03*
Y4572000D02*
D03*
X10553700Y4584700D02*
D03*
Y4389700D02*
D03*
D17*
X10045700Y4768686D02*
D03*
Y4578514D02*
D03*
X10261600Y4768686D02*
D03*
Y4578514D02*
D03*
X13627100Y4375314D02*
D03*
Y4565486D02*
D03*
D18*
Y5005001D02*
D03*
Y5180399D02*
D03*
D19*
X10483600Y5072700D02*
D03*
X9912600Y5239700D02*
D03*
D20*
X10496600Y5283200D02*
D03*
X9899600Y5029200D02*
D03*
D21*
X4737100Y8341665D02*
D03*
Y7736535D02*
D03*
D22*
X10337800Y3788300D02*
D03*
X10210800D02*
D03*
X10083800D02*
D03*
X9956800D02*
D03*
Y4330700D02*
D03*
X10083800D02*
D03*
X10210800D02*
D03*
X10337800D02*
D03*
D23*
X9652000Y6731000D02*
D03*
X10112000D02*
D03*
D24*
X9882000Y6081000D02*
D03*
D25*
X1155700Y7518400D02*
X1344806Y7707506D01*
X1710014D01*
X1155700Y6057900D02*
Y7518400D01*
X990600Y5892800D02*
X1155700Y6057900D01*
X609600Y5892800D02*
X990600D01*
X1708620Y8089900D02*
X1710014Y8088506D01*
X914400Y8089900D02*
X1708620D01*
X609600Y7785100D02*
X914400Y8089900D01*
X609600Y6438900D02*
Y7785100D01*
X1710014Y7326506D02*
X2439058D01*
X9689100Y4177300D02*
X9855200Y4343400D01*
X9689100Y4056000D02*
Y4177300D01*
X9144000Y4056000D02*
X9689100D01*
X9956800Y3788300D01*
X9037400Y4162600D02*
X9144000Y4056000D01*
X9037400Y4162600D02*
Y5498900D01*
X9118500Y6708000D02*
X9629000D01*
X9037400Y6626900D02*
X9118500Y6708000D01*
X9629000D02*
X9652000Y6731000D01*
X4737100Y7736535D02*
X4860930D01*
X4743450Y7382950D02*
X4749800Y7376600D01*
X4860930Y7736535D02*
X5328595Y8204200D01*
X4750250Y6337750D02*
X4750700Y6337300D01*
X5156200Y6361800D02*
Y6451600D01*
Y6361800D02*
X5180700Y6337300D01*
X4749800Y6796600D02*
X4773100Y6819900D01*
X5284200D02*
X5359400Y6744700D01*
X5180700Y6337300D02*
X5913000D01*
X4750250Y6337750D02*
Y6796150D01*
X4749800Y6796600D02*
X4750250Y6796150D01*
X4773100Y6819900D02*
X5284200D01*
X5913000Y6337300D02*
X5999400Y6250900D01*
X5328595Y8204200D02*
X5359400D01*
Y8394700D01*
X5997100Y7376600D02*
X5999400Y7378900D01*
Y6626900D02*
Y7002900D01*
X9882000Y5270300D02*
X9912600Y5239700D01*
X9882000Y5270300D02*
Y6081000D01*
D26*
X3716159Y8341665D02*
X4737100D01*
X3667594Y8293100D02*
X3716159Y8341665D01*
X3645600Y8293100D02*
X3667594D01*
X10083800Y3788300D02*
X10210800D01*
X9956800D02*
X10083800D01*
X4819383Y9508022D02*
X4874800Y9452605D01*
Y8877300D02*
Y9452605D01*
X4819383Y9508022D02*
Y9510115D01*
X10578700Y4389700D02*
X10963080Y4005320D01*
Y3908620D02*
Y4005320D01*
Y3908620D02*
X10972800Y3898900D01*
X10553700Y4389700D02*
X10578700D01*
X13627100Y5005001D02*
X13634050Y4998050D01*
X14178951D01*
X14185899Y4991100D01*
X13224380Y3585081D02*
X13614874Y3975575D01*
Y4363089D01*
X13627100Y4375314D01*
X13182600Y3576700D02*
X13190981Y3585081D01*
X13224380D01*
X13627100Y4565486D02*
Y5005001D01*
X13182600Y5753100D02*
X13627100Y5308600D01*
Y5180399D02*
Y5308600D01*
X9144000Y2942368D02*
Y3556000D01*
X10294100Y3712050D02*
X10337800Y3755750D01*
Y3788300D01*
X10210800D02*
X10216400Y3782700D01*
X3262200Y1916100D02*
Y2010400D01*
Y1763600D02*
Y1792300D01*
Y1916100D02*
X3324100Y1854200D01*
X3403600D01*
X3262200Y1792300D02*
X3324100Y1854200D01*
X3403600D02*
X3626100D01*
X3121650Y3426450D02*
X3619500Y3924300D01*
X3293011Y4004211D02*
Y4043254D01*
X3434411Y4105154D02*
X3652711D01*
X3293011Y4167054D02*
X3354911Y4105154D01*
X3293011Y4043254D02*
X3354911Y4105154D01*
X3293011Y4167054D02*
Y4238089D01*
X3354911Y4105154D02*
X3434411D01*
X2846900Y2425700D02*
X3262200Y2010400D01*
X2844800Y3556000D02*
X3293011Y4004211D01*
X2857500Y1358900D02*
X3262200Y1763600D01*
X3134350Y1229350D02*
X3581400Y1676400D01*
X3783946Y4255154D02*
X4507846D01*
X4508500Y1409700D02*
X4521200Y1422400D01*
X4508500Y457200D02*
Y1409700D01*
X4507846Y4255154D02*
X4533900Y4229100D01*
X10294100Y3691008D02*
Y3712050D01*
X10159092Y3556000D02*
X10294100Y3691008D01*
X9144000Y3556000D02*
X10159092D01*
X4273283Y9176574D02*
Y9510115D01*
Y9176574D02*
X4737100Y8712758D01*
X2832100Y4699000D02*
X3293011Y4238089D01*
X5600700Y3568700D02*
X5613400Y3556000D01*
X9144000D01*
X1835106Y1229350D02*
X3134350D01*
X4737100Y8341665D02*
Y8712758D01*
X5283200Y4508500D02*
Y5067300D01*
X5257800Y4483100D02*
X5283200Y4508500D01*
X10337800Y3788300D02*
Y3820850D01*
X607500Y1358900D02*
X1705556D01*
X1835106Y1229350D01*
X594800Y3556000D02*
X1692856D01*
X1822406Y3426450D02*
X3121650D01*
X1692856Y3556000D02*
X1822406Y3426450D01*
D27*
X2439058Y7326506D02*
X2895600Y7783048D01*
X2439058Y7326506D02*
X2885689Y6879875D01*
X4712645Y7413755D02*
X4749800Y7376600D01*
X4712645Y7413755D02*
Y7712080D01*
X2885689Y6312876D02*
Y6879875D01*
X2895600Y7783048D02*
Y8293100D01*
Y7783048D02*
X4737100D01*
D28*
X3590600Y2004200D02*
X3593000Y2006600D01*
X3621411Y4255154D02*
X3783946D01*
X4038600Y2006600D02*
X4508500Y1536700D01*
Y1460500D02*
Y1536700D01*
X3593000Y2006600D02*
X4038600D01*
D29*
X4749800Y7376600D02*
X5997100D01*
D30*
X10221435Y4538349D02*
X10261600Y4578514D01*
X10267786Y4584700D02*
X10553700D01*
X10221435Y4808851D02*
X10261600Y4768686D01*
X10185873Y4538349D02*
X10221435D01*
X10261600Y4578514D02*
X10267786Y4584700D01*
X10185873Y4808851D02*
X10221435D01*
X10449760Y5236360D02*
X10496600Y5283200D01*
X10252207Y5090604D02*
Y5107437D01*
X10381130Y5236360D02*
X10449760D01*
X10252207Y5107437D02*
X10381130Y5236360D01*
X10252207Y5090604D02*
X10261841Y5080971D01*
X10173970Y4526446D02*
X10185873Y4538349D01*
X10167620Y4408693D02*
X10179523Y4396790D01*
X10121427Y4538349D02*
X10133330Y4526446D01*
X10115077Y4396790D02*
X10126980Y4408693D01*
Y4454264D01*
X10167620Y4408693D02*
Y4437430D01*
X10173970Y4443780D02*
Y4526446D01*
X10126980Y4454264D02*
X10133330Y4460614D01*
Y4526446D01*
X10167620Y4437430D02*
X10173970Y4443780D01*
Y4875963D02*
X10261841Y4963833D01*
X10133330Y4892796D02*
X10221201Y4980667D01*
X9899600Y5029200D02*
X9946440Y5076040D01*
X10173970Y4820754D02*
Y4875963D01*
X10221201Y4980667D02*
Y5064137D01*
X9946440Y5076040D02*
X10209297D01*
X10221201Y5064137D01*
X10045700Y4768686D02*
X10085865Y4808851D01*
X10133330Y4820754D02*
Y4892796D01*
X10121427Y4808851D02*
X10133330Y4820754D01*
X10173970D02*
X10185873Y4808851D01*
X10085865D02*
X10121427D01*
X10261841Y4963833D02*
Y5080971D01*
X10414920Y4330700D02*
X10436580Y4352360D01*
X10516360D01*
X10553700Y4389700D01*
X10337800Y4330700D02*
X10414920D01*
X9740900Y4572000D02*
X10039186D01*
X10045700Y4578514D01*
X10085865Y4538349D01*
X10121427D01*
X10179523Y4396790D02*
X10188460D01*
X10210800Y4374450D01*
X10083800Y4330700D02*
Y4374450D01*
X10106140Y4396790D02*
X10115077D01*
X10210800Y4330700D02*
Y4374450D01*
X10083800D02*
X10106140Y4396790D01*
D31*
X4908550Y2813050D02*
D03*
D32*
X2832100Y4699000D02*
D03*
X582100D02*
D03*
X594800Y3556000D02*
D03*
X2844800D02*
D03*
X596900Y2425700D02*
D03*
X2846900D02*
D03*
X607500Y1358900D02*
D03*
X2857500D02*
D03*
D33*
X2873826Y6313054D02*
D03*
X3623826D02*
D03*
X2895600Y8293100D02*
D03*
X3645600D02*
D03*
D34*
X13970000Y558800D02*
D03*
Y9652000D02*
D03*
X558800D02*
D03*
X508000Y558800D02*
D03*
D35*
X14134468Y1873717D02*
D03*
Y2419817D02*
D03*
X14185899Y4991100D02*
D03*
Y4445000D02*
D03*
X609600Y5892800D02*
D03*
Y6438900D02*
D03*
D36*
X9144000Y4056000D02*
D03*
Y3556000D02*
D03*
X13196693Y1925467D02*
D03*
Y2425467D02*
D03*
X13182600Y3576700D02*
D03*
Y4076700D02*
D03*
Y5253100D02*
D03*
Y5753100D02*
D03*
X13169901Y6967600D02*
D03*
Y7467600D02*
D03*
X5359400Y6744700D02*
D03*
Y8394700D02*
D03*
X12166600Y1963800D02*
D03*
Y3614800D02*
D03*
X12153900Y5265800D02*
D03*
X12141200Y6967600D02*
D03*
D37*
X9690100Y2942368D02*
D03*
X9144000D02*
D03*
X4819383Y9510115D02*
D03*
X4273283D02*
D03*
X6832600Y9499600D02*
D03*
X6286500D02*
D03*
D38*
X1710014Y8469506D02*
D03*
Y8088506D02*
D03*
Y7707506D02*
D03*
Y7326506D02*
D03*
D39*
X5384800Y8877300D02*
D03*
X5129800D02*
D03*
D40*
X4874800D02*
D03*
D41*
X5283200Y457300D02*
D03*
X4508500Y5067200D02*
D03*
D42*
X5283200Y5067300D02*
D03*
X4508500Y457200D02*
D03*
D43*
X12166600Y2463800D02*
D03*
Y4114800D02*
D03*
X12153900Y5765800D02*
D03*
X12141200Y7467600D02*
D03*
D44*
X10972800Y3898900D02*
D03*
X5156200Y6451600D02*
D03*
%TF.MD5,42ec6dbd89633b0a1dec87d769c12714*%
M02*
