%TF.GenerationSoftware,Altium Limited,Altium Designer,23.3.1 (30)*%
G04 Layer_Color=0*
%FSLAX26Y26*%
%MOIN*%
%TF.SameCoordinates,4932A310-E953-401E-A278-E884588CB871*%
%TF.FilePolarity,Positive*%
%TF.FileFunction,Plated,1,2,PTH,Drill*%
%TF.Part,Single*%
G01*
G75*
%TA.AperFunction,ComponentDrill*%
%ADD76C,0.041339*%
%ADD77C,0.042000*%
%TA.AperFunction,OtherDrill,Pad Free-2 (5500mil,220mil)*%
%ADD78C,0.150000*%
%TA.AperFunction,OtherDrill,Pad Free-2 (5500mil,3800mil)*%
%ADD79C,0.150000*%
%TA.AperFunction,OtherDrill,Pad Free-2 (220mil,3800mil)*%
%ADD80C,0.150000*%
%TA.AperFunction,OtherDrill,Pad Free-2 (200mil,220mil)*%
%ADD81C,0.150000*%
%TA.AperFunction,ComponentDrill*%
%ADD82C,0.050800*%
%ADD83C,0.029528*%
%ADD84C,0.050800*%
%ADD85C,0.034000*%
%ADD86C,0.031496*%
%ADD87C,0.051968*%
%ADD88C,0.039370*%
%TA.AperFunction,ViaDrill,NotFilled*%
%ADD89C,0.028000*%
D76*
X1115000Y1850000D02*
D03*
X229173D02*
D03*
X234173Y1400000D02*
D03*
X1120000D02*
D03*
X235000Y955000D02*
D03*
X1120827D02*
D03*
X239173Y535000D02*
D03*
X1125000D02*
D03*
D77*
X1131428Y2485454D02*
D03*
X1426703D02*
D03*
X1140000Y3265000D02*
D03*
X1435276D02*
D03*
D78*
X5500000Y220000D02*
D03*
D79*
Y3800000D02*
D03*
D80*
X220000D02*
D03*
D81*
X200000Y220000D02*
D03*
D82*
X5564751Y737684D02*
D03*
Y952684D02*
D03*
X5585000Y1965000D02*
D03*
Y1750000D02*
D03*
X240000Y2320000D02*
D03*
Y2535000D02*
D03*
D83*
X3600000Y1596850D02*
D03*
Y1400000D02*
D03*
X5195549Y758058D02*
D03*
Y954908D02*
D03*
X5190000Y1408150D02*
D03*
Y1605000D02*
D03*
Y2068150D02*
D03*
Y2265000D02*
D03*
X5185000Y2743150D02*
D03*
Y2940000D02*
D03*
D84*
X3815000Y1158413D02*
D03*
X3600000D02*
D03*
X1897395Y3744140D02*
D03*
X1682395D02*
D03*
X2690000Y3740000D02*
D03*
X2475000D02*
D03*
D85*
X673234Y3334451D02*
D03*
Y3184451D02*
D03*
Y3034451D02*
D03*
Y2884451D02*
D03*
D86*
X2110000Y2655394D02*
D03*
Y3305000D02*
D03*
X4790000Y970000D02*
D03*
Y773150D02*
D03*
Y1620000D02*
D03*
Y1423150D02*
D03*
X4785000Y2270000D02*
D03*
Y2073150D02*
D03*
X4780000Y2940000D02*
D03*
Y2743150D02*
D03*
D87*
X2120000Y3495000D02*
D03*
X1919213D02*
D03*
X2019606D02*
D03*
D88*
X2080000Y180039D02*
D03*
Y1995000D02*
D03*
X1775000Y1994961D02*
D03*
Y180000D02*
D03*
D89*
X4320000Y1535000D02*
D03*
X2030000Y2540000D02*
D03*
%TF.MD5,c743474799037e76838b23b3924275f7*%
M02*
