M48
;Layer_Color=9474304
;FILE_FORMAT=2:4
INCH,TZ
;TYPE=PLATED
T1F00S00C0.0280
T2F00S00C0.0295
T3F00S00C0.0315
T4F00S00C0.0340
T5F00S00C0.0394
T6F00S00C0.0413
T7F00S00C0.0420
T8F00S00C0.0508
T9F00S00C0.0520
T10F00S00C0.1500
%
T01
X43200Y15350
X20300Y25400
T02
X36000Y14000
X51900Y14081
X51955Y9549
Y7581
X51900Y16050
Y20682
Y22650
X51850Y27431
Y29400
X36000Y15969
T03
X47900Y7732
Y9700
Y14231
Y16200
X47850Y20731
Y22700
X47800Y27431
Y29400
X21100Y26554
Y33050
T04
X6732Y28845
Y30345
Y31845
Y33345
T05
X17750Y1800
X20800Y1800
Y19950
X17750Y19950
T06
X2392Y5350
X2350Y9550
X2342Y14000
X11200
X11208Y9550
X11250Y5350
X11150Y18500
X2292
T07
X11314Y24855
X14267
X14353Y32650
X11400
T08
X36000Y11584
X38150
X55648Y9527
Y7377
X55850Y17500
Y19650
X2400Y23200
Y25350
X16824Y37441
X18974
X24750Y37400
X26900
T09
X19192Y34950
X20196
X21200
T10
X2000Y2200
X55000
X2200Y38000
X55000
M30
