%TF.GenerationSoftware,Altium Limited,Altium Designer,23.3.1 (30)*%
G04 Layer_Color=255*
%FSLAX26Y26*%
%MOIN*%
%TF.SameCoordinates,4932A310-E953-401E-A278-E884588CB871*%
%TF.FilePolarity,Positive*%
%TF.FileFunction,Pads,Bot*%
%TF.Part,Single*%
G01*
G75*
%TA.AperFunction,ComponentPad*%
%ADD32C,0.062008*%
%ADD33C,0.062000*%
%TA.AperFunction,ViaPad*%
%ADD34C,0.220000*%
%TA.AperFunction,ComponentPad*%
%ADD35O,0.070000X0.090000*%
%ADD36C,0.047244*%
%ADD37O,0.090000X0.070000*%
%ADD38C,0.054000*%
%ADD39C,0.077953*%
%ADD40R,0.077953X0.077953*%
%ADD41C,0.059055*%
%ADD42R,0.059055X0.059055*%
%ADD43R,0.047244X0.047244*%
D32*
X1115000Y1850000D02*
D03*
X229173D02*
D03*
X234173Y1400000D02*
D03*
X1120000D02*
D03*
X235000Y955000D02*
D03*
X1120827D02*
D03*
X239173Y535000D02*
D03*
X1125000D02*
D03*
D33*
X1131428Y2485454D02*
D03*
X1426703D02*
D03*
X1140000Y3265000D02*
D03*
X1435276D02*
D03*
D34*
X5500000Y220000D02*
D03*
Y3800000D02*
D03*
X220000D02*
D03*
X200000Y220000D02*
D03*
D35*
X5564751Y737684D02*
D03*
Y952684D02*
D03*
X5585000Y1965000D02*
D03*
Y1750000D02*
D03*
X240000Y2320000D02*
D03*
Y2535000D02*
D03*
D36*
X3600000Y1596850D02*
D03*
Y1400000D02*
D03*
X5195549Y758058D02*
D03*
Y954908D02*
D03*
X5190000Y1408150D02*
D03*
Y1605000D02*
D03*
Y2068150D02*
D03*
Y2265000D02*
D03*
X5185000Y2743150D02*
D03*
Y2940000D02*
D03*
X2110000Y2655394D02*
D03*
Y3305000D02*
D03*
X4790000Y773150D02*
D03*
Y1423150D02*
D03*
X4785000Y2073150D02*
D03*
X4780000Y2743150D02*
D03*
D37*
X3815000Y1158413D02*
D03*
X3600000D02*
D03*
X1897395Y3744140D02*
D03*
X1682395D02*
D03*
X2690000Y3740000D02*
D03*
X2475000D02*
D03*
D38*
X673234Y3334451D02*
D03*
Y3184451D02*
D03*
Y3034451D02*
D03*
Y2884451D02*
D03*
D39*
X2120000Y3495000D02*
D03*
X2019606D02*
D03*
D40*
X1919213D02*
D03*
D41*
X2080000Y180039D02*
D03*
X1775000Y1994961D02*
D03*
D42*
X2080000Y1995000D02*
D03*
X1775000Y180000D02*
D03*
D43*
X4790000Y970000D02*
D03*
Y1620000D02*
D03*
X4785000Y2270000D02*
D03*
X4780000Y2940000D02*
D03*
%TF.MD5,b387094f0482ef5ca6f1e3c4005c7cbd*%
M02*
