G04*
G04 #@! TF.GenerationSoftware,Altium Limited,Altium Designer,23.3.1 (30)*
G04*
G04 Layer_Color=255*
%FSLAX44Y44*%
%MOMM*%
G71*
G04*
G04 #@! TF.SameCoordinates,7FF98350-13BF-4DC0-BCDE-F856E8DDA7C8*
G04*
G04*
G04 #@! TF.FilePolarity,Positive*
G04*
G01*
G75*
%ADD42C,1.5748*%
%ADD47C,1.3716*%
%ADD61C,1.5750*%
%ADD62C,5.5880*%
%ADD63O,1.7780X2.2860*%
%ADD64C,1.2000*%
%ADD65O,2.2860X1.7780*%
%ADD66C,1.9800*%
%ADD67R,1.9800X1.9800*%
%ADD68C,1.5000*%
%ADD69R,1.5000X1.5000*%
%ADD70R,1.2000X1.2000*%
D42*
X287383Y631305D02*
D03*
X362383D02*
D03*
X289560Y829310D02*
D03*
X364560D02*
D03*
D47*
X171001Y846951D02*
D03*
Y808851D02*
D03*
Y770751D02*
D03*
Y732651D02*
D03*
D61*
X283210Y469900D02*
D03*
X58210D02*
D03*
X59480Y355600D02*
D03*
X284480D02*
D03*
X59690Y242570D02*
D03*
X284690D02*
D03*
X60750Y135890D02*
D03*
X285750D02*
D03*
D62*
X1397000Y55880D02*
D03*
Y965200D02*
D03*
X55880D02*
D03*
X50800Y55880D02*
D03*
D63*
X1413447Y187372D02*
D03*
Y241982D02*
D03*
X1418590Y499110D02*
D03*
Y444500D02*
D03*
X60960Y589280D02*
D03*
Y643890D02*
D03*
D64*
X914400Y405600D02*
D03*
Y355600D02*
D03*
X1319669Y192547D02*
D03*
Y242547D02*
D03*
X1318260Y357670D02*
D03*
Y407670D02*
D03*
Y525310D02*
D03*
Y575310D02*
D03*
X1316990Y696760D02*
D03*
Y746760D02*
D03*
X535940Y674470D02*
D03*
Y839470D02*
D03*
X1216660Y196380D02*
D03*
Y361480D02*
D03*
X1215390Y526580D02*
D03*
X1214120Y696760D02*
D03*
D65*
X969010Y294237D02*
D03*
X914400D02*
D03*
X481938Y951012D02*
D03*
X427328D02*
D03*
X683260Y949960D02*
D03*
X628650D02*
D03*
D66*
X538480Y887730D02*
D03*
X512980D02*
D03*
D67*
X487480D02*
D03*
D68*
X528320Y45730D02*
D03*
X450850Y506720D02*
D03*
D69*
X528320Y506730D02*
D03*
X450850Y45720D02*
D03*
D70*
X1216660Y246380D02*
D03*
Y411480D02*
D03*
X1215390Y576580D02*
D03*
X1214120Y746760D02*
D03*
M02*
