G04*
G04 #@! TF.GenerationSoftware,Altium Limited,Altium Designer,23.3.1 (30)*
G04*
G04 Layer_Color=32768*
%FSLAX44Y44*%
%MOMM*%
G71*
G04*
G04 #@! TF.SameCoordinates,7FF98350-13BF-4DC0-BCDE-F856E8DDA7C8*
G04*
G04*
G04 #@! TF.FilePolarity,Positive*
G04*
G01*
G75*
%ADD10C,0.2000*%
%ADD11C,0.1524*%
%ADD12C,0.1000*%
%ADD73C,0.0254*%
%ADD74C,0.0500*%
G36*
X422056Y868426D02*
Y790194D01*
X366176Y734314D01*
X287944D01*
X232064Y790194D01*
Y868426D01*
X287944Y924306D01*
X366176D01*
X422056Y868426D01*
D02*
G37*
G36*
X184618Y713474D02*
X142962D01*
Y866128D01*
X184618D01*
Y713474D01*
D02*
G37*
G36*
X419879Y670421D02*
Y592189D01*
X363999Y536309D01*
X285767D01*
X229887Y592189D01*
Y670421D01*
X285767Y726301D01*
X363999D01*
X419879Y670421D01*
D02*
G37*
D10*
X460820Y649480D02*
X532320D01*
Y617980D02*
Y649480D01*
X460820Y617980D02*
X532320D01*
X460820D02*
Y649480D01*
X965840Y431950D02*
Y462950D01*
X982340D01*
Y431950D02*
Y462950D01*
X965840Y431950D02*
X982340D01*
X1014111Y450319D02*
Y484401D01*
X995029Y450319D02*
X1014111D01*
X995029D02*
Y484401D01*
X1014111D01*
X1035701Y450319D02*
Y484401D01*
X1016619Y450319D02*
X1035701D01*
X1016619D02*
Y484401D01*
X1035701D01*
X1063620Y433220D02*
Y464220D01*
X1047120Y433220D02*
X1063620D01*
X1047120D02*
Y464220D01*
X1063620D01*
X1353169Y429999D02*
Y464081D01*
X1372251D01*
Y429999D02*
Y464081D01*
X1353169Y429999D02*
X1372251D01*
X1353399Y492709D02*
Y525831D01*
X1372021D01*
Y492709D02*
Y525831D01*
X1353399Y492709D02*
X1372021D01*
X495751Y760879D02*
Y846941D01*
X451669Y760879D02*
X495751D01*
X451669D02*
Y846941D01*
X495751D01*
D11*
X142962Y713474D02*
Y866128D01*
X184618D01*
Y713474D02*
Y866128D01*
X142962Y713474D02*
X184618D01*
D12*
X34210Y417900D02*
X307210D01*
X34210D02*
Y521900D01*
X307210D01*
Y417900D02*
Y521900D01*
X308480Y303600D02*
Y407600D01*
X35480D02*
X308480D01*
X35480Y303600D02*
Y407600D01*
Y303600D02*
X308480D01*
X308690Y190570D02*
Y294570D01*
X35690D02*
X308690D01*
X35690Y190570D02*
Y294570D01*
Y190570D02*
X308690D01*
X309750Y83890D02*
Y187890D01*
X36750D02*
X309750D01*
X36750Y83890D02*
Y187890D01*
Y83890D02*
X309750D01*
X315491Y378015D02*
X379991D01*
Y443015D01*
X315491D02*
X379991D01*
X315491Y378015D02*
Y443015D01*
X932400Y344600D02*
Y416600D01*
X896400Y344600D02*
X932400D01*
X896400D02*
Y416600D01*
X932400D01*
X1301669Y181547D02*
Y253547D01*
X1337669D01*
Y181547D02*
Y253547D01*
X1301669Y181547D02*
X1337669D01*
X1300260Y346670D02*
Y418670D01*
X1336260D01*
Y346670D02*
Y418670D01*
X1300260Y346670D02*
X1336260D01*
X1300260Y514310D02*
Y586310D01*
X1336260D01*
Y514310D02*
Y586310D01*
X1300260Y514310D02*
X1336260D01*
X1298990Y685760D02*
Y757760D01*
X1334990D01*
Y685760D02*
Y757760D01*
X1298990Y685760D02*
X1334990D01*
X583340Y506390D02*
Y781390D01*
X920340Y506390D02*
Y781390D01*
X583340D02*
X920340D01*
X583340Y506390D02*
X920340D01*
X746840Y643890D02*
X756840D01*
X751840Y638890D02*
Y648890D01*
X968810Y487220D02*
Y544020D01*
Y487220D02*
X1066610D01*
Y544020D01*
X968810D02*
X1066610D01*
X312410Y152920D02*
X376910D01*
Y217920D01*
X312410D02*
X376910D01*
X312410Y152920D02*
Y217920D01*
X1031200Y568100D02*
Y698100D01*
X945200D02*
X1031200D01*
X945200Y568100D02*
Y698100D01*
Y568100D02*
X1031200D01*
D73*
X363999Y536309D02*
X419879Y592189D01*
Y670421D01*
X363999Y726301D02*
X419879Y670421D01*
X285767Y726301D02*
X363999D01*
X229887Y670421D02*
X285767Y726301D01*
X229887Y592189D02*
Y670421D01*
Y592189D02*
X285767Y536309D01*
X363999D01*
X366176Y734314D02*
X422056Y790194D01*
Y868426D01*
X366176Y924306D02*
X422056Y868426D01*
X287944Y924306D02*
X366176D01*
X232064Y868426D02*
X287944Y924306D01*
X232064Y790194D02*
Y868426D01*
Y790194D02*
X287944Y734314D01*
X366176D01*
D74*
X1285410Y221380D02*
G03*
X1285410Y221380I-68750J0D01*
G01*
Y386480D02*
G03*
X1285410Y386480I-68750J0D01*
G01*
X1284140Y551580D02*
G03*
X1284140Y551580I-68750J0D01*
G01*
X1282870Y721760D02*
G03*
X1282870Y721760I-68750J0D01*
G01*
X443790Y665390D02*
Y749390D01*
X513790D01*
Y665390D02*
Y749390D01*
X443790Y665390D02*
X513790D01*
X519940Y847970D02*
X551940D01*
X519940Y665970D02*
Y847970D01*
Y665970D02*
X551940D01*
Y847970D01*
X987230Y443200D02*
X1042230D01*
X987230Y368700D02*
Y443200D01*
Y368700D02*
X1042230D01*
Y443200D01*
X458480Y869930D02*
Y920930D01*
Y869930D02*
X567480D01*
Y920930D01*
X458480D02*
X567480D01*
X490320Y516730D02*
X566320D01*
X490320Y35730D02*
Y516730D01*
Y35730D02*
X566320D01*
Y516730D01*
X412850Y35720D02*
X488850D01*
Y516720D01*
X412850D02*
X488850D01*
X412850Y35720D02*
Y516720D01*
M02*
