%TF.GenerationSoftware,Altium Limited,Altium Designer,23.3.1 (30)*%
G04 Layer_Color=8421504*
%FSLAX26Y26*%
%MOIN*%
%TF.SameCoordinates,D9B6CB64-BBF7-4A69-970E-EE5AFB7FCE0F*%
%TF.FilePolarity,Positive*%
%TF.FileFunction,Paste,Top*%
%TF.Part,Single*%
G01*
G75*
%TA.AperFunction,SMDPad,CuDef*%
%ADD10R,0.212598X0.059055*%
%ADD11R,0.141339X0.078740*%
%ADD12R,0.061811X0.019685*%
%ADD13R,0.033858X0.022835*%
%ADD14R,0.104331X0.068898*%
%ADD15R,0.098425X0.059843*%
%ADD16R,0.057087X0.037402*%
%ADD17R,0.055442X0.039626*%
%ADD18R,0.053627X0.041659*%
%ADD19R,0.064961X0.079134*%
%ADD20R,0.054724X0.044882*%
%ADD21R,0.134182X0.061217*%
%ADD22R,0.025591X0.060039*%
%ADD23R,0.062992X0.118110*%
%ADD24R,0.236220X0.236220*%
D10*
X1885000Y2680669D02*
D03*
Y2889331D02*
D03*
D11*
X1352130Y1616202D02*
D03*
X1340000Y730000D02*
D03*
D12*
X1425752Y1675257D02*
D03*
Y1557147D02*
D03*
X1413622Y789055D02*
D03*
Y670945D02*
D03*
D13*
X1439729Y1616202D02*
D03*
X1427598Y730000D02*
D03*
D14*
X1870354Y2495000D02*
D03*
X2039646D02*
D03*
D15*
X2361968Y2905079D02*
D03*
Y2757047D02*
D03*
Y2609016D02*
D03*
Y2460984D02*
D03*
Y2312953D02*
D03*
Y2164921D02*
D03*
X3558032Y2905079D02*
D03*
Y2757047D02*
D03*
Y2609016D02*
D03*
Y2460984D02*
D03*
Y2312953D02*
D03*
Y2164921D02*
D03*
D16*
X3835000Y1723228D02*
D03*
Y1800000D02*
D03*
X4155000Y1805000D02*
D03*
Y1728228D02*
D03*
D17*
X3955000Y1877435D02*
D03*
Y1802565D02*
D03*
X4040000Y1877435D02*
D03*
Y1802565D02*
D03*
X5365000Y1722565D02*
D03*
Y1797435D02*
D03*
D18*
Y1970473D02*
D03*
Y2039527D02*
D03*
D19*
X4127402Y1997126D02*
D03*
X3902598Y2062874D02*
D03*
D20*
X4132520Y2080000D02*
D03*
X3897480Y1980000D02*
D03*
D21*
X1865000Y3284120D02*
D03*
Y3045880D02*
D03*
D22*
X4070000Y1491457D02*
D03*
X4020000D02*
D03*
X3970000D02*
D03*
X3920000D02*
D03*
Y1705000D02*
D03*
X3970000D02*
D03*
X4020000D02*
D03*
X4070000D02*
D03*
D23*
X3800000Y2650000D02*
D03*
X3981102D02*
D03*
D24*
X3890551Y2394095D02*
D03*
%TF.MD5,927cd69067df0c960a6b5de5c70c4d3d*%
M02*
