%TF.GenerationSoftware,Altium Limited,Altium Designer,23.3.1 (30)*%
G04 Layer_Color=8388736*
%FSLAX45Y45*%
%MOMM*%
%TF.SameCoordinates,B78A920C-B21B-4EC0-8B15-6B7EDFA50413*%
%TF.FilePolarity,Negative*%
%TF.FileFunction,Soldermask,Top*%
%TF.Part,Single*%
G01*
G75*
%TA.AperFunction,SMDPad,CuDef*%
%ADD14R,2.65000X1.75000*%
%ADD16R,1.45000X0.95000*%
%ADD17R,1.40822X1.00650*%
%ADD18R,1.36213X1.05814*%
%ADD21R,3.40822X1.55490*%
%TA.AperFunction,ComponentPad*%
%ADD33C,1.57480*%
%ADD38C,1.37160*%
%TA.AperFunction,SMDPad,CuDef*%
%ADD51R,5.52700X1.62700*%
%ADD52R,3.71700X2.12700*%
%ADD53R,1.69700X0.62700*%
%ADD54R,0.98700X0.70700*%
%ADD55R,2.62700X1.64700*%
%ADD56R,1.77700X2.13700*%
%ADD57R,1.51700X1.26700*%
%ADD58R,0.77700X1.65200*%
%ADD59R,1.72700X3.12700*%
%ADD60R,6.12700X6.12700*%
%TA.AperFunction,ComponentPad*%
%ADD61C,1.70200*%
%TA.AperFunction,ViaPad*%
%ADD62C,5.71500*%
%TA.AperFunction,ComponentPad*%
%ADD63O,1.90500X2.41300*%
%ADD64C,1.32700*%
%ADD65O,2.41300X1.90500*%
%ADD66C,2.10700*%
%ADD67R,2.10700X2.10700*%
%ADD68C,1.62700*%
%ADD69R,1.62700X1.62700*%
%ADD70R,1.32700X1.32700*%
%TA.AperFunction,ViaPad*%
%ADD71C,1.39700*%
D14*
X4750700Y6337300D02*
D03*
X5180700D02*
D03*
D16*
X9740900Y4377000D02*
D03*
Y4572000D02*
D03*
X10553700Y4584700D02*
D03*
Y4389700D02*
D03*
D17*
X10045700Y4768686D02*
D03*
Y4578514D02*
D03*
X10261600Y4768686D02*
D03*
Y4578514D02*
D03*
X13627100Y4375314D02*
D03*
Y4565486D02*
D03*
D18*
Y5005001D02*
D03*
Y5180399D02*
D03*
D21*
X4737100Y8341665D02*
D03*
Y7736535D02*
D03*
D33*
X2873826Y6313054D02*
D03*
X3623826D02*
D03*
X2895600Y8293100D02*
D03*
X3645600D02*
D03*
D38*
X1710014Y8469506D02*
D03*
Y8088506D02*
D03*
Y7707506D02*
D03*
Y7326506D02*
D03*
D51*
X4787900Y6808900D02*
D03*
Y7338900D02*
D03*
D52*
X3434411Y4105154D02*
D03*
X3403600Y1854200D02*
D03*
D53*
X3621411Y4255154D02*
D03*
Y3955154D02*
D03*
X3590600Y2004200D02*
D03*
Y1704200D02*
D03*
D54*
X3656911Y4105154D02*
D03*
X3626100Y1854200D02*
D03*
D55*
X5999400Y7378900D02*
D03*
Y7002900D02*
D03*
Y6626900D02*
D03*
Y6250900D02*
D03*
Y5874900D02*
D03*
Y5498900D02*
D03*
X9037400Y7378900D02*
D03*
Y7002900D02*
D03*
Y6626900D02*
D03*
Y6250900D02*
D03*
Y5874900D02*
D03*
Y5498900D02*
D03*
D56*
X10483600Y5072700D02*
D03*
X9912600Y5239700D02*
D03*
D57*
X10496600Y5283200D02*
D03*
X9899600Y5029200D02*
D03*
D58*
X10337800Y3788300D02*
D03*
X10210800D02*
D03*
X10083800D02*
D03*
X9956800D02*
D03*
Y4330700D02*
D03*
X10083800D02*
D03*
X10210800D02*
D03*
X10337800D02*
D03*
D59*
X9652000Y6731000D02*
D03*
X10112000D02*
D03*
D60*
X9882000Y6081000D02*
D03*
D61*
X2832100Y4699000D02*
D03*
X582100D02*
D03*
X594800Y3556000D02*
D03*
X2844800D02*
D03*
X596900Y2425700D02*
D03*
X2846900D02*
D03*
X607500Y1358900D02*
D03*
X2857500D02*
D03*
D62*
X13970000Y558800D02*
D03*
Y9652000D02*
D03*
X558800D02*
D03*
X508000Y558800D02*
D03*
D63*
X14134468Y1873717D02*
D03*
Y2419817D02*
D03*
X14185899Y4991100D02*
D03*
Y4445000D02*
D03*
X609600Y5892800D02*
D03*
Y6438900D02*
D03*
D64*
X9144000Y4056000D02*
D03*
Y3556000D02*
D03*
X13196693Y1925467D02*
D03*
Y2425467D02*
D03*
X13182600Y3576700D02*
D03*
Y4076700D02*
D03*
Y5253100D02*
D03*
Y5753100D02*
D03*
X13169901Y6967600D02*
D03*
Y7467600D02*
D03*
X5359400Y6744700D02*
D03*
Y8394700D02*
D03*
X12166600Y1963800D02*
D03*
Y3614800D02*
D03*
X12153900Y5265800D02*
D03*
X12141200Y6967600D02*
D03*
D65*
X9690100Y2942368D02*
D03*
X9144000D02*
D03*
X4819383Y9510115D02*
D03*
X4273283D02*
D03*
X6832600Y9499600D02*
D03*
X6286500D02*
D03*
D66*
X5384800Y8877300D02*
D03*
X5129800D02*
D03*
D67*
X4874800D02*
D03*
D68*
X5283200Y457300D02*
D03*
X4508500Y5067200D02*
D03*
D69*
X5283200Y5067300D02*
D03*
X4508500Y457200D02*
D03*
D70*
X12166600Y2463800D02*
D03*
Y4114800D02*
D03*
X12153900Y5765800D02*
D03*
X12141200Y7467600D02*
D03*
D71*
X10972800Y3898900D02*
D03*
X5156200Y6451600D02*
D03*
%TF.MD5,0b257fa2d58dd79e0031aa23f979e2fc*%
M02*
