%TF.GenerationSoftware,Altium Limited,Altium Designer,23.3.1 (30)*%
G04 Layer_Color=16711935*
%FSLAX26Y26*%
%MOIN*%
%TF.SameCoordinates,D9B6CB64-BBF7-4A69-970E-EE5AFB7FCE0F*%
%TF.FilePolarity,Positive*%
%TF.FileFunction,Other,Top_Assembly*%
%TF.Part,Single*%
G01*
G75*
%TA.AperFunction,NonConductor*%
%ADD45C,0.007874*%
G36*
X3822279Y1802263D02*
X3822688D01*
X3823180Y1802236D01*
X3823698Y1802209D01*
X3824272Y1802154D01*
X3824872Y1802100D01*
X3825500Y1802045D01*
X3826783Y1801854D01*
X3828039Y1801581D01*
X3828612Y1801417D01*
X3829186Y1801226D01*
X3829213D01*
X3829322Y1801171D01*
X3829459Y1801117D01*
X3829650Y1801035D01*
X3829895Y1800926D01*
X3830168Y1800789D01*
X3830469Y1800625D01*
X3830796Y1800462D01*
X3831479Y1800025D01*
X3832216Y1799479D01*
X3832898Y1798851D01*
X3833226Y1798496D01*
X3833526Y1798114D01*
X3833554Y1798086D01*
X3833581Y1798032D01*
X3833663Y1797895D01*
X3833745Y1797759D01*
X3833854Y1797541D01*
X3833990Y1797322D01*
X3834127Y1797049D01*
X3834263Y1796722D01*
X3834400Y1796394D01*
X3834536Y1796012D01*
X3834646Y1795630D01*
X3834782Y1795193D01*
X3834946Y1794264D01*
X3834973Y1793773D01*
X3835001Y1793254D01*
Y1792981D01*
X3834973Y1792763D01*
X3834946Y1792517D01*
X3834919Y1792217D01*
X3834864Y1791889D01*
X3834782Y1791534D01*
X3834591Y1790770D01*
X3834454Y1790388D01*
X3834318Y1789978D01*
X3834127Y1789569D01*
X3833909Y1789159D01*
X3833663Y1788777D01*
X3833363Y1788422D01*
X3833335Y1788395D01*
X3833281Y1788340D01*
X3833199Y1788258D01*
X3833062Y1788122D01*
X3832898Y1787986D01*
X3832680Y1787822D01*
X3832434Y1787631D01*
X3832161Y1787439D01*
X3831861Y1787248D01*
X3831506Y1787057D01*
X3831124Y1786893D01*
X3830714Y1786702D01*
X3830278Y1786539D01*
X3829814Y1786402D01*
X3829295Y1786293D01*
X3828749Y1786211D01*
X3828503Y1789187D01*
X3828530D01*
X3828585Y1789214D01*
X3828694D01*
X3828858Y1789269D01*
X3829022Y1789296D01*
X3829213Y1789351D01*
X3829677Y1789487D01*
X3830168Y1789678D01*
X3830660Y1789924D01*
X3831124Y1790251D01*
X3831342Y1790415D01*
X3831533Y1790606D01*
X3831561Y1790661D01*
X3831670Y1790797D01*
X3831834Y1791043D01*
X3831997Y1791343D01*
X3832161Y1791753D01*
X3832325Y1792217D01*
X3832434Y1792736D01*
X3832462Y1793336D01*
Y1793582D01*
X3832434Y1793855D01*
X3832380Y1794183D01*
X3832298Y1794565D01*
X3832189Y1794974D01*
X3832052Y1795411D01*
X3831834Y1795821D01*
X3831806Y1795875D01*
X3831724Y1796012D01*
X3831561Y1796203D01*
X3831370Y1796448D01*
X3831124Y1796722D01*
X3830824Y1797022D01*
X3830469Y1797322D01*
X3830086Y1797595D01*
X3830032Y1797622D01*
X3829895Y1797704D01*
X3829650Y1797841D01*
X3829295Y1798005D01*
X3828885Y1798168D01*
X3828394Y1798360D01*
X3827793Y1798551D01*
X3827138Y1798742D01*
X3827111D01*
X3827056Y1798769D01*
X3826947Y1798796D01*
X3826811Y1798824D01*
X3826647Y1798851D01*
X3826456Y1798878D01*
X3826210Y1798933D01*
X3825964Y1798987D01*
X3825391Y1799069D01*
X3824763Y1799124D01*
X3824081Y1799178D01*
X3823371Y1799206D01*
X3823316D01*
X3823207D01*
X3823016D01*
X3822770D01*
X3822797Y1799151D01*
X3822879Y1799124D01*
X3822988Y1799042D01*
X3823262Y1798824D01*
X3823589Y1798551D01*
X3823971Y1798168D01*
X3824381Y1797732D01*
X3824763Y1797240D01*
X3825145Y1796667D01*
Y1796640D01*
X3825173Y1796585D01*
X3825227Y1796503D01*
X3825282Y1796394D01*
X3825364Y1796230D01*
X3825418Y1796066D01*
X3825582Y1795630D01*
X3825773Y1795111D01*
X3825910Y1794510D01*
X3826019Y1793855D01*
X3826046Y1793172D01*
Y1793036D01*
X3826019Y1792872D01*
Y1792654D01*
X3825964Y1792381D01*
X3825937Y1792081D01*
X3825855Y1791726D01*
X3825773Y1791343D01*
X3825637Y1790934D01*
X3825500Y1790524D01*
X3825309Y1790088D01*
X3825091Y1789651D01*
X3824845Y1789187D01*
X3824545Y1788750D01*
X3824190Y1788313D01*
X3823807Y1787904D01*
X3823780Y1787876D01*
X3823698Y1787822D01*
X3823562Y1787713D01*
X3823398Y1787576D01*
X3823180Y1787412D01*
X3822907Y1787221D01*
X3822579Y1787030D01*
X3822197Y1786839D01*
X3821815Y1786620D01*
X3821351Y1786429D01*
X3820859Y1786238D01*
X3820340Y1786074D01*
X3819767Y1785938D01*
X3819139Y1785829D01*
X3818511Y1785774D01*
X3817829Y1785747D01*
X3817774D01*
X3817665D01*
X3817447Y1785774D01*
X3817201D01*
X3816873Y1785829D01*
X3816491Y1785856D01*
X3816082Y1785938D01*
X3815617Y1786020D01*
X3815153Y1786156D01*
X3814635Y1786293D01*
X3814116Y1786484D01*
X3813625Y1786702D01*
X3813106Y1786948D01*
X3812587Y1787248D01*
X3812123Y1787603D01*
X3811659Y1787986D01*
X3811632Y1788013D01*
X3811550Y1788095D01*
X3811441Y1788231D01*
X3811304Y1788395D01*
X3811113Y1788613D01*
X3810922Y1788886D01*
X3810704Y1789187D01*
X3810485Y1789542D01*
X3810267Y1789924D01*
X3810048Y1790361D01*
X3809857Y1790825D01*
X3809666Y1791316D01*
X3809530Y1791862D01*
X3809420Y1792435D01*
X3809338Y1793009D01*
X3809311Y1793637D01*
Y1793882D01*
X3809338Y1794046D01*
Y1794264D01*
X3809393Y1794510D01*
X3809420Y1794811D01*
X3809475Y1795111D01*
X3809639Y1795821D01*
X3809885Y1796558D01*
X3810021Y1796940D01*
X3810212Y1797349D01*
X3810403Y1797732D01*
X3810649Y1798114D01*
X3810676Y1798141D01*
X3810704Y1798196D01*
X3810785Y1798305D01*
X3810895Y1798441D01*
X3811031Y1798632D01*
X3811195Y1798824D01*
X3811386Y1799042D01*
X3811604Y1799260D01*
X3811850Y1799506D01*
X3812150Y1799779D01*
X3812451Y1800025D01*
X3812778Y1800298D01*
X3813160Y1800543D01*
X3813543Y1800789D01*
X3813979Y1801008D01*
X3814416Y1801226D01*
X3814444D01*
X3814526Y1801281D01*
X3814662Y1801335D01*
X3814880Y1801390D01*
X3815126Y1801472D01*
X3815426Y1801554D01*
X3815781Y1801663D01*
X3816218Y1801772D01*
X3816682Y1801854D01*
X3817201Y1801963D01*
X3817802Y1802045D01*
X3818429Y1802127D01*
X3819112Y1802181D01*
X3819849Y1802236D01*
X3820641Y1802291D01*
X3821487D01*
X3821542D01*
X3821705D01*
X3821951D01*
X3822279Y1802263D01*
D02*
G37*
G36*
X3834591Y1779604D02*
X3829349Y1776274D01*
X3829322Y1776246D01*
X3829240Y1776219D01*
X3829131Y1776137D01*
X3828967Y1776028D01*
X3828776Y1775919D01*
X3828558Y1775755D01*
X3828066Y1775428D01*
X3827493Y1775045D01*
X3826920Y1774663D01*
X3826374Y1774254D01*
X3825882Y1773871D01*
X3825855D01*
X3825828Y1773817D01*
X3825691Y1773708D01*
X3825473Y1773544D01*
X3825227Y1773298D01*
X3824954Y1773052D01*
X3824681Y1772752D01*
X3824408Y1772452D01*
X3824217Y1772179D01*
X3824190Y1772151D01*
X3824135Y1772042D01*
X3824053Y1771906D01*
X3823944Y1771715D01*
X3823835Y1771469D01*
X3823726Y1771223D01*
X3823616Y1770950D01*
X3823535Y1770650D01*
Y1770623D01*
X3823507Y1770541D01*
X3823480Y1770404D01*
X3823453Y1770213D01*
Y1769940D01*
X3823425Y1769613D01*
X3823398Y1769230D01*
Y1764944D01*
X3834591D01*
Y1761614D01*
X3809393D01*
Y1773325D01*
X3809420Y1773626D01*
Y1773926D01*
X3809448Y1774281D01*
X3809475Y1774690D01*
X3809557Y1775509D01*
X3809693Y1776356D01*
X3809857Y1777175D01*
X3809966Y1777530D01*
X3810076Y1777884D01*
Y1777912D01*
X3810103Y1777966D01*
X3810157Y1778048D01*
X3810212Y1778185D01*
X3810376Y1778512D01*
X3810622Y1778895D01*
X3810949Y1779359D01*
X3811386Y1779823D01*
X3811877Y1780287D01*
X3812478Y1780696D01*
X3812505D01*
X3812560Y1780751D01*
X3812642Y1780806D01*
X3812778Y1780860D01*
X3812942Y1780942D01*
X3813133Y1781024D01*
X3813352Y1781133D01*
X3813597Y1781242D01*
X3814171Y1781434D01*
X3814798Y1781597D01*
X3815508Y1781707D01*
X3816273Y1781761D01*
X3816300D01*
X3816382D01*
X3816546D01*
X3816709Y1781734D01*
X3816955Y1781707D01*
X3817228Y1781679D01*
X3817528Y1781625D01*
X3817856Y1781543D01*
X3818566Y1781324D01*
X3818948Y1781188D01*
X3819330Y1781024D01*
X3819713Y1780833D01*
X3820095Y1780587D01*
X3820450Y1780314D01*
X3820805Y1780014D01*
X3820832Y1779987D01*
X3820886Y1779932D01*
X3820968Y1779823D01*
X3821105Y1779686D01*
X3821241Y1779495D01*
X3821405Y1779277D01*
X3821596Y1779004D01*
X3821787Y1778676D01*
X3821978Y1778321D01*
X3822169Y1777939D01*
X3822361Y1777502D01*
X3822552Y1777011D01*
X3822715Y1776492D01*
X3822879Y1775919D01*
X3823016Y1775291D01*
X3823125Y1774636D01*
Y1774663D01*
X3823152Y1774690D01*
X3823234Y1774854D01*
X3823371Y1775100D01*
X3823535Y1775400D01*
X3823726Y1775728D01*
X3823917Y1776055D01*
X3824162Y1776383D01*
X3824381Y1776656D01*
X3824408Y1776683D01*
X3824435Y1776711D01*
X3824517Y1776793D01*
X3824626Y1776902D01*
X3824763Y1777038D01*
X3824927Y1777202D01*
X3825309Y1777557D01*
X3825800Y1777966D01*
X3826374Y1778430D01*
X3827029Y1778922D01*
X3827739Y1779413D01*
X3834591Y1783781D01*
Y1779604D01*
D02*
G37*
G36*
X3980607Y1828289D02*
X3980580Y1827988D01*
Y1827688D01*
X3980552Y1827333D01*
X3980525Y1826924D01*
X3980443Y1826105D01*
X3980307Y1825258D01*
X3980143Y1824439D01*
X3980034Y1824085D01*
X3979924Y1823730D01*
Y1823702D01*
X3979897Y1823648D01*
X3979843Y1823566D01*
X3979788Y1823429D01*
X3979624Y1823102D01*
X3979378Y1822720D01*
X3979051Y1822255D01*
X3978614Y1821791D01*
X3978123Y1821327D01*
X3977522Y1820918D01*
X3977495D01*
X3977440Y1820863D01*
X3977358Y1820809D01*
X3977222Y1820754D01*
X3977058Y1820672D01*
X3976867Y1820590D01*
X3976648Y1820481D01*
X3976403Y1820372D01*
X3975829Y1820181D01*
X3975202Y1820017D01*
X3974492Y1819908D01*
X3973727Y1819853D01*
X3973700D01*
X3973618D01*
X3973454D01*
X3973291Y1819880D01*
X3973045Y1819908D01*
X3972772Y1819935D01*
X3972472Y1819990D01*
X3972144Y1820072D01*
X3971434Y1820290D01*
X3971052Y1820426D01*
X3970670Y1820590D01*
X3970287Y1820781D01*
X3969905Y1821027D01*
X3969550Y1821300D01*
X3969195Y1821600D01*
X3969168Y1821628D01*
X3969114Y1821682D01*
X3969032Y1821791D01*
X3968895Y1821928D01*
X3968759Y1822119D01*
X3968595Y1822337D01*
X3968404Y1822610D01*
X3968213Y1822938D01*
X3968022Y1823293D01*
X3967831Y1823675D01*
X3967639Y1824112D01*
X3967448Y1824603D01*
X3967285Y1825122D01*
X3967121Y1825695D01*
X3966984Y1826323D01*
X3966875Y1826978D01*
Y1826951D01*
X3966848Y1826924D01*
X3966766Y1826760D01*
X3966629Y1826514D01*
X3966465Y1826214D01*
X3966274Y1825886D01*
X3966083Y1825559D01*
X3965838Y1825231D01*
X3965619Y1824958D01*
X3965592Y1824931D01*
X3965565Y1824904D01*
X3965483Y1824822D01*
X3965374Y1824713D01*
X3965237Y1824576D01*
X3965073Y1824412D01*
X3964691Y1824057D01*
X3964200Y1823648D01*
X3963626Y1823184D01*
X3962971Y1822692D01*
X3962261Y1822201D01*
X3955409Y1817833D01*
Y1822010D01*
X3960651Y1825340D01*
X3960678Y1825368D01*
X3960760Y1825395D01*
X3960869Y1825477D01*
X3961033Y1825586D01*
X3961224Y1825695D01*
X3961442Y1825859D01*
X3961934Y1826187D01*
X3962507Y1826569D01*
X3963080Y1826951D01*
X3963626Y1827361D01*
X3964118Y1827743D01*
X3964145D01*
X3964172Y1827797D01*
X3964309Y1827907D01*
X3964527Y1828070D01*
X3964773Y1828316D01*
X3965046Y1828562D01*
X3965319Y1828862D01*
X3965592Y1829162D01*
X3965783Y1829435D01*
X3965810Y1829463D01*
X3965865Y1829572D01*
X3965947Y1829708D01*
X3966056Y1829899D01*
X3966165Y1830145D01*
X3966274Y1830391D01*
X3966384Y1830664D01*
X3966465Y1830964D01*
Y1830992D01*
X3966493Y1831073D01*
X3966520Y1831210D01*
X3966547Y1831401D01*
Y1831674D01*
X3966575Y1832002D01*
X3966602Y1832384D01*
Y1836670D01*
X3955409D01*
Y1840001D01*
X3980607D01*
Y1828289D01*
D02*
G37*
G36*
X3963108Y1815895D02*
X3963326D01*
X3963572Y1815867D01*
X3963845Y1815813D01*
X3964145Y1815758D01*
X3964773Y1815622D01*
X3965455Y1815403D01*
X3966138Y1815103D01*
X3966465Y1814912D01*
X3966793Y1814693D01*
X3966820Y1814666D01*
X3966875Y1814639D01*
X3966957Y1814557D01*
X3967066Y1814448D01*
X3967203Y1814339D01*
X3967339Y1814175D01*
X3967530Y1813984D01*
X3967694Y1813765D01*
X3968076Y1813274D01*
X3968458Y1812673D01*
X3968786Y1811963D01*
X3969059Y1811144D01*
Y1811172D01*
X3969086Y1811226D01*
X3969141Y1811335D01*
X3969195Y1811445D01*
X3969250Y1811609D01*
X3969359Y1811800D01*
X3969578Y1812209D01*
X3969851Y1812673D01*
X3970206Y1813137D01*
X3970588Y1813601D01*
X3971052Y1813984D01*
X3971079D01*
X3971106Y1814011D01*
X3971188Y1814065D01*
X3971298Y1814120D01*
X3971571Y1814284D01*
X3971925Y1814448D01*
X3972390Y1814611D01*
X3972936Y1814775D01*
X3973536Y1814884D01*
X3974191Y1814912D01*
X3974219D01*
X3974301D01*
X3974464Y1814884D01*
X3974655D01*
X3974874Y1814857D01*
X3975147Y1814803D01*
X3975447Y1814748D01*
X3975802Y1814666D01*
X3976157Y1814557D01*
X3976512Y1814420D01*
X3976894Y1814284D01*
X3977304Y1814093D01*
X3977686Y1813847D01*
X3978068Y1813601D01*
X3978450Y1813301D01*
X3978805Y1812946D01*
X3978832Y1812919D01*
X3978887Y1812864D01*
X3978969Y1812755D01*
X3979105Y1812591D01*
X3979242Y1812400D01*
X3979406Y1812155D01*
X3979570Y1811881D01*
X3979761Y1811554D01*
X3979924Y1811199D01*
X3980088Y1810790D01*
X3980252Y1810380D01*
X3980389Y1809916D01*
X3980525Y1809397D01*
X3980607Y1808879D01*
X3980662Y1808305D01*
X3980689Y1807705D01*
Y1807377D01*
X3980662Y1807159D01*
X3980634Y1806886D01*
X3980580Y1806558D01*
X3980525Y1806203D01*
X3980443Y1805794D01*
X3980334Y1805384D01*
X3980225Y1804947D01*
X3980061Y1804511D01*
X3979870Y1804074D01*
X3979651Y1803610D01*
X3979378Y1803200D01*
X3979105Y1802763D01*
X3978751Y1802381D01*
X3978723Y1802354D01*
X3978669Y1802299D01*
X3978559Y1802190D01*
X3978423Y1802053D01*
X3978232Y1801917D01*
X3978013Y1801753D01*
X3977740Y1801562D01*
X3977467Y1801371D01*
X3977140Y1801180D01*
X3976785Y1800989D01*
X3976403Y1800825D01*
X3975993Y1800688D01*
X3975556Y1800552D01*
X3975092Y1800443D01*
X3974601Y1800388D01*
X3974110Y1800361D01*
X3974082D01*
X3974028D01*
X3973946D01*
X3973809D01*
X3973673Y1800388D01*
X3973482Y1800416D01*
X3973072Y1800470D01*
X3972608Y1800579D01*
X3972089Y1800743D01*
X3971571Y1800989D01*
X3971052Y1801289D01*
X3971025D01*
X3970997Y1801344D01*
X3970834Y1801453D01*
X3970615Y1801671D01*
X3970315Y1801972D01*
X3970015Y1802381D01*
X3969660Y1802845D01*
X3969359Y1803418D01*
X3969059Y1804074D01*
Y1804046D01*
X3969032Y1803965D01*
X3968977Y1803855D01*
X3968923Y1803691D01*
X3968841Y1803500D01*
X3968731Y1803282D01*
X3968458Y1802763D01*
X3968131Y1802190D01*
X3967694Y1801617D01*
X3967203Y1801043D01*
X3966602Y1800552D01*
X3966575Y1800525D01*
X3966520Y1800497D01*
X3966438Y1800443D01*
X3966302Y1800361D01*
X3966138Y1800279D01*
X3965947Y1800170D01*
X3965728Y1800061D01*
X3965483Y1799924D01*
X3964909Y1799706D01*
X3964227Y1799515D01*
X3963463Y1799378D01*
X3963053Y1799323D01*
X3962616D01*
X3962589D01*
X3962480D01*
X3962316Y1799351D01*
X3962070D01*
X3961797Y1799405D01*
X3961470Y1799433D01*
X3961115Y1799515D01*
X3960733Y1799597D01*
X3960296Y1799733D01*
X3959859Y1799870D01*
X3959422Y1800061D01*
X3958958Y1800279D01*
X3958494Y1800552D01*
X3958057Y1800852D01*
X3957593Y1801207D01*
X3957184Y1801617D01*
X3957156Y1801644D01*
X3957102Y1801726D01*
X3956992Y1801862D01*
X3956856Y1802026D01*
X3956665Y1802272D01*
X3956501Y1802545D01*
X3956283Y1802872D01*
X3956091Y1803227D01*
X3955900Y1803637D01*
X3955682Y1804101D01*
X3955518Y1804592D01*
X3955354Y1805111D01*
X3955191Y1805684D01*
X3955081Y1806285D01*
X3955027Y1806940D01*
X3954999Y1807623D01*
Y1807786D01*
X3955027Y1807978D01*
Y1808251D01*
X3955054Y1808551D01*
X3955109Y1808933D01*
X3955191Y1809343D01*
X3955273Y1809779D01*
X3955382Y1810244D01*
X3955546Y1810735D01*
X3955709Y1811226D01*
X3955928Y1811745D01*
X3956173Y1812236D01*
X3956474Y1812728D01*
X3956801Y1813219D01*
X3957184Y1813656D01*
X3957211Y1813683D01*
X3957293Y1813765D01*
X3957402Y1813874D01*
X3957593Y1814011D01*
X3957811Y1814175D01*
X3958057Y1814366D01*
X3958357Y1814584D01*
X3958712Y1814775D01*
X3959095Y1814994D01*
X3959504Y1815212D01*
X3959968Y1815403D01*
X3960432Y1815567D01*
X3960951Y1815704D01*
X3961524Y1815813D01*
X3962097Y1815895D01*
X3962698Y1815922D01*
X3962725D01*
X3962807D01*
X3962944D01*
X3963108Y1815895D01*
D02*
G37*
G36*
X4065197Y1828289D02*
X4065170Y1827988D01*
Y1827688D01*
X4065143Y1827333D01*
X4065115Y1826924D01*
X4065034Y1826105D01*
X4064897Y1825258D01*
X4064733Y1824439D01*
X4064624Y1824084D01*
X4064515Y1823730D01*
Y1823702D01*
X4064488Y1823648D01*
X4064433Y1823566D01*
X4064378Y1823429D01*
X4064215Y1823102D01*
X4063969Y1822719D01*
X4063641Y1822255D01*
X4063204Y1821791D01*
X4062713Y1821327D01*
X4062112Y1820918D01*
X4062085D01*
X4062030Y1820863D01*
X4061949Y1820809D01*
X4061812Y1820754D01*
X4061648Y1820672D01*
X4061457Y1820590D01*
X4061239Y1820481D01*
X4060993Y1820372D01*
X4060420Y1820181D01*
X4059792Y1820017D01*
X4059082Y1819908D01*
X4058318Y1819853D01*
X4058290D01*
X4058209D01*
X4058045D01*
X4057881Y1819880D01*
X4057635Y1819908D01*
X4057362Y1819935D01*
X4057062Y1819989D01*
X4056734Y1820071D01*
X4056024Y1820290D01*
X4055642Y1820426D01*
X4055260Y1820590D01*
X4054878Y1820781D01*
X4054496Y1821027D01*
X4054141Y1821300D01*
X4053786Y1821600D01*
X4053759Y1821628D01*
X4053704Y1821682D01*
X4053622Y1821791D01*
X4053486Y1821928D01*
X4053349Y1822119D01*
X4053185Y1822337D01*
X4052994Y1822610D01*
X4052803Y1822938D01*
X4052612Y1823293D01*
X4052421Y1823675D01*
X4052230Y1824112D01*
X4052039Y1824603D01*
X4051875Y1825122D01*
X4051711Y1825695D01*
X4051575Y1826323D01*
X4051465Y1826978D01*
Y1826951D01*
X4051438Y1826924D01*
X4051356Y1826760D01*
X4051220Y1826514D01*
X4051056Y1826214D01*
X4050865Y1825886D01*
X4050674Y1825559D01*
X4050428Y1825231D01*
X4050210Y1824958D01*
X4050182Y1824931D01*
X4050155Y1824903D01*
X4050073Y1824822D01*
X4049964Y1824712D01*
X4049827Y1824576D01*
X4049664Y1824412D01*
X4049281Y1824057D01*
X4048790Y1823648D01*
X4048217Y1823184D01*
X4047561Y1822692D01*
X4046852Y1822201D01*
X4039999Y1817833D01*
Y1822010D01*
X4045241Y1825340D01*
X4045268Y1825368D01*
X4045350Y1825395D01*
X4045459Y1825477D01*
X4045623Y1825586D01*
X4045814Y1825695D01*
X4046033Y1825859D01*
X4046524Y1826187D01*
X4047097Y1826569D01*
X4047671Y1826951D01*
X4048217Y1827361D01*
X4048708Y1827743D01*
X4048735D01*
X4048763Y1827797D01*
X4048899Y1827907D01*
X4049118Y1828070D01*
X4049363Y1828316D01*
X4049636Y1828562D01*
X4049909Y1828862D01*
X4050182Y1829162D01*
X4050373Y1829435D01*
X4050401Y1829463D01*
X4050455Y1829572D01*
X4050537Y1829708D01*
X4050646Y1829899D01*
X4050756Y1830145D01*
X4050865Y1830391D01*
X4050974Y1830664D01*
X4051056Y1830964D01*
Y1830991D01*
X4051083Y1831073D01*
X4051110Y1831210D01*
X4051138Y1831401D01*
Y1831674D01*
X4051165Y1832002D01*
X4051192Y1832384D01*
Y1836670D01*
X4039999D01*
Y1840000D01*
X4065197D01*
Y1828289D01*
D02*
G37*
G36*
X4064870Y1799378D02*
X4062440D01*
X4062413Y1799405D01*
X4062331Y1799487D01*
X4062167Y1799624D01*
X4061976Y1799787D01*
X4061703Y1800006D01*
X4061403Y1800279D01*
X4061048Y1800552D01*
X4060638Y1800880D01*
X4060174Y1801234D01*
X4059655Y1801617D01*
X4059082Y1802026D01*
X4058481Y1802436D01*
X4057854Y1802845D01*
X4057144Y1803282D01*
X4056407Y1803746D01*
X4055642Y1804183D01*
X4055588Y1804210D01*
X4055451Y1804292D01*
X4055233Y1804401D01*
X4054905Y1804565D01*
X4054523Y1804756D01*
X4054059Y1805002D01*
X4053540Y1805247D01*
X4052967Y1805521D01*
X4052339Y1805793D01*
X4051657Y1806094D01*
X4050919Y1806394D01*
X4050182Y1806694D01*
X4049391Y1806995D01*
X4048572Y1807295D01*
X4046906Y1807814D01*
X4046879D01*
X4046770Y1807841D01*
X4046579Y1807896D01*
X4046360Y1807950D01*
X4046060Y1808032D01*
X4045705Y1808114D01*
X4045296Y1808223D01*
X4044859Y1808305D01*
X4044367Y1808414D01*
X4043821Y1808496D01*
X4043248Y1808605D01*
X4042648Y1808687D01*
X4042020Y1808796D01*
X4041364Y1808878D01*
X4039999Y1808988D01*
Y1812154D01*
X4040027D01*
X4040136D01*
X4040300D01*
X4040518Y1812127D01*
X4040818Y1812100D01*
X4041146Y1812072D01*
X4041555Y1812045D01*
X4041992Y1811991D01*
X4042511Y1811936D01*
X4043030Y1811854D01*
X4043630Y1811772D01*
X4044258Y1811663D01*
X4044941Y1811526D01*
X4045651Y1811390D01*
X4046388Y1811199D01*
X4047152Y1811008D01*
X4047207Y1810980D01*
X4047343Y1810953D01*
X4047561Y1810899D01*
X4047862Y1810789D01*
X4048244Y1810680D01*
X4048708Y1810544D01*
X4049200Y1810380D01*
X4049745Y1810189D01*
X4050346Y1809970D01*
X4051001Y1809725D01*
X4051684Y1809479D01*
X4052366Y1809179D01*
X4053813Y1808551D01*
X4055287Y1807814D01*
X4055342Y1807786D01*
X4055451Y1807705D01*
X4055670Y1807595D01*
X4055943Y1807459D01*
X4056270Y1807240D01*
X4056652Y1807022D01*
X4057089Y1806749D01*
X4057581Y1806476D01*
X4058072Y1806148D01*
X4058618Y1805793D01*
X4059710Y1805029D01*
X4060829Y1804210D01*
X4061375Y1803773D01*
X4061894Y1803336D01*
Y1815676D01*
X4064870D01*
Y1799378D01*
D02*
G37*
G36*
X4180607Y1754903D02*
X4180580Y1754603D01*
Y1754302D01*
X4180552Y1753947D01*
X4180525Y1753538D01*
X4180443Y1752719D01*
X4180307Y1751873D01*
X4180143Y1751054D01*
X4180034Y1750699D01*
X4179924Y1750344D01*
Y1750317D01*
X4179897Y1750262D01*
X4179842Y1750180D01*
X4179788Y1750044D01*
X4179624Y1749716D01*
X4179378Y1749334D01*
X4179051Y1748870D01*
X4178614Y1748406D01*
X4178123Y1747941D01*
X4177522Y1747532D01*
X4177495D01*
X4177440Y1747477D01*
X4177358Y1747423D01*
X4177222Y1747368D01*
X4177058Y1747286D01*
X4176867Y1747204D01*
X4176648Y1747095D01*
X4176403Y1746986D01*
X4175829Y1746795D01*
X4175202Y1746631D01*
X4174492Y1746522D01*
X4173727Y1746467D01*
X4173700D01*
X4173618D01*
X4173454D01*
X4173291Y1746495D01*
X4173045Y1746522D01*
X4172772Y1746549D01*
X4172471Y1746604D01*
X4172144Y1746686D01*
X4171434Y1746904D01*
X4171052Y1747041D01*
X4170670Y1747204D01*
X4170288Y1747396D01*
X4169905Y1747641D01*
X4169550Y1747914D01*
X4169195Y1748215D01*
X4169168Y1748242D01*
X4169114Y1748296D01*
X4169032Y1748406D01*
X4168895Y1748542D01*
X4168759Y1748733D01*
X4168595Y1748952D01*
X4168404Y1749225D01*
X4168213Y1749552D01*
X4168022Y1749907D01*
X4167831Y1750289D01*
X4167639Y1750726D01*
X4167448Y1751217D01*
X4167284Y1751736D01*
X4167121Y1752310D01*
X4166984Y1752937D01*
X4166875Y1753593D01*
Y1753565D01*
X4166848Y1753538D01*
X4166766Y1753374D01*
X4166629Y1753129D01*
X4166466Y1752828D01*
X4166274Y1752501D01*
X4166083Y1752173D01*
X4165838Y1751845D01*
X4165619Y1751572D01*
X4165592Y1751545D01*
X4165565Y1751518D01*
X4165483Y1751436D01*
X4165373Y1751327D01*
X4165237Y1751190D01*
X4165073Y1751026D01*
X4164691Y1750671D01*
X4164200Y1750262D01*
X4163626Y1749798D01*
X4162971Y1749306D01*
X4162261Y1748815D01*
X4155409Y1744447D01*
Y1748624D01*
X4160651Y1751955D01*
X4160678Y1751982D01*
X4160760Y1752009D01*
X4160869Y1752091D01*
X4161033Y1752200D01*
X4161224Y1752310D01*
X4161442Y1752473D01*
X4161934Y1752801D01*
X4162507Y1753183D01*
X4163080Y1753565D01*
X4163626Y1753975D01*
X4164118Y1754357D01*
X4164145D01*
X4164172Y1754412D01*
X4164309Y1754521D01*
X4164527Y1754685D01*
X4164773Y1754930D01*
X4165046Y1755176D01*
X4165319Y1755476D01*
X4165592Y1755777D01*
X4165783Y1756050D01*
X4165810Y1756077D01*
X4165865Y1756186D01*
X4165947Y1756323D01*
X4166056Y1756514D01*
X4166165Y1756759D01*
X4166274Y1757005D01*
X4166384Y1757278D01*
X4166466Y1757578D01*
Y1757606D01*
X4166493Y1757688D01*
X4166520Y1757824D01*
X4166547Y1758015D01*
Y1758288D01*
X4166575Y1758616D01*
X4166602Y1758998D01*
Y1763284D01*
X4155409D01*
Y1766615D01*
X4180607D01*
Y1754903D01*
D02*
G37*
G36*
X4167885Y1742618D02*
X4168104D01*
X4168377Y1742591D01*
X4168977Y1742563D01*
X4169660Y1742509D01*
X4170424Y1742427D01*
X4171243Y1742318D01*
X4172117Y1742154D01*
X4172990Y1741990D01*
X4173864Y1741772D01*
X4174737Y1741499D01*
X4175584Y1741198D01*
X4176403Y1740843D01*
X4177140Y1740407D01*
X4177795Y1739943D01*
X4177822Y1739915D01*
X4177931Y1739833D01*
X4178068Y1739697D01*
X4178259Y1739506D01*
X4178477Y1739287D01*
X4178723Y1738987D01*
X4178969Y1738659D01*
X4179242Y1738277D01*
X4179515Y1737841D01*
X4179761Y1737349D01*
X4180006Y1736830D01*
X4180225Y1736257D01*
X4180416Y1735657D01*
X4180552Y1735001D01*
X4180662Y1734319D01*
X4180689Y1733582D01*
Y1733281D01*
X4180662Y1733090D01*
X4180634Y1732845D01*
X4180607Y1732544D01*
X4180552Y1732217D01*
X4180470Y1731862D01*
X4180279Y1731070D01*
X4180143Y1730688D01*
X4179979Y1730251D01*
X4179788Y1729842D01*
X4179542Y1729459D01*
X4179297Y1729077D01*
X4178996Y1728695D01*
X4178969Y1728668D01*
X4178914Y1728613D01*
X4178832Y1728504D01*
X4178696Y1728395D01*
X4178532Y1728231D01*
X4178314Y1728067D01*
X4178068Y1727876D01*
X4177795Y1727685D01*
X4177495Y1727494D01*
X4177140Y1727303D01*
X4176758Y1727112D01*
X4176348Y1726920D01*
X4175911Y1726757D01*
X4175447Y1726620D01*
X4174956Y1726484D01*
X4174410Y1726402D01*
X4174164Y1729487D01*
X4174191D01*
X4174246Y1729514D01*
X4174328Y1729541D01*
X4174464Y1729569D01*
X4174792Y1729650D01*
X4175174Y1729787D01*
X4175611Y1729951D01*
X4176048Y1730169D01*
X4176457Y1730388D01*
X4176812Y1730661D01*
X4176840Y1730688D01*
X4176867Y1730715D01*
X4176949Y1730797D01*
X4177031Y1730879D01*
X4177249Y1731152D01*
X4177495Y1731534D01*
X4177740Y1731971D01*
X4177931Y1732517D01*
X4178095Y1733118D01*
X4178123Y1733445D01*
X4178150Y1733773D01*
Y1734018D01*
X4178095Y1734319D01*
X4178041Y1734674D01*
X4177931Y1735083D01*
X4177795Y1735520D01*
X4177577Y1735957D01*
X4177304Y1736394D01*
Y1736421D01*
X4177249Y1736448D01*
X4177194Y1736530D01*
X4177113Y1736639D01*
X4176867Y1736885D01*
X4176512Y1737213D01*
X4176075Y1737595D01*
X4175529Y1737977D01*
X4174901Y1738332D01*
X4174191Y1738687D01*
X4174164D01*
X4174109Y1738714D01*
X4173973Y1738769D01*
X4173809Y1738823D01*
X4173618Y1738878D01*
X4173345Y1738960D01*
X4173045Y1739042D01*
X4172717Y1739124D01*
X4172335Y1739206D01*
X4171898Y1739260D01*
X4171407Y1739342D01*
X4170888Y1739424D01*
X4170342Y1739478D01*
X4169742Y1739506D01*
X4169086Y1739533D01*
X4168432Y1739559D01*
X4168486Y1739506D01*
X4168568Y1739451D01*
X4168677Y1739369D01*
X4168977Y1739124D01*
X4169359Y1738823D01*
X4169769Y1738414D01*
X4170178Y1737950D01*
X4170560Y1737431D01*
X4170915Y1736858D01*
Y1736830D01*
X4170943Y1736776D01*
X4170997Y1736694D01*
X4171052Y1736585D01*
X4171106Y1736421D01*
X4171188Y1736257D01*
X4171352Y1735820D01*
X4171489Y1735302D01*
X4171625Y1734728D01*
X4171734Y1734100D01*
X4171762Y1733445D01*
Y1733309D01*
X4171734Y1733145D01*
Y1732927D01*
X4171680Y1732653D01*
X4171653Y1732353D01*
X4171571Y1731998D01*
X4171489Y1731616D01*
X4171352Y1731234D01*
X4171216Y1730797D01*
X4171025Y1730360D01*
X4170806Y1729924D01*
X4170533Y1729459D01*
X4170233Y1729023D01*
X4169878Y1728586D01*
X4169468Y1728176D01*
X4169441Y1728149D01*
X4169359Y1728094D01*
X4169250Y1727985D01*
X4169059Y1727821D01*
X4168841Y1727658D01*
X4168568Y1727494D01*
X4168240Y1727275D01*
X4167885Y1727084D01*
X4167476Y1726893D01*
X4167039Y1726675D01*
X4166547Y1726511D01*
X4166029Y1726320D01*
X4165483Y1726183D01*
X4164882Y1726074D01*
X4164254Y1726020D01*
X4163599Y1725992D01*
X4163572D01*
X4163490D01*
X4163381D01*
X4163190Y1726020D01*
X4162998D01*
X4162753Y1726047D01*
X4162452Y1726074D01*
X4162152Y1726129D01*
X4161470Y1726238D01*
X4160733Y1726429D01*
X4159968Y1726675D01*
X4159176Y1727030D01*
X4159149D01*
X4159095Y1727084D01*
X4158985Y1727139D01*
X4158849Y1727221D01*
X4158685Y1727330D01*
X4158494Y1727439D01*
X4158030Y1727767D01*
X4157538Y1728149D01*
X4157020Y1728640D01*
X4156501Y1729214D01*
X4156064Y1729842D01*
Y1729869D01*
X4156010Y1729924D01*
X4155955Y1730033D01*
X4155900Y1730169D01*
X4155819Y1730333D01*
X4155737Y1730524D01*
X4155627Y1730770D01*
X4155546Y1731015D01*
X4155327Y1731616D01*
X4155163Y1732326D01*
X4155054Y1733090D01*
X4154999Y1733909D01*
Y1734073D01*
X4155027Y1734292D01*
X4155054Y1734564D01*
X4155081Y1734892D01*
X4155163Y1735274D01*
X4155245Y1735684D01*
X4155354Y1736148D01*
X4155518Y1736639D01*
X4155682Y1737158D01*
X4155928Y1737677D01*
X4156201Y1738195D01*
X4156528Y1738741D01*
X4156910Y1739233D01*
X4157347Y1739752D01*
X4157839Y1740216D01*
X4157866Y1740243D01*
X4157975Y1740325D01*
X4158139Y1740434D01*
X4158385Y1740598D01*
X4158685Y1740789D01*
X4159067Y1740980D01*
X4159531Y1741198D01*
X4160077Y1741417D01*
X4160678Y1741662D01*
X4161360Y1741881D01*
X4162125Y1742072D01*
X4162971Y1742263D01*
X4163899Y1742427D01*
X4164909Y1742536D01*
X4166001Y1742618D01*
X4167175Y1742645D01*
X4167203D01*
X4167257D01*
X4167366D01*
X4167503D01*
X4167667D01*
X4167885Y1742618D01*
D02*
G37*
G36*
X5356619Y1800786D02*
X5356920Y1800758D01*
X5357247Y1800704D01*
X5357630Y1800649D01*
X5358066Y1800567D01*
X5358503Y1800458D01*
X5358994Y1800322D01*
X5359486Y1800158D01*
X5359977Y1799967D01*
X5360469Y1799748D01*
X5360987Y1799475D01*
X5361479Y1799175D01*
X5361943Y1798820D01*
X5361970Y1798793D01*
X5362079Y1798711D01*
X5362216Y1798574D01*
X5362407Y1798383D01*
X5362653Y1798138D01*
X5362898Y1797837D01*
X5363199Y1797482D01*
X5363472Y1797073D01*
X5363745Y1796636D01*
X5364045Y1796145D01*
X5364291Y1795599D01*
X5364509Y1794998D01*
X5364727Y1794370D01*
X5364864Y1793688D01*
X5364973Y1792978D01*
X5365001Y1792214D01*
Y1791886D01*
X5364973Y1791640D01*
X5364946Y1791340D01*
X5364891Y1791012D01*
X5364837Y1790630D01*
X5364755Y1790221D01*
X5364673Y1789784D01*
X5364536Y1789320D01*
X5364373Y1788856D01*
X5364181Y1788391D01*
X5363963Y1787927D01*
X5363717Y1787463D01*
X5363417Y1787026D01*
X5363090Y1786590D01*
X5363062Y1786562D01*
X5363008Y1786508D01*
X5362898Y1786399D01*
X5362735Y1786262D01*
X5362543Y1786071D01*
X5362325Y1785880D01*
X5362052Y1785689D01*
X5361725Y1785470D01*
X5361397Y1785252D01*
X5361015Y1785034D01*
X5360578Y1784842D01*
X5360141Y1784651D01*
X5359650Y1784460D01*
X5359131Y1784324D01*
X5358558Y1784215D01*
X5357984Y1784133D01*
X5357739Y1787381D01*
X5357766D01*
X5357848Y1787409D01*
X5357957Y1787436D01*
X5358121Y1787463D01*
X5358312Y1787491D01*
X5358558Y1787572D01*
X5359076Y1787709D01*
X5359650Y1787927D01*
X5360250Y1788228D01*
X5360796Y1788583D01*
X5361042Y1788801D01*
X5361288Y1789019D01*
Y1789047D01*
X5361342Y1789074D01*
X5361397Y1789156D01*
X5361479Y1789265D01*
X5361670Y1789538D01*
X5361861Y1789920D01*
X5362079Y1790384D01*
X5362270Y1790930D01*
X5362407Y1791531D01*
X5362434Y1791859D01*
X5362462Y1792214D01*
Y1792432D01*
X5362434Y1792596D01*
X5362407Y1792787D01*
X5362380Y1793005D01*
X5362243Y1793524D01*
X5362052Y1794124D01*
X5361916Y1794425D01*
X5361752Y1794752D01*
X5361561Y1795080D01*
X5361342Y1795380D01*
X5361097Y1795681D01*
X5360796Y1795981D01*
X5360769Y1796008D01*
X5360714Y1796035D01*
X5360632Y1796117D01*
X5360496Y1796227D01*
X5360305Y1796336D01*
X5360114Y1796472D01*
X5359868Y1796609D01*
X5359595Y1796773D01*
X5359295Y1796909D01*
X5358967Y1797046D01*
X5358585Y1797182D01*
X5358203Y1797291D01*
X5357766Y1797400D01*
X5357302Y1797482D01*
X5356838Y1797510D01*
X5356319Y1797537D01*
X5356292D01*
X5356210D01*
X5356073D01*
X5355882Y1797510D01*
X5355664Y1797482D01*
X5355391Y1797455D01*
X5355118Y1797400D01*
X5354790Y1797346D01*
X5354135Y1797182D01*
X5353425Y1796909D01*
X5353098Y1796745D01*
X5352770Y1796527D01*
X5352443Y1796309D01*
X5352142Y1796035D01*
X5352115Y1796008D01*
X5352088Y1795981D01*
X5352006Y1795872D01*
X5351896Y1795763D01*
X5351787Y1795626D01*
X5351651Y1795435D01*
X5351514Y1795244D01*
X5351350Y1794998D01*
X5351214Y1794725D01*
X5351078Y1794452D01*
X5350832Y1793770D01*
X5350723Y1793415D01*
X5350641Y1793005D01*
X5350613Y1792596D01*
X5350586Y1792159D01*
Y1791913D01*
X5350613Y1791613D01*
X5350668Y1791258D01*
X5350750Y1790821D01*
X5350886Y1790357D01*
X5351050Y1789893D01*
X5351296Y1789429D01*
X5351323Y1789374D01*
X5351405Y1789238D01*
X5351569Y1789019D01*
X5351760Y1788746D01*
X5352033Y1788473D01*
X5352333Y1788146D01*
X5352688Y1787845D01*
X5353070Y1787572D01*
X5352661Y1784679D01*
X5339721Y1787108D01*
Y1799639D01*
X5342669D01*
Y1789565D01*
X5349440Y1788228D01*
X5349412Y1788255D01*
X5349358Y1788337D01*
X5349303Y1788446D01*
X5349194Y1788610D01*
X5349085Y1788828D01*
X5348948Y1789074D01*
X5348784Y1789347D01*
X5348648Y1789675D01*
X5348511Y1790002D01*
X5348347Y1790384D01*
X5348102Y1791176D01*
X5347993Y1791613D01*
X5347911Y1792050D01*
X5347883Y1792514D01*
X5347856Y1792978D01*
Y1793114D01*
X5347883Y1793305D01*
Y1793524D01*
X5347938Y1793797D01*
X5347965Y1794124D01*
X5348047Y1794507D01*
X5348129Y1794889D01*
X5348266Y1795326D01*
X5348402Y1795763D01*
X5348593Y1796227D01*
X5348812Y1796691D01*
X5349085Y1797155D01*
X5349385Y1797619D01*
X5349740Y1798083D01*
X5350149Y1798520D01*
X5350177Y1798547D01*
X5350258Y1798629D01*
X5350395Y1798738D01*
X5350559Y1798875D01*
X5350777Y1799066D01*
X5351078Y1799257D01*
X5351378Y1799448D01*
X5351733Y1799666D01*
X5352142Y1799885D01*
X5352606Y1800076D01*
X5353070Y1800294D01*
X5353616Y1800458D01*
X5354162Y1800595D01*
X5354763Y1800704D01*
X5355391Y1800786D01*
X5356046Y1800813D01*
X5356073D01*
X5356210D01*
X5356374D01*
X5356619Y1800786D01*
D02*
G37*
G36*
X5364591Y1777990D02*
X5359349Y1774660D01*
X5359322Y1774632D01*
X5359240Y1774605D01*
X5359131Y1774523D01*
X5358967Y1774414D01*
X5358776Y1774305D01*
X5358558Y1774141D01*
X5358066Y1773813D01*
X5357493Y1773431D01*
X5356920Y1773049D01*
X5356374Y1772639D01*
X5355882Y1772257D01*
X5355855D01*
X5355828Y1772203D01*
X5355691Y1772093D01*
X5355473Y1771930D01*
X5355227Y1771684D01*
X5354954Y1771438D01*
X5354681Y1771138D01*
X5354408Y1770838D01*
X5354217Y1770565D01*
X5354190Y1770537D01*
X5354135Y1770428D01*
X5354053Y1770292D01*
X5353944Y1770101D01*
X5353835Y1769855D01*
X5353726Y1769609D01*
X5353616Y1769336D01*
X5353534Y1769036D01*
Y1769008D01*
X5353507Y1768927D01*
X5353480Y1768790D01*
X5353453Y1768599D01*
Y1768326D01*
X5353425Y1767998D01*
X5353398Y1767616D01*
Y1763330D01*
X5364591D01*
Y1759999D01*
X5339393D01*
Y1771711D01*
X5339420Y1772012D01*
Y1772312D01*
X5339448Y1772667D01*
X5339475Y1773076D01*
X5339557Y1773895D01*
X5339693Y1774742D01*
X5339857Y1775561D01*
X5339966Y1775915D01*
X5340076Y1776270D01*
Y1776298D01*
X5340103Y1776352D01*
X5340158Y1776434D01*
X5340212Y1776571D01*
X5340376Y1776898D01*
X5340622Y1777280D01*
X5340949Y1777745D01*
X5341386Y1778209D01*
X5341877Y1778673D01*
X5342478Y1779082D01*
X5342505D01*
X5342560Y1779137D01*
X5342642Y1779191D01*
X5342778Y1779246D01*
X5342942Y1779328D01*
X5343133Y1779410D01*
X5343352Y1779519D01*
X5343597Y1779628D01*
X5344171Y1779819D01*
X5344798Y1779983D01*
X5345508Y1780092D01*
X5346273Y1780147D01*
X5346300D01*
X5346382D01*
X5346546D01*
X5346709Y1780120D01*
X5346955Y1780092D01*
X5347228Y1780065D01*
X5347529Y1780010D01*
X5347856Y1779928D01*
X5348566Y1779710D01*
X5348948Y1779574D01*
X5349330Y1779410D01*
X5349712Y1779219D01*
X5350095Y1778973D01*
X5350450Y1778700D01*
X5350805Y1778400D01*
X5350832Y1778372D01*
X5350886Y1778318D01*
X5350968Y1778209D01*
X5351105Y1778072D01*
X5351241Y1777881D01*
X5351405Y1777663D01*
X5351596Y1777390D01*
X5351787Y1777062D01*
X5351978Y1776707D01*
X5352169Y1776325D01*
X5352361Y1775888D01*
X5352552Y1775397D01*
X5352716Y1774878D01*
X5352879Y1774305D01*
X5353016Y1773677D01*
X5353125Y1773022D01*
Y1773049D01*
X5353152Y1773076D01*
X5353234Y1773240D01*
X5353371Y1773486D01*
X5353534Y1773786D01*
X5353726Y1774114D01*
X5353917Y1774441D01*
X5354162Y1774769D01*
X5354381Y1775042D01*
X5354408Y1775069D01*
X5354435Y1775096D01*
X5354517Y1775178D01*
X5354627Y1775287D01*
X5354763Y1775424D01*
X5354927Y1775588D01*
X5355309Y1775943D01*
X5355800Y1776352D01*
X5356374Y1776816D01*
X5357029Y1777308D01*
X5357739Y1777799D01*
X5364591Y1782167D01*
Y1777990D01*
D02*
G37*
G36*
X5358967Y2042128D02*
X5365001D01*
Y2039043D01*
X5358967D01*
Y2028068D01*
X5356128D01*
X5339803Y2039589D01*
Y2042128D01*
X5356128D01*
Y2045540D01*
X5358967D01*
Y2042128D01*
D02*
G37*
G36*
X5365001Y2022990D02*
X5359759Y2019660D01*
X5359732Y2019632D01*
X5359650Y2019605D01*
X5359541Y2019523D01*
X5359377Y2019414D01*
X5359186Y2019305D01*
X5358967Y2019141D01*
X5358476Y2018813D01*
X5357903Y2018431D01*
X5357329Y2018049D01*
X5356783Y2017639D01*
X5356292Y2017257D01*
X5356265D01*
X5356237Y2017203D01*
X5356101Y2017093D01*
X5355882Y2016930D01*
X5355637Y2016684D01*
X5355364Y2016438D01*
X5355091Y2016138D01*
X5354818Y2015838D01*
X5354627Y2015565D01*
X5354599Y2015537D01*
X5354545Y2015428D01*
X5354463Y2015292D01*
X5354354Y2015101D01*
X5354244Y2014855D01*
X5354135Y2014609D01*
X5354026Y2014336D01*
X5353944Y2014036D01*
Y2014008D01*
X5353917Y2013927D01*
X5353889Y2013790D01*
X5353862Y2013599D01*
Y2013326D01*
X5353835Y2012998D01*
X5353807Y2012616D01*
Y2008330D01*
X5365001D01*
Y2004999D01*
X5339803D01*
Y2016711D01*
X5339830Y2017012D01*
Y2017312D01*
X5339857Y2017667D01*
X5339885Y2018076D01*
X5339966Y2018895D01*
X5340103Y2019742D01*
X5340267Y2020561D01*
X5340376Y2020915D01*
X5340485Y2021270D01*
Y2021298D01*
X5340512Y2021352D01*
X5340567Y2021434D01*
X5340622Y2021571D01*
X5340785Y2021898D01*
X5341031Y2022280D01*
X5341359Y2022745D01*
X5341796Y2023209D01*
X5342287Y2023673D01*
X5342887Y2024082D01*
X5342915D01*
X5342969Y2024137D01*
X5343051Y2024191D01*
X5343188Y2024246D01*
X5343352Y2024328D01*
X5343543Y2024410D01*
X5343761Y2024519D01*
X5344007Y2024628D01*
X5344580Y2024819D01*
X5345208Y2024983D01*
X5345918Y2025092D01*
X5346682Y2025147D01*
X5346709D01*
X5346791D01*
X5346955D01*
X5347119Y2025120D01*
X5347365Y2025092D01*
X5347638Y2025065D01*
X5347938Y2025010D01*
X5348266Y2024928D01*
X5348975Y2024710D01*
X5349358Y2024574D01*
X5349740Y2024410D01*
X5350122Y2024219D01*
X5350504Y2023973D01*
X5350859Y2023700D01*
X5351214Y2023400D01*
X5351241Y2023372D01*
X5351296Y2023318D01*
X5351378Y2023209D01*
X5351514Y2023072D01*
X5351651Y2022881D01*
X5351815Y2022663D01*
X5352006Y2022390D01*
X5352197Y2022062D01*
X5352388Y2021707D01*
X5352579Y2021325D01*
X5352770Y2020888D01*
X5352961Y2020397D01*
X5353125Y2019878D01*
X5353289Y2019305D01*
X5353425Y2018677D01*
X5353534Y2018022D01*
Y2018049D01*
X5353562Y2018076D01*
X5353644Y2018240D01*
X5353780Y2018486D01*
X5353944Y2018786D01*
X5354135Y2019114D01*
X5354326Y2019441D01*
X5354572Y2019769D01*
X5354790Y2020042D01*
X5354818Y2020069D01*
X5354845Y2020096D01*
X5354927Y2020178D01*
X5355036Y2020287D01*
X5355172Y2020424D01*
X5355336Y2020588D01*
X5355718Y2020943D01*
X5356210Y2021352D01*
X5356783Y2021816D01*
X5357438Y2022308D01*
X5358148Y2022799D01*
X5365001Y2027167D01*
Y2022990D01*
D02*
G37*
G36*
X1890197Y3153289D02*
X1890170Y3152988D01*
Y3152688D01*
X1890143Y3152333D01*
X1890116Y3151924D01*
X1890034Y3151105D01*
X1889897Y3150258D01*
X1889733Y3149439D01*
X1889624Y3149084D01*
X1889515Y3148730D01*
Y3148702D01*
X1889488Y3148648D01*
X1889433Y3148566D01*
X1889379Y3148429D01*
X1889215Y3148102D01*
X1888969Y3147720D01*
X1888641Y3147255D01*
X1888205Y3146791D01*
X1887713Y3146327D01*
X1887113Y3145918D01*
X1887085D01*
X1887031Y3145863D01*
X1886949Y3145809D01*
X1886812Y3145754D01*
X1886649Y3145672D01*
X1886457Y3145590D01*
X1886239Y3145481D01*
X1885993Y3145372D01*
X1885420Y3145181D01*
X1884792Y3145017D01*
X1884082Y3144908D01*
X1883318Y3144853D01*
X1883291D01*
X1883209D01*
X1883045D01*
X1882881Y3144880D01*
X1882635Y3144908D01*
X1882362Y3144935D01*
X1882062Y3144990D01*
X1881735Y3145071D01*
X1881025Y3145290D01*
X1880642Y3145426D01*
X1880260Y3145590D01*
X1879878Y3145781D01*
X1879496Y3146027D01*
X1879141Y3146300D01*
X1878786Y3146600D01*
X1878759Y3146628D01*
X1878704Y3146682D01*
X1878622Y3146791D01*
X1878486Y3146928D01*
X1878349Y3147119D01*
X1878186Y3147337D01*
X1877994Y3147610D01*
X1877803Y3147938D01*
X1877612Y3148293D01*
X1877421Y3148675D01*
X1877230Y3149112D01*
X1877039Y3149603D01*
X1876875Y3150122D01*
X1876711Y3150695D01*
X1876575Y3151323D01*
X1876466Y3151978D01*
Y3151951D01*
X1876438Y3151924D01*
X1876356Y3151760D01*
X1876220Y3151514D01*
X1876056Y3151214D01*
X1875865Y3150886D01*
X1875674Y3150559D01*
X1875428Y3150231D01*
X1875210Y3149958D01*
X1875182Y3149931D01*
X1875155Y3149903D01*
X1875073Y3149822D01*
X1874964Y3149712D01*
X1874828Y3149576D01*
X1874664Y3149412D01*
X1874282Y3149057D01*
X1873790Y3148648D01*
X1873217Y3148184D01*
X1872562Y3147692D01*
X1871852Y3147201D01*
X1865000Y3142833D01*
Y3147010D01*
X1870241Y3150340D01*
X1870268Y3150368D01*
X1870350Y3150395D01*
X1870460Y3150477D01*
X1870623Y3150586D01*
X1870814Y3150695D01*
X1871033Y3150859D01*
X1871524Y3151187D01*
X1872098Y3151569D01*
X1872671Y3151951D01*
X1873217Y3152360D01*
X1873708Y3152743D01*
X1873736D01*
X1873763Y3152797D01*
X1873899Y3152907D01*
X1874118Y3153070D01*
X1874363Y3153316D01*
X1874637Y3153562D01*
X1874909Y3153862D01*
X1875182Y3154162D01*
X1875374Y3154435D01*
X1875401Y3154463D01*
X1875456Y3154572D01*
X1875537Y3154708D01*
X1875647Y3154899D01*
X1875756Y3155145D01*
X1875865Y3155391D01*
X1875974Y3155664D01*
X1876056Y3155964D01*
Y3155991D01*
X1876083Y3156073D01*
X1876111Y3156210D01*
X1876138Y3156401D01*
Y3156674D01*
X1876165Y3157001D01*
X1876193Y3157384D01*
Y3161670D01*
X1865000D01*
Y3165000D01*
X1890197D01*
Y3153289D01*
D02*
G37*
G36*
X1865682Y3141277D02*
X1866010Y3141249D01*
X1866365Y3141168D01*
X1866747Y3141086D01*
X1867129Y3140949D01*
X1867156D01*
X1867211Y3140922D01*
X1867293Y3140894D01*
X1867429Y3140840D01*
X1867566Y3140758D01*
X1867757Y3140676D01*
X1868194Y3140458D01*
X1868712Y3140185D01*
X1869286Y3139830D01*
X1869886Y3139420D01*
X1870487Y3138929D01*
X1870514Y3138902D01*
X1870569Y3138874D01*
X1870651Y3138792D01*
X1870787Y3138656D01*
X1870924Y3138519D01*
X1871115Y3138328D01*
X1871333Y3138137D01*
X1871579Y3137892D01*
X1871852Y3137619D01*
X1872125Y3137318D01*
X1872453Y3136991D01*
X1872780Y3136608D01*
X1873135Y3136226D01*
X1873490Y3135789D01*
X1873872Y3135353D01*
X1874282Y3134861D01*
X1874309Y3134807D01*
X1874445Y3134670D01*
X1874609Y3134479D01*
X1874855Y3134206D01*
X1875128Y3133878D01*
X1875456Y3133496D01*
X1875810Y3133059D01*
X1876220Y3132623D01*
X1877066Y3131694D01*
X1877967Y3130794D01*
X1878404Y3130357D01*
X1878841Y3129947D01*
X1879250Y3129592D01*
X1879632Y3129292D01*
X1879660Y3129265D01*
X1879714Y3129237D01*
X1879823Y3129155D01*
X1879960Y3129074D01*
X1880151Y3128937D01*
X1880342Y3128828D01*
X1880834Y3128555D01*
X1881407Y3128282D01*
X1882035Y3128036D01*
X1882690Y3127872D01*
X1883018Y3127845D01*
X1883345Y3127818D01*
X1883372D01*
X1883427D01*
X1883536D01*
X1883646Y3127845D01*
X1883809D01*
X1884000Y3127900D01*
X1884410Y3127982D01*
X1884901Y3128145D01*
X1885420Y3128391D01*
X1885693Y3128528D01*
X1885939Y3128719D01*
X1886184Y3128910D01*
X1886430Y3129155D01*
X1886457Y3129183D01*
X1886485Y3129210D01*
X1886539Y3129292D01*
X1886621Y3129401D01*
X1886730Y3129538D01*
X1886840Y3129702D01*
X1887085Y3130084D01*
X1887304Y3130602D01*
X1887522Y3131176D01*
X1887659Y3131858D01*
X1887713Y3132240D01*
Y3132841D01*
X1887686Y3133005D01*
Y3133196D01*
X1887631Y3133414D01*
X1887549Y3133906D01*
X1887386Y3134479D01*
X1887140Y3135080D01*
X1886976Y3135380D01*
X1886812Y3135680D01*
X1886594Y3135953D01*
X1886348Y3136226D01*
X1886321Y3136253D01*
X1886294Y3136281D01*
X1886212Y3136335D01*
X1886102Y3136445D01*
X1885966Y3136526D01*
X1885802Y3136636D01*
X1885611Y3136772D01*
X1885393Y3136881D01*
X1885147Y3137018D01*
X1884874Y3137127D01*
X1884219Y3137345D01*
X1883509Y3137509D01*
X1883100Y3137537D01*
X1882663Y3137564D01*
X1882990Y3140731D01*
X1883045D01*
X1883154Y3140703D01*
X1883318Y3140676D01*
X1883564Y3140649D01*
X1883864Y3140594D01*
X1884219Y3140512D01*
X1884601Y3140430D01*
X1885011Y3140294D01*
X1885420Y3140157D01*
X1885884Y3139994D01*
X1886321Y3139775D01*
X1886758Y3139557D01*
X1887222Y3139284D01*
X1887631Y3138983D01*
X1888041Y3138656D01*
X1888396Y3138274D01*
X1888423Y3138246D01*
X1888478Y3138164D01*
X1888560Y3138055D01*
X1888696Y3137892D01*
X1888832Y3137673D01*
X1888996Y3137400D01*
X1889160Y3137100D01*
X1889351Y3136745D01*
X1889515Y3136363D01*
X1889679Y3135926D01*
X1889843Y3135462D01*
X1889979Y3134943D01*
X1890116Y3134397D01*
X1890197Y3133824D01*
X1890252Y3133196D01*
X1890279Y3132541D01*
Y3132186D01*
X1890252Y3131940D01*
X1890225Y3131640D01*
X1890170Y3131285D01*
X1890116Y3130875D01*
X1890034Y3130466D01*
X1889925Y3130002D01*
X1889788Y3129538D01*
X1889624Y3129046D01*
X1889433Y3128582D01*
X1889187Y3128091D01*
X1888914Y3127627D01*
X1888614Y3127190D01*
X1888259Y3126780D01*
X1888232Y3126753D01*
X1888177Y3126698D01*
X1888041Y3126589D01*
X1887904Y3126453D01*
X1887713Y3126289D01*
X1887467Y3126098D01*
X1887195Y3125907D01*
X1886867Y3125716D01*
X1886539Y3125525D01*
X1886157Y3125334D01*
X1885748Y3125142D01*
X1885311Y3124979D01*
X1884819Y3124842D01*
X1884328Y3124733D01*
X1883809Y3124678D01*
X1883263Y3124651D01*
X1883236D01*
X1883209D01*
X1883127D01*
X1883018D01*
X1882717Y3124678D01*
X1882335Y3124733D01*
X1881871Y3124815D01*
X1881380Y3124924D01*
X1880834Y3125061D01*
X1880288Y3125279D01*
X1880260D01*
X1880233Y3125306D01*
X1880151Y3125334D01*
X1880042Y3125388D01*
X1879742Y3125552D01*
X1879359Y3125770D01*
X1878895Y3126071D01*
X1878377Y3126425D01*
X1877831Y3126835D01*
X1877230Y3127354D01*
X1877203Y3127381D01*
X1877148Y3127408D01*
X1877066Y3127517D01*
X1876930Y3127627D01*
X1876766Y3127791D01*
X1876575Y3127982D01*
X1876329Y3128200D01*
X1876083Y3128473D01*
X1875783Y3128801D01*
X1875456Y3129155D01*
X1875073Y3129538D01*
X1874691Y3129974D01*
X1874254Y3130439D01*
X1873818Y3130957D01*
X1873326Y3131531D01*
X1872807Y3132131D01*
X1872780Y3132159D01*
X1872698Y3132240D01*
X1872589Y3132404D01*
X1872425Y3132568D01*
X1872234Y3132814D01*
X1872016Y3133059D01*
X1871524Y3133633D01*
X1871006Y3134233D01*
X1870460Y3134807D01*
X1870214Y3135080D01*
X1869995Y3135325D01*
X1869777Y3135544D01*
X1869613Y3135707D01*
X1869586Y3135735D01*
X1869477Y3135844D01*
X1869313Y3135981D01*
X1869095Y3136172D01*
X1868849Y3136390D01*
X1868576Y3136608D01*
X1867975Y3137045D01*
Y3124624D01*
X1865000D01*
Y3141304D01*
X1865054D01*
X1865191D01*
X1865409D01*
X1865682Y3141277D01*
D02*
G37*
G36*
X1988114Y2520252D02*
X1988415Y2520225D01*
X1988770Y2520170D01*
X1989179Y2520115D01*
X1989589Y2520034D01*
X1990053Y2519924D01*
X1990517Y2519788D01*
X1991008Y2519624D01*
X1991472Y2519433D01*
X1991964Y2519187D01*
X1992428Y2518914D01*
X1992865Y2518614D01*
X1993274Y2518259D01*
X1993301Y2518232D01*
X1993356Y2518177D01*
X1993465Y2518041D01*
X1993602Y2517904D01*
X1993765Y2517713D01*
X1993957Y2517467D01*
X1994148Y2517194D01*
X1994339Y2516867D01*
X1994530Y2516539D01*
X1994721Y2516157D01*
X1994912Y2515747D01*
X1995076Y2515311D01*
X1995212Y2514819D01*
X1995322Y2514328D01*
X1995376Y2513809D01*
X1995403Y2513263D01*
Y2513236D01*
Y2513209D01*
Y2513127D01*
Y2513017D01*
X1995376Y2512717D01*
X1995322Y2512335D01*
X1995240Y2511871D01*
X1995130Y2511380D01*
X1994994Y2510834D01*
X1994776Y2510287D01*
Y2510260D01*
X1994748Y2510233D01*
X1994721Y2510151D01*
X1994666Y2510042D01*
X1994503Y2509742D01*
X1994284Y2509359D01*
X1993984Y2508895D01*
X1993629Y2508376D01*
X1993219Y2507831D01*
X1992701Y2507230D01*
X1992674Y2507203D01*
X1992646Y2507148D01*
X1992537Y2507066D01*
X1992428Y2506930D01*
X1992264Y2506766D01*
X1992073Y2506575D01*
X1991854Y2506329D01*
X1991582Y2506083D01*
X1991254Y2505783D01*
X1990899Y2505455D01*
X1990517Y2505073D01*
X1990080Y2504691D01*
X1989616Y2504254D01*
X1989097Y2503817D01*
X1988524Y2503326D01*
X1987923Y2502807D01*
X1987896Y2502780D01*
X1987814Y2502698D01*
X1987650Y2502589D01*
X1987486Y2502425D01*
X1987241Y2502234D01*
X1986995Y2502016D01*
X1986422Y2501524D01*
X1985821Y2501006D01*
X1985248Y2500459D01*
X1984975Y2500214D01*
X1984729Y2499995D01*
X1984511Y2499777D01*
X1984347Y2499613D01*
X1984320Y2499586D01*
X1984210Y2499477D01*
X1984074Y2499313D01*
X1983883Y2499095D01*
X1983665Y2498849D01*
X1983446Y2498576D01*
X1983009Y2497975D01*
X1995431D01*
Y2494999D01*
X1978751D01*
Y2495054D01*
Y2495191D01*
Y2495409D01*
X1978778Y2495682D01*
X1978805Y2496010D01*
X1978887Y2496365D01*
X1978969Y2496747D01*
X1979105Y2497129D01*
Y2497156D01*
X1979133Y2497211D01*
X1979160Y2497293D01*
X1979215Y2497429D01*
X1979296Y2497566D01*
X1979378Y2497757D01*
X1979597Y2498194D01*
X1979870Y2498712D01*
X1980225Y2499286D01*
X1980634Y2499886D01*
X1981126Y2500487D01*
X1981153Y2500514D01*
X1981180Y2500569D01*
X1981262Y2500651D01*
X1981399Y2500787D01*
X1981535Y2500924D01*
X1981726Y2501115D01*
X1981917Y2501333D01*
X1982163Y2501579D01*
X1982436Y2501852D01*
X1982736Y2502125D01*
X1983064Y2502452D01*
X1983446Y2502780D01*
X1983828Y2503135D01*
X1984265Y2503490D01*
X1984702Y2503872D01*
X1985193Y2504282D01*
X1985248Y2504309D01*
X1985384Y2504445D01*
X1985575Y2504609D01*
X1985849Y2504855D01*
X1986176Y2505128D01*
X1986558Y2505455D01*
X1986995Y2505810D01*
X1987432Y2506220D01*
X1988360Y2507066D01*
X1989261Y2507967D01*
X1989698Y2508404D01*
X1990107Y2508841D01*
X1990462Y2509250D01*
X1990763Y2509632D01*
X1990790Y2509660D01*
X1990817Y2509714D01*
X1990899Y2509823D01*
X1990981Y2509960D01*
X1991117Y2510151D01*
X1991227Y2510342D01*
X1991500Y2510834D01*
X1991773Y2511407D01*
X1992018Y2512035D01*
X1992182Y2512690D01*
X1992209Y2513017D01*
X1992237Y2513345D01*
Y2513372D01*
Y2513427D01*
Y2513536D01*
X1992209Y2513645D01*
Y2513809D01*
X1992155Y2514000D01*
X1992073Y2514410D01*
X1991909Y2514901D01*
X1991663Y2515420D01*
X1991527Y2515693D01*
X1991336Y2515939D01*
X1991145Y2516184D01*
X1990899Y2516430D01*
X1990872Y2516457D01*
X1990844Y2516485D01*
X1990763Y2516539D01*
X1990653Y2516621D01*
X1990517Y2516730D01*
X1990353Y2516840D01*
X1989971Y2517085D01*
X1989452Y2517304D01*
X1988879Y2517522D01*
X1988196Y2517659D01*
X1987814Y2517713D01*
X1987214D01*
X1987050Y2517686D01*
X1986859D01*
X1986640Y2517631D01*
X1986149Y2517549D01*
X1985575Y2517385D01*
X1984975Y2517140D01*
X1984675Y2516976D01*
X1984374Y2516812D01*
X1984101Y2516594D01*
X1983828Y2516348D01*
X1983801Y2516321D01*
X1983774Y2516294D01*
X1983719Y2516212D01*
X1983610Y2516102D01*
X1983528Y2515966D01*
X1983419Y2515802D01*
X1983282Y2515611D01*
X1983173Y2515393D01*
X1983037Y2515147D01*
X1982927Y2514874D01*
X1982709Y2514219D01*
X1982545Y2513509D01*
X1982518Y2513099D01*
X1982491Y2512663D01*
X1979324Y2512990D01*
Y2513045D01*
X1979351Y2513154D01*
X1979378Y2513318D01*
X1979406Y2513564D01*
X1979460Y2513864D01*
X1979542Y2514219D01*
X1979624Y2514601D01*
X1979761Y2515010D01*
X1979897Y2515420D01*
X1980061Y2515884D01*
X1980279Y2516321D01*
X1980498Y2516758D01*
X1980771Y2517222D01*
X1981071Y2517631D01*
X1981399Y2518041D01*
X1981781Y2518396D01*
X1981808Y2518423D01*
X1981890Y2518477D01*
X1981999Y2518559D01*
X1982163Y2518696D01*
X1982381Y2518832D01*
X1982654Y2518996D01*
X1982955Y2519160D01*
X1983310Y2519351D01*
X1983692Y2519515D01*
X1984129Y2519679D01*
X1984593Y2519843D01*
X1985111Y2519979D01*
X1985657Y2520115D01*
X1986231Y2520197D01*
X1986859Y2520252D01*
X1987514Y2520279D01*
X1987869D01*
X1988114Y2520252D01*
D02*
G37*
G36*
X1964664Y2520170D02*
X1964991D01*
X1965319Y2520143D01*
X1966056Y2520115D01*
X1966793Y2520034D01*
X1967530Y2519952D01*
X1967858Y2519870D01*
X1968158Y2519815D01*
X1968185D01*
X1968267Y2519788D01*
X1968377Y2519761D01*
X1968513Y2519706D01*
X1968704Y2519651D01*
X1968922Y2519597D01*
X1969441Y2519406D01*
X1970014Y2519160D01*
X1970615Y2518860D01*
X1971243Y2518477D01*
X1971844Y2518013D01*
X1971871Y2517986D01*
X1971926Y2517932D01*
X1972035Y2517850D01*
X1972171Y2517713D01*
X1972335Y2517549D01*
X1972526Y2517331D01*
X1972745Y2517113D01*
X1972963Y2516840D01*
X1973209Y2516539D01*
X1973454Y2516212D01*
X1973700Y2515857D01*
X1973946Y2515474D01*
X1974410Y2514628D01*
X1974819Y2513700D01*
Y2513673D01*
X1974874Y2513591D01*
X1974901Y2513427D01*
X1974983Y2513236D01*
X1975065Y2512990D01*
X1975147Y2512690D01*
X1975229Y2512362D01*
X1975338Y2511980D01*
X1975420Y2511543D01*
X1975502Y2511079D01*
X1975584Y2510588D01*
X1975666Y2510069D01*
X1975747Y2509523D01*
X1975775Y2508950D01*
X1975829Y2507721D01*
Y2507694D01*
Y2507585D01*
Y2507448D01*
Y2507230D01*
X1975802Y2506984D01*
Y2506684D01*
X1975775Y2506356D01*
X1975747Y2506001D01*
X1975666Y2505210D01*
X1975529Y2504363D01*
X1975365Y2503490D01*
X1975147Y2502616D01*
Y2502589D01*
X1975120Y2502507D01*
X1975065Y2502398D01*
X1975038Y2502261D01*
X1974956Y2502070D01*
X1974874Y2501852D01*
X1974683Y2501333D01*
X1974437Y2500760D01*
X1974137Y2500132D01*
X1973809Y2499531D01*
X1973427Y2498958D01*
Y2498931D01*
X1973372Y2498903D01*
X1973318Y2498822D01*
X1973236Y2498712D01*
X1973045Y2498467D01*
X1972745Y2498139D01*
X1972417Y2497757D01*
X1972035Y2497375D01*
X1971598Y2497020D01*
X1971134Y2496665D01*
X1971107D01*
X1971079Y2496637D01*
X1970915Y2496528D01*
X1970642Y2496392D01*
X1970287Y2496201D01*
X1969851Y2496010D01*
X1969332Y2495791D01*
X1968731Y2495600D01*
X1968103Y2495409D01*
X1968076D01*
X1968022Y2495382D01*
X1967940D01*
X1967803Y2495354D01*
X1967639Y2495327D01*
X1967421Y2495273D01*
X1967203Y2495245D01*
X1966957Y2495218D01*
X1966356Y2495136D01*
X1965674Y2495054D01*
X1964909Y2495027D01*
X1964090Y2494999D01*
X1954999D01*
Y2520197D01*
X1964391D01*
X1964664Y2520170D01*
D02*
G37*
%LPC*%
G36*
X3817665Y1798851D02*
X3817638D01*
X3817556D01*
X3817419D01*
X3817228Y1798824D01*
X3817010Y1798796D01*
X3816737Y1798769D01*
X3816464Y1798742D01*
X3816136Y1798687D01*
X3815481Y1798496D01*
X3814771Y1798250D01*
X3814416Y1798086D01*
X3814089Y1797895D01*
X3813761Y1797677D01*
X3813461Y1797431D01*
X3813434Y1797404D01*
X3813379Y1797377D01*
X3813324Y1797295D01*
X3813215Y1797186D01*
X3813106Y1797049D01*
X3812969Y1796885D01*
X3812669Y1796476D01*
X3812369Y1795984D01*
X3812123Y1795384D01*
X3812014Y1795083D01*
X3811932Y1794729D01*
X3811905Y1794374D01*
X3811877Y1794019D01*
Y1793828D01*
X3811905Y1793664D01*
X3811932Y1793500D01*
X3811959Y1793282D01*
X3812096Y1792790D01*
X3812287Y1792217D01*
X3812423Y1791917D01*
X3812587Y1791616D01*
X3812778Y1791316D01*
X3813024Y1791016D01*
X3813270Y1790716D01*
X3813570Y1790415D01*
X3813597Y1790388D01*
X3813652Y1790361D01*
X3813734Y1790279D01*
X3813870Y1790169D01*
X3814034Y1790060D01*
X3814253Y1789951D01*
X3814471Y1789815D01*
X3814744Y1789678D01*
X3815044Y1789514D01*
X3815372Y1789378D01*
X3815727Y1789269D01*
X3816136Y1789159D01*
X3816983Y1788968D01*
X3817447Y1788941D01*
X3817938Y1788914D01*
X3817965D01*
X3818047D01*
X3818156D01*
X3818347Y1788941D01*
X3818539Y1788968D01*
X3818784Y1788996D01*
X3819330Y1789105D01*
X3819958Y1789269D01*
X3820586Y1789514D01*
X3820914Y1789678D01*
X3821241Y1789869D01*
X3821542Y1790088D01*
X3821842Y1790333D01*
X3821869Y1790361D01*
X3821896Y1790388D01*
X3821978Y1790470D01*
X3822060Y1790606D01*
X3822169Y1790743D01*
X3822306Y1790907D01*
X3822443Y1791098D01*
X3822579Y1791316D01*
X3822852Y1791862D01*
X3823098Y1792463D01*
X3823262Y1793172D01*
X3823289Y1793555D01*
X3823316Y1793937D01*
Y1794155D01*
X3823289Y1794292D01*
X3823262Y1794483D01*
X3823234Y1794674D01*
X3823125Y1795165D01*
X3822961Y1795739D01*
X3822688Y1796312D01*
X3822524Y1796612D01*
X3822333Y1796913D01*
X3822088Y1797186D01*
X3821842Y1797459D01*
X3821815Y1797486D01*
X3821760Y1797513D01*
X3821678Y1797595D01*
X3821569Y1797677D01*
X3821405Y1797786D01*
X3821214Y1797895D01*
X3820996Y1798032D01*
X3820750Y1798168D01*
X3820477Y1798278D01*
X3820149Y1798414D01*
X3819822Y1798523D01*
X3819439Y1798632D01*
X3819030Y1798714D01*
X3818620Y1798796D01*
X3818156Y1798824D01*
X3817665Y1798851D01*
D02*
G37*
G36*
X3816273Y1778321D02*
X3816245D01*
X3816191D01*
X3816109D01*
X3815972Y1778294D01*
X3815836D01*
X3815645Y1778267D01*
X3815235Y1778158D01*
X3814771Y1777994D01*
X3814280Y1777775D01*
X3813816Y1777448D01*
X3813570Y1777229D01*
X3813352Y1777011D01*
X3813324Y1776984D01*
X3813297Y1776956D01*
X3813242Y1776874D01*
X3813160Y1776765D01*
X3813079Y1776629D01*
X3812969Y1776438D01*
X3812860Y1776246D01*
X3812751Y1776001D01*
X3812642Y1775728D01*
X3812560Y1775428D01*
X3812451Y1775100D01*
X3812369Y1774745D01*
X3812287Y1774335D01*
X3812232Y1773899D01*
X3812178Y1773435D01*
Y1764944D01*
X3820504D01*
Y1772479D01*
X3820477Y1772670D01*
Y1772889D01*
X3820450Y1773407D01*
X3820395Y1773981D01*
X3820313Y1774581D01*
X3820204Y1775155D01*
X3820040Y1775673D01*
Y1775700D01*
X3820013Y1775728D01*
X3819958Y1775892D01*
X3819849Y1776110D01*
X3819685Y1776410D01*
X3819467Y1776711D01*
X3819221Y1777038D01*
X3818894Y1777366D01*
X3818539Y1777639D01*
X3818484Y1777666D01*
X3818347Y1777748D01*
X3818156Y1777857D01*
X3817856Y1777994D01*
X3817528Y1778103D01*
X3817146Y1778212D01*
X3816709Y1778294D01*
X3816273Y1778321D01*
D02*
G37*
G36*
X3977822Y1836670D02*
X3969496D01*
Y1829135D01*
X3969523Y1828944D01*
Y1828726D01*
X3969550Y1828207D01*
X3969605Y1827634D01*
X3969687Y1827033D01*
X3969796Y1826460D01*
X3969960Y1825941D01*
Y1825914D01*
X3969987Y1825886D01*
X3970042Y1825723D01*
X3970151Y1825504D01*
X3970315Y1825204D01*
X3970533Y1824904D01*
X3970779Y1824576D01*
X3971106Y1824248D01*
X3971461Y1823975D01*
X3971516Y1823948D01*
X3971653Y1823866D01*
X3971844Y1823757D01*
X3972144Y1823620D01*
X3972472Y1823511D01*
X3972854Y1823402D01*
X3973291Y1823320D01*
X3973727Y1823293D01*
X3973755D01*
X3973809D01*
X3973891D01*
X3974028Y1823320D01*
X3974164D01*
X3974355Y1823348D01*
X3974765Y1823457D01*
X3975229Y1823620D01*
X3975720Y1823839D01*
X3976184Y1824167D01*
X3976430Y1824385D01*
X3976648Y1824603D01*
X3976676Y1824631D01*
X3976703Y1824658D01*
X3976758Y1824740D01*
X3976840Y1824849D01*
X3976921Y1824986D01*
X3977031Y1825177D01*
X3977140Y1825368D01*
X3977249Y1825613D01*
X3977358Y1825886D01*
X3977440Y1826187D01*
X3977549Y1826514D01*
X3977631Y1826869D01*
X3977713Y1827279D01*
X3977768Y1827716D01*
X3977822Y1828180D01*
Y1836670D01*
D02*
G37*
G36*
X3974301Y1811745D02*
X3974273D01*
X3974219D01*
X3974137D01*
X3974000Y1811718D01*
X3973836D01*
X3973673Y1811690D01*
X3973263Y1811609D01*
X3972799Y1811472D01*
X3972308Y1811281D01*
X3971816Y1811008D01*
X3971380Y1810626D01*
X3971325Y1810571D01*
X3971216Y1810407D01*
X3971025Y1810162D01*
X3970834Y1809807D01*
X3970615Y1809397D01*
X3970424Y1808879D01*
X3970315Y1808278D01*
X3970260Y1807623D01*
Y1807459D01*
X3970287Y1807322D01*
Y1807159D01*
X3970315Y1806995D01*
X3970397Y1806585D01*
X3970533Y1806121D01*
X3970724Y1805630D01*
X3970997Y1805138D01*
X3971380Y1804674D01*
X3971434Y1804620D01*
X3971571Y1804483D01*
X3971816Y1804319D01*
X3972144Y1804101D01*
X3972526Y1803883D01*
X3973017Y1803719D01*
X3973536Y1803582D01*
X3974110Y1803528D01*
X3974137D01*
X3974191D01*
X3974273D01*
X3974410Y1803555D01*
X3974710Y1803582D01*
X3975120Y1803664D01*
X3975556Y1803801D01*
X3976048Y1804019D01*
X3976512Y1804319D01*
X3976758Y1804483D01*
X3976976Y1804702D01*
X3977003D01*
X3977031Y1804756D01*
X3977167Y1804920D01*
X3977358Y1805166D01*
X3977577Y1805521D01*
X3977768Y1805930D01*
X3977959Y1806449D01*
X3978095Y1807022D01*
X3978150Y1807322D01*
Y1807814D01*
X3978123Y1807950D01*
Y1808087D01*
X3978095Y1808278D01*
X3978013Y1808687D01*
X3977877Y1809151D01*
X3977659Y1809643D01*
X3977385Y1810134D01*
X3977003Y1810598D01*
X3976949Y1810653D01*
X3976812Y1810790D01*
X3976566Y1810953D01*
X3976239Y1811172D01*
X3975857Y1811390D01*
X3975393Y1811554D01*
X3974874Y1811690D01*
X3974301Y1811745D01*
D02*
G37*
G36*
X3962671Y1812755D02*
X3962644D01*
X3962616D01*
X3962452D01*
X3962179Y1812728D01*
X3961852Y1812673D01*
X3961470Y1812619D01*
X3961033Y1812509D01*
X3960569Y1812346D01*
X3960105Y1812155D01*
X3960050Y1812127D01*
X3959914Y1812045D01*
X3959668Y1811881D01*
X3959395Y1811690D01*
X3959095Y1811417D01*
X3958794Y1811117D01*
X3958467Y1810735D01*
X3958194Y1810298D01*
Y1810271D01*
X3958166Y1810244D01*
X3958084Y1810080D01*
X3957975Y1809834D01*
X3957866Y1809479D01*
X3957757Y1809097D01*
X3957648Y1808633D01*
X3957566Y1808141D01*
X3957538Y1807623D01*
Y1807404D01*
X3957566Y1807241D01*
X3957593Y1807049D01*
X3957620Y1806831D01*
X3957729Y1806312D01*
X3957893Y1805739D01*
X3958139Y1805111D01*
X3958303Y1804811D01*
X3958494Y1804511D01*
X3958712Y1804210D01*
X3958958Y1803937D01*
X3958985Y1803910D01*
X3959013Y1803883D01*
X3959095Y1803801D01*
X3959204Y1803719D01*
X3959367Y1803610D01*
X3959531Y1803473D01*
X3959722Y1803337D01*
X3959941Y1803200D01*
X3960459Y1802954D01*
X3961087Y1802709D01*
X3961770Y1802545D01*
X3962152Y1802518D01*
X3962562Y1802490D01*
X3962589D01*
X3962671D01*
X3962780D01*
X3962944Y1802518D01*
X3963135Y1802545D01*
X3963353Y1802572D01*
X3963872Y1802681D01*
X3964445Y1802845D01*
X3965073Y1803118D01*
X3965374Y1803282D01*
X3965674Y1803500D01*
X3965974Y1803719D01*
X3966247Y1803992D01*
X3966274Y1804019D01*
X3966302Y1804046D01*
X3966384Y1804128D01*
X3966465Y1804265D01*
X3966602Y1804401D01*
X3966711Y1804565D01*
X3966848Y1804784D01*
X3966984Y1805002D01*
X3967257Y1805548D01*
X3967503Y1806176D01*
X3967667Y1806913D01*
X3967694Y1807295D01*
X3967721Y1807705D01*
Y1807923D01*
X3967694Y1808060D01*
X3967667Y1808251D01*
X3967639Y1808469D01*
X3967530Y1808988D01*
X3967366Y1809561D01*
X3967121Y1810162D01*
X3966957Y1810462D01*
X3966766Y1810762D01*
X3966520Y1811062D01*
X3966274Y1811335D01*
X3966247Y1811363D01*
X3966220Y1811390D01*
X3966138Y1811472D01*
X3966029Y1811554D01*
X3965865Y1811663D01*
X3965701Y1811772D01*
X3965510Y1811909D01*
X3965292Y1812045D01*
X3964773Y1812318D01*
X3964145Y1812537D01*
X3963435Y1812700D01*
X3963080Y1812728D01*
X3962671Y1812755D01*
D02*
G37*
G36*
X4062413Y1836670D02*
X4054086D01*
Y1829135D01*
X4054113Y1828944D01*
Y1828726D01*
X4054141Y1828207D01*
X4054195Y1827633D01*
X4054277Y1827033D01*
X4054387Y1826460D01*
X4054550Y1825941D01*
Y1825914D01*
X4054578Y1825886D01*
X4054632Y1825723D01*
X4054741Y1825504D01*
X4054905Y1825204D01*
X4055124Y1824903D01*
X4055369Y1824576D01*
X4055697Y1824248D01*
X4056052Y1823975D01*
X4056106Y1823948D01*
X4056243Y1823866D01*
X4056434Y1823757D01*
X4056734Y1823620D01*
X4057062Y1823511D01*
X4057444Y1823402D01*
X4057881Y1823320D01*
X4058318Y1823293D01*
X4058345D01*
X4058400D01*
X4058481D01*
X4058618Y1823320D01*
X4058755D01*
X4058946Y1823347D01*
X4059355Y1823457D01*
X4059819Y1823620D01*
X4060311Y1823839D01*
X4060775Y1824166D01*
X4061020Y1824385D01*
X4061239Y1824603D01*
X4061266Y1824630D01*
X4061293Y1824658D01*
X4061348Y1824740D01*
X4061430Y1824849D01*
X4061512Y1824985D01*
X4061621Y1825177D01*
X4061730Y1825368D01*
X4061839Y1825613D01*
X4061949Y1825886D01*
X4062030Y1826187D01*
X4062140Y1826514D01*
X4062222Y1826869D01*
X4062303Y1827279D01*
X4062358Y1827715D01*
X4062413Y1828179D01*
Y1836670D01*
D02*
G37*
G36*
X4177822Y1763284D02*
X4169496D01*
Y1755749D01*
X4169523Y1755558D01*
Y1755340D01*
X4169550Y1754821D01*
X4169605Y1754248D01*
X4169687Y1753647D01*
X4169796Y1753074D01*
X4169960Y1752555D01*
Y1752528D01*
X4169987Y1752501D01*
X4170042Y1752337D01*
X4170151Y1752118D01*
X4170315Y1751818D01*
X4170533Y1751518D01*
X4170779Y1751190D01*
X4171106Y1750863D01*
X4171461Y1750590D01*
X4171516Y1750562D01*
X4171653Y1750480D01*
X4171844Y1750371D01*
X4172144Y1750235D01*
X4172471Y1750126D01*
X4172854Y1750016D01*
X4173291Y1749934D01*
X4173727Y1749907D01*
X4173755D01*
X4173809D01*
X4173891D01*
X4174028Y1749934D01*
X4174164D01*
X4174355Y1749962D01*
X4174765Y1750071D01*
X4175229Y1750235D01*
X4175720Y1750453D01*
X4176184Y1750781D01*
X4176430Y1750999D01*
X4176648Y1751217D01*
X4176676Y1751245D01*
X4176703Y1751272D01*
X4176758Y1751354D01*
X4176840Y1751463D01*
X4176921Y1751600D01*
X4177031Y1751791D01*
X4177140Y1751982D01*
X4177249Y1752228D01*
X4177358Y1752501D01*
X4177440Y1752801D01*
X4177549Y1753129D01*
X4177631Y1753483D01*
X4177713Y1753893D01*
X4177768Y1754330D01*
X4177822Y1754794D01*
Y1763284D01*
D02*
G37*
G36*
X4168431Y1739560D02*
X4168404D01*
X4168432Y1739559D01*
X4168431Y1739560D01*
D02*
G37*
G36*
X4163572Y1739096D02*
X4163544D01*
X4163490D01*
X4163408D01*
X4163299D01*
X4163162Y1739069D01*
X4162998D01*
X4162589Y1739014D01*
X4162125Y1738932D01*
X4161606Y1738823D01*
X4161060Y1738659D01*
X4160514Y1738441D01*
X4160487D01*
X4160459Y1738414D01*
X4160378Y1738359D01*
X4160268Y1738305D01*
X4160023Y1738168D01*
X4159695Y1737950D01*
X4159340Y1737677D01*
X4158985Y1737349D01*
X4158630Y1736994D01*
X4158303Y1736557D01*
Y1736530D01*
X4158275Y1736503D01*
X4158194Y1736339D01*
X4158057Y1736093D01*
X4157921Y1735766D01*
X4157784Y1735383D01*
X4157648Y1734947D01*
X4157566Y1734455D01*
X4157538Y1733964D01*
Y1733773D01*
X4157566Y1733636D01*
X4157593Y1733445D01*
X4157620Y1733254D01*
X4157730Y1732790D01*
X4157921Y1732271D01*
X4158057Y1731971D01*
X4158194Y1731698D01*
X4158385Y1731398D01*
X4158576Y1731125D01*
X4158822Y1730852D01*
X4159095Y1730579D01*
X4159122Y1730551D01*
X4159176Y1730524D01*
X4159258Y1730442D01*
X4159395Y1730360D01*
X4159559Y1730251D01*
X4159750Y1730142D01*
X4159968Y1730005D01*
X4160241Y1729869D01*
X4160514Y1729732D01*
X4160842Y1729596D01*
X4161197Y1729487D01*
X4161579Y1729378D01*
X4161988Y1729296D01*
X4162452Y1729214D01*
X4162917Y1729186D01*
X4163408Y1729159D01*
X4163435D01*
X4163517D01*
X4163654D01*
X4163845Y1729186D01*
X4164063Y1729214D01*
X4164309Y1729241D01*
X4164582Y1729268D01*
X4164882Y1729323D01*
X4165537Y1729487D01*
X4166220Y1729732D01*
X4166575Y1729896D01*
X4166902Y1730087D01*
X4167203Y1730306D01*
X4167503Y1730551D01*
X4167530Y1730579D01*
X4167557Y1730606D01*
X4167639Y1730688D01*
X4167749Y1730797D01*
X4167858Y1730934D01*
X4167994Y1731097D01*
X4168267Y1731507D01*
X4168540Y1732026D01*
X4168786Y1732626D01*
X4168977Y1733309D01*
X4169004Y1733691D01*
X4169032Y1734073D01*
Y1734264D01*
X4169004Y1734428D01*
X4168977Y1734592D01*
X4168950Y1734810D01*
X4168841Y1735302D01*
X4168650Y1735875D01*
X4168377Y1736476D01*
X4168213Y1736776D01*
X4168022Y1737076D01*
X4167776Y1737376D01*
X4167503Y1737649D01*
X4167476Y1737677D01*
X4167421Y1737704D01*
X4167339Y1737786D01*
X4167230Y1737868D01*
X4167093Y1737977D01*
X4166902Y1738113D01*
X4166684Y1738250D01*
X4166438Y1738359D01*
X4166193Y1738496D01*
X4165892Y1738632D01*
X4165210Y1738878D01*
X4164445Y1739042D01*
X4164008Y1739069D01*
X4163572Y1739096D01*
D02*
G37*
G36*
X5346273Y1776707D02*
X5346245D01*
X5346191D01*
X5346109D01*
X5345972Y1776680D01*
X5345836D01*
X5345645Y1776652D01*
X5345235Y1776543D01*
X5344771Y1776380D01*
X5344280Y1776161D01*
X5343816Y1775833D01*
X5343570Y1775615D01*
X5343352Y1775397D01*
X5343324Y1775369D01*
X5343297Y1775342D01*
X5343242Y1775260D01*
X5343160Y1775151D01*
X5343079Y1775014D01*
X5342969Y1774823D01*
X5342860Y1774632D01*
X5342751Y1774387D01*
X5342642Y1774114D01*
X5342560Y1773813D01*
X5342451Y1773486D01*
X5342369Y1773131D01*
X5342287Y1772721D01*
X5342232Y1772284D01*
X5342178Y1771820D01*
Y1763330D01*
X5350504D01*
Y1770865D01*
X5350477Y1771056D01*
Y1771274D01*
X5350450Y1771793D01*
X5350395Y1772366D01*
X5350313Y1772967D01*
X5350204Y1773540D01*
X5350040Y1774059D01*
Y1774086D01*
X5350013Y1774114D01*
X5349958Y1774277D01*
X5349849Y1774496D01*
X5349685Y1774796D01*
X5349467Y1775096D01*
X5349221Y1775424D01*
X5348894Y1775752D01*
X5348539Y1776025D01*
X5348484Y1776052D01*
X5348347Y1776134D01*
X5348156Y1776243D01*
X5347856Y1776380D01*
X5347529Y1776489D01*
X5347146Y1776598D01*
X5346709Y1776680D01*
X5346273Y1776707D01*
D02*
G37*
G36*
X5356128Y2039043D02*
X5344771D01*
X5356128Y2031098D01*
Y2039043D01*
D02*
G37*
G36*
X5346682Y2021707D02*
X5346655D01*
X5346600D01*
X5346518D01*
X5346382Y2021680D01*
X5346245D01*
X5346054Y2021652D01*
X5345645Y2021543D01*
X5345181Y2021380D01*
X5344689Y2021161D01*
X5344225Y2020833D01*
X5343980Y2020615D01*
X5343761Y2020397D01*
X5343734Y2020369D01*
X5343707Y2020342D01*
X5343652Y2020260D01*
X5343570Y2020151D01*
X5343488Y2020014D01*
X5343379Y2019823D01*
X5343270Y2019632D01*
X5343160Y2019387D01*
X5343051Y2019114D01*
X5342969Y2018813D01*
X5342860Y2018486D01*
X5342778Y2018131D01*
X5342696Y2017721D01*
X5342642Y2017284D01*
X5342587Y2016820D01*
Y2008330D01*
X5350914D01*
Y2015865D01*
X5350886Y2016056D01*
Y2016274D01*
X5350859Y2016793D01*
X5350805Y2017366D01*
X5350723Y2017967D01*
X5350613Y2018540D01*
X5350450Y2019059D01*
Y2019086D01*
X5350422Y2019114D01*
X5350368Y2019277D01*
X5350258Y2019496D01*
X5350095Y2019796D01*
X5349876Y2020096D01*
X5349631Y2020424D01*
X5349303Y2020752D01*
X5348948Y2021025D01*
X5348894Y2021052D01*
X5348757Y2021134D01*
X5348566Y2021243D01*
X5348266Y2021380D01*
X5347938Y2021489D01*
X5347556Y2021598D01*
X5347119Y2021680D01*
X5346682Y2021707D01*
D02*
G37*
G36*
X1887413Y3161670D02*
X1879086D01*
Y3154135D01*
X1879114Y3153944D01*
Y3153726D01*
X1879141Y3153207D01*
X1879196Y3152633D01*
X1879277Y3152033D01*
X1879387Y3151460D01*
X1879551Y3150941D01*
Y3150914D01*
X1879578Y3150886D01*
X1879632Y3150722D01*
X1879742Y3150504D01*
X1879905Y3150204D01*
X1880124Y3149903D01*
X1880370Y3149576D01*
X1880697Y3149248D01*
X1881052Y3148975D01*
X1881107Y3148948D01*
X1881243Y3148866D01*
X1881434Y3148757D01*
X1881735Y3148620D01*
X1882062Y3148511D01*
X1882444Y3148402D01*
X1882881Y3148320D01*
X1883318Y3148293D01*
X1883345D01*
X1883400D01*
X1883482D01*
X1883618Y3148320D01*
X1883755D01*
X1883946Y3148347D01*
X1884355Y3148457D01*
X1884819Y3148620D01*
X1885311Y3148839D01*
X1885775Y3149166D01*
X1886021Y3149385D01*
X1886239Y3149603D01*
X1886266Y3149631D01*
X1886294Y3149658D01*
X1886348Y3149740D01*
X1886430Y3149849D01*
X1886512Y3149985D01*
X1886621Y3150177D01*
X1886730Y3150368D01*
X1886840Y3150613D01*
X1886949Y3150886D01*
X1887031Y3151187D01*
X1887140Y3151514D01*
X1887222Y3151869D01*
X1887304Y3152279D01*
X1887358Y3152715D01*
X1887413Y3153180D01*
Y3161670D01*
D02*
G37*
G36*
X1964145Y2517222D02*
X1958330D01*
Y2497975D01*
X1964118D01*
X1964336Y2498003D01*
X1964582D01*
X1965128Y2498030D01*
X1965756Y2498084D01*
X1966411Y2498166D01*
X1967039Y2498276D01*
X1967612Y2498412D01*
X1967639D01*
X1967667Y2498439D01*
X1967749Y2498467D01*
X1967858Y2498494D01*
X1968103Y2498603D01*
X1968431Y2498740D01*
X1968786Y2498931D01*
X1969168Y2499149D01*
X1969550Y2499422D01*
X1969878Y2499722D01*
X1969905Y2499750D01*
X1969933Y2499777D01*
X1970069Y2499941D01*
X1970287Y2500214D01*
X1970561Y2500569D01*
X1970833Y2501033D01*
X1971134Y2501579D01*
X1971434Y2502207D01*
X1971707Y2502916D01*
Y2502944D01*
X1971734Y2502998D01*
X1971762Y2503108D01*
X1971816Y2503271D01*
X1971871Y2503463D01*
X1971926Y2503708D01*
X1971980Y2503981D01*
X1972062Y2504282D01*
X1972117Y2504609D01*
X1972171Y2504991D01*
X1972226Y2505374D01*
X1972280Y2505810D01*
X1972362Y2506738D01*
X1972390Y2507776D01*
Y2507831D01*
Y2507940D01*
Y2508158D01*
X1972362Y2508431D01*
Y2508759D01*
X1972335Y2509141D01*
X1972280Y2509550D01*
X1972226Y2510015D01*
X1972062Y2510997D01*
X1971844Y2512007D01*
X1971516Y2512963D01*
X1971298Y2513427D01*
X1971079Y2513836D01*
X1971052Y2513864D01*
X1971025Y2513918D01*
X1970943Y2514028D01*
X1970833Y2514191D01*
X1970724Y2514355D01*
X1970561Y2514546D01*
X1970206Y2514983D01*
X1969742Y2515474D01*
X1969196Y2515939D01*
X1968595Y2516375D01*
X1968267Y2516539D01*
X1967912Y2516703D01*
X1967885D01*
X1967858Y2516730D01*
X1967776Y2516758D01*
X1967667Y2516785D01*
X1967503Y2516812D01*
X1967339Y2516867D01*
X1967121Y2516921D01*
X1966875Y2516976D01*
X1966602Y2517003D01*
X1966274Y2517058D01*
X1965919Y2517113D01*
X1965537Y2517140D01*
X1965101Y2517167D01*
X1964636Y2517194D01*
X1964145Y2517222D01*
D02*
G37*
%LPD*%
D45*
X1814252Y2557008D02*
X2095748D01*
Y2432992D02*
Y2557008D01*
X1814252Y2432992D02*
X2095748D01*
X1814252D02*
Y2557008D01*
X3802520Y1700591D02*
Y1822638D01*
X3867480D01*
Y1700591D02*
Y1822638D01*
X3802520Y1700591D02*
X3867480D01*
X3992563Y1772909D02*
Y1907091D01*
X3917437Y1772909D02*
X3992563D01*
X3917437D02*
Y1907091D01*
X3992563D01*
X4077563Y1772909D02*
Y1907091D01*
X4002437Y1772909D02*
X4077563D01*
X4002437D02*
Y1907091D01*
X4077563D01*
X4187480Y1705591D02*
Y1827638D01*
X4122520Y1705591D02*
X4187480D01*
X4122520D02*
Y1827638D01*
X4187480D01*
X5327437Y1692909D02*
Y1827091D01*
X5402563D01*
Y1692909D02*
Y1827091D01*
X5327437Y1692909D02*
X5402563D01*
X5328344Y1939801D02*
Y2070199D01*
X5401656D01*
Y1939801D02*
Y2070199D01*
X5328344Y1939801D02*
X5401656D01*
X1951776Y2995587D02*
Y3334413D01*
X1778224Y2995587D02*
X1951776D01*
X1778224D02*
Y3334413D01*
X1951776D01*
%TF.MD5,e30c0095acca06664d24811155c62f9a*%
M02*
