G04*
G04 #@! TF.GenerationSoftware,Altium Limited,Altium Designer,23.3.1 (30)*
G04*
G04 Layer_Color=128*
%FSLAX44Y44*%
%MOMM*%
G71*
G04*
G04 #@! TF.SameCoordinates,7FF98350-13BF-4DC0-BCDE-F856E8DDA7C8*
G04*
G04*
G04 #@! TF.FilePolarity,Positive*
G04*
G01*
G75*
%ADD75C,0.1270*%
D75*
X277960Y469900D02*
X288460D01*
X283210Y464650D02*
Y475150D01*
X52960Y469900D02*
X63460D01*
X58210Y464650D02*
Y475150D01*
X282049Y631305D02*
X292717D01*
X287383Y625971D02*
Y636639D01*
X357049Y631305D02*
X367717D01*
X362383Y625971D02*
Y636639D01*
X54230Y355600D02*
X64730D01*
X59480Y350350D02*
Y360850D01*
X279230Y355600D02*
X289730D01*
X284480Y350350D02*
Y360850D01*
X54440Y242570D02*
X64940D01*
X59690Y237320D02*
Y247820D01*
X279440Y242570D02*
X289940D01*
X284690Y237320D02*
Y247820D01*
X55500Y135890D02*
X66000D01*
X60750Y130640D02*
Y141140D01*
X280500Y135890D02*
X291000D01*
X285750Y130640D02*
Y141140D01*
X1377950Y55880D02*
X1416050D01*
X1397000Y36830D02*
Y74930D01*
X1377950Y965200D02*
X1416050D01*
X1397000Y946150D02*
Y984250D01*
X36830Y965200D02*
X74930D01*
X55880Y946150D02*
Y984250D01*
X31750Y55880D02*
X69850D01*
X50800Y36830D02*
Y74930D01*
X1406995Y187372D02*
X1419898D01*
X1413447Y180920D02*
Y193823D01*
X1406995Y241982D02*
X1419898D01*
X1413447Y235530D02*
Y248433D01*
X910650Y405600D02*
X918150D01*
X914400Y401850D02*
Y409350D01*
X910650Y355600D02*
X918150D01*
X914400Y351850D02*
Y359350D01*
X1315919Y192547D02*
X1323419D01*
X1319669Y188797D02*
Y196297D01*
X1315919Y242547D02*
X1323419D01*
X1319669Y238797D02*
Y246297D01*
X1314510Y357670D02*
X1322010D01*
X1318260Y353920D02*
Y361420D01*
X1314510Y407670D02*
X1322010D01*
X1318260Y403920D02*
Y411420D01*
X1314510Y525310D02*
X1322010D01*
X1318260Y521560D02*
Y529060D01*
X1314510Y575310D02*
X1322010D01*
X1318260Y571560D02*
Y579060D01*
X1313240Y696760D02*
X1320740D01*
X1316990Y693010D02*
Y700510D01*
X1313240Y746760D02*
X1320740D01*
X1316990Y743010D02*
Y750510D01*
X962558Y294237D02*
X975462D01*
X969010Y287785D02*
Y300688D01*
X907948Y294237D02*
X920852D01*
X914400Y287785D02*
Y300688D01*
X166683Y846951D02*
X175319D01*
X171001Y842633D02*
Y851269D01*
X166683Y808851D02*
X175319D01*
X171001Y804533D02*
Y813169D01*
X166683Y770751D02*
X175319D01*
X171001Y766433D02*
Y775069D01*
X166683Y732651D02*
X175319D01*
X171001Y728333D02*
Y736969D01*
X531940Y674470D02*
X539940D01*
X535940Y670470D02*
Y678470D01*
X531940Y839470D02*
X539940D01*
X535940Y835470D02*
Y843470D01*
X475487Y951012D02*
X488390D01*
X481938Y944560D02*
Y957463D01*
X420877Y951012D02*
X433780D01*
X427328Y944560D02*
Y957463D01*
X676808Y949960D02*
X689712D01*
X683260Y943508D02*
Y956412D01*
X622198Y949960D02*
X635102D01*
X628650Y943508D02*
Y956412D01*
X1412138Y499110D02*
X1425042D01*
X1418590Y492658D02*
Y505562D01*
X1412138Y444500D02*
X1425042D01*
X1418590Y438048D02*
Y450952D01*
X54508Y589280D02*
X67412D01*
X60960Y582828D02*
Y595732D01*
X54508Y643890D02*
X67412D01*
X60960Y637438D02*
Y650342D01*
X531880Y887730D02*
X545080D01*
X538480Y881130D02*
Y894330D01*
X480880Y887730D02*
X494080D01*
X487480Y881130D02*
Y894330D01*
X506380Y887730D02*
X519580D01*
X512980Y881130D02*
Y894330D01*
X523320Y45730D02*
X533320D01*
X528320Y40730D02*
Y50730D01*
X523320Y506730D02*
X533320D01*
X528320Y501730D02*
Y511730D01*
X445850Y506720D02*
X455850D01*
X450850Y501720D02*
Y511720D01*
X445850Y45720D02*
X455850D01*
X450850Y40720D02*
Y50720D01*
X1212660Y246380D02*
X1220660D01*
X1216660Y242380D02*
Y250380D01*
X1212660Y196380D02*
X1220660D01*
X1216660Y192380D02*
Y200380D01*
X1212660Y411480D02*
X1220660D01*
X1216660Y407480D02*
Y415480D01*
X1212660Y361480D02*
X1220660D01*
X1216660Y357480D02*
Y365480D01*
X1211390Y576580D02*
X1219390D01*
X1215390Y572580D02*
Y580580D01*
X1211390Y526580D02*
X1219390D01*
X1215390Y522580D02*
Y530580D01*
X1210120Y746760D02*
X1218120D01*
X1214120Y742760D02*
Y750760D01*
X1210120Y696760D02*
X1218120D01*
X1214120Y692760D02*
Y700760D01*
X284226Y829310D02*
X294894D01*
X289560Y823976D02*
Y834644D01*
X359226Y829310D02*
X369894D01*
X364560Y823976D02*
Y834644D01*
X1093724Y389890D02*
X1100836D01*
X1097280Y386334D02*
Y393446D01*
X512064Y645160D02*
X519176D01*
X515620Y641604D02*
Y648716D01*
M02*
