%TF.GenerationSoftware,Altium Limited,Altium Designer,23.3.1 (30)*%
G04 Layer_Color=255*
%FSLAX45Y45*%
%MOMM*%
%TF.SameCoordinates,B78A920C-B21B-4EC0-8B15-6B7EDFA50413*%
%TF.FilePolarity,Positive*%
%TF.FileFunction,Pads,Bot*%
%TF.Part,Single*%
G01*
G75*
%TA.AperFunction,ComponentPad*%
%ADD32C,1.57500*%
%ADD33C,1.57480*%
%TA.AperFunction,ViaPad*%
%ADD34C,5.58800*%
%TA.AperFunction,ComponentPad*%
%ADD35O,1.77800X2.28600*%
%ADD36C,1.20000*%
%ADD37O,2.28600X1.77800*%
%ADD38C,1.37160*%
%ADD39C,1.98000*%
%ADD40R,1.98000X1.98000*%
%ADD41C,1.50000*%
%ADD42R,1.50000X1.50000*%
%ADD43R,1.20000X1.20000*%
D32*
X2832100Y4699000D02*
D03*
X582100D02*
D03*
X594800Y3556000D02*
D03*
X2844800D02*
D03*
X596900Y2425700D02*
D03*
X2846900D02*
D03*
X607500Y1358900D02*
D03*
X2857500D02*
D03*
D33*
X2873826Y6313054D02*
D03*
X3623826D02*
D03*
X2895600Y8293100D02*
D03*
X3645600D02*
D03*
D34*
X13970000Y558800D02*
D03*
Y9652000D02*
D03*
X558800D02*
D03*
X508000Y558800D02*
D03*
D35*
X14134468Y1873717D02*
D03*
Y2419817D02*
D03*
X14185899Y4991100D02*
D03*
Y4445000D02*
D03*
X609600Y5892800D02*
D03*
Y6438900D02*
D03*
D36*
X9144000Y4056000D02*
D03*
Y3556000D02*
D03*
X13196693Y1925467D02*
D03*
Y2425467D02*
D03*
X13182600Y3576700D02*
D03*
Y4076700D02*
D03*
Y5253100D02*
D03*
Y5753100D02*
D03*
X13169901Y6967600D02*
D03*
Y7467600D02*
D03*
X5359400Y6744700D02*
D03*
Y8394700D02*
D03*
X12166600Y1963800D02*
D03*
Y3614800D02*
D03*
X12153900Y5265800D02*
D03*
X12141200Y6967600D02*
D03*
D37*
X9690100Y2942368D02*
D03*
X9144000D02*
D03*
X4819383Y9510115D02*
D03*
X4273283D02*
D03*
X6832600Y9499600D02*
D03*
X6286500D02*
D03*
D38*
X1710014Y8469506D02*
D03*
Y8088506D02*
D03*
Y7707506D02*
D03*
Y7326506D02*
D03*
D39*
X5384800Y8877300D02*
D03*
X5129800D02*
D03*
D40*
X4874800D02*
D03*
D41*
X5283200Y457300D02*
D03*
X4508500Y5067200D02*
D03*
D42*
X5283200Y5067300D02*
D03*
X4508500Y457200D02*
D03*
D43*
X12166600Y2463800D02*
D03*
Y4114800D02*
D03*
X12153900Y5765800D02*
D03*
X12141200Y7467600D02*
D03*
%TF.MD5,138ff887d6b255b35f114072332dbb15*%
M02*
