G04*
G04 #@! TF.GenerationSoftware,Altium Limited,Altium Designer,23.3.1 (30)*
G04*
G04 Layer_Physical_Order=1*
G04 Layer_Color=255*
%FSLAX44Y44*%
%MOMM*%
G71*
G04*
G04 #@! TF.SameCoordinates,7FF98350-13BF-4DC0-BCDE-F856E8DDA7C8*
G04*
G04*
G04 #@! TF.FilePolarity,Positive*
G04*
G01*
G75*
%ADD16R,5.4000X1.5000*%
%ADD17R,3.5900X2.0000*%
%ADD18R,1.5700X0.5000*%
%ADD19R,0.8600X0.5800*%
%ADD20R,2.6500X1.7500*%
%ADD21R,2.5000X1.5200*%
%ADD22R,1.4500X0.9500*%
%ADD23R,1.4082X1.0065*%
%ADD24R,1.3621X1.0581*%
%ADD25R,1.6500X2.0100*%
%ADD26R,1.3900X1.1400*%
%ADD27R,3.4082X1.5549*%
%ADD28R,0.6500X1.5250*%
%ADD29R,1.6000X3.0000*%
%ADD30R,6.0000X6.0000*%
%ADD42C,1.5748*%
%ADD47C,1.3716*%
%ADD54C,2.5400*%
%ADD55C,0.7620*%
%ADD56C,5.0800*%
%ADD57C,0.5080*%
%ADD58C,3.8100*%
%ADD59C,0.2032*%
%ADD60R,17.9070X37.7190*%
%ADD61C,1.5750*%
%ADD62C,5.5880*%
%ADD63O,1.7780X2.2860*%
%ADD64C,1.2000*%
%ADD65O,2.2860X1.7780*%
%ADD66C,1.9800*%
%ADD67R,1.9800X1.9800*%
%ADD68C,1.5000*%
%ADD69R,1.5000X1.5000*%
%ADD70R,1.2000X1.2000*%
%ADD71C,1.2700*%
G36*
X1441450Y1003300D02*
Y12700D01*
X12700D01*
Y1004941D01*
X13599Y1005838D01*
X1441450Y1003300D01*
D02*
G37*
%LPC*%
G36*
X685800Y961489D02*
X680720D01*
X677736Y961096D01*
X674956Y959944D01*
X672568Y958112D01*
X670736Y955724D01*
X669584Y952944D01*
X669191Y949960D01*
X669584Y946976D01*
X670736Y944196D01*
X672568Y941808D01*
X674956Y939976D01*
X677736Y938824D01*
X680720Y938431D01*
X685800D01*
X688784Y938824D01*
X691564Y939976D01*
X693952Y941808D01*
X695784Y944196D01*
X696936Y946976D01*
X697329Y949960D01*
X696936Y952944D01*
X695784Y955724D01*
X693952Y958112D01*
X691564Y959944D01*
X688784Y961096D01*
X685800Y961489D01*
D02*
G37*
G36*
X631190D02*
X626110D01*
X623126Y961096D01*
X620346Y959944D01*
X617958Y958112D01*
X616126Y955724D01*
X614974Y952944D01*
X614581Y949960D01*
X614974Y946976D01*
X616126Y944196D01*
X617958Y941808D01*
X620346Y939976D01*
X623126Y938824D01*
X626110Y938431D01*
X631190D01*
X634174Y938824D01*
X636954Y939976D01*
X639342Y941808D01*
X641174Y944196D01*
X642326Y946976D01*
X642719Y949960D01*
X642326Y952944D01*
X641174Y955724D01*
X639342Y958112D01*
X636954Y959944D01*
X634174Y961096D01*
X631190Y961489D01*
D02*
G37*
G36*
X1399399Y995680D02*
X1394601D01*
X1389863Y994930D01*
X1385300Y993447D01*
X1381025Y991269D01*
X1377144Y988449D01*
X1373751Y985056D01*
X1370931Y981175D01*
X1368753Y976900D01*
X1367271Y972337D01*
X1366520Y967599D01*
Y962801D01*
X1367271Y958063D01*
X1368753Y953500D01*
X1370931Y949225D01*
X1373751Y945344D01*
X1377144Y941951D01*
X1381025Y939131D01*
X1385300Y936953D01*
X1389863Y935471D01*
X1394601Y934720D01*
X1399399D01*
X1404137Y935471D01*
X1408700Y936953D01*
X1412975Y939131D01*
X1416856Y941951D01*
X1420249Y945344D01*
X1423069Y949225D01*
X1425247Y953500D01*
X1426729Y958063D01*
X1427480Y962801D01*
Y967599D01*
X1426729Y972337D01*
X1425247Y976900D01*
X1423069Y981175D01*
X1420249Y985056D01*
X1416856Y988449D01*
X1412975Y991269D01*
X1408700Y993447D01*
X1404137Y994930D01*
X1399399Y995680D01*
D02*
G37*
G36*
X58279D02*
X53481D01*
X48743Y994930D01*
X44180Y993447D01*
X39905Y991269D01*
X36024Y988449D01*
X32631Y985056D01*
X29811Y981175D01*
X27633Y976900D01*
X26151Y972337D01*
X25400Y967599D01*
Y962801D01*
X26151Y958063D01*
X27633Y953500D01*
X29811Y949225D01*
X32631Y945344D01*
X36024Y941951D01*
X39905Y939131D01*
X44180Y936953D01*
X48743Y935471D01*
X53481Y934720D01*
X58279D01*
X63017Y935471D01*
X67580Y936953D01*
X71855Y939131D01*
X75736Y941951D01*
X79129Y945344D01*
X81949Y949225D01*
X84127Y953500D01*
X85610Y958063D01*
X86360Y962801D01*
Y967599D01*
X85610Y972337D01*
X84127Y976900D01*
X81949Y981175D01*
X79129Y985056D01*
X75736Y988449D01*
X71855Y991269D01*
X67580Y993447D01*
X63017Y994930D01*
X58279Y995680D01*
D02*
G37*
G36*
X484478Y962540D02*
X479398D01*
X476414Y962147D01*
X473634Y960995D01*
X471246Y959163D01*
X469414Y956776D01*
X468262Y953995D01*
X467870Y951012D01*
X468262Y948028D01*
X469414Y945247D01*
X471246Y942859D01*
X473634Y941027D01*
X476414Y939876D01*
X479398Y939483D01*
X481006D01*
Y900170D01*
X475040D01*
Y880761D01*
X473867Y880275D01*
X433803Y920339D01*
Y940269D01*
X435633Y941027D01*
X438020Y942859D01*
X439852Y945247D01*
X441004Y948028D01*
X441397Y951012D01*
X441004Y953995D01*
X439852Y956776D01*
X438020Y959163D01*
X435633Y960995D01*
X432852Y962147D01*
X429868Y962540D01*
X424788D01*
X421805Y962147D01*
X419024Y960995D01*
X416636Y959163D01*
X414804Y956776D01*
X413652Y953995D01*
X413260Y951012D01*
X413652Y948028D01*
X414804Y945247D01*
X416636Y942859D01*
X419024Y941027D01*
X420854Y940269D01*
Y917657D01*
X421347Y915180D01*
X422750Y913079D01*
X467236Y868594D01*
Y844481D01*
X454129D01*
Y840641D01*
X371616D01*
X369138Y840148D01*
X367767Y839232D01*
X365931Y839724D01*
X363189D01*
X360540Y839014D01*
X358166Y837643D01*
X356227Y835704D01*
X354856Y833330D01*
X354146Y830681D01*
Y827939D01*
X354856Y825290D01*
X356227Y822916D01*
X358166Y820977D01*
X360540Y819606D01*
X363189Y818896D01*
X365931D01*
X368580Y819606D01*
X370954Y820977D01*
X372893Y822916D01*
X374264Y825290D01*
X374908Y827692D01*
X454129D01*
Y823852D01*
X493291D01*
Y844481D01*
X480184D01*
Y871276D01*
X479692Y873753D01*
X479413Y874170D01*
X480012Y875290D01*
X499920D01*
Y883499D01*
X501190Y883666D01*
X501388Y882928D01*
X503026Y880092D01*
X505342Y877775D01*
X508178Y876138D01*
X511342Y875290D01*
X514618D01*
X517782Y876138D01*
X520618Y877775D01*
X522934Y880092D01*
X524572Y882928D01*
X525073Y884796D01*
X526387D01*
X526888Y882928D01*
X528526Y880092D01*
X530842Y877775D01*
X533678Y876138D01*
X536842Y875290D01*
X540118D01*
X543282Y876138D01*
X546118Y877775D01*
X548434Y880092D01*
X550072Y882928D01*
X550920Y886092D01*
Y889368D01*
X550072Y892532D01*
X548434Y895368D01*
X546118Y897684D01*
X543282Y899322D01*
X540118Y900170D01*
X536842D01*
X533678Y899322D01*
X530842Y897684D01*
X528526Y895368D01*
X526888Y892532D01*
X526387Y890664D01*
X525073D01*
X524572Y892532D01*
X522934Y895368D01*
X520618Y897684D01*
X517782Y899322D01*
X514618Y900170D01*
X511342D01*
X508178Y899322D01*
X505342Y897684D01*
X503026Y895368D01*
X501388Y892532D01*
X501190Y891794D01*
X499920Y891961D01*
Y900170D01*
X493954D01*
Y944585D01*
X494462Y945247D01*
X495614Y948028D01*
X496007Y951012D01*
X495614Y953995D01*
X494462Y956776D01*
X492630Y959163D01*
X490243Y960995D01*
X487462Y962147D01*
X484478Y962540D01*
D02*
G37*
G36*
X172239Y856349D02*
X169764D01*
X167374Y855708D01*
X165231Y854471D01*
X163481Y852721D01*
X162244Y850578D01*
X161603Y848188D01*
Y845713D01*
X162244Y843323D01*
X163481Y841180D01*
X165231Y839430D01*
X167374Y838193D01*
X169764Y837553D01*
X172239D01*
X174629Y838193D01*
X176772Y839430D01*
X178522Y841180D01*
X179759Y843323D01*
X180399Y845713D01*
Y848188D01*
X179759Y850578D01*
X178522Y852721D01*
X176772Y854471D01*
X174629Y855708D01*
X172239Y856349D01*
D02*
G37*
G36*
X170862Y824304D02*
X91440D01*
X88452Y824009D01*
X85580Y823138D01*
X82932Y821723D01*
X80611Y819818D01*
X50132Y789339D01*
X48227Y787018D01*
X46812Y784370D01*
X45940Y781498D01*
X45646Y778510D01*
Y643890D01*
X45940Y640902D01*
X46812Y638030D01*
X48227Y635382D01*
X50132Y633061D01*
X52452Y631157D01*
X55100Y629742D01*
X57972Y628871D01*
X60960Y628576D01*
X63948Y628871D01*
X66820Y629742D01*
X69468Y631157D01*
X71789Y633061D01*
X73693Y635382D01*
X75108Y638030D01*
X75979Y640902D01*
X76274Y643890D01*
Y772167D01*
X97783Y793676D01*
X169586D01*
X171001Y793537D01*
X173989Y793831D01*
X176862Y794703D01*
X179509Y796118D01*
X181830Y798022D01*
X183734Y800343D01*
X185149Y802990D01*
X186021Y805863D01*
X186315Y808851D01*
X186021Y811838D01*
X185149Y814711D01*
X183734Y817358D01*
X181830Y819679D01*
X181690Y819818D01*
X179370Y821723D01*
X176722Y823138D01*
X173850Y824009D01*
X170862Y824304D01*
D02*
G37*
G36*
X1318260Y754209D02*
Y748030D01*
X1324439D01*
X1324001Y749664D01*
X1323011Y751380D01*
X1321610Y752781D01*
X1319894Y753771D01*
X1318260Y754209D01*
D02*
G37*
G36*
X1221644Y754284D02*
X1215390D01*
Y748030D01*
X1221644D01*
Y754284D01*
D02*
G37*
G36*
X1212850D02*
X1206596D01*
Y748030D01*
X1212850D01*
Y754284D01*
D02*
G37*
G36*
X1315720Y754209D02*
X1314086Y753771D01*
X1312370Y752781D01*
X1310969Y751380D01*
X1309979Y749664D01*
X1309541Y748030D01*
X1315720D01*
Y754209D01*
D02*
G37*
G36*
X1324439Y745490D02*
X1318260D01*
Y739311D01*
X1319894Y739749D01*
X1321610Y740739D01*
X1323011Y742140D01*
X1324001Y743856D01*
X1324439Y745490D01*
D02*
G37*
G36*
X1315720D02*
X1309541D01*
X1309979Y743856D01*
X1310969Y742140D01*
X1312370Y740739D01*
X1314086Y739749D01*
X1315720Y739311D01*
Y745490D01*
D02*
G37*
G36*
X1221644D02*
X1215390D01*
Y739236D01*
X1221644D01*
Y745490D01*
D02*
G37*
G36*
X1212850D02*
X1206596D01*
Y739236D01*
X1212850D01*
Y745490D01*
D02*
G37*
G36*
X918780Y748030D02*
X888700D01*
Y727750D01*
X918780D01*
Y748030D01*
D02*
G37*
G36*
Y710430D02*
X888700D01*
Y690150D01*
X918780D01*
Y710430D01*
D02*
G37*
G36*
X1318114Y705300D02*
X1315866D01*
X1313694Y704718D01*
X1311746Y703594D01*
X1310156Y702004D01*
X1309032Y700056D01*
X1308450Y697884D01*
Y695636D01*
X1309032Y693464D01*
X1310156Y691516D01*
X1311746Y689926D01*
X1313694Y688802D01*
X1315866Y688220D01*
X1318114D01*
X1320286Y688802D01*
X1322234Y689926D01*
X1323824Y691516D01*
X1324948Y693464D01*
X1325530Y695636D01*
Y697884D01*
X1324948Y700056D01*
X1323824Y702004D01*
X1322234Y703594D01*
X1320286Y704718D01*
X1318114Y705300D01*
D02*
G37*
G36*
X1215244D02*
X1212996D01*
X1210824Y704718D01*
X1208876Y703594D01*
X1207286Y702004D01*
X1206162Y700056D01*
X1205580Y697884D01*
Y695636D01*
X1206162Y693464D01*
X1207286Y691516D01*
X1208876Y689926D01*
X1210824Y688802D01*
X1212996Y688220D01*
X1215244D01*
X1217416Y688802D01*
X1219364Y689926D01*
X1220954Y691516D01*
X1222078Y693464D01*
X1222660Y695636D01*
Y697884D01*
X1222078Y700056D01*
X1220954Y702004D01*
X1219364Y703594D01*
X1217416Y704718D01*
X1215244Y705300D01*
D02*
G37*
G36*
X477310Y697304D02*
X474322Y697010D01*
X471450Y696138D01*
X468802Y694723D01*
X466482Y692819D01*
X464593Y690930D01*
X449250D01*
Y670850D01*
X459711D01*
Y645020D01*
X459280D01*
Y622440D01*
X464804D01*
X466562Y620997D01*
X469210Y619582D01*
X472082Y618711D01*
X475070Y618416D01*
X478058Y618711D01*
X480930Y619582D01*
X483578Y620997D01*
X485336Y622440D01*
X490860D01*
Y645020D01*
X490339D01*
Y666676D01*
X522077D01*
X525112Y663642D01*
X527432Y661737D01*
X530080Y660322D01*
X532952Y659451D01*
X535940Y659156D01*
X538928Y659451D01*
X541800Y660322D01*
X544448Y661737D01*
X546768Y663642D01*
X548673Y665962D01*
X550088Y668610D01*
X550960Y671482D01*
X551254Y674470D01*
X550960Y677458D01*
X550088Y680330D01*
X548673Y682978D01*
X546768Y685298D01*
X539249Y692819D01*
X536928Y694723D01*
X534280Y696138D01*
X531408Y697010D01*
X528420Y697304D01*
X477310D01*
X477310Y697304D01*
D02*
G37*
G36*
X1021740Y690640D02*
X1000660D01*
Y655560D01*
X1021740D01*
Y690640D01*
D02*
G37*
G36*
X289560Y857336D02*
X285176Y856991D01*
X280899Y855965D01*
X276836Y854282D01*
X273086Y851984D01*
X269742Y849128D01*
X266886Y845783D01*
X264588Y842034D01*
X262905Y837971D01*
X261879Y833694D01*
X261534Y829310D01*
Y789914D01*
X224088Y752468D01*
X221232Y749124D01*
X220521Y747964D01*
X171001D01*
X168014Y747670D01*
X165141Y746799D01*
X162493Y745384D01*
X160173Y743479D01*
X158268Y741159D01*
X156853Y738511D01*
X155982Y735638D01*
X155688Y732651D01*
X155982Y729663D01*
X156853Y726790D01*
X158268Y724143D01*
X160173Y721822D01*
X162493Y719918D01*
X165141Y718503D01*
X168014Y717631D01*
X171001Y717337D01*
X220521D01*
X221232Y716177D01*
X224088Y712833D01*
X260543Y676379D01*
Y631288D01*
X260888Y626903D01*
X261914Y622627D01*
X263597Y618564D01*
X265895Y614814D01*
X268751Y611470D01*
X272095Y608614D01*
X275845Y606316D01*
X279908Y604633D01*
X284185Y603606D01*
X288569Y603261D01*
X292953Y603606D01*
X297230Y604633D01*
X301293Y606316D01*
X305042Y608614D01*
X308387Y611470D01*
X311243Y614814D01*
X313541Y618564D01*
X315224Y622627D01*
X316250Y626903D01*
X316595Y631288D01*
Y687988D01*
X316250Y692372D01*
X315224Y696648D01*
X313541Y700711D01*
X311243Y704461D01*
X308387Y707805D01*
X283541Y732651D01*
X301169Y750278D01*
X443238D01*
Y741376D01*
X443583Y736991D01*
X444610Y732715D01*
X446293Y728652D01*
X448591Y724902D01*
X449250Y724130D01*
Y723850D01*
X449489D01*
X451447Y721558D01*
X455162Y717842D01*
X458507Y714986D01*
X462256Y712688D01*
X466319Y711005D01*
X470596Y709979D01*
X474980Y709634D01*
X479364Y709979D01*
X483641Y711005D01*
X487704Y712688D01*
X491454Y714986D01*
X492600Y715965D01*
X594740D01*
X594929Y714696D01*
X594080Y714438D01*
X591432Y713023D01*
X589112Y711118D01*
X588546Y710430D01*
X584900D01*
Y703069D01*
X584626Y700290D01*
Y662690D01*
X584900Y659911D01*
Y652550D01*
X588546D01*
X589112Y651861D01*
X590998Y650314D01*
X590543Y649044D01*
X530368D01*
X529768Y651020D01*
X528353Y653668D01*
X526449Y655988D01*
X524128Y657893D01*
X521480Y659308D01*
X518608Y660180D01*
X515620Y660474D01*
X512632Y660180D01*
X509760Y659308D01*
X507112Y657893D01*
X504791Y655988D01*
X502887Y653668D01*
X501472Y651020D01*
X500601Y648148D01*
X500306Y645160D01*
Y636180D01*
X500601Y633192D01*
X501472Y630320D01*
X502280Y628808D01*
Y622440D01*
X507804D01*
X509562Y620997D01*
X512210Y619582D01*
X515082Y618711D01*
X518070Y618416D01*
X584900D01*
Y614950D01*
X588423D01*
X589112Y614262D01*
X591432Y612357D01*
X594080Y610942D01*
X596952Y610070D01*
X599940Y609776D01*
X602928Y610070D01*
X605800Y610942D01*
X608448Y612357D01*
X610769Y614262D01*
X611333Y614950D01*
X614980D01*
Y622310D01*
X615254Y625090D01*
X614980Y627869D01*
Y635230D01*
X611333D01*
X610769Y635918D01*
X602128Y644558D01*
X600217Y646127D01*
X600616Y647443D01*
X602928Y647671D01*
X605800Y648542D01*
X608448Y649957D01*
X610769Y651861D01*
X611334Y652550D01*
X614980D01*
Y659911D01*
X615254Y662690D01*
Y700290D01*
X614980Y703069D01*
Y710430D01*
X611334D01*
X610769Y711118D01*
X608448Y713023D01*
X605800Y714438D01*
X603682Y715081D01*
X603809Y716369D01*
X603942Y716382D01*
X608012Y717617D01*
X611763Y719622D01*
X615050Y722320D01*
X617748Y725607D01*
X619753Y729358D01*
X620988Y733428D01*
X621404Y737660D01*
X620988Y741892D01*
X619753Y745962D01*
X617748Y749713D01*
X615050Y753000D01*
X611763Y755698D01*
X608012Y757703D01*
X603942Y758938D01*
X599710Y759354D01*
X499291D01*
Y765194D01*
X539745Y805648D01*
X541800Y806272D01*
X544448Y807687D01*
X546768Y809592D01*
X548673Y811912D01*
X550088Y814560D01*
X550960Y817432D01*
X551254Y820420D01*
Y839470D01*
X550960Y842458D01*
X550088Y845330D01*
X548673Y847978D01*
X546768Y850298D01*
X544448Y852203D01*
X541800Y853618D01*
X538928Y854490D01*
X535940Y854784D01*
X532952Y854490D01*
X530080Y853618D01*
X527432Y852203D01*
X525112Y850298D01*
X523207Y847978D01*
X521792Y845330D01*
X520920Y842458D01*
X520626Y839470D01*
Y829844D01*
X491035Y800252D01*
X490183Y800979D01*
X486434Y803276D01*
X482371Y804959D01*
X478094Y805986D01*
X473710Y806331D01*
X317586D01*
Y829310D01*
X317241Y833694D01*
X316215Y837971D01*
X314532Y842034D01*
X312234Y845783D01*
X309378Y849128D01*
X306033Y851984D01*
X302284Y854282D01*
X298221Y855965D01*
X293944Y856991D01*
X289560Y857336D01*
D02*
G37*
G36*
X975740Y690640D02*
X954660D01*
Y686114D01*
X911850D01*
X908862Y685819D01*
X905990Y684948D01*
X903342Y683533D01*
X901022Y681628D01*
X892912Y673518D01*
X892347Y672830D01*
X888700D01*
Y665469D01*
X888426Y662690D01*
X888700Y659911D01*
Y652550D01*
X892347D01*
X892912Y651861D01*
X895232Y649957D01*
X897880Y648542D01*
X900752Y647671D01*
X903740Y647376D01*
X906728Y647671D01*
X909600Y648542D01*
X912248Y649957D01*
X914568Y651861D01*
X915257Y652550D01*
X918780D01*
Y655486D01*
X962900D01*
X963649Y655560D01*
X975740D01*
Y661983D01*
X976028Y662271D01*
X977933Y664592D01*
X979348Y667240D01*
X980219Y670112D01*
X980514Y673100D01*
X980219Y676088D01*
X979348Y678960D01*
X977933Y681608D01*
X976028Y683928D01*
X975740Y684165D01*
Y690640D01*
D02*
G37*
G36*
X363754Y641719D02*
X361012D01*
X358363Y641010D01*
X355988Y639639D01*
X354049Y637700D01*
X352678Y635325D01*
X351969Y632677D01*
Y629934D01*
X352678Y627286D01*
X354049Y624911D01*
X355988Y622972D01*
X358363Y621601D01*
X361012Y620891D01*
X363754D01*
X366402Y621601D01*
X368777Y622972D01*
X370716Y624911D01*
X372087Y627286D01*
X372797Y629934D01*
Y632677D01*
X372087Y635325D01*
X370716Y637700D01*
X368777Y639639D01*
X366402Y641010D01*
X363754Y641719D01*
D02*
G37*
G36*
X918780Y635230D02*
X888700D01*
Y614950D01*
X918780D01*
Y635230D01*
D02*
G37*
G36*
X1222914Y584104D02*
X1216660D01*
Y577850D01*
X1222914D01*
Y584104D01*
D02*
G37*
G36*
X1214120D02*
X1207866D01*
Y577850D01*
X1214120D01*
Y584104D01*
D02*
G37*
G36*
X918780Y597630D02*
X888700D01*
Y577350D01*
X918780D01*
Y597630D01*
D02*
G37*
G36*
X614980D02*
X584900D01*
Y577350D01*
X614980D01*
Y597630D01*
D02*
G37*
G36*
X1316990Y582759D02*
X1315356Y582321D01*
X1313640Y581331D01*
X1312239Y579930D01*
X1311249Y578214D01*
X1310811Y576580D01*
X1316990D01*
Y582759D01*
D02*
G37*
G36*
X171001Y786064D02*
X134481D01*
X131493Y785770D01*
X128620Y784899D01*
X125973Y783484D01*
X123652Y781579D01*
X104741Y762669D01*
X102837Y760348D01*
X101422Y757700D01*
X100550Y754828D01*
X100256Y751840D01*
Y612133D01*
X92717Y604594D01*
X60960D01*
X57972Y604300D01*
X55100Y603428D01*
X52452Y602013D01*
X50132Y600108D01*
X48227Y597788D01*
X46812Y595140D01*
X45940Y592268D01*
X45646Y589280D01*
X45940Y586292D01*
X46812Y583420D01*
X48227Y580772D01*
X50132Y578451D01*
X52452Y576547D01*
X55100Y575132D01*
X57972Y574260D01*
X60960Y573966D01*
X99060D01*
X102048Y574260D01*
X104920Y575132D01*
X107568Y576547D01*
X109888Y578451D01*
X126398Y594962D01*
X128303Y597282D01*
X129718Y599930D01*
X130590Y602802D01*
X130884Y605790D01*
Y745497D01*
X140824Y755437D01*
X171001D01*
X173989Y755731D01*
X176862Y756603D01*
X179509Y758018D01*
X181830Y759922D01*
X183734Y762243D01*
X185149Y764890D01*
X186021Y767763D01*
X186315Y770751D01*
X186021Y773738D01*
X185149Y776611D01*
X183734Y779258D01*
X181830Y781579D01*
X179509Y783484D01*
X176862Y784899D01*
X173989Y785770D01*
X171001Y786064D01*
D02*
G37*
G36*
X1222914Y575310D02*
X1216660D01*
Y569056D01*
X1222914D01*
Y575310D01*
D02*
G37*
G36*
X1214120D02*
X1207866D01*
Y569056D01*
X1214120D01*
Y575310D01*
D02*
G37*
G36*
X614980Y560030D02*
X584900D01*
Y539750D01*
X614980D01*
Y560030D01*
D02*
G37*
G36*
X1319530Y582759D02*
Y575310D01*
X1318260D01*
Y574040D01*
X1310811D01*
X1311249Y572406D01*
X1312239Y570690D01*
X1313640Y569289D01*
X1315356Y568299D01*
X1316393Y568021D01*
X1356236Y528178D01*
Y524855D01*
X1354375D01*
Y519310D01*
X1362710D01*
X1371045D01*
Y524855D01*
X1369184D01*
Y530860D01*
X1368692Y533338D01*
X1367288Y535438D01*
X1325549Y577177D01*
X1325271Y578214D01*
X1324281Y579930D01*
X1322880Y581331D01*
X1321164Y582321D01*
X1319530Y582759D01*
D02*
G37*
G36*
X1216514Y535120D02*
X1214266D01*
X1212094Y534538D01*
X1210146Y533414D01*
X1208556Y531824D01*
X1207432Y529876D01*
X1206850Y527704D01*
Y525456D01*
X1207432Y523284D01*
X1208556Y521336D01*
X1210146Y519746D01*
X1212094Y518622D01*
X1214266Y518040D01*
X1216514D01*
X1218686Y518622D01*
X1220634Y519746D01*
X1222224Y521336D01*
X1223348Y523284D01*
X1223930Y525456D01*
Y527704D01*
X1223348Y529876D01*
X1222224Y531824D01*
X1220634Y533414D01*
X1218686Y534538D01*
X1216514Y535120D01*
D02*
G37*
G36*
X1319384Y533850D02*
X1317136D01*
X1314964Y533268D01*
X1313016Y532144D01*
X1311426Y530554D01*
X1310302Y528606D01*
X1309720Y526434D01*
Y524186D01*
X1310302Y522014D01*
X1311426Y520066D01*
X1313016Y518476D01*
X1314964Y517352D01*
X1317136Y516770D01*
X1319384D01*
X1321556Y517352D01*
X1323504Y518476D01*
X1325094Y520066D01*
X1326218Y522014D01*
X1326800Y524186D01*
Y526434D01*
X1326218Y528606D01*
X1325094Y530554D01*
X1323504Y532144D01*
X1321556Y533268D01*
X1319384Y533850D01*
D02*
G37*
G36*
X1371045Y516770D02*
X1363980D01*
Y511225D01*
X1371045D01*
Y516770D01*
D02*
G37*
G36*
X1361440D02*
X1354375D01*
Y511225D01*
X1361440D01*
Y516770D01*
D02*
G37*
G36*
X1020740Y640640D02*
X955660D01*
Y575560D01*
X972886D01*
Y527030D01*
X973180Y524042D01*
X974052Y521170D01*
X975467Y518522D01*
X977372Y516202D01*
X980432Y513142D01*
X980470Y513110D01*
X980470Y511380D01*
X980470D01*
Y511160D01*
X980470D01*
Y494680D01*
X999450D01*
Y503978D01*
X1018494D01*
Y499568D01*
X1010769Y491843D01*
X1009983Y490667D01*
X1009707Y489280D01*
X1009707Y489280D01*
Y484891D01*
X1008587Y484511D01*
X1008236Y484441D01*
X994989D01*
Y469296D01*
X1014151D01*
Y477440D01*
X1015240Y478386D01*
X1016024Y478321D01*
X1016579Y477950D01*
Y469296D01*
X1035741D01*
Y484441D01*
X1022494D01*
X1022143Y484511D01*
X1021023Y484891D01*
Y486094D01*
X1028748Y493820D01*
X1029534Y494996D01*
X1029810Y496383D01*
X1029810Y496383D01*
Y508097D01*
X1029534Y509485D01*
X1029356Y509751D01*
X1037316Y517711D01*
X1038586Y517186D01*
Y508540D01*
X1048360D01*
X1058134D01*
Y518810D01*
X1058134Y518844D01*
X1058216Y520080D01*
X1059150D01*
Y536560D01*
X1040170D01*
Y527262D01*
X1038113D01*
X1038113Y527262D01*
X1036725Y526986D01*
X1035549Y526200D01*
X1022657Y513307D01*
X1021871Y512131D01*
X1021663Y511084D01*
X1020930Y511230D01*
X1020930Y511230D01*
X1003258D01*
X1002050Y511380D01*
Y513110D01*
X1002088Y513142D01*
X1003993Y515462D01*
X1005408Y518110D01*
X1006280Y520982D01*
X1006574Y523970D01*
X1006280Y526958D01*
X1005408Y529830D01*
X1003993Y532478D01*
X1003514Y533062D01*
Y575560D01*
X1020740D01*
Y640640D01*
D02*
G37*
G36*
X1418590Y513179D02*
X1415606Y512786D01*
X1412826Y511634D01*
X1410438Y509802D01*
X1408606Y507414D01*
X1408136Y506279D01*
X1372061D01*
Y508331D01*
X1353359D01*
Y492669D01*
X1356236D01*
Y464121D01*
X1353129D01*
Y448976D01*
X1372291D01*
Y464121D01*
X1369184D01*
Y492669D01*
X1372061D01*
Y493331D01*
X1407560D01*
X1408606Y490806D01*
X1410438Y488418D01*
X1412826Y486586D01*
X1415606Y485434D01*
X1418590Y485041D01*
X1421574Y485434D01*
X1424354Y486586D01*
X1426742Y488418D01*
X1428574Y490806D01*
X1429726Y493586D01*
X1430119Y496570D01*
Y501650D01*
X1429726Y504634D01*
X1428574Y507414D01*
X1426742Y509802D01*
X1424354Y511634D01*
X1421574Y512786D01*
X1418590Y513179D01*
D02*
G37*
G36*
X452172Y516760D02*
X449528D01*
X446975Y516076D01*
X444685Y514754D01*
X442816Y512885D01*
X441494Y510595D01*
X440810Y508042D01*
Y505398D01*
X441494Y502845D01*
X442816Y500555D01*
X444685Y498686D01*
X446975Y497364D01*
X449528Y496680D01*
X452172D01*
X454725Y497364D01*
X457015Y498686D01*
X458884Y500555D01*
X460206Y502845D01*
X460890Y505398D01*
Y508042D01*
X460206Y510595D01*
X458884Y512885D01*
X457015Y514754D01*
X454725Y516076D01*
X452172Y516760D01*
D02*
G37*
G36*
X1058134Y506000D02*
X1049630D01*
Y495696D01*
X1058134D01*
Y506000D01*
D02*
G37*
G36*
X1047090D02*
X1038586D01*
Y495696D01*
X1047090D01*
Y506000D01*
D02*
G37*
G36*
X59480Y479290D02*
Y471170D01*
X67600D01*
X66968Y473528D01*
X65731Y475671D01*
X63981Y477421D01*
X61838Y478658D01*
X59480Y479290D01*
D02*
G37*
G36*
X56940D02*
X54582Y478658D01*
X52439Y477421D01*
X50689Y475671D01*
X49451Y473528D01*
X48820Y471170D01*
X56940D01*
Y479290D01*
D02*
G37*
G36*
X67600Y468630D02*
X59480D01*
Y460510D01*
X61838Y461142D01*
X63981Y462379D01*
X65731Y464129D01*
X66968Y466272D01*
X67600Y468630D01*
D02*
G37*
G36*
X56940D02*
X48820D01*
X49451Y466272D01*
X50689Y464129D01*
X52439Y462379D01*
X54582Y461142D01*
X56940Y460510D01*
Y468630D01*
D02*
G37*
G36*
X1418590Y458569D02*
X1415606Y458176D01*
X1412826Y457024D01*
X1410438Y455192D01*
X1408606Y452804D01*
X1407454Y450024D01*
X1407061Y447040D01*
Y441960D01*
X1407454Y438976D01*
X1408606Y436196D01*
X1410438Y433808D01*
X1412826Y431976D01*
X1415606Y430824D01*
X1418590Y430431D01*
X1421574Y430824D01*
X1424354Y431976D01*
X1426742Y433808D01*
X1428574Y436196D01*
X1429726Y438976D01*
X1430119Y441960D01*
Y447040D01*
X1429726Y450024D01*
X1428574Y452804D01*
X1426742Y455192D01*
X1424354Y457024D01*
X1421574Y458176D01*
X1418590Y458569D01*
D02*
G37*
G36*
X1224184Y419004D02*
X1217930D01*
Y412750D01*
X1224184D01*
Y419004D01*
D02*
G37*
G36*
X1215390D02*
X1209136D01*
Y412750D01*
X1215390D01*
Y419004D01*
D02*
G37*
G36*
X1319530Y415119D02*
Y408940D01*
X1325709D01*
X1325271Y410574D01*
X1324281Y412290D01*
X1322880Y413691D01*
X1321164Y414681D01*
X1319530Y415119D01*
D02*
G37*
G36*
X1316990D02*
X1315356Y414681D01*
X1313640Y413691D01*
X1312239Y412290D01*
X1311249Y410574D01*
X1310811Y408940D01*
X1316990D01*
Y415119D01*
D02*
G37*
G36*
X1224184Y410210D02*
X1217930D01*
Y403956D01*
X1224184D01*
Y410210D01*
D02*
G37*
G36*
X1215390D02*
X1209136D01*
Y403956D01*
X1215390D01*
Y410210D01*
D02*
G37*
G36*
X1325709Y406400D02*
X1319530D01*
Y400221D01*
X1321164Y400659D01*
X1322880Y401649D01*
X1324281Y403050D01*
X1325271Y404766D01*
X1325709Y406400D01*
D02*
G37*
G36*
X1316990D02*
X1310811D01*
X1311249Y404766D01*
X1312239Y403050D01*
X1313640Y401649D01*
X1315356Y400659D01*
X1316990Y400221D01*
Y406400D01*
D02*
G37*
G36*
X1372291Y445104D02*
X1353129D01*
Y429959D01*
X1355013D01*
Y400239D01*
X1320646Y365872D01*
X1319384Y366210D01*
X1317136D01*
X1314964Y365628D01*
X1313016Y364504D01*
X1311426Y362914D01*
X1310302Y360966D01*
X1309720Y358794D01*
Y356546D01*
X1310302Y354374D01*
X1311426Y352426D01*
X1313016Y350836D01*
X1314964Y349712D01*
X1317136Y349130D01*
X1319384D01*
X1321556Y349712D01*
X1323504Y350836D01*
X1325094Y352426D01*
X1325300Y352783D01*
X1327016Y353930D01*
X1366066Y392979D01*
X1367469Y395080D01*
X1367962Y397557D01*
Y429959D01*
X1372291D01*
Y445104D01*
D02*
G37*
G36*
X903740Y565204D02*
X900752Y564910D01*
X897880Y564038D01*
X895232Y562623D01*
X892912Y560718D01*
X892346Y560030D01*
X888700D01*
Y552669D01*
X888426Y549890D01*
Y416260D01*
X888720Y413272D01*
X889592Y410400D01*
X891007Y407752D01*
X892912Y405432D01*
X903571Y394771D01*
X905892Y392867D01*
X908540Y391452D01*
X911412Y390580D01*
X914400Y390286D01*
X962567D01*
X984852Y368002D01*
X987172Y366097D01*
X989820Y364682D01*
X992692Y363811D01*
X995680Y363516D01*
X998668Y363811D01*
X1001540Y364682D01*
X1004188Y366097D01*
X1006508Y368002D01*
X1007053Y368665D01*
X1014170D01*
Y368665D01*
X1015290D01*
Y368665D01*
X1018159D01*
X1018645Y367492D01*
X1013227Y362074D01*
X920003D01*
X919644Y362434D01*
X917696Y363558D01*
X915524Y364140D01*
X913276D01*
X911104Y363558D01*
X909156Y362434D01*
X908797Y362074D01*
X582980D01*
Y469900D01*
X582783Y470891D01*
X582221Y471731D01*
X581381Y472293D01*
X580390Y472490D01*
X534794D01*
Y496690D01*
X538360D01*
Y516770D01*
X518280D01*
Y496690D01*
X521846D01*
Y472490D01*
X401320D01*
X400329Y472293D01*
X399489Y471731D01*
X398927Y470891D01*
X398730Y469900D01*
Y431990D01*
X378395D01*
X375917Y431497D01*
X374717Y430695D01*
X362141D01*
X361440Y430555D01*
X351751D01*
Y423055D01*
X335775D01*
Y423809D01*
X335283Y426287D01*
X333879Y428387D01*
X293625Y468641D01*
Y471271D01*
X292915Y473920D01*
X291544Y476295D01*
X289605Y478234D01*
X287230Y479605D01*
X284581Y480315D01*
X281839D01*
X279190Y479605D01*
X276815Y478234D01*
X274876Y476295D01*
X273505Y473920D01*
X272795Y471271D01*
Y468529D01*
X273505Y465880D01*
X274876Y463505D01*
X276815Y461566D01*
X279190Y460195D01*
X281839Y459485D01*
X284469D01*
X322827Y421127D01*
Y416705D01*
X322951Y416080D01*
Y404951D01*
X322827Y404325D01*
Y403103D01*
X285739Y366015D01*
X283109D01*
X280460Y365305D01*
X278085Y363934D01*
X276146Y361995D01*
X274775Y359620D01*
X274065Y356971D01*
Y354229D01*
X274775Y351580D01*
X275462Y350389D01*
X274729Y349119D01*
X184922D01*
X173864Y360178D01*
X171763Y361582D01*
X169286Y362074D01*
X66298D01*
X65251Y363121D01*
X63108Y364358D01*
X60750Y364990D01*
Y355600D01*
Y346210D01*
X63108Y346842D01*
X65251Y348079D01*
X66298Y349126D01*
X166604D01*
X177663Y338067D01*
X179763Y336663D01*
X182241Y336171D01*
X312165D01*
X314643Y336663D01*
X316743Y338067D01*
X366528Y387852D01*
X367932Y389952D01*
X368238Y391491D01*
X371515D01*
Y394245D01*
X362141D01*
X352767D01*
Y392403D01*
X309483Y349119D01*
X294231D01*
X293498Y350389D01*
X294185Y351580D01*
X294895Y354229D01*
Y356859D01*
X333879Y395843D01*
X335283Y397943D01*
X335289Y397975D01*
X352767D01*
Y396785D01*
X362141D01*
X371515D01*
Y399539D01*
X363931D01*
Y404041D01*
X365271D01*
X367749Y404534D01*
X368559Y405075D01*
X372531D01*
Y415955D01*
X368559D01*
X367749Y416497D01*
X365271Y416990D01*
X363931D01*
Y420336D01*
X374717D01*
X375917Y419534D01*
X378395Y419041D01*
X398730D01*
Y205840D01*
X359300D01*
X357392Y205460D01*
X348670D01*
Y197960D01*
X332694D01*
Y201040D01*
X332202Y203518D01*
X330798Y205618D01*
X295105Y241311D01*
Y243941D01*
X294395Y246590D01*
X293024Y248965D01*
X291085Y250904D01*
X288710Y252275D01*
X286061Y252985D01*
X283319D01*
X280670Y252275D01*
X278295Y250904D01*
X276356Y248965D01*
X274985Y246590D01*
X274275Y243941D01*
Y241199D01*
X274985Y238550D01*
X276356Y236175D01*
X278295Y234236D01*
X280670Y232865D01*
X283319Y232155D01*
X285949D01*
X319746Y198358D01*
Y191610D01*
X319870Y190985D01*
Y179855D01*
X319746Y179230D01*
Y179042D01*
X287009Y146305D01*
X284379D01*
X281730Y145595D01*
X279355Y144224D01*
X277416Y142285D01*
X276045Y139910D01*
X275335Y137261D01*
Y134519D01*
X276045Y131870D01*
X276732Y130679D01*
X275999Y129409D01*
X186192D01*
X175134Y140468D01*
X173033Y141872D01*
X170556Y142364D01*
X67568D01*
X66521Y143411D01*
X64378Y144649D01*
X62020Y145280D01*
Y135890D01*
Y126500D01*
X64378Y127132D01*
X66521Y128369D01*
X67568Y129416D01*
X167874D01*
X178932Y118357D01*
X181033Y116953D01*
X183511Y116461D01*
X313435D01*
X315913Y116953D01*
X318013Y118357D01*
X362718Y163062D01*
X364122Y165162D01*
X364367Y166396D01*
X368434D01*
Y169150D01*
X359060D01*
X349686D01*
Y168342D01*
X310753Y129409D01*
X295501D01*
X294768Y130679D01*
X295455Y131870D01*
X296165Y134519D01*
Y137149D01*
X330798Y171782D01*
X331532Y172880D01*
X349686D01*
Y171690D01*
X359060D01*
X368434D01*
Y174444D01*
X360850D01*
Y178946D01*
X362610D01*
X365088Y179438D01*
X365898Y179980D01*
X369450D01*
Y190860D01*
X365898D01*
X365088Y191402D01*
X362610Y191894D01*
X360850D01*
Y195380D01*
X369450D01*
Y195480D01*
X398730D01*
Y92710D01*
X398927Y91719D01*
X399489Y90879D01*
X400329Y90317D01*
X401320Y90120D01*
X444376D01*
Y55760D01*
X440810D01*
Y35680D01*
X460890D01*
Y55760D01*
X457324D01*
Y90120D01*
X580390D01*
X581381Y90317D01*
X582221Y90879D01*
X582783Y91719D01*
X582980Y92710D01*
Y349126D01*
X907926D01*
Y304979D01*
X906096Y304221D01*
X903708Y302389D01*
X901876Y300001D01*
X900724Y297221D01*
X900331Y294237D01*
X900724Y291253D01*
X901876Y288472D01*
X903708Y286085D01*
X906096Y284253D01*
X908876Y283101D01*
X911860Y282708D01*
X916940D01*
X919924Y283101D01*
X922704Y284253D01*
X925092Y286085D01*
X926924Y288472D01*
X928076Y291253D01*
X928469Y294237D01*
X928076Y297221D01*
X926924Y300001D01*
X925092Y302389D01*
X922704Y304221D01*
X920874Y304979D01*
Y349126D01*
X1015909D01*
X1018387Y349618D01*
X1020487Y351022D01*
X1033988Y364523D01*
X1035392Y366623D01*
X1035741Y368380D01*
X1036026Y368665D01*
X1039570D01*
Y372811D01*
X1039762Y373097D01*
X1040254Y375575D01*
Y382085D01*
X1039762Y384563D01*
X1039570Y384849D01*
Y388995D01*
X1028140D01*
X1027990Y388995D01*
Y388995D01*
X1026870D01*
Y388995D01*
X1015290D01*
Y388995D01*
X1014170D01*
Y388995D01*
X1007053D01*
X1006508Y389658D01*
X984502Y411665D01*
X995742Y422905D01*
X1001320D01*
X1001470Y422905D01*
X1002590D01*
X1002740Y422905D01*
X1014170D01*
Y422905D01*
X1015290D01*
Y422905D01*
X1026720D01*
X1026870Y422905D01*
X1027990D01*
X1028140Y422905D01*
X1039570D01*
Y429444D01*
X1041492D01*
X1041492Y429444D01*
X1042879Y429720D01*
X1044056Y430506D01*
X1045160Y431610D01*
X1051636D01*
X1051636Y431610D01*
X1051986Y431680D01*
X1056004D01*
X1089834Y397850D01*
Y394772D01*
X1088996Y393321D01*
X1088390Y391060D01*
Y388720D01*
X1088996Y386459D01*
X1090166Y384431D01*
X1091821Y382776D01*
X1093849Y381606D01*
X1096110Y381000D01*
X1098450D01*
X1100711Y381606D01*
X1102739Y382776D01*
X1104394Y384431D01*
X1105564Y386459D01*
X1106170Y388720D01*
Y391060D01*
X1105564Y393321D01*
X1104394Y395349D01*
X1102782Y396960D01*
Y400532D01*
X1102290Y403010D01*
X1100886Y405110D01*
X1065160Y440836D01*
Y446260D01*
X1045580D01*
Y438862D01*
X1043658D01*
X1042271Y438586D01*
X1041094Y437800D01*
X1041094Y437800D01*
X1040840Y437546D01*
X1039570Y438072D01*
Y443235D01*
X1028140D01*
X1027990Y443235D01*
X1026870D01*
X1026720Y443235D01*
X1021796D01*
X1020991Y444217D01*
X1021023Y444378D01*
Y449829D01*
X1022143Y450209D01*
X1022494Y450279D01*
X1035741D01*
Y454844D01*
X1045580D01*
Y451180D01*
X1065160D01*
Y465760D01*
X1045580D01*
Y462096D01*
X1035741D01*
Y465424D01*
X1016579D01*
Y456770D01*
X1016024Y456399D01*
X1015240Y456334D01*
X1014151Y457280D01*
Y465424D01*
X994989D01*
Y460826D01*
X983880D01*
Y464490D01*
X964300D01*
Y449910D01*
X979972D01*
X980161Y448640D01*
X979660Y448488D01*
X977012Y447073D01*
X974691Y445168D01*
X974513Y444990D01*
X964300D01*
Y434777D01*
X958082Y428558D01*
X956177Y426238D01*
X954762Y423590D01*
X953950Y420914D01*
X920743D01*
X919054Y422603D01*
Y549890D01*
X918780Y552669D01*
Y560030D01*
X915134D01*
X914568Y560718D01*
X912248Y562623D01*
X909600Y564038D01*
X906728Y564910D01*
X903740Y565204D01*
D02*
G37*
G36*
X58210Y364990D02*
X55852Y364358D01*
X53709Y363121D01*
X51959Y361371D01*
X50722Y359228D01*
X50090Y356870D01*
X58210D01*
Y364990D01*
D02*
G37*
G36*
X1217784Y370020D02*
X1215536D01*
X1213364Y369438D01*
X1211416Y368314D01*
X1209826Y366724D01*
X1208702Y364776D01*
X1208120Y362604D01*
Y360356D01*
X1208702Y358184D01*
X1209826Y356236D01*
X1211416Y354646D01*
X1213364Y353522D01*
X1215536Y352940D01*
X1217784D01*
X1219956Y353522D01*
X1221904Y354646D01*
X1223494Y356236D01*
X1224618Y358184D01*
X1225200Y360356D01*
Y362604D01*
X1224618Y364776D01*
X1223494Y366724D01*
X1221904Y368314D01*
X1219956Y369438D01*
X1217784Y370020D01*
D02*
G37*
G36*
X58210Y354330D02*
X50090D01*
X50722Y351972D01*
X51959Y349829D01*
X53709Y348079D01*
X55852Y346842D01*
X58210Y346210D01*
Y354330D01*
D02*
G37*
G36*
X971550Y305765D02*
X966470D01*
X963486Y305373D01*
X960706Y304221D01*
X958318Y302389D01*
X956486Y300001D01*
X955334Y297221D01*
X954941Y294237D01*
X955334Y291253D01*
X956486Y288472D01*
X958318Y286085D01*
X960706Y284253D01*
X963486Y283101D01*
X966470Y282708D01*
X971550D01*
X974534Y283101D01*
X977314Y284253D01*
X979702Y286085D01*
X981534Y288472D01*
X982686Y291253D01*
X983079Y294237D01*
X982686Y297221D01*
X981534Y300001D01*
X979702Y302389D01*
X977314Y304221D01*
X974534Y305373D01*
X971550Y305765D01*
D02*
G37*
G36*
X1224184Y253904D02*
X1217930D01*
Y247650D01*
X1224184D01*
Y253904D01*
D02*
G37*
G36*
X1215390D02*
X1209136D01*
Y247650D01*
X1215390D01*
Y253904D01*
D02*
G37*
G36*
X60960Y251960D02*
Y243840D01*
X69080D01*
X68449Y246198D01*
X67211Y248341D01*
X65461Y250091D01*
X63318Y251329D01*
X60960Y251960D01*
D02*
G37*
G36*
X58420D02*
X56062Y251329D01*
X53919Y250091D01*
X52169Y248341D01*
X50932Y246198D01*
X50300Y243840D01*
X58420D01*
Y251960D01*
D02*
G37*
G36*
X1320939Y249996D02*
Y243817D01*
X1327119D01*
X1326681Y245451D01*
X1325690Y247167D01*
X1324289Y248567D01*
X1322574Y249558D01*
X1320939Y249996D01*
D02*
G37*
G36*
X1318399D02*
X1316765Y249558D01*
X1315050Y248567D01*
X1313649Y247167D01*
X1312658Y245451D01*
X1312220Y243817D01*
X1318399D01*
Y249996D01*
D02*
G37*
G36*
X1414717Y254858D02*
Y243252D01*
X1423951D01*
Y244522D01*
X1423593Y247240D01*
X1422543Y249774D01*
X1420874Y251949D01*
X1418699Y253618D01*
X1416165Y254668D01*
X1414717Y254858D01*
D02*
G37*
G36*
X1412177D02*
X1410728Y254668D01*
X1408195Y253618D01*
X1406019Y251949D01*
X1404350Y249774D01*
X1403301Y247240D01*
X1402943Y244522D01*
Y243252D01*
X1412177D01*
Y254858D01*
D02*
G37*
G36*
X1224184Y245110D02*
X1217930D01*
Y238856D01*
X1224184D01*
Y245110D01*
D02*
G37*
G36*
X1215390D02*
X1209136D01*
Y238856D01*
X1215390D01*
Y245110D01*
D02*
G37*
G36*
X1327119Y241277D02*
X1320939D01*
Y235098D01*
X1322574Y235535D01*
X1324289Y236526D01*
X1325690Y237927D01*
X1326681Y239643D01*
X1327119Y241277D01*
D02*
G37*
G36*
X1318399D02*
X1312220D01*
X1312658Y239643D01*
X1313649Y237927D01*
X1315050Y236526D01*
X1316765Y235535D01*
X1318399Y235098D01*
Y241277D01*
D02*
G37*
G36*
X69080Y241300D02*
X60960D01*
Y233180D01*
X63318Y233811D01*
X65461Y235049D01*
X67211Y236799D01*
X68449Y238942D01*
X69080Y241300D01*
D02*
G37*
G36*
X58420D02*
X50300D01*
X50932Y238942D01*
X52169Y236799D01*
X53919Y235049D01*
X56062Y233811D01*
X58420Y233180D01*
Y241300D01*
D02*
G37*
G36*
X1423951Y240712D02*
X1414717D01*
Y229105D01*
X1416165Y229296D01*
X1418699Y230345D01*
X1420874Y232014D01*
X1422543Y234190D01*
X1423593Y236723D01*
X1423951Y239442D01*
Y240712D01*
D02*
G37*
G36*
X1412177D02*
X1402943D01*
Y239442D01*
X1403301Y236723D01*
X1404350Y234190D01*
X1406019Y232014D01*
X1408195Y230345D01*
X1410728Y229296D01*
X1412177Y229105D01*
Y240712D01*
D02*
G37*
G36*
X1217784Y204920D02*
X1215536D01*
X1213364Y204338D01*
X1211416Y203214D01*
X1209826Y201624D01*
X1208702Y199676D01*
X1208120Y197504D01*
Y195256D01*
X1208702Y193084D01*
X1209826Y191136D01*
X1211416Y189546D01*
X1213364Y188422D01*
X1215536Y187840D01*
X1217784D01*
X1219956Y188422D01*
X1221904Y189546D01*
X1223494Y191136D01*
X1224618Y193084D01*
X1225200Y195256D01*
Y197504D01*
X1224618Y199676D01*
X1223494Y201624D01*
X1221904Y203214D01*
X1219956Y204338D01*
X1217784Y204920D01*
D02*
G37*
G36*
X1320794Y201087D02*
X1318545D01*
X1316373Y200505D01*
X1314426Y199380D01*
X1312836Y197790D01*
X1311711Y195843D01*
X1311129Y193671D01*
Y191422D01*
X1311711Y189250D01*
X1312836Y187303D01*
X1314426Y185713D01*
X1316373Y184589D01*
X1318545Y184007D01*
X1320794D01*
X1322966Y184589D01*
X1324913Y185713D01*
X1326503Y187303D01*
X1327627Y189250D01*
X1328209Y191422D01*
Y193671D01*
X1327627Y195843D01*
X1326503Y197790D01*
X1324913Y199380D01*
X1322966Y200505D01*
X1320794Y201087D01*
D02*
G37*
G36*
X1413447Y201440D02*
X1410463Y201047D01*
X1407682Y199896D01*
X1405295Y198064D01*
X1403463Y195676D01*
X1402311Y192896D01*
X1401918Y189912D01*
Y184832D01*
X1402311Y181848D01*
X1403463Y179067D01*
X1405295Y176680D01*
X1407682Y174848D01*
X1410463Y173696D01*
X1413447Y173303D01*
X1416431Y173696D01*
X1419211Y174848D01*
X1421599Y176680D01*
X1423431Y179067D01*
X1424583Y181848D01*
X1424975Y184832D01*
Y189912D01*
X1424583Y192896D01*
X1423431Y195676D01*
X1421599Y198064D01*
X1419211Y199896D01*
X1416431Y201047D01*
X1413447Y201440D01*
D02*
G37*
G36*
X59480Y145280D02*
X57122Y144649D01*
X54979Y143411D01*
X53229Y141661D01*
X51992Y139518D01*
X51360Y137160D01*
X59480D01*
Y145280D01*
D02*
G37*
G36*
Y134620D02*
X51360D01*
X51992Y132262D01*
X53229Y130119D01*
X54979Y128369D01*
X57122Y127132D01*
X59480Y126500D01*
Y134620D01*
D02*
G37*
G36*
X529642Y55770D02*
X526998D01*
X524445Y55086D01*
X522155Y53764D01*
X520286Y51895D01*
X518964Y49605D01*
X518280Y47052D01*
Y44408D01*
X518964Y41855D01*
X520286Y39565D01*
X522155Y37696D01*
X524445Y36374D01*
X526998Y35690D01*
X529642D01*
X532195Y36374D01*
X534485Y37696D01*
X536354Y39565D01*
X537676Y41855D01*
X538360Y44408D01*
Y47052D01*
X537676Y49605D01*
X536354Y51895D01*
X534485Y53764D01*
X532195Y55086D01*
X529642Y55770D01*
D02*
G37*
G36*
X1399399Y86360D02*
X1394601D01*
X1389863Y85610D01*
X1385300Y84127D01*
X1381025Y81949D01*
X1377144Y79129D01*
X1373751Y75736D01*
X1370931Y71855D01*
X1368753Y67580D01*
X1367271Y63017D01*
X1366520Y58279D01*
Y53481D01*
X1367271Y48743D01*
X1368753Y44180D01*
X1370931Y39905D01*
X1373751Y36024D01*
X1377144Y32631D01*
X1381025Y29811D01*
X1385300Y27633D01*
X1389863Y26151D01*
X1394601Y25400D01*
X1399399D01*
X1404137Y26151D01*
X1408700Y27633D01*
X1412975Y29811D01*
X1416856Y32631D01*
X1420249Y36024D01*
X1423069Y39905D01*
X1425247Y44180D01*
X1426729Y48743D01*
X1427480Y53481D01*
Y58279D01*
X1426729Y63017D01*
X1425247Y67580D01*
X1423069Y71855D01*
X1420249Y75736D01*
X1416856Y79129D01*
X1412975Y81949D01*
X1408700Y84127D01*
X1404137Y85610D01*
X1399399Y86360D01*
D02*
G37*
G36*
X53199D02*
X48401D01*
X43663Y85610D01*
X39100Y84127D01*
X34825Y81949D01*
X30944Y79129D01*
X27551Y75736D01*
X24731Y71855D01*
X22553Y67580D01*
X21070Y63017D01*
X20320Y58279D01*
Y53481D01*
X21070Y48743D01*
X22553Y44180D01*
X24731Y39905D01*
X27551Y36024D01*
X30944Y32631D01*
X34825Y29811D01*
X39100Y27633D01*
X43663Y26151D01*
X48401Y25400D01*
X53199D01*
X57937Y26151D01*
X62500Y27633D01*
X66775Y29811D01*
X70656Y32631D01*
X74049Y36024D01*
X76869Y39905D01*
X79047Y44180D01*
X80529Y48743D01*
X81280Y53481D01*
Y58279D01*
X80529Y63017D01*
X79047Y67580D01*
X76869Y71855D01*
X74049Y75736D01*
X70656Y79129D01*
X66775Y81949D01*
X62500Y84127D01*
X57937Y85610D01*
X53199Y86360D01*
D02*
G37*
%LPD*%
D16*
X478790Y680890D02*
D03*
Y733890D02*
D03*
D17*
X343441Y410515D02*
D03*
X340360Y185420D02*
D03*
D18*
X362141Y425515D02*
D03*
Y395515D02*
D03*
X359060Y200420D02*
D03*
Y170420D02*
D03*
D19*
X365691Y410515D02*
D03*
X362610Y185420D02*
D03*
D20*
X475070Y633730D02*
D03*
X518070D02*
D03*
D21*
X599940Y737890D02*
D03*
Y700290D02*
D03*
Y662690D02*
D03*
Y625090D02*
D03*
Y587490D02*
D03*
Y549890D02*
D03*
X903740Y737890D02*
D03*
Y700290D02*
D03*
Y662690D02*
D03*
Y625090D02*
D03*
Y587490D02*
D03*
Y549890D02*
D03*
D22*
X974090Y437700D02*
D03*
Y457200D02*
D03*
X1055370Y458470D02*
D03*
Y438970D02*
D03*
D23*
X1004570Y476869D02*
D03*
Y457851D02*
D03*
X1026160Y476869D02*
D03*
Y457851D02*
D03*
X1362710Y437531D02*
D03*
Y456549D02*
D03*
D24*
Y500500D02*
D03*
Y518040D02*
D03*
D25*
X1048360Y507270D02*
D03*
X991260Y523970D02*
D03*
D26*
X1049660Y528320D02*
D03*
X989960Y502920D02*
D03*
D27*
X473710Y834166D02*
D03*
Y773653D02*
D03*
D28*
X1033780Y378830D02*
D03*
X1021080D02*
D03*
X1008380D02*
D03*
X995680D02*
D03*
Y433070D02*
D03*
X1008380D02*
D03*
X1021080D02*
D03*
X1033780D02*
D03*
D29*
X965200Y673100D02*
D03*
X1011200D02*
D03*
D30*
X988200Y608100D02*
D03*
D42*
X287383Y631305D02*
D03*
X362383D02*
D03*
X289560Y829310D02*
D03*
X364560D02*
D03*
D47*
X171001Y846951D02*
D03*
Y808851D02*
D03*
Y770751D02*
D03*
Y732651D02*
D03*
D54*
X115570Y751840D02*
X134481Y770751D01*
X171001D01*
X115570Y605790D02*
Y751840D01*
X99060Y589280D02*
X115570Y605790D01*
X60960Y589280D02*
X99060D01*
X170862Y808990D02*
X171001Y808851D01*
X91440Y808990D02*
X170862D01*
X60960Y778510D02*
X91440Y808990D01*
X60960Y643890D02*
Y778510D01*
X171001Y732651D02*
X243906D01*
X968910Y417730D02*
X985520Y434340D01*
X968910Y405600D02*
Y417730D01*
X914400Y405600D02*
X968910D01*
X995680Y378830D01*
X903740Y416260D02*
X914400Y405600D01*
X903740Y416260D02*
Y549890D01*
X911850Y670800D02*
X962900D01*
X903740Y662690D02*
X911850Y670800D01*
X962900D02*
X965200Y673100D01*
X473710Y773653D02*
X486093D01*
X474345Y738295D02*
X474980Y737660D01*
X486093Y773653D02*
X532859Y820420D01*
X475025Y633775D02*
X475070Y633730D01*
X515620Y636180D02*
Y645160D01*
Y636180D02*
X518070Y633730D01*
X474980Y679660D02*
X477310Y681990D01*
X528420D02*
X535940Y674470D01*
X518070Y633730D02*
X591300D01*
X475025Y633775D02*
Y679615D01*
X474980Y679660D02*
X475025Y679615D01*
X477310Y681990D02*
X528420D01*
X591300Y633730D02*
X599940Y625090D01*
X532859Y820420D02*
X535940D01*
Y839470D01*
X599710Y737660D02*
X599940Y737890D01*
Y662690D02*
Y700290D01*
X988200Y527030D02*
X991260Y523970D01*
X988200Y527030D02*
Y608100D01*
D55*
X371616Y834166D02*
X473710D01*
X366759Y829310D02*
X371616Y834166D01*
X364560Y829310D02*
X366759D01*
X1008380Y378830D02*
X1021080D01*
X995680D02*
X1008380D01*
X481938Y950802D02*
X487480Y945260D01*
Y887730D02*
Y945260D01*
X481938Y950802D02*
Y951012D01*
X1057870Y438970D02*
X1096308Y400532D01*
Y390862D02*
Y400532D01*
Y390862D02*
X1097280Y389890D01*
X1055370Y438970D02*
X1057870D01*
X1362710Y500500D02*
X1363405Y499805D01*
X1417895D01*
X1418590Y499110D01*
X1322438Y358508D02*
X1361487Y397557D01*
Y436309D01*
X1362710Y437531D01*
X1318260Y357670D02*
X1319098Y358508D01*
X1322438D01*
X1362710Y456549D02*
Y500500D01*
X1318260Y575310D02*
X1362710Y530860D01*
Y518040D02*
Y530860D01*
X914400Y294237D02*
Y355600D01*
X1029410Y371205D02*
X1033780Y375575D01*
Y378830D01*
X1021080D02*
X1021640Y378270D01*
X326220Y191610D02*
Y201040D01*
Y176360D02*
Y179230D01*
Y191610D02*
X332410Y185420D01*
X340360D01*
X326220Y179230D02*
X332410Y185420D01*
X340360D02*
X362610D01*
X312165Y342645D02*
X361950Y392430D01*
X329301Y400421D02*
Y404325D01*
X343441Y410515D02*
X365271D01*
X329301Y416705D02*
X335491Y410515D01*
X329301Y404325D02*
X335491Y410515D01*
X329301Y416705D02*
Y423809D01*
X335491Y410515D02*
X343441D01*
X284690Y242570D02*
X326220Y201040D01*
X284480Y355600D02*
X329301Y400421D01*
X285750Y135890D02*
X326220Y176360D01*
X313435Y122935D02*
X358140Y167640D01*
X378395Y425515D02*
X450785D01*
X450850Y140970D02*
X452120Y142240D01*
X450850Y45720D02*
Y140970D01*
X450785Y425515D02*
X453390Y422910D01*
X1029410Y369101D02*
Y371205D01*
X1015909Y355600D02*
X1029410Y369101D01*
X914400Y355600D02*
X1015909D01*
X427328Y917657D02*
Y951012D01*
Y917657D02*
X473710Y871276D01*
X283210Y469900D02*
X329301Y423809D01*
X560070Y356870D02*
X561340Y355600D01*
X914400D01*
X183511Y122935D02*
X313435D01*
X473710Y834166D02*
Y871276D01*
X528320Y450850D02*
Y506730D01*
X525780Y448310D02*
X528320Y450850D01*
X1033780Y378830D02*
Y382085D01*
X60750Y135890D02*
X170556D01*
X183511Y122935D01*
X59480Y355600D02*
X169286D01*
X182241Y342645D02*
X312165D01*
X169286Y355600D02*
X182241Y342645D01*
D56*
X243906Y732651D02*
X289560Y778305D01*
X243906Y732651D02*
X288569Y687988D01*
X471264Y741376D02*
X474980Y737660D01*
X471264Y741376D02*
Y771208D01*
X288569Y631288D02*
Y687988D01*
X289560Y778305D02*
Y829310D01*
Y778305D02*
X473710D01*
D57*
X359060Y200420D02*
X359300Y200660D01*
X362141Y425515D02*
X378395D01*
X403860Y200660D02*
X450850Y153670D01*
Y146050D02*
Y153670D01*
X359300Y200660D02*
X403860D01*
D58*
X474980Y737660D02*
X599710D01*
D59*
X1022143Y453835D02*
X1026160Y457851D01*
X1026779Y458470D02*
X1055370D01*
X1022143Y480885D02*
X1026160Y476869D01*
X1018587Y453835D02*
X1022143D01*
X1026160Y457851D02*
X1026779Y458470D01*
X1018587Y480885D02*
X1022143D01*
X1044976Y523636D02*
X1049660Y528320D01*
X1025221Y509060D02*
Y510744D01*
X1038113Y523636D02*
X1044976D01*
X1025221Y510744D02*
X1038113Y523636D01*
X1025221Y509060D02*
X1026184Y508097D01*
X1017397Y452645D02*
X1018587Y453835D01*
X1016762Y440869D02*
X1017952Y439679D01*
X1012143Y453835D02*
X1013333Y452645D01*
X1011508Y439679D02*
X1012698Y440869D01*
Y445426D01*
X1016762Y440869D02*
Y443743D01*
X1017397Y444378D02*
Y452645D01*
X1012698Y445426D02*
X1013333Y446061D01*
Y452645D01*
X1016762Y443743D02*
X1017397Y444378D01*
Y487596D02*
X1026184Y496383D01*
X1013333Y489280D02*
X1022120Y498067D01*
X989960Y502920D02*
X994644Y507604D01*
X1017397Y482075D02*
Y487596D01*
X1022120Y498067D02*
Y506414D01*
X994644Y507604D02*
X1020930D01*
X1022120Y506414D01*
X1004570Y476869D02*
X1008587Y480885D01*
X1013333Y482075D02*
Y489280D01*
X1012143Y480885D02*
X1013333Y482075D01*
X1017397D02*
X1018587Y480885D01*
X1008587D02*
X1012143D01*
X1026184Y496383D02*
Y508097D01*
X1041492Y433070D02*
X1043658Y435236D01*
X1051636D01*
X1055370Y438970D01*
X1033780Y433070D02*
X1041492D01*
X974090Y457200D02*
X1003919D01*
X1004570Y457851D01*
X1008587Y453835D01*
X1012143D01*
X1017952Y439679D02*
X1018846D01*
X1021080Y437445D01*
X1008380Y433070D02*
Y437445D01*
X1010614Y439679D02*
X1011508D01*
X1021080Y433070D02*
Y437445D01*
X1008380D02*
X1010614Y439679D01*
D60*
X490855Y281305D02*
D03*
D61*
X283210Y469900D02*
D03*
X58210D02*
D03*
X59480Y355600D02*
D03*
X284480D02*
D03*
X59690Y242570D02*
D03*
X284690D02*
D03*
X60750Y135890D02*
D03*
X285750D02*
D03*
D62*
X1397000Y55880D02*
D03*
Y965200D02*
D03*
X55880D02*
D03*
X50800Y55880D02*
D03*
D63*
X1413447Y187372D02*
D03*
Y241982D02*
D03*
X1418590Y499110D02*
D03*
Y444500D02*
D03*
X60960Y589280D02*
D03*
Y643890D02*
D03*
D64*
X914400Y405600D02*
D03*
Y355600D02*
D03*
X1319669Y192547D02*
D03*
Y242547D02*
D03*
X1318260Y357670D02*
D03*
Y407670D02*
D03*
Y525310D02*
D03*
Y575310D02*
D03*
X1316990Y696760D02*
D03*
Y746760D02*
D03*
X535940Y674470D02*
D03*
Y839470D02*
D03*
X1216660Y196380D02*
D03*
Y361480D02*
D03*
X1215390Y526580D02*
D03*
X1214120Y696760D02*
D03*
D65*
X969010Y294237D02*
D03*
X914400D02*
D03*
X481938Y951012D02*
D03*
X427328D02*
D03*
X683260Y949960D02*
D03*
X628650D02*
D03*
D66*
X538480Y887730D02*
D03*
X512980D02*
D03*
D67*
X487480D02*
D03*
D68*
X528320Y45730D02*
D03*
X450850Y506720D02*
D03*
D69*
X528320Y506730D02*
D03*
X450850Y45720D02*
D03*
D70*
X1216660Y246380D02*
D03*
Y411480D02*
D03*
X1215390Y576580D02*
D03*
X1214120Y746760D02*
D03*
D71*
X1097280Y389890D02*
D03*
X515620Y645160D02*
D03*
M02*
