%TF.GenerationSoftware,Altium Limited,Altium Designer,23.3.1 (30)*%
G04 Layer_Color=65535*
%FSLAX45Y45*%
%MOMM*%
%TF.SameCoordinates,B78A920C-B21B-4EC0-8B15-6B7EDFA50413*%
%TF.FilePolarity,Positive*%
%TF.FileFunction,Legend,Top*%
%TF.Part,Single*%
G01*
G75*
%TA.AperFunction,NonConductor*%
%ADD45C,0.20000*%
%ADD46C,0.15240*%
%ADD47C,0.10000*%
%ADD48C,0.25000*%
%ADD49C,0.60000*%
%ADD50C,0.25400*%
D45*
X4792900Y6683900D02*
G03*
X4792900Y6683900I-5000J0D01*
G01*
X12804100Y2213800D02*
G03*
X12804100Y2213800I-637500J0D01*
G01*
Y3864800D02*
G03*
X12804100Y3864800I-637500J0D01*
G01*
X12791400Y5515800D02*
G03*
X12791400Y5515800I-637500J0D01*
G01*
X12778700Y7217600D02*
G03*
X12778700Y7217600I-637500J0D01*
G01*
X3602411Y4305154D02*
Y4330154D01*
X3352411D02*
X3602411D01*
X3352411Y4245154D02*
Y4330154D01*
X3602411Y3880154D02*
Y3905154D01*
X3352411Y3880154D02*
X3602411D01*
X3352411D02*
Y3965154D01*
X4728200Y6484800D02*
X5203200D01*
Y6189800D02*
Y6212300D01*
Y6462300D02*
Y6484800D01*
X4728200Y6189800D02*
X5203200D01*
X4728200D02*
Y6212300D01*
Y6462300D02*
Y6484800D01*
X6230900Y5088900D02*
Y7788900D01*
X8805900Y5088900D02*
Y7788900D01*
X6230900D02*
X8805900D01*
X6230900Y5088900D02*
X8805900D01*
X9670900Y4462000D02*
Y4487000D01*
X9810900Y4462000D02*
Y4487000D01*
X10108200Y4666339D02*
Y4680861D01*
X9983200Y4666339D02*
Y4680861D01*
X10324100Y4666339D02*
Y4680861D01*
X10199100Y4666339D02*
Y4680861D01*
X10623700Y4474700D02*
Y4499700D01*
X10483700Y4474700D02*
Y4499700D01*
X13564600Y4463139D02*
Y4477661D01*
X13689600Y4463139D02*
Y4477661D01*
X13735207Y4952093D02*
Y5233307D01*
X13518993Y4952093D02*
Y5233307D01*
X4894600Y7851780D02*
Y8226420D01*
X4579600Y7851780D02*
Y8226420D01*
X5359400Y6839700D02*
Y7244700D01*
Y7894700D02*
Y8299700D01*
X5234400Y7894700D02*
X5484400D01*
X5234400Y7244700D02*
Y7894700D01*
Y7244700D02*
X5484400D01*
Y7894700D01*
X3571600Y2054200D02*
Y2079200D01*
X3321600D02*
X3571600D01*
X3321600Y1994200D02*
Y2079200D01*
X3571600Y1629200D02*
Y1654200D01*
X3321600Y1629200D02*
X3571600D01*
X3321600D02*
Y1714200D01*
X10405300Y4254500D02*
Y4407000D01*
X9902300Y4219500D02*
X10392300D01*
X9902300Y3899500D02*
Y4219500D01*
Y3899500D02*
X10392300D01*
Y4219500D01*
X4609800Y8877300D02*
Y9184300D01*
X5649800D01*
Y8724300D02*
Y9184300D01*
X9552000Y6406000D02*
Y6501000D01*
X10212000D01*
Y6406000D02*
Y6501000D01*
X5283200Y567300D02*
Y1837300D01*
Y3687300D02*
Y4957300D01*
Y3687300D02*
X5628200Y3342300D01*
X4938200Y3687300D02*
X5628200D01*
X4938200Y1837300D02*
Y3687300D01*
Y1837300D02*
X5628200D01*
Y3687300D01*
X4508500Y3687200D02*
Y4957200D01*
Y567200D02*
Y1837200D01*
X4163500Y2182200D02*
X4508500Y1837200D01*
X4163500D02*
X4853500D01*
Y3687200D01*
X4163500D02*
X4853500D01*
X4163500Y1837200D02*
Y3687200D01*
D46*
X4186086Y6313054D02*
G03*
X4186086Y6313054I-937260J0D01*
G01*
X1730334Y6969636D02*
G03*
X1730334Y6969636I-20320J0D01*
G01*
X4207860Y8293100D02*
G03*
X4207860Y8293100I-937260J0D01*
G01*
X4262286Y6249554D02*
Y6376554D01*
X4198786Y6313054D02*
X4325786D01*
X1442323Y7147436D02*
X1833483D01*
X1442323D02*
Y8648576D01*
X1833483D01*
Y7147436D02*
Y8648576D01*
X1442323Y7160136D02*
Y8635876D01*
X4284060Y8229600D02*
Y8356600D01*
X4220560Y8293100D02*
X4347560D01*
D47*
X3757411Y3955154D02*
G03*
X3767411Y3955154I5000J0D01*
G01*
D02*
G03*
X3757411Y3955154I-5000J0D01*
G01*
X9788100Y5029200D02*
G03*
X9798100Y5029200I5000J0D01*
G01*
D02*
G03*
X9788100Y5029200I-5000J0D01*
G01*
X3726600Y1704200D02*
G03*
X3736600Y1704200I5000J0D01*
G01*
D02*
G03*
X3726600Y1704200I-5000J0D01*
G01*
X10112000Y6936000D02*
G03*
X10112000Y6926000I0J-5000D01*
G01*
D02*
G03*
X10112000Y6936000I0J5000D01*
G01*
X442100Y4279000D02*
X2972100D01*
X442100D02*
Y5119000D01*
X2972100D01*
Y4279000D02*
Y5119000D01*
X2984800Y3136000D02*
Y3976000D01*
X454800D02*
X2984800D01*
X454800Y3136000D02*
Y3976000D01*
Y3136000D02*
X2984800D01*
X2986900Y2005700D02*
Y2845700D01*
X456900D02*
X2986900D01*
X456900Y2005700D02*
Y2845700D01*
Y2005700D02*
X2986900D01*
X2997500Y938900D02*
Y1778900D01*
X467500D02*
X2997500D01*
X467500Y938900D02*
Y1778900D01*
Y938900D02*
X2997500D01*
X9244000Y4006000D02*
X9274000D01*
Y3606000D02*
Y4006000D01*
X9244000Y3606000D02*
X9274000D01*
X9014000Y4006000D02*
X9044000D01*
X9014000Y3606000D02*
Y4006000D01*
Y3606000D02*
X9044000D01*
X13066695Y1975466D02*
X13096693D01*
X13066695D02*
Y2375467D01*
X13096693D01*
X13296693Y1975466D02*
X13326694D01*
Y2375467D01*
X13296693D02*
X13326694D01*
X13052600Y3626700D02*
X13082600D01*
X13052600D02*
Y4026700D01*
X13082600D01*
X13282600Y3626700D02*
X13312601D01*
Y4026700D01*
X13282600D02*
X13312601D01*
X13052600Y5303100D02*
X13082600D01*
X13052600D02*
Y5703100D01*
X13082600D01*
X13282600Y5303100D02*
X13312601D01*
Y5703100D01*
X13282600D02*
X13312601D01*
X13039900Y7017600D02*
X13069901D01*
X13039900D02*
Y7417600D01*
X13069901D01*
X13269901Y7017600D02*
X13299899D01*
Y7417600D01*
X13269901D02*
X13299899D01*
X10018100Y4996200D02*
X10358100D01*
X10018100Y5316200D02*
X10358100Y5315000D01*
D48*
X4543200Y6334800D02*
G03*
X4543200Y6334800I-12500J0D01*
G01*
X6011900Y7509900D02*
G03*
X6011900Y7509900I-12500J0D01*
G01*
D49*
X6368400Y7538900D02*
G03*
X6368400Y7538900I-30000J0D01*
G01*
D50*
X558808Y5308583D02*
X533417Y5333975D01*
X482633D01*
X457241Y5308583D01*
Y5207017D01*
X482633Y5181625D01*
X533417D01*
X558808Y5207017D01*
X609592D02*
X634984Y5181625D01*
X685767D01*
X711159Y5207017D01*
Y5308583D01*
X685767Y5333975D01*
X634984D01*
X609592Y5308583D01*
Y5283192D01*
X634984Y5257800D01*
X711159D01*
X4279917Y7251700D02*
X4254525Y7226308D01*
Y7175525D01*
X4279917Y7150133D01*
X4381483D01*
X4406875Y7175525D01*
Y7226308D01*
X4381483Y7251700D01*
X4406875Y7302484D02*
Y7353267D01*
Y7327876D01*
X4254525D01*
X4279917Y7302484D01*
X2423964Y7467737D02*
X2398572Y7493129D01*
X2347789D01*
X2322397Y7467737D01*
Y7366170D01*
X2347789Y7340778D01*
X2398572D01*
X2423964Y7366170D01*
X2576315Y7340778D02*
X2474747D01*
X2576315Y7442346D01*
Y7467737D01*
X2550923Y7493129D01*
X2500139D01*
X2474747Y7467737D01*
X14165547Y2768551D02*
X14114763D01*
X14140155D01*
Y2641592D01*
X14114763Y2616200D01*
X14089372D01*
X14063980Y2641592D01*
X14317899Y2768551D02*
X14267114Y2743159D01*
X14216331Y2692375D01*
Y2641592D01*
X14241724Y2616200D01*
X14292506D01*
X14317899Y2641592D01*
Y2666983D01*
X14292506Y2692375D01*
X14216331D01*
X9085547Y4373839D02*
X9060155Y4399231D01*
X9009372D01*
X8983980Y4373839D01*
Y4272272D01*
X9009372Y4246880D01*
X9060155D01*
X9085547Y4272272D01*
X9136331Y4246880D02*
X9187114D01*
X9161723D01*
Y4399231D01*
X9136331Y4373839D01*
X9263290D02*
X9288681Y4399231D01*
X9339465D01*
X9364857Y4373839D01*
Y4348447D01*
X9339465Y4323055D01*
X9364857Y4297663D01*
Y4272272D01*
X9339465Y4246880D01*
X9288681D01*
X9263290Y4272272D01*
Y4297663D01*
X9288681Y4323055D01*
X9263290Y4348447D01*
Y4373839D01*
X9288681Y4323055D02*
X9339465D01*
X13139388Y2743159D02*
X13113995Y2768551D01*
X13063213D01*
X13037820Y2743159D01*
Y2641592D01*
X13063213Y2616200D01*
X13113995D01*
X13139388Y2641592D01*
X13190170Y2616200D02*
X13240955D01*
X13215562D01*
Y2768551D01*
X13190170Y2743159D01*
X13317130Y2768551D02*
X13418697D01*
Y2743159D01*
X13317130Y2641592D01*
Y2616200D01*
X13124147Y4394159D02*
X13098755Y4419551D01*
X13047972D01*
X13022580Y4394159D01*
Y4292592D01*
X13047972Y4267200D01*
X13098755D01*
X13124147Y4292592D01*
X13174931Y4267200D02*
X13225714D01*
X13200323D01*
Y4419551D01*
X13174931Y4394159D01*
X13403458Y4419551D02*
X13352673Y4394159D01*
X13301891Y4343375D01*
Y4292592D01*
X13327281Y4267200D01*
X13378065D01*
X13403458Y4292592D01*
Y4317983D01*
X13378065Y4343375D01*
X13301891D01*
X13124147Y6070559D02*
X13098755Y6095951D01*
X13047972D01*
X13022580Y6070559D01*
Y5968992D01*
X13047972Y5943600D01*
X13098755D01*
X13124147Y5968992D01*
X13174931Y5943600D02*
X13225714D01*
X13200323D01*
Y6095951D01*
X13174931Y6070559D01*
X13403458Y6095951D02*
X13301891D01*
Y6019775D01*
X13352673Y6045167D01*
X13378065D01*
X13403458Y6019775D01*
Y5968992D01*
X13378065Y5943600D01*
X13327281D01*
X13301891Y5968992D01*
X13111447Y7785059D02*
X13086055Y7810451D01*
X13035272D01*
X13009880Y7785059D01*
Y7683492D01*
X13035272Y7658100D01*
X13086055D01*
X13111447Y7683492D01*
X13162231Y7658100D02*
X13213014D01*
X13187624D01*
Y7810451D01*
X13162231Y7785059D01*
X13365366Y7658100D02*
Y7810451D01*
X13289191Y7734275D01*
X13390758D01*
X9151587Y3266391D02*
X9100803D01*
X9126195D01*
Y3139432D01*
X9100803Y3114040D01*
X9075412D01*
X9050020Y3139432D01*
X9303938Y3266391D02*
X9202371D01*
Y3190215D01*
X9253154Y3215607D01*
X9278546D01*
X9303938Y3190215D01*
Y3139432D01*
X9278546Y3114040D01*
X9227763D01*
X9202371Y3139432D01*
X1445260Y8897571D02*
Y8770612D01*
X1470652Y8745220D01*
X1521435D01*
X1546827Y8770612D01*
Y8897571D01*
X1597611Y8745220D02*
X1648394D01*
X1623003D01*
Y8897571D01*
X1597611Y8872179D01*
X5854700Y8046671D02*
X5956267D01*
X5905483D01*
Y7894320D01*
X6007051D02*
X6057834D01*
X6032443D01*
Y8046671D01*
X6007051Y8021279D01*
X9601175Y4356141D02*
X9448825D01*
Y4432317D01*
X9474217Y4457708D01*
X9525000D01*
X9550392Y4432317D01*
Y4356141D01*
Y4406925D02*
X9601175Y4457708D01*
X9575783Y4508492D02*
X9601175Y4533884D01*
Y4584667D01*
X9575783Y4610059D01*
X9474217D01*
X9448825Y4584667D01*
Y4533884D01*
X9474217Y4508492D01*
X9499608D01*
X9525000Y4533884D01*
Y4610059D01*
X9652041Y4673625D02*
Y4825975D01*
X9728217D01*
X9753608Y4800583D01*
Y4749800D01*
X9728217Y4724408D01*
X9652041D01*
X9702825D02*
X9753608Y4673625D01*
X9804392Y4800583D02*
X9829784Y4825975D01*
X9880567D01*
X9905959Y4800583D01*
Y4775192D01*
X9880567Y4749800D01*
X9905959Y4724408D01*
Y4699017D01*
X9880567Y4673625D01*
X9829784D01*
X9804392Y4699017D01*
Y4724408D01*
X9829784Y4749800D01*
X9804392Y4775192D01*
Y4800583D01*
X9829784Y4749800D02*
X9880567D01*
X10414041Y4673625D02*
Y4825975D01*
X10490217D01*
X10515608Y4800583D01*
Y4749800D01*
X10490217Y4724408D01*
X10414041D01*
X10464825D02*
X10515608Y4673625D01*
X10566392Y4825975D02*
X10667959D01*
Y4800583D01*
X10566392Y4699017D01*
Y4673625D01*
X10858475Y4368841D02*
X10706125D01*
Y4445017D01*
X10731517Y4470408D01*
X10782300D01*
X10807692Y4445017D01*
Y4368841D01*
Y4419625D02*
X10858475Y4470408D01*
X10706125Y4622759D02*
X10731517Y4571975D01*
X10782300Y4521192D01*
X10833083D01*
X10858475Y4546584D01*
Y4597367D01*
X10833083Y4622759D01*
X10807692D01*
X10782300Y4597367D01*
Y4521192D01*
X13545821Y4726940D02*
Y4879291D01*
X13621996D01*
X13647388Y4853899D01*
Y4803115D01*
X13621996Y4777723D01*
X13545821D01*
X13596603D02*
X13647388Y4726940D01*
X13799738Y4879291D02*
X13698170D01*
Y4803115D01*
X13748953Y4828507D01*
X13774345D01*
X13799738Y4803115D01*
Y4752332D01*
X13774345Y4726940D01*
X13723563D01*
X13698170Y4752332D01*
X13535660Y5344160D02*
Y5496511D01*
X13611835D01*
X13637227Y5471119D01*
Y5420335D01*
X13611835Y5394943D01*
X13535660D01*
X13586443D02*
X13637227Y5344160D01*
X13764186D02*
Y5496511D01*
X13688011Y5420335D01*
X13789578D01*
X10414041Y5486425D02*
Y5638775D01*
X10490217D01*
X10515608Y5613383D01*
Y5562600D01*
X10490217Y5537208D01*
X10414041D01*
X10464825D02*
X10515608Y5486425D01*
X10566392Y5613383D02*
X10591784Y5638775D01*
X10642567D01*
X10667959Y5613383D01*
Y5587992D01*
X10642567Y5562600D01*
X10617175D01*
X10642567D01*
X10667959Y5537208D01*
Y5511817D01*
X10642567Y5486425D01*
X10591784D01*
X10566392Y5511817D01*
X5029241Y8026425D02*
Y8178775D01*
X5105417D01*
X5130808Y8153383D01*
Y8102600D01*
X5105417Y8077208D01*
X5029241D01*
X5080025D02*
X5130808Y8026425D01*
X5283159D02*
X5181592D01*
X5283159Y8127992D01*
Y8153383D01*
X5257767Y8178775D01*
X5206984D01*
X5181592Y8153383D01*
X5222240Y8557260D02*
Y8709611D01*
X5298415D01*
X5323807Y8684219D01*
Y8633435D01*
X5298415Y8608043D01*
X5222240D01*
X5273023D02*
X5323807Y8557260D01*
X5374591D02*
X5425374D01*
X5399983D01*
Y8709611D01*
X5374591Y8684219D01*
X4279867Y9834831D02*
X4229083D01*
X4254475D01*
Y9707872D01*
X4229083Y9682480D01*
X4203692D01*
X4178300Y9707872D01*
X4406826Y9682480D02*
Y9834831D01*
X4330651Y9758655D01*
X4432218D01*
X6291547Y9822131D02*
X6240763D01*
X6266155D01*
Y9695172D01*
X6240763Y9669780D01*
X6215372D01*
X6189980Y9695172D01*
X6342331Y9796739D02*
X6367723Y9822131D01*
X6418506D01*
X6443898Y9796739D01*
Y9771347D01*
X6418506Y9745955D01*
X6393114D01*
X6418506D01*
X6443898Y9720563D01*
Y9695172D01*
X6418506Y9669780D01*
X6367723D01*
X6342331Y9695172D01*
X14216347Y5341571D02*
X14165562D01*
X14190955D01*
Y5214612D01*
X14165562Y5189220D01*
X14140172D01*
X14114780Y5214612D01*
X14368698Y5189220D02*
X14267131D01*
X14368698Y5290787D01*
Y5316179D01*
X14343306Y5341571D01*
X14292523D01*
X14267131Y5316179D01*
X640047Y6786831D02*
X589263D01*
X614655D01*
Y6659872D01*
X589263Y6634480D01*
X563872D01*
X538480Y6659872D01*
X690831Y6634480D02*
X741614D01*
X716223D01*
Y6786831D01*
X690831Y6761439D01*
X3144520Y2412951D02*
X3195303D01*
X3169912D01*
Y2260600D01*
X3144520D01*
X3195303D01*
X3373046Y2387559D02*
X3347654Y2412951D01*
X3296871D01*
X3271479Y2387559D01*
Y2285992D01*
X3296871Y2260600D01*
X3347654D01*
X3373046Y2285992D01*
X3500005Y2260600D02*
Y2412951D01*
X3423830Y2336775D01*
X3525397D01*
X10452162Y4203675D02*
X10502945D01*
X10477554D01*
Y4051325D01*
X10452162D01*
X10502945D01*
X10680688Y4178283D02*
X10655296Y4203675D01*
X10604512D01*
X10579121Y4178283D01*
Y4076717D01*
X10604512Y4051325D01*
X10655296D01*
X10680688Y4076717D01*
X10731471Y4178283D02*
X10756863Y4203675D01*
X10807647D01*
X10833039Y4178283D01*
Y4152892D01*
X10807647Y4127500D01*
X10782255D01*
X10807647D01*
X10833039Y4102108D01*
Y4076717D01*
X10807647Y4051325D01*
X10756863D01*
X10731471Y4076717D01*
X3175000Y4663391D02*
X3225783D01*
X3200392D01*
Y4511040D01*
X3175000D01*
X3225783D01*
X3403526Y4637999D02*
X3378134Y4663391D01*
X3327351D01*
X3301959Y4637999D01*
Y4536432D01*
X3327351Y4511040D01*
X3378134D01*
X3403526Y4536432D01*
X3555877Y4511040D02*
X3454310D01*
X3555877Y4612607D01*
Y4637999D01*
X3530485Y4663391D01*
X3479701D01*
X3454310Y4637999D01*
X5054654Y9385275D02*
X5105437D01*
X5080045D01*
Y9232925D01*
X5054654D01*
X5105437D01*
X5283180Y9359883D02*
X5257788Y9385275D01*
X5207004D01*
X5181612Y9359883D01*
Y9258317D01*
X5207004Y9232925D01*
X5257788D01*
X5283180Y9258317D01*
X5333963Y9232925D02*
X5384747D01*
X5359355D01*
Y9385275D01*
X5333963Y9359883D01*
X4775241Y6095975D02*
Y5943625D01*
X4851417D01*
X4876808Y5969017D01*
Y6070583D01*
X4851417Y6095975D01*
X4775241D01*
X5029159Y5943625D02*
X4927592D01*
X5029159Y6045192D01*
Y6070583D01*
X5003767Y6095975D01*
X4952984D01*
X4927592Y6070583D01*
X9471660Y7213551D02*
Y7061200D01*
X9547835D01*
X9573227Y7086592D01*
Y7188159D01*
X9547835Y7213551D01*
X9471660D01*
X9624011Y7061200D02*
X9674794D01*
X9649403D01*
Y7213551D01*
X9624011Y7188159D01*
X584229Y1904983D02*
X558837Y1930375D01*
X508054D01*
X482662Y1904983D01*
Y1803417D01*
X508054Y1778025D01*
X558837D01*
X584229Y1803417D01*
X635012Y1778025D02*
X685796D01*
X660404D01*
Y1930375D01*
X635012Y1904983D01*
X761971D02*
X787363Y1930375D01*
X838147D01*
X863539Y1904983D01*
Y1879592D01*
X838147Y1854200D01*
X812755D01*
X838147D01*
X863539Y1828808D01*
Y1803417D01*
X838147Y1778025D01*
X787363D01*
X761971Y1803417D01*
X596929Y3009883D02*
X571537Y3035275D01*
X520754D01*
X495362Y3009883D01*
Y2908317D01*
X520754Y2882925D01*
X571537D01*
X596929Y2908317D01*
X647712Y2882925D02*
X698496D01*
X673104D01*
Y3035275D01*
X647712Y3009883D01*
X876239Y2882925D02*
X774671D01*
X876239Y2984492D01*
Y3009883D01*
X850847Y3035275D01*
X800063D01*
X774671Y3009883D01*
X5026627Y5372059D02*
X5001235Y5397451D01*
X4950452D01*
X4925060Y5372059D01*
Y5270492D01*
X4950452Y5245100D01*
X5001235D01*
X5026627Y5270492D01*
X5077411Y5245100D02*
X5128194D01*
X5102803D01*
Y5397451D01*
X5077411Y5372059D01*
X5204370Y5245100D02*
X5255153D01*
X5229761D01*
Y5397451D01*
X5204370Y5372059D01*
X546129Y4114783D02*
X520737Y4140175D01*
X469954D01*
X444562Y4114783D01*
Y4013217D01*
X469954Y3987825D01*
X520737D01*
X546129Y4013217D01*
X596912Y3987825D02*
X647696D01*
X622304D01*
Y4140175D01*
X596912Y4114783D01*
X723871D02*
X749263Y4140175D01*
X800047D01*
X825439Y4114783D01*
Y4013217D01*
X800047Y3987825D01*
X749263D01*
X723871Y4013217D01*
Y4114783D01*
X4251927Y5372059D02*
X4226535Y5397451D01*
X4175752D01*
X4150360Y5372059D01*
Y5270492D01*
X4175752Y5245100D01*
X4226535D01*
X4251927Y5270492D01*
X4302711Y5372059D02*
X4328103Y5397451D01*
X4378886D01*
X4404278Y5372059D01*
Y5346667D01*
X4378886Y5321275D01*
X4404278Y5295883D01*
Y5270492D01*
X4378886Y5245100D01*
X4328103D01*
X4302711Y5270492D01*
Y5295883D01*
X4328103Y5321275D01*
X4302711Y5346667D01*
Y5372059D01*
X4328103Y5321275D02*
X4378886D01*
X11602687Y3106379D02*
X11577295Y3131771D01*
X11526512D01*
X11501120Y3106379D01*
Y3004812D01*
X11526512Y2979420D01*
X11577295D01*
X11602687Y3004812D01*
X11653471Y3131771D02*
X11755038D01*
Y3106379D01*
X11653471Y3004812D01*
Y2979420D01*
X11602687Y4757379D02*
X11577295Y4782771D01*
X11526512D01*
X11501120Y4757379D01*
Y4655812D01*
X11526512Y4630420D01*
X11577295D01*
X11602687Y4655812D01*
X11755038Y4782771D02*
X11704254Y4757379D01*
X11653471Y4706595D01*
Y4655812D01*
X11678863Y4630420D01*
X11729646D01*
X11755038Y4655812D01*
Y4681203D01*
X11729646Y4706595D01*
X11653471D01*
X11589987Y6408379D02*
X11564595Y6433771D01*
X11513812D01*
X11488420Y6408379D01*
Y6306812D01*
X11513812Y6281420D01*
X11564595D01*
X11589987Y6306812D01*
X11742338Y6433771D02*
X11640771D01*
Y6357595D01*
X11691554Y6382987D01*
X11716946D01*
X11742338Y6357595D01*
Y6306812D01*
X11716946Y6281420D01*
X11666163D01*
X11640771Y6306812D01*
X11577287Y8110179D02*
X11551895Y8135571D01*
X11501112D01*
X11475720Y8110179D01*
Y8008612D01*
X11501112Y7983220D01*
X11551895D01*
X11577287Y8008612D01*
X11704246Y7983220D02*
Y8135571D01*
X11628071Y8059395D01*
X11729638D01*
X2445987Y9446219D02*
X2420595Y9471611D01*
X2369812D01*
X2344420Y9446219D01*
Y9344652D01*
X2369812Y9319260D01*
X2420595D01*
X2445987Y9344652D01*
X2496771Y9446219D02*
X2522163Y9471611D01*
X2572946D01*
X2598338Y9446219D01*
Y9420827D01*
X2572946Y9395435D01*
X2547554D01*
X2572946D01*
X2598338Y9370043D01*
Y9344652D01*
X2572946Y9319260D01*
X2522163D01*
X2496771Y9344652D01*
%TF.MD5,a26aab30aeeeb5f425a696fc768214bf*%
M02*
