%TF.GenerationSoftware,Altium Limited,Altium Designer,23.3.1 (30)*%
G04 Layer_Physical_Order=2*
G04 Layer_Color=16711680*
%FSLAX26Y26*%
%MOIN*%
%TF.SameCoordinates,4932A310-E953-401E-A278-E884588CB871*%
%TF.FilePolarity,Positive*%
%TF.FileFunction,Copper,L2,Bot,Signal*%
%TF.Part,Single*%
G01*
G75*
%TA.AperFunction,Conductor*%
%ADD25C,0.100000*%
%ADD26C,0.030000*%
%TA.AperFunction,ComponentPad*%
%ADD32C,0.062008*%
%ADD33C,0.062000*%
%TA.AperFunction,ViaPad*%
%ADD34C,0.220000*%
%TA.AperFunction,ComponentPad*%
%ADD35O,0.070000X0.090000*%
%ADD36C,0.047244*%
%ADD37O,0.090000X0.070000*%
%ADD38C,0.054000*%
%ADD39C,0.077953*%
%ADD40R,0.077953X0.077953*%
%ADD41C,0.059055*%
%ADD42R,0.059055X0.059055*%
%ADD43R,0.047244X0.047244*%
%TA.AperFunction,ViaPad*%
%ADD44C,0.050000*%
G36*
X5675000Y3950000D02*
Y50000D01*
X50000D01*
Y3956461D01*
X53539Y3959994D01*
X5675000Y3950000D01*
D02*
G37*
%LPC*%
G36*
X5509129Y3916000D02*
X5505000D01*
Y3805000D01*
X5616000D01*
Y3809129D01*
X5613144Y3827163D01*
X5607501Y3844528D01*
X5599212Y3860797D01*
X5588480Y3875569D01*
X5575569Y3888480D01*
X5560797Y3899212D01*
X5544529Y3907501D01*
X5527163Y3913144D01*
X5509129Y3916000D01*
D02*
G37*
G36*
X5495000D02*
X5490871D01*
X5472837Y3913144D01*
X5455471Y3907501D01*
X5439203Y3899212D01*
X5424431Y3888480D01*
X5411520Y3875569D01*
X5400788Y3860797D01*
X5392499Y3844528D01*
X5386856Y3827163D01*
X5384000Y3809129D01*
Y3805000D01*
X5495000D01*
Y3916000D01*
D02*
G37*
G36*
X229129D02*
X225000D01*
Y3805000D01*
X336000D01*
Y3809129D01*
X333144Y3827163D01*
X327501Y3844528D01*
X319212Y3860797D01*
X308480Y3875569D01*
X295569Y3888480D01*
X280797Y3899212D01*
X264529Y3907501D01*
X247163Y3913144D01*
X229129Y3916000D01*
D02*
G37*
G36*
X215000D02*
X210871D01*
X192837Y3913144D01*
X175471Y3907501D01*
X159203Y3899212D01*
X144431Y3888480D01*
X131520Y3875569D01*
X120788Y3860797D01*
X112499Y3844528D01*
X106856Y3827163D01*
X104000Y3809129D01*
Y3805000D01*
X215000D01*
Y3916000D01*
D02*
G37*
G36*
X1692395Y3785493D02*
X1687395D01*
Y3749140D01*
X1733091D01*
X1732340Y3754843D01*
X1728208Y3764816D01*
X1721637Y3773381D01*
X1713072Y3779953D01*
X1703098Y3784084D01*
X1692395Y3785493D01*
D02*
G37*
G36*
X1677395D02*
X1672395D01*
X1661692Y3784084D01*
X1651718Y3779953D01*
X1643153Y3773381D01*
X1636582Y3764816D01*
X1632450Y3754843D01*
X1631699Y3749140D01*
X1677395D01*
Y3785493D01*
D02*
G37*
G36*
X2485000Y3781354D02*
X2480000D01*
Y3745000D01*
X2525695D01*
X2524945Y3750703D01*
X2520813Y3760677D01*
X2514242Y3769242D01*
X2505677Y3775813D01*
X2495703Y3779945D01*
X2485000Y3781354D01*
D02*
G37*
G36*
X2470000D02*
X2465000D01*
X2454297Y3779945D01*
X2444323Y3775813D01*
X2435758Y3769242D01*
X2429187Y3760677D01*
X2425055Y3750703D01*
X2424305Y3745000D01*
X2470000D01*
Y3781354D01*
D02*
G37*
G36*
X1733091Y3739140D02*
X1687395D01*
Y3702786D01*
X1692395D01*
X1703098Y3704195D01*
X1713072Y3708326D01*
X1721637Y3714898D01*
X1728208Y3723463D01*
X1732340Y3733436D01*
X1733091Y3739140D01*
D02*
G37*
G36*
X1677395D02*
X1631699D01*
X1632450Y3733436D01*
X1636582Y3723463D01*
X1643153Y3714898D01*
X1651718Y3708326D01*
X1661692Y3704195D01*
X1672395Y3702786D01*
X1677395D01*
Y3739140D01*
D02*
G37*
G36*
X1907395Y3789528D02*
X1887395D01*
X1875648Y3787981D01*
X1864701Y3783447D01*
X1855301Y3776234D01*
X1848088Y3766834D01*
X1843553Y3755887D01*
X1842007Y3744140D01*
X1843553Y3732392D01*
X1848088Y3721445D01*
X1855301Y3712045D01*
X1864701Y3704832D01*
X1875648Y3700298D01*
X1887395Y3698751D01*
X1907395D01*
X1919142Y3700298D01*
X1930089Y3704832D01*
X1939489Y3712045D01*
X1946702Y3721445D01*
X1951237Y3732392D01*
X1952783Y3744140D01*
X1951237Y3755887D01*
X1946702Y3766834D01*
X1939489Y3776234D01*
X1930089Y3783447D01*
X1919142Y3787981D01*
X1907395Y3789528D01*
D02*
G37*
G36*
X2525695Y3735000D02*
X2480000D01*
Y3698646D01*
X2485000D01*
X2495703Y3700055D01*
X2505677Y3704187D01*
X2514242Y3710758D01*
X2520813Y3719323D01*
X2524945Y3729297D01*
X2525695Y3735000D01*
D02*
G37*
G36*
X2470000D02*
X2424305D01*
X2425055Y3729297D01*
X2429187Y3719323D01*
X2435758Y3710758D01*
X2444323Y3704187D01*
X2454297Y3700055D01*
X2465000Y3698646D01*
X2470000D01*
Y3735000D01*
D02*
G37*
G36*
X5616000Y3795000D02*
X5505000D01*
Y3684000D01*
X5509129D01*
X5527163Y3686856D01*
X5544529Y3692499D01*
X5560797Y3700788D01*
X5575569Y3711520D01*
X5588480Y3724431D01*
X5599212Y3739203D01*
X5607501Y3755472D01*
X5613144Y3772837D01*
X5616000Y3790871D01*
Y3795000D01*
D02*
G37*
G36*
X5495000D02*
X5384000D01*
Y3790871D01*
X5386856Y3772837D01*
X5392499Y3755472D01*
X5400788Y3739203D01*
X5411520Y3724431D01*
X5424431Y3711520D01*
X5439203Y3700788D01*
X5455471Y3692499D01*
X5472837Y3686856D01*
X5490871Y3684000D01*
X5495000D01*
Y3795000D01*
D02*
G37*
G36*
X336000D02*
X225000D01*
Y3684000D01*
X229129D01*
X247163Y3686856D01*
X264529Y3692499D01*
X280797Y3700788D01*
X295569Y3711520D01*
X308480Y3724431D01*
X319212Y3739203D01*
X327501Y3755472D01*
X333144Y3772837D01*
X336000Y3790871D01*
Y3795000D01*
D02*
G37*
G36*
X215000D02*
X104000D01*
Y3790871D01*
X106856Y3772837D01*
X112499Y3755472D01*
X120788Y3739203D01*
X131520Y3724431D01*
X144431Y3711520D01*
X159203Y3700788D01*
X175471Y3692499D01*
X192837Y3686856D01*
X210871Y3684000D01*
X215000D01*
Y3795000D01*
D02*
G37*
G36*
X2019606Y3555290D02*
X2007844Y3554132D01*
X1996534Y3550701D01*
X1986111Y3545130D01*
X1976975Y3537632D01*
X1973189Y3533019D01*
X1968189Y3534808D01*
Y3543976D01*
X1870236D01*
Y3446024D01*
X1959316D01*
Y2550394D01*
X1960474Y2538632D01*
X1963905Y2527322D01*
X1969477Y2516898D01*
X1976975Y2507762D01*
X1987368Y2497368D01*
X1996505Y2489870D01*
X2006928Y2484299D01*
X2018238Y2480868D01*
X2030000Y2479710D01*
X2041762Y2480868D01*
X2053072Y2484299D01*
X2063495Y2489870D01*
X2072632Y2497368D01*
X2080130Y2506505D01*
X2085701Y2516928D01*
X2089132Y2528238D01*
X2090290Y2540000D01*
X2089132Y2551762D01*
X2085701Y2563072D01*
X2080130Y2573495D01*
X2079897Y2573779D01*
Y2630877D01*
X2084897Y2632948D01*
X2089356Y2628489D01*
X2097022Y2624063D01*
X2105574Y2621772D01*
X2114426D01*
X2122978Y2624063D01*
X2130644Y2628489D01*
X2136904Y2634749D01*
X2141331Y2642416D01*
X2143622Y2650967D01*
Y2659820D01*
X2141331Y2668371D01*
X2136904Y2676038D01*
X2130644Y2682298D01*
X2122978Y2686724D01*
X2114426Y2689016D01*
X2105574D01*
X2097022Y2686724D01*
X2089356Y2682298D01*
X2084897Y2677839D01*
X2079897Y2679910D01*
Y3280484D01*
X2084897Y3282555D01*
X2089356Y3278096D01*
X2097022Y3273669D01*
X2105574Y3271378D01*
X2114426D01*
X2122978Y3273669D01*
X2130644Y3278096D01*
X2136904Y3284356D01*
X2141331Y3292022D01*
X2143622Y3300574D01*
Y3309426D01*
X2141331Y3317978D01*
X2136904Y3325644D01*
X2130644Y3331904D01*
X2122978Y3336331D01*
X2114426Y3338622D01*
X2105574D01*
X2097022Y3336331D01*
X2089356Y3331904D01*
X2084897Y3327445D01*
X2079897Y3329516D01*
Y3465243D01*
X2084897Y3466497D01*
X2092384Y3459010D01*
X2102640Y3453089D01*
X2114079Y3450024D01*
X2115000D01*
Y3495000D01*
Y3539976D01*
X2114079D01*
X2102640Y3536911D01*
X2092384Y3530990D01*
X2084010Y3522616D01*
X2080827Y3517102D01*
X2075413Y3517725D01*
X2075307Y3518072D01*
X2069736Y3528495D01*
X2062238Y3537632D01*
X2053102Y3545130D01*
X2042678Y3550701D01*
X2031368Y3554132D01*
X2019606Y3555290D01*
D02*
G37*
G36*
X2125921Y3539976D02*
X2125000D01*
Y3500000D01*
X2164976D01*
Y3500921D01*
X2161911Y3512360D01*
X2155990Y3522616D01*
X2147616Y3530990D01*
X2137360Y3536911D01*
X2125921Y3539976D01*
D02*
G37*
G36*
X2164976Y3490000D02*
X2125000D01*
Y3450024D01*
X2125921D01*
X2137360Y3453089D01*
X2147616Y3459010D01*
X2155990Y3467384D01*
X2161911Y3477640D01*
X2164976Y3489079D01*
Y3490000D01*
D02*
G37*
G36*
X678234Y3367276D02*
Y3339451D01*
X706058D01*
X703985Y3347189D01*
X699640Y3354714D01*
X693496Y3360858D01*
X685971Y3365202D01*
X678234Y3367276D01*
D02*
G37*
G36*
X668234D02*
X660496Y3365202D01*
X652971Y3360858D01*
X646827Y3354714D01*
X642483Y3347189D01*
X640409Y3339451D01*
X668234D01*
Y3367276D01*
D02*
G37*
G36*
X706058Y3329451D02*
X678234D01*
Y3301627D01*
X685971Y3303700D01*
X693496Y3308045D01*
X699640Y3314189D01*
X703985Y3321714D01*
X706058Y3329451D01*
D02*
G37*
G36*
X668234D02*
X640409D01*
X642483Y3321714D01*
X646827Y3314189D01*
X652971Y3308045D01*
X660496Y3303700D01*
X668234Y3301627D01*
Y3329451D01*
D02*
G37*
G36*
X1440276Y3301965D02*
Y3270000D01*
X1472241D01*
X1469754Y3279282D01*
X1464883Y3287719D01*
X1457994Y3294607D01*
X1449557Y3299479D01*
X1440276Y3301965D01*
D02*
G37*
G36*
X1430276D02*
X1420994Y3299479D01*
X1412557Y3294607D01*
X1405668Y3287719D01*
X1400797Y3279282D01*
X1398310Y3270000D01*
X1430276D01*
Y3301965D01*
D02*
G37*
G36*
X1472241Y3260000D02*
X1440276D01*
Y3228035D01*
X1449557Y3230521D01*
X1457994Y3235393D01*
X1464883Y3242281D01*
X1469754Y3250718D01*
X1472241Y3260000D01*
D02*
G37*
G36*
X1430276D02*
X1398310D01*
X1400797Y3250718D01*
X1405668Y3242281D01*
X1412557Y3235393D01*
X1420994Y3230521D01*
X1430276Y3228035D01*
Y3260000D01*
D02*
G37*
G36*
X1145398Y3306000D02*
X1134602D01*
X1124175Y3303206D01*
X1114825Y3297808D01*
X1107192Y3290175D01*
X1101794Y3280825D01*
X1099000Y3270398D01*
Y3259602D01*
X1101794Y3249175D01*
X1107192Y3239825D01*
X1114825Y3232192D01*
X1124175Y3226794D01*
X1134602Y3224000D01*
X1145398D01*
X1155825Y3226794D01*
X1165175Y3232192D01*
X1172808Y3239825D01*
X1178206Y3249175D01*
X1181000Y3259602D01*
Y3270398D01*
X1178206Y3280825D01*
X1172808Y3290175D01*
X1165175Y3297808D01*
X1155825Y3303206D01*
X1145398Y3306000D01*
D02*
G37*
G36*
X678105Y3221451D02*
X668363D01*
X658952Y3218930D01*
X650515Y3214059D01*
X643626Y3207170D01*
X638755Y3198733D01*
X636234Y3189322D01*
Y3179580D01*
X638755Y3170170D01*
X643626Y3161733D01*
X650515Y3154844D01*
X658952Y3149973D01*
X668363Y3147451D01*
X678105D01*
X687515Y3149973D01*
X695952Y3154844D01*
X702841Y3161733D01*
X707712Y3170170D01*
X710234Y3179580D01*
Y3189322D01*
X707712Y3198733D01*
X702841Y3207170D01*
X695952Y3214059D01*
X687515Y3218930D01*
X678105Y3221451D01*
D02*
G37*
G36*
Y3071451D02*
X668363D01*
X658952Y3068930D01*
X650515Y3064059D01*
X643626Y3057170D01*
X638755Y3048733D01*
X636234Y3039322D01*
Y3029580D01*
X638755Y3020170D01*
X643626Y3011733D01*
X650515Y3004844D01*
X658952Y2999973D01*
X668363Y2997451D01*
X678105D01*
X687515Y2999973D01*
X695952Y3004844D01*
X702841Y3011733D01*
X707712Y3020170D01*
X710234Y3029580D01*
Y3039322D01*
X707712Y3048733D01*
X702841Y3057170D01*
X695952Y3064059D01*
X687515Y3068930D01*
X678105Y3071451D01*
D02*
G37*
G36*
X5189426Y2973622D02*
X5180574D01*
X5172022Y2971331D01*
X5164356Y2966904D01*
X5158096Y2960644D01*
X5153669Y2952978D01*
X5151378Y2944426D01*
Y2935574D01*
X5153669Y2927022D01*
X5158096Y2919356D01*
X5164356Y2913096D01*
X5172022Y2908669D01*
X5180574Y2906378D01*
X5189426D01*
X5197978Y2908669D01*
X5205644Y2913096D01*
X5211904Y2919356D01*
X5216331Y2927022D01*
X5218622Y2935574D01*
Y2944426D01*
X5216331Y2952978D01*
X5211904Y2960644D01*
X5205644Y2966904D01*
X5197978Y2971331D01*
X5189426Y2973622D01*
D02*
G37*
G36*
X4813622D02*
X4746378D01*
Y2906378D01*
X4813622D01*
Y2973622D01*
D02*
G37*
G36*
X678105Y2921451D02*
X668363D01*
X658952Y2918930D01*
X650515Y2914059D01*
X643626Y2907170D01*
X638755Y2898733D01*
X636234Y2889322D01*
Y2879580D01*
X638755Y2870170D01*
X643626Y2861733D01*
X650515Y2854844D01*
X658952Y2849973D01*
X668363Y2847451D01*
X678105D01*
X687515Y2849973D01*
X695952Y2854844D01*
X702841Y2861733D01*
X707712Y2870170D01*
X710234Y2879580D01*
Y2889322D01*
X707712Y2898733D01*
X702841Y2907170D01*
X695952Y2914059D01*
X687515Y2918930D01*
X678105Y2921451D01*
D02*
G37*
G36*
X5190000Y2772477D02*
Y2748150D01*
X5214327D01*
X5212603Y2754583D01*
X5208703Y2761338D01*
X5203188Y2766853D01*
X5196434Y2770753D01*
X5190000Y2772477D01*
D02*
G37*
G36*
X4785000D02*
Y2748150D01*
X4809327D01*
X4807603Y2754583D01*
X4803703Y2761338D01*
X4798188Y2766853D01*
X4791434Y2770753D01*
X4785000Y2772477D01*
D02*
G37*
G36*
X4775000D02*
X4768566Y2770753D01*
X4761812Y2766853D01*
X4756297Y2761338D01*
X4752397Y2754583D01*
X4750673Y2748150D01*
X4775000D01*
Y2772477D01*
D02*
G37*
G36*
X5180000D02*
X5173566Y2770753D01*
X5166812Y2766853D01*
X5161297Y2761338D01*
X5157397Y2754583D01*
X5155673Y2748150D01*
X5180000D01*
Y2772477D01*
D02*
G37*
G36*
X5214327Y2738150D02*
X5190000D01*
Y2713822D01*
X5196434Y2715546D01*
X5203188Y2719446D01*
X5208703Y2724961D01*
X5212603Y2731716D01*
X5214327Y2738150D01*
D02*
G37*
G36*
X4809327D02*
X4785000D01*
Y2713822D01*
X4791434Y2715546D01*
X4798188Y2719446D01*
X4803703Y2724961D01*
X4807603Y2731716D01*
X4809327Y2738150D01*
D02*
G37*
G36*
X4775000D02*
X4750673D01*
X4752397Y2731716D01*
X4756297Y2724961D01*
X4761812Y2719446D01*
X4768566Y2715546D01*
X4775000Y2713822D01*
Y2738150D01*
D02*
G37*
G36*
X5180000D02*
X5155673D01*
X5157397Y2731716D01*
X5161297Y2724961D01*
X5166812Y2719446D01*
X5173566Y2715546D01*
X5180000Y2713822D01*
Y2738150D01*
D02*
G37*
G36*
X1431703Y2522420D02*
Y2490454D01*
X1463669D01*
X1461182Y2499736D01*
X1456311Y2508173D01*
X1449422Y2515062D01*
X1440985Y2519933D01*
X1431703Y2522420D01*
D02*
G37*
G36*
X1421703D02*
X1412422Y2519933D01*
X1403985Y2515062D01*
X1397096Y2508173D01*
X1392225Y2499736D01*
X1389738Y2490454D01*
X1421703D01*
Y2522420D01*
D02*
G37*
G36*
X240000Y2590388D02*
X228253Y2588842D01*
X217306Y2584307D01*
X207906Y2577094D01*
X200693Y2567694D01*
X196158Y2556747D01*
X194612Y2545000D01*
Y2525000D01*
X196158Y2513253D01*
X200693Y2502306D01*
X207906Y2492906D01*
X217306Y2485693D01*
X228253Y2481158D01*
X240000Y2479612D01*
X251747Y2481158D01*
X262694Y2485693D01*
X272094Y2492906D01*
X279307Y2502306D01*
X283842Y2513253D01*
X285388Y2525000D01*
Y2545000D01*
X283842Y2556747D01*
X279307Y2567694D01*
X272094Y2577094D01*
X262694Y2584307D01*
X251747Y2588842D01*
X240000Y2590388D01*
D02*
G37*
G36*
X1463669Y2480454D02*
X1431703D01*
Y2448489D01*
X1440985Y2450976D01*
X1449422Y2455847D01*
X1456311Y2462736D01*
X1461182Y2471173D01*
X1463669Y2480454D01*
D02*
G37*
G36*
X1421703D02*
X1389738D01*
X1392225Y2471173D01*
X1397096Y2462736D01*
X1403985Y2455847D01*
X1412422Y2450976D01*
X1421703Y2448489D01*
Y2480454D01*
D02*
G37*
G36*
X1136825Y2526454D02*
X1126030D01*
X1115602Y2523660D01*
X1106253Y2518263D01*
X1098619Y2510629D01*
X1093222Y2501280D01*
X1090428Y2490852D01*
Y2480057D01*
X1093222Y2469629D01*
X1098619Y2460280D01*
X1106253Y2452646D01*
X1115602Y2447249D01*
X1126030Y2444454D01*
X1136825D01*
X1147253Y2447249D01*
X1156602Y2452646D01*
X1164236Y2460280D01*
X1169633Y2469629D01*
X1172428Y2480057D01*
Y2490852D01*
X1169633Y2501280D01*
X1164236Y2510629D01*
X1156602Y2518263D01*
X1147253Y2523660D01*
X1136825Y2526454D01*
D02*
G37*
G36*
X240000Y2375388D02*
X228253Y2373842D01*
X217306Y2369307D01*
X207906Y2362094D01*
X200693Y2352694D01*
X196158Y2341747D01*
X194612Y2330000D01*
Y2310000D01*
X196158Y2298253D01*
X200693Y2287306D01*
X207906Y2277906D01*
X217306Y2270693D01*
X228253Y2266158D01*
X240000Y2264612D01*
X251747Y2266158D01*
X262694Y2270693D01*
X272094Y2277906D01*
X279307Y2287306D01*
X283842Y2298253D01*
X285388Y2310000D01*
Y2330000D01*
X283842Y2341747D01*
X279307Y2352694D01*
X272094Y2362094D01*
X262694Y2369307D01*
X251747Y2373842D01*
X240000Y2375388D01*
D02*
G37*
G36*
X4818622Y2303622D02*
X4751378D01*
Y2236378D01*
X4818622D01*
Y2303622D01*
D02*
G37*
G36*
X5194426Y2298622D02*
X5185574D01*
X5177022Y2296331D01*
X5169356Y2291904D01*
X5163096Y2285644D01*
X5158669Y2277978D01*
X5156378Y2269426D01*
Y2260574D01*
X5158669Y2252022D01*
X5163096Y2244356D01*
X5169356Y2238096D01*
X5177022Y2233669D01*
X5185574Y2231378D01*
X5194426D01*
X5202978Y2233669D01*
X5210644Y2238096D01*
X5216904Y2244356D01*
X5221331Y2252022D01*
X5223622Y2260574D01*
Y2269426D01*
X5221331Y2277978D01*
X5216904Y2285644D01*
X5210644Y2291904D01*
X5202978Y2296331D01*
X5194426Y2298622D01*
D02*
G37*
G36*
X4790000Y2102477D02*
Y2078150D01*
X4814327D01*
X4812603Y2084583D01*
X4808703Y2091338D01*
X4803188Y2096853D01*
X4796434Y2100753D01*
X4790000Y2102477D01*
D02*
G37*
G36*
X4780000D02*
X4773566Y2100753D01*
X4766812Y2096853D01*
X4761297Y2091338D01*
X4757397Y2084583D01*
X4755673Y2078150D01*
X4780000D01*
Y2102477D01*
D02*
G37*
G36*
X5195000Y2097477D02*
Y2073150D01*
X5219327D01*
X5217603Y2079583D01*
X5213703Y2086338D01*
X5208188Y2091853D01*
X5201434Y2095753D01*
X5195000Y2097477D01*
D02*
G37*
G36*
X5185000D02*
X5178566Y2095753D01*
X5171812Y2091853D01*
X5166297Y2086338D01*
X5162397Y2079583D01*
X5160673Y2073150D01*
X5185000D01*
Y2097477D01*
D02*
G37*
G36*
X4814327Y2068150D02*
X4790000D01*
Y2043822D01*
X4796434Y2045546D01*
X4803188Y2049446D01*
X4808703Y2054961D01*
X4812603Y2061716D01*
X4814327Y2068150D01*
D02*
G37*
G36*
X4780000D02*
X4755673D01*
X4757397Y2061716D01*
X4761297Y2054961D01*
X4766812Y2049446D01*
X4773566Y2045546D01*
X4780000Y2043822D01*
Y2068150D01*
D02*
G37*
G36*
X5219327Y2063150D02*
X5195000D01*
Y2038822D01*
X5201434Y2040546D01*
X5208188Y2044446D01*
X5213703Y2049961D01*
X5217603Y2056716D01*
X5219327Y2063150D01*
D02*
G37*
G36*
X5185000D02*
X5160673D01*
X5162397Y2056716D01*
X5166297Y2049961D01*
X5171812Y2044446D01*
X5178566Y2040546D01*
X5185000Y2038822D01*
Y2063150D01*
D02*
G37*
G36*
X1780000Y2030402D02*
Y1999961D01*
X1810441D01*
X1808106Y2008674D01*
X1803429Y2016775D01*
X1796814Y2023390D01*
X1788713Y2028067D01*
X1780000Y2030402D01*
D02*
G37*
G36*
X1770000D02*
X1761287Y2028067D01*
X1753186Y2023390D01*
X1746571Y2016775D01*
X1741894Y2008674D01*
X1739559Y1999961D01*
X1770000D01*
Y2030402D01*
D02*
G37*
G36*
X1810441Y1989961D02*
X1780000D01*
Y1959520D01*
X1788713Y1961854D01*
X1796814Y1966532D01*
X1803429Y1973146D01*
X1808106Y1981247D01*
X1810441Y1989961D01*
D02*
G37*
G36*
X1770000D02*
X1739559D01*
X1741894Y1981247D01*
X1746571Y1973146D01*
X1753186Y1966532D01*
X1761287Y1961854D01*
X1770000Y1959520D01*
Y1989961D01*
D02*
G37*
G36*
X2119528Y2034527D02*
X2040473D01*
Y1955473D01*
X2119528D01*
Y2034527D01*
D02*
G37*
G36*
X5585000Y2020388D02*
X5573253Y2018842D01*
X5562306Y2014307D01*
X5552906Y2007094D01*
X5545693Y1997694D01*
X5541158Y1986747D01*
X5539612Y1975000D01*
Y1955000D01*
X5541158Y1943253D01*
X5545693Y1932306D01*
X5552906Y1922906D01*
X5562306Y1915693D01*
X5573253Y1911158D01*
X5585000Y1909612D01*
X5596747Y1911158D01*
X5607694Y1915693D01*
X5617094Y1922906D01*
X5624307Y1932306D01*
X5628842Y1943253D01*
X5630388Y1955000D01*
Y1975000D01*
X5628842Y1986747D01*
X5624307Y1997694D01*
X5617094Y2007094D01*
X5607694Y2014307D01*
X5596747Y2018842D01*
X5585000Y2020388D01*
D02*
G37*
G36*
X1120000Y1886969D02*
Y1855000D01*
X1151969D01*
X1149482Y1864283D01*
X1144611Y1872721D01*
X1137721Y1879611D01*
X1129283Y1884482D01*
X1120000Y1886969D01*
D02*
G37*
G36*
X1110000D02*
X1100717Y1884482D01*
X1092279Y1879611D01*
X1085389Y1872721D01*
X1080518Y1864283D01*
X1078031Y1855000D01*
X1110000D01*
Y1886969D01*
D02*
G37*
G36*
X1151969Y1845000D02*
X1120000D01*
Y1813031D01*
X1129283Y1815518D01*
X1137721Y1820389D01*
X1144611Y1827279D01*
X1149482Y1835717D01*
X1151969Y1845000D01*
D02*
G37*
G36*
X1110000D02*
X1078031D01*
X1080518Y1835717D01*
X1085389Y1827279D01*
X1092279Y1820389D01*
X1100717Y1815518D01*
X1110000Y1813031D01*
Y1845000D01*
D02*
G37*
G36*
X234571Y1891004D02*
X223775D01*
X213346Y1888209D01*
X203996Y1882811D01*
X196362Y1875177D01*
X190964Y1865827D01*
X188169Y1855398D01*
Y1844602D01*
X190964Y1834173D01*
X196362Y1824823D01*
X203996Y1817189D01*
X213346Y1811791D01*
X223775Y1808996D01*
X234571D01*
X245000Y1811791D01*
X254350Y1817189D01*
X261985Y1824823D01*
X267383Y1834173D01*
X270177Y1844602D01*
Y1855398D01*
X267383Y1865827D01*
X261985Y1875177D01*
X254350Y1882811D01*
X245000Y1888209D01*
X234571Y1891004D01*
D02*
G37*
G36*
X5590000Y1800696D02*
Y1755000D01*
X5626354D01*
Y1760000D01*
X5624945Y1770703D01*
X5620813Y1780677D01*
X5614242Y1789242D01*
X5605677Y1795813D01*
X5595703Y1799945D01*
X5590000Y1800696D01*
D02*
G37*
G36*
X5580000D02*
X5574297Y1799945D01*
X5564323Y1795813D01*
X5555758Y1789242D01*
X5549187Y1780677D01*
X5545055Y1770703D01*
X5543646Y1760000D01*
Y1755000D01*
X5580000D01*
Y1800696D01*
D02*
G37*
G36*
X5626354Y1745000D02*
X5590000D01*
Y1699304D01*
X5595703Y1700055D01*
X5605677Y1704187D01*
X5614242Y1710758D01*
X5620813Y1719323D01*
X5624945Y1729297D01*
X5626354Y1740000D01*
Y1745000D01*
D02*
G37*
G36*
X5580000D02*
X5543646D01*
Y1740000D01*
X5545055Y1729297D01*
X5549187Y1719323D01*
X5555758Y1710758D01*
X5564323Y1704187D01*
X5574297Y1700055D01*
X5580000Y1699304D01*
Y1745000D01*
D02*
G37*
G36*
X3605000Y1626178D02*
Y1601850D01*
X3629327D01*
X3627603Y1608284D01*
X3623704Y1615039D01*
X3618188Y1620554D01*
X3611434Y1624454D01*
X3605000Y1626178D01*
D02*
G37*
G36*
X3595000D02*
X3588566Y1624454D01*
X3581812Y1620554D01*
X3576296Y1615039D01*
X3572397Y1608284D01*
X3570673Y1601850D01*
X3595000D01*
Y1626178D01*
D02*
G37*
G36*
X4823622Y1653622D02*
X4756378D01*
Y1586378D01*
X4823622D01*
Y1653622D01*
D02*
G37*
G36*
X5194426Y1638622D02*
X5185574D01*
X5177022Y1636331D01*
X5169356Y1631904D01*
X5163096Y1625644D01*
X5158669Y1617978D01*
X5156378Y1609426D01*
Y1600574D01*
X5158669Y1592022D01*
X5163096Y1584356D01*
X5169356Y1578096D01*
X5177022Y1573669D01*
X5185574Y1571378D01*
X5194426D01*
X5202978Y1573669D01*
X5210644Y1578096D01*
X5216904Y1584356D01*
X5221331Y1592022D01*
X5223622Y1600574D01*
Y1609426D01*
X5221331Y1617978D01*
X5216904Y1625644D01*
X5210644Y1631904D01*
X5202978Y1636331D01*
X5194426Y1638622D01*
D02*
G37*
G36*
X3629327Y1591850D02*
X3605000D01*
Y1567523D01*
X3611434Y1569247D01*
X3618188Y1573147D01*
X3623704Y1578662D01*
X3627603Y1585417D01*
X3629327Y1591850D01*
D02*
G37*
G36*
X3595000D02*
X3570673D01*
X3572397Y1585417D01*
X3576296Y1578662D01*
X3581812Y1573147D01*
X3588566Y1569247D01*
X3595000Y1567523D01*
Y1591850D01*
D02*
G37*
G36*
X2700000Y3785388D02*
X2680000D01*
X2668253Y3783842D01*
X2657306Y3779307D01*
X2647906Y3772094D01*
X2640693Y3762694D01*
X2636158Y3751747D01*
X2634612Y3740000D01*
X2636158Y3728253D01*
X2640693Y3717306D01*
X2647906Y3707906D01*
X2657306Y3700693D01*
X2668253Y3696158D01*
X2680000Y3694612D01*
X2700000D01*
X2708254Y3695698D01*
X3271976Y3131976D01*
X3280245Y3126450D01*
X3290000Y3124510D01*
X3924442D01*
X4294510Y2754442D01*
Y1559008D01*
X4291993Y1556491D01*
X4287385Y1548509D01*
X4285000Y1539608D01*
Y1530392D01*
X4287385Y1521491D01*
X4291993Y1513509D01*
X4298510Y1506993D01*
X4306490Y1502385D01*
X4315392Y1500000D01*
X4324608D01*
X4333510Y1502385D01*
X4341490Y1506993D01*
X4348007Y1513509D01*
X4352615Y1521491D01*
X4355000Y1530392D01*
Y1539608D01*
X4352615Y1548509D01*
X4348007Y1556491D01*
X4345490Y1559008D01*
Y2765000D01*
X4343550Y2774755D01*
X4338024Y2783024D01*
X3953024Y3168024D01*
X3944755Y3173550D01*
X3935000Y3175490D01*
X3300558D01*
X2744302Y3731746D01*
X2745388Y3740000D01*
X2743842Y3751747D01*
X2739307Y3762694D01*
X2732094Y3772094D01*
X2722694Y3779307D01*
X2711747Y3783842D01*
X2700000Y3785388D01*
D02*
G37*
G36*
X4795000Y1452477D02*
Y1428150D01*
X4819327D01*
X4817603Y1434583D01*
X4813703Y1441338D01*
X4808188Y1446853D01*
X4801434Y1450753D01*
X4795000Y1452477D01*
D02*
G37*
G36*
X4785000D02*
X4778566Y1450753D01*
X4771812Y1446853D01*
X4766297Y1441338D01*
X4762397Y1434583D01*
X4760673Y1428150D01*
X4785000D01*
Y1452477D01*
D02*
G37*
G36*
X5195000Y1437477D02*
Y1413150D01*
X5219327D01*
X5217603Y1419583D01*
X5213703Y1426338D01*
X5208188Y1431853D01*
X5201434Y1435753D01*
X5195000Y1437477D01*
D02*
G37*
G36*
X5185000D02*
X5178566Y1435753D01*
X5171812Y1431853D01*
X5166297Y1426338D01*
X5162397Y1419583D01*
X5160673Y1413150D01*
X5185000D01*
Y1437477D01*
D02*
G37*
G36*
X1125000Y1436969D02*
Y1405000D01*
X1156969D01*
X1154482Y1414283D01*
X1149611Y1422721D01*
X1142721Y1429611D01*
X1134283Y1434482D01*
X1125000Y1436969D01*
D02*
G37*
G36*
X1115000D02*
X1105717Y1434482D01*
X1097279Y1429611D01*
X1090389Y1422721D01*
X1085518Y1414283D01*
X1083031Y1405000D01*
X1115000D01*
Y1436969D01*
D02*
G37*
G36*
X4819327Y1418150D02*
X4795000D01*
Y1393822D01*
X4801434Y1395546D01*
X4808188Y1399446D01*
X4813703Y1404961D01*
X4817603Y1411716D01*
X4819327Y1418150D01*
D02*
G37*
G36*
X4785000D02*
X4760673D01*
X4762397Y1411716D01*
X4766297Y1404961D01*
X4771812Y1399446D01*
X4778566Y1395546D01*
X4785000Y1393822D01*
Y1418150D01*
D02*
G37*
G36*
X5219327Y1403150D02*
X5195000D01*
Y1378822D01*
X5201434Y1380546D01*
X5208188Y1384446D01*
X5213703Y1389961D01*
X5217603Y1396716D01*
X5219327Y1403150D01*
D02*
G37*
G36*
X5185000D02*
X5160673D01*
X5162397Y1396716D01*
X5166297Y1389961D01*
X5171812Y1384446D01*
X5178566Y1380546D01*
X5185000Y1378822D01*
Y1403150D01*
D02*
G37*
G36*
X3604426Y1433622D02*
X3595574D01*
X3587022Y1431331D01*
X3579356Y1426904D01*
X3573096Y1420644D01*
X3568669Y1412978D01*
X3566378Y1404426D01*
Y1395574D01*
X3568669Y1387022D01*
X3573096Y1379356D01*
X3579356Y1373096D01*
X3587022Y1368669D01*
X3595574Y1366378D01*
X3604426D01*
X3612978Y1368669D01*
X3620644Y1373096D01*
X3626904Y1379356D01*
X3631331Y1387022D01*
X3633622Y1395574D01*
Y1404426D01*
X3631331Y1412978D01*
X3626904Y1420644D01*
X3620644Y1426904D01*
X3612978Y1431331D01*
X3604426Y1433622D01*
D02*
G37*
G36*
X1156969Y1395000D02*
X1125000D01*
Y1363031D01*
X1134283Y1365518D01*
X1142721Y1370389D01*
X1149611Y1377279D01*
X1154482Y1385717D01*
X1156969Y1395000D01*
D02*
G37*
G36*
X1115000D02*
X1083031D01*
X1085518Y1385717D01*
X1090389Y1377279D01*
X1097279Y1370389D01*
X1105717Y1365518D01*
X1115000Y1363031D01*
Y1395000D01*
D02*
G37*
G36*
X239571Y1441004D02*
X228775D01*
X218346Y1438209D01*
X208996Y1432811D01*
X201362Y1425177D01*
X195964Y1415827D01*
X193169Y1405398D01*
Y1394602D01*
X195964Y1384173D01*
X201362Y1374823D01*
X208996Y1367189D01*
X218346Y1361791D01*
X228775Y1358996D01*
X239571D01*
X250000Y1361791D01*
X259350Y1367189D01*
X266985Y1374823D01*
X272383Y1384173D01*
X275177Y1394602D01*
Y1405398D01*
X272383Y1415827D01*
X266985Y1425177D01*
X259350Y1432811D01*
X250000Y1438209D01*
X239571Y1441004D01*
D02*
G37*
G36*
X3825000Y1199766D02*
X3820000D01*
Y1163413D01*
X3865695D01*
X3864945Y1169116D01*
X3860813Y1179090D01*
X3854242Y1187654D01*
X3845677Y1194226D01*
X3835703Y1198357D01*
X3825000Y1199766D01*
D02*
G37*
G36*
X3810000D02*
X3805000D01*
X3794297Y1198357D01*
X3784323Y1194226D01*
X3775758Y1187654D01*
X3769187Y1179090D01*
X3765055Y1169116D01*
X3764305Y1163413D01*
X3810000D01*
Y1199766D01*
D02*
G37*
G36*
X3865695Y1153413D02*
X3820000D01*
Y1117059D01*
X3825000D01*
X3835703Y1118468D01*
X3845677Y1122599D01*
X3854242Y1129171D01*
X3860813Y1137736D01*
X3864945Y1147709D01*
X3865695Y1153413D01*
D02*
G37*
G36*
X3810000D02*
X3764305D01*
X3765055Y1147709D01*
X3769187Y1137736D01*
X3775758Y1129171D01*
X3784323Y1122599D01*
X3794297Y1118468D01*
X3805000Y1117059D01*
X3810000D01*
Y1153413D01*
D02*
G37*
G36*
X3610000Y1203801D02*
X3590000D01*
X3578253Y1202254D01*
X3567306Y1197720D01*
X3557906Y1190507D01*
X3550693Y1181107D01*
X3546158Y1170160D01*
X3544612Y1158413D01*
X3546158Y1146665D01*
X3550693Y1135719D01*
X3557906Y1126318D01*
X3567306Y1119105D01*
X3578253Y1114571D01*
X3590000Y1113024D01*
X3610000D01*
X3621747Y1114571D01*
X3632694Y1119105D01*
X3642094Y1126318D01*
X3649307Y1135719D01*
X3653842Y1146665D01*
X3655388Y1158413D01*
X3653842Y1170160D01*
X3649307Y1181107D01*
X3642094Y1190507D01*
X3632694Y1197720D01*
X3621747Y1202254D01*
X3610000Y1203801D01*
D02*
G37*
G36*
X1125827Y991970D02*
Y960000D01*
X1157796D01*
X1155309Y969283D01*
X1150437Y977721D01*
X1143548Y984611D01*
X1135110Y989482D01*
X1125827Y991970D01*
D02*
G37*
G36*
X1115827D02*
X1106544Y989482D01*
X1098106Y984611D01*
X1091216Y977721D01*
X1086345Y969283D01*
X1083857Y960000D01*
X1115827D01*
Y991970D01*
D02*
G37*
G36*
X4823622Y1003622D02*
X4756378D01*
Y936378D01*
X4823622D01*
Y1003622D01*
D02*
G37*
G36*
X5199975Y988530D02*
X5191122D01*
X5182571Y986239D01*
X5174904Y981812D01*
X5168645Y975553D01*
X5164218Y967886D01*
X5161927Y959335D01*
Y950482D01*
X5164218Y941931D01*
X5168645Y934264D01*
X5174904Y928004D01*
X5182571Y923577D01*
X5191122Y921286D01*
X5199975D01*
X5208526Y923577D01*
X5216193Y928004D01*
X5222453Y934264D01*
X5226880Y941931D01*
X5229171Y950482D01*
Y959335D01*
X5226880Y967886D01*
X5222453Y975553D01*
X5216193Y981812D01*
X5208526Y986239D01*
X5199975Y988530D01*
D02*
G37*
G36*
X1157796Y950000D02*
X1125827D01*
Y918030D01*
X1135110Y920518D01*
X1143548Y925389D01*
X1150437Y932279D01*
X1155309Y940717D01*
X1157796Y950000D01*
D02*
G37*
G36*
X1115827D02*
X1083857D01*
X1086345Y940717D01*
X1091216Y932279D01*
X1098106Y925389D01*
X1106544Y920518D01*
X1115827Y918030D01*
Y950000D01*
D02*
G37*
G36*
X240398Y996004D02*
X229602D01*
X219173Y993210D01*
X209823Y987811D01*
X202189Y980177D01*
X196791Y970827D01*
X193996Y960398D01*
Y949602D01*
X196791Y939173D01*
X202189Y929823D01*
X209823Y922189D01*
X219173Y916790D01*
X229602Y913996D01*
X240398D01*
X250827Y916790D01*
X260177Y922189D01*
X267811Y929823D01*
X273209Y939173D01*
X276004Y949602D01*
Y960398D01*
X273209Y970827D01*
X267811Y980177D01*
X260177Y987811D01*
X250827Y993210D01*
X240398Y996004D01*
D02*
G37*
G36*
X5564751Y1008072D02*
X5553004Y1006525D01*
X5542057Y1001991D01*
X5532657Y994778D01*
X5525444Y985378D01*
X5520909Y974431D01*
X5519363Y962684D01*
Y942684D01*
X5520909Y930936D01*
X5525444Y919990D01*
X5532657Y910589D01*
X5542057Y903376D01*
X5553004Y898842D01*
X5564751Y897295D01*
X5576499Y898842D01*
X5587445Y903376D01*
X5596846Y910589D01*
X5604059Y919990D01*
X5608593Y930936D01*
X5610140Y942684D01*
Y962684D01*
X5608593Y974431D01*
X5604059Y985378D01*
X5596846Y994778D01*
X5587445Y1001991D01*
X5576499Y1006525D01*
X5564751Y1008072D01*
D02*
G37*
G36*
X4795000Y802477D02*
Y778150D01*
X4819327D01*
X4817603Y784583D01*
X4813703Y791338D01*
X4808188Y796853D01*
X4801434Y800753D01*
X4795000Y802477D01*
D02*
G37*
G36*
X4785000D02*
X4778566Y800753D01*
X4771812Y796853D01*
X4766297Y791338D01*
X4762397Y784583D01*
X4760673Y778150D01*
X4785000D01*
Y802477D01*
D02*
G37*
G36*
X5200549Y787385D02*
Y763058D01*
X5224876D01*
X5223152Y769491D01*
X5219252Y776246D01*
X5213737Y781761D01*
X5206983Y785661D01*
X5200549Y787385D01*
D02*
G37*
G36*
X5190549D02*
X5184115Y785661D01*
X5177360Y781761D01*
X5171845Y776246D01*
X5167945Y769491D01*
X5166222Y763058D01*
X5190549D01*
Y787385D01*
D02*
G37*
G36*
X4819327Y768150D02*
X4795000D01*
Y743822D01*
X4801434Y745546D01*
X4808188Y749446D01*
X4813703Y754961D01*
X4817603Y761716D01*
X4819327Y768150D01*
D02*
G37*
G36*
X4785000D02*
X4760673D01*
X4762397Y761716D01*
X4766297Y754961D01*
X4771812Y749446D01*
X4778566Y745546D01*
X4785000Y743822D01*
Y768150D01*
D02*
G37*
G36*
X5569751Y788379D02*
Y742684D01*
X5606105D01*
Y747684D01*
X5604696Y758387D01*
X5600565Y768361D01*
X5593993Y776925D01*
X5585428Y783497D01*
X5575454Y787628D01*
X5569751Y788379D01*
D02*
G37*
G36*
X5559751D02*
X5554048Y787628D01*
X5544074Y783497D01*
X5535510Y776925D01*
X5528938Y768361D01*
X5524806Y758387D01*
X5523397Y747684D01*
Y742684D01*
X5559751D01*
Y788379D01*
D02*
G37*
G36*
X5224876Y753058D02*
X5200549D01*
Y728731D01*
X5206983Y730454D01*
X5213737Y734354D01*
X5219252Y739869D01*
X5223152Y746624D01*
X5224876Y753058D01*
D02*
G37*
G36*
X5190549D02*
X5166222D01*
X5167945Y746624D01*
X5171845Y739869D01*
X5177360Y734354D01*
X5184115Y730454D01*
X5190549Y728731D01*
Y753058D01*
D02*
G37*
G36*
X5606105Y732684D02*
X5569751D01*
Y686988D01*
X5575454Y687739D01*
X5585428Y691870D01*
X5593993Y698442D01*
X5600565Y707007D01*
X5604696Y716981D01*
X5606105Y727684D01*
Y732684D01*
D02*
G37*
G36*
X5559751D02*
X5523397D01*
Y727684D01*
X5524806Y716981D01*
X5528938Y707007D01*
X5535510Y698442D01*
X5544074Y691870D01*
X5554048Y687739D01*
X5559751Y686988D01*
Y732684D01*
D02*
G37*
G36*
X1130000Y571970D02*
Y540000D01*
X1161969D01*
X1159482Y549283D01*
X1154611Y557721D01*
X1147721Y564611D01*
X1139283Y569482D01*
X1130000Y571970D01*
D02*
G37*
G36*
X1120000D02*
X1110717Y569482D01*
X1102279Y564611D01*
X1095389Y557721D01*
X1090518Y549283D01*
X1088031Y540000D01*
X1120000D01*
Y571970D01*
D02*
G37*
G36*
X1161969Y530000D02*
X1130000D01*
Y498031D01*
X1139283Y500518D01*
X1147721Y505389D01*
X1154611Y512279D01*
X1159482Y520717D01*
X1161969Y530000D01*
D02*
G37*
G36*
X1120000D02*
X1088031D01*
X1090518Y520717D01*
X1095389Y512279D01*
X1102279Y505389D01*
X1110717Y500518D01*
X1120000Y498031D01*
Y530000D01*
D02*
G37*
G36*
X244571Y576004D02*
X233775D01*
X223346Y573210D01*
X213996Y567811D01*
X206362Y560177D01*
X200964Y550827D01*
X198169Y540398D01*
Y529602D01*
X200964Y519173D01*
X206362Y509823D01*
X213996Y502189D01*
X223346Y496791D01*
X233775Y493996D01*
X244571D01*
X255000Y496791D01*
X264350Y502189D01*
X271985Y509823D01*
X277383Y519173D01*
X280177Y529602D01*
Y540398D01*
X277383Y550827D01*
X271985Y560177D01*
X264350Y567811D01*
X255000Y573210D01*
X244571Y576004D01*
D02*
G37*
G36*
X5509129Y336000D02*
X5505000D01*
Y225000D01*
X5616000D01*
Y229129D01*
X5613144Y247163D01*
X5607501Y264529D01*
X5599212Y280797D01*
X5588480Y295569D01*
X5575569Y308480D01*
X5560797Y319212D01*
X5544529Y327501D01*
X5527163Y333144D01*
X5509129Y336000D01*
D02*
G37*
G36*
X5495000D02*
X5490871D01*
X5472837Y333144D01*
X5455471Y327501D01*
X5439203Y319212D01*
X5424431Y308480D01*
X5411520Y295569D01*
X5400788Y280797D01*
X5392499Y264529D01*
X5386856Y247163D01*
X5384000Y229129D01*
Y225000D01*
X5495000D01*
Y336000D01*
D02*
G37*
G36*
X209129D02*
X205000D01*
Y225000D01*
X316000D01*
Y229129D01*
X313144Y247163D01*
X307501Y264529D01*
X299212Y280797D01*
X288480Y295569D01*
X275569Y308480D01*
X260797Y319212D01*
X244529Y327501D01*
X227163Y333144D01*
X209129Y336000D01*
D02*
G37*
G36*
X195000D02*
X190871D01*
X172837Y333144D01*
X155471Y327501D01*
X139203Y319212D01*
X124431Y308480D01*
X111520Y295569D01*
X100788Y280797D01*
X92499Y264529D01*
X86856Y247163D01*
X84000Y229129D01*
Y225000D01*
X195000D01*
Y336000D01*
D02*
G37*
G36*
X2085000Y215480D02*
Y185039D01*
X2115441D01*
X2113106Y193752D01*
X2108429Y201854D01*
X2101814Y208469D01*
X2093713Y213146D01*
X2085000Y215480D01*
D02*
G37*
G36*
X2075000D02*
X2066287Y213146D01*
X2058186Y208469D01*
X2051571Y201854D01*
X2046894Y193752D01*
X2044559Y185039D01*
X2075000D01*
Y215480D01*
D02*
G37*
G36*
X2115441Y175039D02*
X2085000D01*
Y144598D01*
X2093713Y146933D01*
X2101814Y151610D01*
X2108429Y158225D01*
X2113106Y166326D01*
X2115441Y175039D01*
D02*
G37*
G36*
X2075000D02*
X2044559D01*
X2046894Y166326D01*
X2051571Y158225D01*
X2058186Y151610D01*
X2066287Y146933D01*
X2075000Y144598D01*
Y175039D01*
D02*
G37*
G36*
X1814527Y219528D02*
X1735473D01*
Y140472D01*
X1814527D01*
Y219528D01*
D02*
G37*
G36*
X5616000Y215000D02*
X5505000D01*
Y104000D01*
X5509129D01*
X5527163Y106856D01*
X5544529Y112499D01*
X5560797Y120788D01*
X5575569Y131520D01*
X5588480Y144431D01*
X5599212Y159203D01*
X5607501Y175471D01*
X5613144Y192837D01*
X5616000Y210871D01*
Y215000D01*
D02*
G37*
G36*
X5495000D02*
X5384000D01*
Y210871D01*
X5386856Y192837D01*
X5392499Y175471D01*
X5400788Y159203D01*
X5411520Y144431D01*
X5424431Y131520D01*
X5439203Y120788D01*
X5455471Y112499D01*
X5472837Y106856D01*
X5490871Y104000D01*
X5495000D01*
Y215000D01*
D02*
G37*
G36*
X316000D02*
X205000D01*
Y104000D01*
X209129D01*
X227163Y106856D01*
X244529Y112499D01*
X260797Y120788D01*
X275569Y131520D01*
X288480Y144431D01*
X299212Y159203D01*
X307501Y175471D01*
X313144Y192837D01*
X316000Y210871D01*
Y215000D01*
D02*
G37*
G36*
X195000D02*
X84000D01*
Y210871D01*
X86856Y192837D01*
X92499Y175471D01*
X100788Y159203D01*
X111520Y144431D01*
X124431Y131520D01*
X139203Y120788D01*
X155471Y112499D01*
X172837Y106856D01*
X190871Y104000D01*
X195000D01*
Y215000D01*
D02*
G37*
%LPD*%
D25*
X2019606Y2550394D02*
Y3495000D01*
Y2550394D02*
X2030000Y2540000D01*
D26*
X3935000Y3150000D02*
X4320000Y2765000D01*
Y1535000D02*
Y2765000D01*
X3290000Y3150000D02*
X3935000D01*
X2700000Y3740000D02*
X3290000Y3150000D01*
X2690000Y3740000D02*
X2700000D01*
D32*
X1115000Y1850000D02*
D03*
X229173D02*
D03*
X234173Y1400000D02*
D03*
X1120000D02*
D03*
X235000Y955000D02*
D03*
X1120827D02*
D03*
X239173Y535000D02*
D03*
X1125000D02*
D03*
D33*
X1131428Y2485454D02*
D03*
X1426703D02*
D03*
X1140000Y3265000D02*
D03*
X1435276D02*
D03*
D34*
X5500000Y220000D02*
D03*
Y3800000D02*
D03*
X220000D02*
D03*
X200000Y220000D02*
D03*
D35*
X5564751Y737684D02*
D03*
Y952684D02*
D03*
X5585000Y1965000D02*
D03*
Y1750000D02*
D03*
X240000Y2320000D02*
D03*
Y2535000D02*
D03*
D36*
X3600000Y1596850D02*
D03*
Y1400000D02*
D03*
X5195549Y758058D02*
D03*
Y954908D02*
D03*
X5190000Y1408150D02*
D03*
Y1605000D02*
D03*
Y2068150D02*
D03*
Y2265000D02*
D03*
X5185000Y2743150D02*
D03*
Y2940000D02*
D03*
X2110000Y2655394D02*
D03*
Y3305000D02*
D03*
X4790000Y773150D02*
D03*
Y1423150D02*
D03*
X4785000Y2073150D02*
D03*
X4780000Y2743150D02*
D03*
D37*
X3815000Y1158413D02*
D03*
X3600000D02*
D03*
X1897395Y3744140D02*
D03*
X1682395D02*
D03*
X2690000Y3740000D02*
D03*
X2475000D02*
D03*
D38*
X673234Y3334451D02*
D03*
Y3184451D02*
D03*
Y3034451D02*
D03*
Y2884451D02*
D03*
D39*
X2120000Y3495000D02*
D03*
X2019606D02*
D03*
D40*
X1919213D02*
D03*
D41*
X2080000Y180039D02*
D03*
X1775000Y1994961D02*
D03*
D42*
X2080000Y1995000D02*
D03*
X1775000Y180000D02*
D03*
D43*
X4790000Y970000D02*
D03*
Y1620000D02*
D03*
X4785000Y2270000D02*
D03*
X4780000Y2940000D02*
D03*
D44*
X4320000Y1535000D02*
D03*
X2030000Y2540000D02*
D03*
%TF.MD5,920da4a8538c286f4cebb536a559f0c3*%
M02*
