%TF.GenerationSoftware,Altium Limited,Altium Designer,23.3.1 (30)*%
G04 Layer_Color=16711935*
%FSLAX45Y45*%
%MOMM*%
%TF.SameCoordinates,B78A920C-B21B-4EC0-8B15-6B7EDFA50413*%
%TF.FilePolarity,Positive*%
%TF.FileFunction,Other,Top_Assembly*%
%TF.Part,Single*%
G01*
G75*
%TA.AperFunction,NonConductor*%
%ADD45C,0.20000*%
G36*
X9708588Y4577749D02*
X9709628D01*
X9710876Y4577680D01*
X9712194Y4577610D01*
X9713650Y4577472D01*
X9715175Y4577333D01*
X9716770Y4577194D01*
X9720029Y4576709D01*
X9723219Y4576015D01*
X9724675Y4575599D01*
X9726131Y4575114D01*
X9726201D01*
X9726478Y4574975D01*
X9726825Y4574837D01*
X9727310Y4574629D01*
X9727934Y4574351D01*
X9728628Y4574005D01*
X9729390Y4573589D01*
X9730223Y4573172D01*
X9731956Y4572063D01*
X9733828Y4570676D01*
X9735562Y4569081D01*
X9736394Y4568180D01*
X9737157Y4567209D01*
X9737226Y4567140D01*
X9737295Y4567001D01*
X9737504Y4566654D01*
X9737712Y4566308D01*
X9737989Y4565753D01*
X9738336Y4565198D01*
X9738682Y4564505D01*
X9739029Y4563673D01*
X9739376Y4562841D01*
X9739722Y4561870D01*
X9740000Y4560899D01*
X9740347Y4559789D01*
X9740763Y4557432D01*
X9740832Y4556184D01*
X9740901Y4554866D01*
Y4554173D01*
X9740832Y4553618D01*
X9740763Y4552994D01*
X9740693Y4552231D01*
X9740555Y4551399D01*
X9740347Y4550498D01*
X9739861Y4548556D01*
X9739514Y4547585D01*
X9739168Y4546545D01*
X9738682Y4545505D01*
X9738128Y4544465D01*
X9737504Y4543494D01*
X9736741Y4542593D01*
X9736671Y4542523D01*
X9736533Y4542385D01*
X9736325Y4542177D01*
X9735978Y4541830D01*
X9735562Y4541483D01*
X9735007Y4541067D01*
X9734383Y4540582D01*
X9733690Y4540096D01*
X9732927Y4539611D01*
X9732025Y4539126D01*
X9731055Y4538709D01*
X9730015Y4538224D01*
X9728905Y4537808D01*
X9727726Y4537461D01*
X9726409Y4537184D01*
X9725022Y4536976D01*
X9724398Y4544534D01*
X9724467D01*
X9724606Y4544604D01*
X9724883D01*
X9725299Y4544742D01*
X9725715Y4544812D01*
X9726201Y4544950D01*
X9727380Y4545297D01*
X9728628Y4545782D01*
X9729876Y4546406D01*
X9731055Y4547239D01*
X9731609Y4547655D01*
X9732095Y4548140D01*
X9732164Y4548279D01*
X9732442Y4548625D01*
X9732858Y4549249D01*
X9733274Y4550012D01*
X9733690Y4551052D01*
X9734106Y4552231D01*
X9734383Y4553549D01*
X9734452Y4555074D01*
Y4555698D01*
X9734383Y4556392D01*
X9734244Y4557224D01*
X9734036Y4558195D01*
X9733759Y4559235D01*
X9733412Y4560344D01*
X9732858Y4561384D01*
X9732788Y4561523D01*
X9732580Y4561870D01*
X9732164Y4562355D01*
X9731679Y4562979D01*
X9731055Y4563673D01*
X9730292Y4564435D01*
X9729390Y4565198D01*
X9728420Y4565892D01*
X9728281Y4565961D01*
X9727934Y4566169D01*
X9727310Y4566516D01*
X9726409Y4566932D01*
X9725369Y4567348D01*
X9724121Y4567833D01*
X9722595Y4568319D01*
X9720931Y4568804D01*
X9720861D01*
X9720723Y4568873D01*
X9720445Y4568943D01*
X9720099Y4569012D01*
X9719683Y4569081D01*
X9719197Y4569151D01*
X9718573Y4569289D01*
X9717949Y4569428D01*
X9716493Y4569636D01*
X9714898Y4569775D01*
X9713164Y4569913D01*
X9711362Y4569983D01*
X9711223D01*
X9710946D01*
X9710460D01*
X9709836D01*
X9709905Y4569844D01*
X9710113Y4569775D01*
X9710391Y4569567D01*
X9711084Y4569012D01*
X9711916Y4568319D01*
X9712887Y4567348D01*
X9713927Y4566238D01*
X9714898Y4564990D01*
X9715869Y4563534D01*
Y4563465D01*
X9715938Y4563326D01*
X9716077Y4563118D01*
X9716216Y4562841D01*
X9716424Y4562424D01*
X9716562Y4562008D01*
X9716978Y4560899D01*
X9717464Y4559581D01*
X9717810Y4558056D01*
X9718088Y4556392D01*
X9718157Y4554658D01*
Y4554311D01*
X9718088Y4553895D01*
Y4553341D01*
X9717949Y4552647D01*
X9717880Y4551884D01*
X9717672Y4550983D01*
X9717464Y4550012D01*
X9717117Y4548972D01*
X9716770Y4547932D01*
X9716285Y4546823D01*
X9715730Y4545713D01*
X9715106Y4544534D01*
X9714343Y4543425D01*
X9713442Y4542315D01*
X9712471Y4541275D01*
X9712402Y4541206D01*
X9712194Y4541067D01*
X9711847Y4540790D01*
X9711431Y4540443D01*
X9710876Y4540027D01*
X9710183Y4539542D01*
X9709351Y4539056D01*
X9708380Y4538571D01*
X9707409Y4538016D01*
X9706230Y4537531D01*
X9704982Y4537045D01*
X9703665Y4536629D01*
X9702208Y4536283D01*
X9700614Y4536005D01*
X9699019Y4535866D01*
X9697285Y4535797D01*
X9697146D01*
X9696869D01*
X9696314Y4535866D01*
X9695690D01*
X9694858Y4536005D01*
X9693887Y4536074D01*
X9692847Y4536283D01*
X9691668Y4536491D01*
X9690490Y4536837D01*
X9689172Y4537184D01*
X9687855Y4537669D01*
X9686606Y4538224D01*
X9685289Y4538848D01*
X9683971Y4539611D01*
X9682793Y4540512D01*
X9681614Y4541483D01*
X9681545Y4541553D01*
X9681336Y4541761D01*
X9681059Y4542107D01*
X9680712Y4542523D01*
X9680227Y4543078D01*
X9679742Y4543771D01*
X9679187Y4544534D01*
X9678632Y4545436D01*
X9678077Y4546406D01*
X9677523Y4547516D01*
X9677037Y4548695D01*
X9676552Y4549943D01*
X9676205Y4551330D01*
X9675928Y4552786D01*
X9675720Y4554242D01*
X9675650Y4555837D01*
Y4556461D01*
X9675720Y4556877D01*
Y4557432D01*
X9675858Y4558056D01*
X9675928Y4558819D01*
X9676066Y4559581D01*
X9676483Y4561384D01*
X9677107Y4563257D01*
X9677453Y4564227D01*
X9677939Y4565267D01*
X9678424Y4566238D01*
X9679048Y4567209D01*
X9679118Y4567278D01*
X9679187Y4567417D01*
X9679395Y4567694D01*
X9679672Y4568041D01*
X9680019Y4568527D01*
X9680435Y4569012D01*
X9680920Y4569567D01*
X9681475Y4570121D01*
X9682099Y4570745D01*
X9682862Y4571439D01*
X9683625Y4572063D01*
X9684457Y4572756D01*
X9685428Y4573380D01*
X9686398Y4574005D01*
X9687508Y4574559D01*
X9688617Y4575114D01*
X9688687D01*
X9688895Y4575253D01*
X9689241Y4575391D01*
X9689796Y4575530D01*
X9690420Y4575738D01*
X9691183Y4575946D01*
X9692085Y4576224D01*
X9693194Y4576501D01*
X9694373Y4576709D01*
X9695690Y4576986D01*
X9697216Y4577194D01*
X9698811Y4577402D01*
X9700544Y4577541D01*
X9702416Y4577680D01*
X9704427Y4577818D01*
X9706577D01*
X9706716D01*
X9707132D01*
X9707756D01*
X9708588Y4577749D01*
D02*
G37*
G36*
X9739861Y4520195D02*
X9726547Y4511735D01*
X9726478Y4511666D01*
X9726270Y4511597D01*
X9725993Y4511389D01*
X9725577Y4511111D01*
X9725091Y4510834D01*
X9724537Y4510418D01*
X9723288Y4509586D01*
X9721832Y4508615D01*
X9720376Y4507644D01*
X9718989Y4506604D01*
X9717741Y4505633D01*
X9717672D01*
X9717602Y4505495D01*
X9717256Y4505217D01*
X9716701Y4504801D01*
X9716077Y4504177D01*
X9715383Y4503553D01*
X9714690Y4502790D01*
X9713997Y4502028D01*
X9713511Y4501334D01*
X9713442Y4501265D01*
X9713303Y4500987D01*
X9713095Y4500641D01*
X9712818Y4500155D01*
X9712540Y4499531D01*
X9712263Y4498907D01*
X9711986Y4498214D01*
X9711778Y4497451D01*
Y4497382D01*
X9711708Y4497174D01*
X9711639Y4496827D01*
X9711570Y4496342D01*
Y4495648D01*
X9711500Y4494816D01*
X9711431Y4493845D01*
Y4482959D01*
X9739861D01*
Y4474499D01*
X9675858D01*
Y4504247D01*
X9675928Y4505009D01*
Y4505772D01*
X9675997Y4506673D01*
X9676066Y4507714D01*
X9676275Y4509794D01*
X9676621Y4511943D01*
X9677037Y4514024D01*
X9677315Y4514925D01*
X9677592Y4515827D01*
Y4515896D01*
X9677661Y4516035D01*
X9677800Y4516243D01*
X9677939Y4516589D01*
X9678355Y4517421D01*
X9678979Y4518392D01*
X9679811Y4519571D01*
X9680920Y4520750D01*
X9682169Y4521929D01*
X9683694Y4522969D01*
X9683763D01*
X9683902Y4523108D01*
X9684110Y4523246D01*
X9684457Y4523385D01*
X9684873Y4523593D01*
X9685358Y4523801D01*
X9685913Y4524078D01*
X9686537Y4524356D01*
X9687993Y4524841D01*
X9689588Y4525257D01*
X9691391Y4525535D01*
X9693333Y4525673D01*
X9693402D01*
X9693610D01*
X9694026D01*
X9694442Y4525604D01*
X9695066Y4525535D01*
X9695760Y4525465D01*
X9696522Y4525326D01*
X9697354Y4525118D01*
X9699157Y4524564D01*
X9700128Y4524217D01*
X9701099Y4523801D01*
X9702070Y4523316D01*
X9703041Y4522691D01*
X9703942Y4521998D01*
X9704843Y4521235D01*
X9704913Y4521166D01*
X9705051Y4521027D01*
X9705259Y4520750D01*
X9705606Y4520403D01*
X9705953Y4519918D01*
X9706369Y4519363D01*
X9706854Y4518670D01*
X9707340Y4517838D01*
X9707825Y4516936D01*
X9708311Y4515965D01*
X9708796Y4514856D01*
X9709281Y4513608D01*
X9709697Y4512290D01*
X9710113Y4510834D01*
X9710460Y4509239D01*
X9710738Y4507575D01*
Y4507644D01*
X9710807Y4507714D01*
X9711015Y4508130D01*
X9711362Y4508754D01*
X9711778Y4509517D01*
X9712263Y4510349D01*
X9712748Y4511181D01*
X9713372Y4512013D01*
X9713927Y4512706D01*
X9713997Y4512776D01*
X9714066Y4512845D01*
X9714274Y4513053D01*
X9714551Y4513330D01*
X9714898Y4513677D01*
X9715314Y4514093D01*
X9716285Y4514995D01*
X9717533Y4516035D01*
X9718989Y4517213D01*
X9720653Y4518462D01*
X9722456Y4519710D01*
X9739861Y4530805D01*
Y4520195D01*
D02*
G37*
G36*
X10110742Y4643854D02*
X10110672Y4643091D01*
Y4642328D01*
X10110603Y4641427D01*
X10110533Y4640386D01*
X10110325Y4638306D01*
X10109979Y4636157D01*
X10109563Y4634076D01*
X10109285Y4633175D01*
X10109008Y4632273D01*
Y4632204D01*
X10108939Y4632065D01*
X10108800Y4631857D01*
X10108661Y4631511D01*
X10108245Y4630679D01*
X10107621Y4629708D01*
X10106789Y4628529D01*
X10105680Y4627350D01*
X10104431Y4626171D01*
X10102906Y4625131D01*
X10102837D01*
X10102698Y4624993D01*
X10102490Y4624854D01*
X10102143Y4624715D01*
X10101727Y4624507D01*
X10101242Y4624299D01*
X10100687Y4624022D01*
X10100063Y4623744D01*
X10098607Y4623259D01*
X10097012Y4622843D01*
X10095209Y4622566D01*
X10093267Y4622427D01*
X10093198D01*
X10092990D01*
X10092574D01*
X10092158Y4622496D01*
X10091534Y4622566D01*
X10090840Y4622635D01*
X10090078Y4622774D01*
X10089246Y4622982D01*
X10087443Y4623536D01*
X10086472Y4623883D01*
X10085501Y4624299D01*
X10084530Y4624785D01*
X10083559Y4625409D01*
X10082658Y4626102D01*
X10081757Y4626865D01*
X10081687Y4626934D01*
X10081549Y4627073D01*
X10081341Y4627350D01*
X10080994Y4627697D01*
X10080647Y4628182D01*
X10080231Y4628737D01*
X10079746Y4629430D01*
X10079260Y4630263D01*
X10078775Y4631164D01*
X10078289Y4632135D01*
X10077804Y4633244D01*
X10077319Y4634492D01*
X10076903Y4635810D01*
X10076487Y4637266D01*
X10076140Y4638861D01*
X10075862Y4640525D01*
Y4640456D01*
X10075793Y4640386D01*
X10075585Y4639970D01*
X10075238Y4639346D01*
X10074822Y4638584D01*
X10074337Y4637751D01*
X10073852Y4636919D01*
X10073228Y4636087D01*
X10072673Y4635394D01*
X10072603Y4635324D01*
X10072534Y4635255D01*
X10072326Y4635047D01*
X10072049Y4634770D01*
X10071702Y4634423D01*
X10071286Y4634007D01*
X10070315Y4633106D01*
X10069067Y4632065D01*
X10067611Y4630887D01*
X10065947Y4629638D01*
X10064144Y4628390D01*
X10046739Y4617296D01*
Y4627905D01*
X10060053Y4636365D01*
X10060122Y4636434D01*
X10060330Y4636503D01*
X10060607Y4636711D01*
X10061023Y4636989D01*
X10061509Y4637266D01*
X10062063Y4637682D01*
X10063312Y4638514D01*
X10064768Y4639485D01*
X10066224Y4640456D01*
X10067611Y4641496D01*
X10068859Y4642467D01*
X10068928D01*
X10068998Y4642605D01*
X10069344Y4642883D01*
X10069899Y4643299D01*
X10070523Y4643923D01*
X10071217Y4644547D01*
X10071910Y4645310D01*
X10072603Y4646072D01*
X10073089Y4646766D01*
X10073158Y4646835D01*
X10073297Y4647113D01*
X10073505Y4647459D01*
X10073782Y4647945D01*
X10074060Y4648569D01*
X10074337Y4649193D01*
X10074614Y4649886D01*
X10074822Y4650649D01*
Y4650718D01*
X10074892Y4650926D01*
X10074961Y4651273D01*
X10075030Y4651759D01*
Y4652452D01*
X10075100Y4653284D01*
X10075169Y4654255D01*
Y4665142D01*
X10046739D01*
Y4673601D01*
X10110742D01*
Y4643854D01*
D02*
G37*
G36*
X10066293Y4612372D02*
X10066848D01*
X10067472Y4612303D01*
X10068166Y4612164D01*
X10068928Y4612026D01*
X10070523Y4611679D01*
X10072257Y4611124D01*
X10073990Y4610361D01*
X10074822Y4609876D01*
X10075654Y4609321D01*
X10075724Y4609252D01*
X10075862Y4609183D01*
X10076071Y4608975D01*
X10076348Y4608697D01*
X10076695Y4608420D01*
X10077041Y4608004D01*
X10077527Y4607518D01*
X10077943Y4606964D01*
X10078914Y4605715D01*
X10079884Y4604190D01*
X10080716Y4602387D01*
X10081410Y4600307D01*
Y4600376D01*
X10081479Y4600515D01*
X10081618Y4600792D01*
X10081757Y4601070D01*
X10081895Y4601486D01*
X10082173Y4601971D01*
X10082727Y4603011D01*
X10083421Y4604190D01*
X10084322Y4605369D01*
X10085293Y4606548D01*
X10086472Y4607518D01*
X10086541D01*
X10086611Y4607588D01*
X10086819Y4607726D01*
X10087096Y4607865D01*
X10087789Y4608281D01*
X10088691Y4608697D01*
X10089870Y4609113D01*
X10091256Y4609529D01*
X10092782Y4609807D01*
X10094446Y4609876D01*
X10094515D01*
X10094724D01*
X10095140Y4609807D01*
X10095625D01*
X10096180Y4609737D01*
X10096873Y4609599D01*
X10097636Y4609460D01*
X10098537Y4609252D01*
X10099439Y4608975D01*
X10100340Y4608628D01*
X10101311Y4608281D01*
X10102351Y4607796D01*
X10103322Y4607172D01*
X10104293Y4606548D01*
X10105264Y4605785D01*
X10106165Y4604883D01*
X10106234Y4604814D01*
X10106373Y4604675D01*
X10106581Y4604398D01*
X10106928Y4603982D01*
X10107274Y4603497D01*
X10107690Y4602872D01*
X10108107Y4602179D01*
X10108592Y4601347D01*
X10109008Y4600445D01*
X10109424Y4599405D01*
X10109840Y4598365D01*
X10110187Y4597186D01*
X10110533Y4595869D01*
X10110742Y4594551D01*
X10110880Y4593095D01*
X10110950Y4591570D01*
Y4590738D01*
X10110880Y4590183D01*
X10110811Y4589489D01*
X10110672Y4588657D01*
X10110533Y4587756D01*
X10110325Y4586716D01*
X10110048Y4585676D01*
X10109771Y4584566D01*
X10109355Y4583457D01*
X10108869Y4582347D01*
X10108315Y4581168D01*
X10107621Y4580128D01*
X10106928Y4579019D01*
X10106026Y4578048D01*
X10105957Y4577979D01*
X10105818Y4577840D01*
X10105541Y4577563D01*
X10105194Y4577216D01*
X10104709Y4576869D01*
X10104154Y4576453D01*
X10103461Y4575968D01*
X10102767Y4575482D01*
X10101935Y4574997D01*
X10101034Y4574512D01*
X10100063Y4574095D01*
X10099023Y4573749D01*
X10097913Y4573402D01*
X10096734Y4573125D01*
X10095486Y4572986D01*
X10094238Y4572917D01*
X10094169D01*
X10094030D01*
X10093822D01*
X10093475D01*
X10093129Y4572986D01*
X10092643Y4573055D01*
X10091603Y4573194D01*
X10090424Y4573471D01*
X10089107Y4573887D01*
X10087789Y4574512D01*
X10086472Y4575274D01*
X10086402D01*
X10086333Y4575413D01*
X10085917Y4575690D01*
X10085362Y4576245D01*
X10084600Y4577008D01*
X10083837Y4578048D01*
X10082935Y4579227D01*
X10082173Y4580683D01*
X10081410Y4582347D01*
Y4582278D01*
X10081341Y4582070D01*
X10081202Y4581792D01*
X10081063Y4581376D01*
X10080855Y4580891D01*
X10080578Y4580336D01*
X10079884Y4579019D01*
X10079052Y4577563D01*
X10077943Y4576106D01*
X10076695Y4574650D01*
X10075169Y4573402D01*
X10075100Y4573333D01*
X10074961Y4573263D01*
X10074753Y4573125D01*
X10074406Y4572917D01*
X10073990Y4572709D01*
X10073505Y4572431D01*
X10072950Y4572154D01*
X10072326Y4571807D01*
X10070870Y4571252D01*
X10069136Y4570767D01*
X10067195Y4570420D01*
X10066155Y4570282D01*
X10065045D01*
X10064976D01*
X10064698D01*
X10064282Y4570351D01*
X10063658D01*
X10062965Y4570490D01*
X10062133Y4570559D01*
X10061231Y4570767D01*
X10060261Y4570975D01*
X10059151Y4571322D01*
X10058042Y4571669D01*
X10056932Y4572154D01*
X10055753Y4572709D01*
X10054575Y4573402D01*
X10053465Y4574165D01*
X10052286Y4575066D01*
X10051246Y4576106D01*
X10051177Y4576176D01*
X10051038Y4576384D01*
X10050761Y4576730D01*
X10050414Y4577147D01*
X10049929Y4577771D01*
X10049513Y4578464D01*
X10048958Y4579296D01*
X10048472Y4580198D01*
X10047987Y4581238D01*
X10047432Y4582417D01*
X10047016Y4583665D01*
X10046600Y4584982D01*
X10046184Y4586438D01*
X10045907Y4587964D01*
X10045768Y4589628D01*
X10045699Y4591362D01*
Y4591778D01*
X10045768Y4592263D01*
Y4592957D01*
X10045837Y4593719D01*
X10045976Y4594690D01*
X10046184Y4595730D01*
X10046392Y4596840D01*
X10046670Y4598018D01*
X10047086Y4599267D01*
X10047502Y4600515D01*
X10048056Y4601832D01*
X10048680Y4603080D01*
X10049443Y4604329D01*
X10050275Y4605577D01*
X10051246Y4606686D01*
X10051315Y4606756D01*
X10051523Y4606964D01*
X10051801Y4607241D01*
X10052286Y4607588D01*
X10052841Y4608004D01*
X10053465Y4608489D01*
X10054228Y4609044D01*
X10055129Y4609529D01*
X10056100Y4610084D01*
X10057140Y4610639D01*
X10058319Y4611124D01*
X10059498Y4611540D01*
X10060815Y4611887D01*
X10062271Y4612164D01*
X10063728Y4612372D01*
X10065253Y4612442D01*
X10065323D01*
X10065531D01*
X10065877D01*
X10066293Y4612372D01*
D02*
G37*
G36*
X10325601Y4643853D02*
X10325532Y4643091D01*
Y4642328D01*
X10325462Y4641426D01*
X10325393Y4640386D01*
X10325185Y4638306D01*
X10324838Y4636156D01*
X10324422Y4634076D01*
X10324145Y4633175D01*
X10323868Y4632273D01*
Y4632204D01*
X10323798Y4632065D01*
X10323660Y4631857D01*
X10323521Y4631510D01*
X10323105Y4630678D01*
X10322481Y4629708D01*
X10321649Y4628529D01*
X10320539Y4627350D01*
X10319291Y4626171D01*
X10317765Y4625131D01*
X10317696D01*
X10317557Y4624992D01*
X10317349Y4624854D01*
X10317003Y4624715D01*
X10316587Y4624507D01*
X10316101Y4624299D01*
X10315547Y4624021D01*
X10314922Y4623744D01*
X10313466Y4623259D01*
X10311871Y4622843D01*
X10310069Y4622565D01*
X10308127Y4622427D01*
X10308058D01*
X10307850D01*
X10307434D01*
X10307017Y4622496D01*
X10306393Y4622565D01*
X10305700Y4622635D01*
X10304937Y4622773D01*
X10304105Y4622981D01*
X10302302Y4623536D01*
X10301331Y4623883D01*
X10300361Y4624299D01*
X10299390Y4624784D01*
X10298419Y4625408D01*
X10297518Y4626102D01*
X10296616Y4626865D01*
X10296547Y4626934D01*
X10296408Y4627073D01*
X10296200Y4627350D01*
X10295853Y4627697D01*
X10295507Y4628182D01*
X10295091Y4628737D01*
X10294605Y4629430D01*
X10294120Y4630262D01*
X10293634Y4631164D01*
X10293149Y4632134D01*
X10292664Y4633244D01*
X10292178Y4634492D01*
X10291762Y4635810D01*
X10291346Y4637266D01*
X10290999Y4638861D01*
X10290722Y4640525D01*
Y4640456D01*
X10290653Y4640386D01*
X10290445Y4639970D01*
X10290098Y4639346D01*
X10289682Y4638583D01*
X10289197Y4637751D01*
X10288711Y4636919D01*
X10288087Y4636087D01*
X10287532Y4635394D01*
X10287463Y4635324D01*
X10287394Y4635255D01*
X10287186Y4635047D01*
X10286908Y4634769D01*
X10286562Y4634423D01*
X10286146Y4634007D01*
X10285175Y4633105D01*
X10283927Y4632065D01*
X10282470Y4630886D01*
X10280806Y4629638D01*
X10279003Y4628390D01*
X10261598Y4617295D01*
Y4627905D01*
X10274912Y4636364D01*
X10274981Y4636434D01*
X10275190Y4636503D01*
X10275467Y4636711D01*
X10275883Y4636988D01*
X10276368Y4637266D01*
X10276923Y4637682D01*
X10278171Y4638514D01*
X10279627Y4639485D01*
X10281084Y4640456D01*
X10282470Y4641496D01*
X10283719Y4642466D01*
X10283788D01*
X10283857Y4642605D01*
X10284204Y4642883D01*
X10284759Y4643299D01*
X10285383Y4643923D01*
X10286076Y4644547D01*
X10286770Y4645309D01*
X10287463Y4646072D01*
X10287948Y4646766D01*
X10288018Y4646835D01*
X10288156Y4647112D01*
X10288364Y4647459D01*
X10288642Y4647944D01*
X10288919Y4648569D01*
X10289197Y4649193D01*
X10289474Y4649886D01*
X10289682Y4650649D01*
Y4650718D01*
X10289751Y4650926D01*
X10289821Y4651273D01*
X10289890Y4651758D01*
Y4652452D01*
X10289959Y4653284D01*
X10290029Y4654255D01*
Y4665141D01*
X10261598D01*
Y4673601D01*
X10325601D01*
Y4643853D01*
D02*
G37*
G36*
X10324769Y4570420D02*
X10318598D01*
X10318528Y4570489D01*
X10318320Y4570697D01*
X10317904Y4571044D01*
X10317419Y4571460D01*
X10316725Y4572015D01*
X10315963Y4572708D01*
X10315061Y4573402D01*
X10314021Y4574234D01*
X10312842Y4575135D01*
X10311525Y4576106D01*
X10310069Y4577146D01*
X10308543Y4578186D01*
X10306948Y4579227D01*
X10305145Y4580336D01*
X10303273Y4581515D01*
X10301331Y4582624D01*
X10301193Y4582694D01*
X10300846Y4582902D01*
X10300291Y4583179D01*
X10299459Y4583595D01*
X10298488Y4584080D01*
X10297310Y4584705D01*
X10295992Y4585329D01*
X10294536Y4586022D01*
X10292941Y4586715D01*
X10291208Y4587478D01*
X10289335Y4588241D01*
X10287463Y4589004D01*
X10285452Y4589767D01*
X10283372Y4590529D01*
X10279142Y4591847D01*
X10279073D01*
X10278795Y4591916D01*
X10278310Y4592055D01*
X10277755Y4592194D01*
X10276992Y4592402D01*
X10276091Y4592610D01*
X10275051Y4592887D01*
X10273941Y4593095D01*
X10272693Y4593372D01*
X10271306Y4593580D01*
X10269850Y4593858D01*
X10268325Y4594066D01*
X10266730Y4594343D01*
X10265066Y4594551D01*
X10261598Y4594829D01*
Y4602872D01*
X10261668D01*
X10261945D01*
X10262361D01*
X10262916Y4602803D01*
X10263679Y4602733D01*
X10264511Y4602664D01*
X10265551Y4602595D01*
X10266660Y4602456D01*
X10267978Y4602317D01*
X10269295Y4602109D01*
X10270821Y4601901D01*
X10272416Y4601624D01*
X10274149Y4601277D01*
X10275952Y4600931D01*
X10277825Y4600445D01*
X10279766Y4599960D01*
X10279905Y4599890D01*
X10280251Y4599821D01*
X10280806Y4599682D01*
X10281569Y4599405D01*
X10282540Y4599128D01*
X10283719Y4598781D01*
X10284967Y4598365D01*
X10286354Y4597880D01*
X10287879Y4597325D01*
X10289543Y4596701D01*
X10291277Y4596077D01*
X10293010Y4595314D01*
X10296686Y4593719D01*
X10300430Y4591847D01*
X10300569Y4591777D01*
X10300846Y4591569D01*
X10301401Y4591292D01*
X10302094Y4590945D01*
X10302926Y4590391D01*
X10303897Y4589836D01*
X10305007Y4589142D01*
X10306255Y4588449D01*
X10307503Y4587617D01*
X10308890Y4586715D01*
X10311663Y4584774D01*
X10314506Y4582694D01*
X10315893Y4581584D01*
X10317211Y4580475D01*
Y4611817D01*
X10324769D01*
Y4570420D01*
D02*
G37*
G36*
X10618742Y4457454D02*
X10618672Y4456691D01*
Y4455928D01*
X10618603Y4455027D01*
X10618533Y4453987D01*
X10618325Y4451906D01*
X10617979Y4449757D01*
X10617563Y4447676D01*
X10617285Y4446775D01*
X10617008Y4445874D01*
Y4445804D01*
X10616939Y4445665D01*
X10616800Y4445457D01*
X10616661Y4445111D01*
X10616245Y4444279D01*
X10615621Y4443308D01*
X10614789Y4442129D01*
X10613680Y4440950D01*
X10612431Y4439771D01*
X10610906Y4438731D01*
X10610837D01*
X10610698Y4438593D01*
X10610490Y4438454D01*
X10610143Y4438315D01*
X10609727Y4438107D01*
X10609242Y4437899D01*
X10608687Y4437622D01*
X10608063Y4437344D01*
X10606607Y4436859D01*
X10605012Y4436443D01*
X10603209Y4436166D01*
X10601267Y4436027D01*
X10601198D01*
X10600990D01*
X10600574D01*
X10600158Y4436096D01*
X10599534Y4436166D01*
X10598840Y4436235D01*
X10598078Y4436374D01*
X10597246Y4436582D01*
X10595443Y4437136D01*
X10594472Y4437483D01*
X10593501Y4437899D01*
X10592530Y4438385D01*
X10591559Y4439009D01*
X10590658Y4439702D01*
X10589757Y4440465D01*
X10589687Y4440534D01*
X10589549Y4440673D01*
X10589341Y4440950D01*
X10588994Y4441297D01*
X10588647Y4441782D01*
X10588231Y4442337D01*
X10587746Y4443030D01*
X10587260Y4443863D01*
X10586775Y4444764D01*
X10586289Y4445735D01*
X10585804Y4446844D01*
X10585319Y4448092D01*
X10584903Y4449410D01*
X10584487Y4450866D01*
X10584140Y4452461D01*
X10583862Y4454125D01*
Y4454056D01*
X10583793Y4453987D01*
X10583585Y4453570D01*
X10583238Y4452946D01*
X10582822Y4452184D01*
X10582337Y4451352D01*
X10581852Y4450519D01*
X10581228Y4449687D01*
X10580673Y4448994D01*
X10580603Y4448925D01*
X10580534Y4448855D01*
X10580326Y4448647D01*
X10580049Y4448370D01*
X10579702Y4448023D01*
X10579286Y4447607D01*
X10578315Y4446706D01*
X10577067Y4445665D01*
X10575611Y4444487D01*
X10573947Y4443239D01*
X10572144Y4441990D01*
X10554739Y4430896D01*
Y4441505D01*
X10568053Y4449965D01*
X10568122Y4450034D01*
X10568330Y4450103D01*
X10568607Y4450311D01*
X10569023Y4450589D01*
X10569509Y4450866D01*
X10570063Y4451282D01*
X10571312Y4452114D01*
X10572768Y4453085D01*
X10574224Y4454056D01*
X10575611Y4455096D01*
X10576859Y4456067D01*
X10576928D01*
X10576998Y4456205D01*
X10577344Y4456483D01*
X10577899Y4456899D01*
X10578523Y4457523D01*
X10579217Y4458147D01*
X10579910Y4458910D01*
X10580603Y4459673D01*
X10581089Y4460366D01*
X10581158Y4460435D01*
X10581297Y4460713D01*
X10581505Y4461059D01*
X10581782Y4461545D01*
X10582060Y4462169D01*
X10582337Y4462793D01*
X10582614Y4463486D01*
X10582822Y4464249D01*
Y4464318D01*
X10582892Y4464527D01*
X10582961Y4464873D01*
X10583030Y4465359D01*
Y4466052D01*
X10583100Y4466884D01*
X10583169Y4467855D01*
Y4478742D01*
X10554739D01*
Y4487201D01*
X10618742D01*
Y4457454D01*
D02*
G37*
G36*
X10586428Y4426250D02*
X10586983D01*
X10587676Y4426180D01*
X10589202Y4426111D01*
X10590935Y4425972D01*
X10592877Y4425764D01*
X10594957Y4425487D01*
X10597176Y4425071D01*
X10599395Y4424655D01*
X10601614Y4424100D01*
X10603833Y4423407D01*
X10605983Y4422644D01*
X10608063Y4421742D01*
X10609935Y4420633D01*
X10611599Y4419454D01*
X10611669Y4419385D01*
X10611946Y4419177D01*
X10612293Y4418830D01*
X10612778Y4418345D01*
X10613333Y4417790D01*
X10613957Y4417027D01*
X10614581Y4416195D01*
X10615274Y4415224D01*
X10615968Y4414115D01*
X10616592Y4412867D01*
X10617216Y4411549D01*
X10617771Y4410093D01*
X10618256Y4408568D01*
X10618603Y4406903D01*
X10618880Y4405170D01*
X10618950Y4403298D01*
Y4402535D01*
X10618880Y4402049D01*
X10618811Y4401425D01*
X10618742Y4400663D01*
X10618603Y4399830D01*
X10618395Y4398929D01*
X10617909Y4396918D01*
X10617563Y4395947D01*
X10617147Y4394838D01*
X10616661Y4393798D01*
X10616037Y4392827D01*
X10615413Y4391856D01*
X10614650Y4390885D01*
X10614581Y4390816D01*
X10614442Y4390677D01*
X10614234Y4390400D01*
X10613888Y4390123D01*
X10613472Y4389706D01*
X10612917Y4389290D01*
X10612293Y4388805D01*
X10611599Y4388320D01*
X10610837Y4387834D01*
X10609935Y4387349D01*
X10608964Y4386863D01*
X10607924Y4386378D01*
X10606815Y4385962D01*
X10605636Y4385615D01*
X10604388Y4385269D01*
X10603001Y4385061D01*
X10602377Y4392896D01*
X10602446D01*
X10602585Y4392966D01*
X10602793Y4393035D01*
X10603140Y4393104D01*
X10603972Y4393312D01*
X10604942Y4393659D01*
X10606052Y4394075D01*
X10607161Y4394630D01*
X10608202Y4395185D01*
X10609103Y4395878D01*
X10609172Y4395947D01*
X10609242Y4396017D01*
X10609450Y4396225D01*
X10609658Y4396433D01*
X10610212Y4397126D01*
X10610837Y4398097D01*
X10611461Y4399206D01*
X10611946Y4400593D01*
X10612362Y4402119D01*
X10612431Y4402951D01*
X10612501Y4403783D01*
Y4404407D01*
X10612362Y4405170D01*
X10612223Y4406071D01*
X10611946Y4407111D01*
X10611599Y4408221D01*
X10611045Y4409330D01*
X10610351Y4410440D01*
Y4410509D01*
X10610212Y4410578D01*
X10610074Y4410786D01*
X10609866Y4411064D01*
X10609242Y4411688D01*
X10608340Y4412520D01*
X10607231Y4413491D01*
X10605844Y4414462D01*
X10604249Y4415363D01*
X10602446Y4416264D01*
X10602377D01*
X10602238Y4416334D01*
X10601891Y4416472D01*
X10601475Y4416611D01*
X10600990Y4416750D01*
X10600297Y4416958D01*
X10599534Y4417166D01*
X10598702Y4417374D01*
X10597731Y4417582D01*
X10596621Y4417721D01*
X10595373Y4417929D01*
X10594056Y4418137D01*
X10592669Y4418275D01*
X10591143Y4418345D01*
X10589479Y4418414D01*
X10587818Y4418481D01*
X10587954Y4418345D01*
X10588162Y4418206D01*
X10588439Y4417998D01*
X10589202Y4417374D01*
X10590173Y4416611D01*
X10591213Y4415571D01*
X10592253Y4414392D01*
X10593224Y4413075D01*
X10594125Y4411619D01*
Y4411549D01*
X10594194Y4411411D01*
X10594333Y4411203D01*
X10594472Y4410925D01*
X10594611Y4410509D01*
X10594819Y4410093D01*
X10595235Y4408984D01*
X10595581Y4407666D01*
X10595928Y4406210D01*
X10596205Y4404615D01*
X10596275Y4402951D01*
Y4402604D01*
X10596205Y4402188D01*
Y4401633D01*
X10596067Y4400940D01*
X10595997Y4400177D01*
X10595789Y4399276D01*
X10595581Y4398305D01*
X10595235Y4397334D01*
X10594888Y4396225D01*
X10594402Y4395115D01*
X10593848Y4394006D01*
X10593154Y4392827D01*
X10592392Y4391717D01*
X10591490Y4390608D01*
X10590450Y4389568D01*
X10590381Y4389498D01*
X10590173Y4389360D01*
X10589895Y4389082D01*
X10589410Y4388666D01*
X10588855Y4388250D01*
X10588162Y4387834D01*
X10587330Y4387280D01*
X10586428Y4386794D01*
X10585388Y4386309D01*
X10584279Y4385754D01*
X10583030Y4385338D01*
X10581713Y4384853D01*
X10580326Y4384506D01*
X10578801Y4384228D01*
X10577206Y4384090D01*
X10575541Y4384020D01*
X10575472D01*
X10575264D01*
X10574987D01*
X10574501Y4384090D01*
X10574016D01*
X10573392Y4384159D01*
X10572629Y4384228D01*
X10571866Y4384367D01*
X10570133Y4384645D01*
X10568261Y4385130D01*
X10566319Y4385754D01*
X10564308Y4386655D01*
X10564239D01*
X10564100Y4386794D01*
X10563823Y4386933D01*
X10563476Y4387141D01*
X10563060Y4387418D01*
X10562575Y4387696D01*
X10561396Y4388528D01*
X10560148Y4389498D01*
X10558830Y4390747D01*
X10557513Y4392203D01*
X10556403Y4393798D01*
Y4393867D01*
X10556264Y4394006D01*
X10556126Y4394283D01*
X10555987Y4394630D01*
X10555779Y4395046D01*
X10555571Y4395531D01*
X10555294Y4396155D01*
X10555086Y4396779D01*
X10554531Y4398305D01*
X10554115Y4400108D01*
X10553837Y4402049D01*
X10553699Y4404130D01*
Y4404546D01*
X10553768Y4405100D01*
X10553837Y4405794D01*
X10553907Y4406626D01*
X10554115Y4407597D01*
X10554323Y4408637D01*
X10554600Y4409816D01*
X10555016Y4411064D01*
X10555432Y4412381D01*
X10556056Y4413699D01*
X10556750Y4415016D01*
X10557582Y4416403D01*
X10558553Y4417651D01*
X10559662Y4418969D01*
X10560910Y4420148D01*
X10560980Y4420217D01*
X10561257Y4420425D01*
X10561673Y4420702D01*
X10562297Y4421118D01*
X10563060Y4421604D01*
X10564031Y4422089D01*
X10565210Y4422644D01*
X10566596Y4423199D01*
X10568122Y4423823D01*
X10569855Y4424377D01*
X10571797Y4424863D01*
X10573947Y4425348D01*
X10576304Y4425764D01*
X10578870Y4426042D01*
X10581644Y4426250D01*
X10584625Y4426319D01*
X10584695D01*
X10584833D01*
X10585111D01*
X10585457D01*
X10585873D01*
X10586428Y4426250D01*
D02*
G37*
G36*
X13605814Y4573996D02*
X13606577Y4573926D01*
X13607408Y4573788D01*
X13608379Y4573649D01*
X13609488Y4573441D01*
X13610599Y4573164D01*
X13611845Y4572817D01*
X13613094Y4572401D01*
X13614342Y4571915D01*
X13615590Y4571361D01*
X13616908Y4570667D01*
X13618156Y4569904D01*
X13619334Y4569003D01*
X13619405Y4568934D01*
X13619682Y4568726D01*
X13620029Y4568379D01*
X13620514Y4567894D01*
X13621138Y4567270D01*
X13621762Y4566507D01*
X13622525Y4565605D01*
X13623218Y4564565D01*
X13623912Y4563456D01*
X13624673Y4562208D01*
X13625298Y4560821D01*
X13625853Y4559295D01*
X13626408Y4557700D01*
X13626755Y4555967D01*
X13627032Y4554164D01*
X13627101Y4552222D01*
Y4551390D01*
X13627032Y4550766D01*
X13626962Y4550003D01*
X13626823Y4549171D01*
X13626685Y4548200D01*
X13626477Y4547160D01*
X13626270Y4546051D01*
X13625922Y4544872D01*
X13625507Y4543693D01*
X13625021Y4542514D01*
X13624466Y4541336D01*
X13623842Y4540157D01*
X13623079Y4539047D01*
X13622247Y4537938D01*
X13622179Y4537868D01*
X13622038Y4537730D01*
X13621762Y4537452D01*
X13621346Y4537106D01*
X13620860Y4536620D01*
X13620306Y4536135D01*
X13619612Y4535650D01*
X13618781Y4535095D01*
X13617947Y4534540D01*
X13616977Y4533985D01*
X13615868Y4533500D01*
X13614758Y4533015D01*
X13613510Y4532529D01*
X13612193Y4532182D01*
X13610738Y4531905D01*
X13609280Y4531697D01*
X13608656Y4539949D01*
X13608727D01*
X13608934Y4540018D01*
X13609212Y4540087D01*
X13609627Y4540157D01*
X13610112Y4540226D01*
X13610738Y4540434D01*
X13612054Y4540781D01*
X13613510Y4541336D01*
X13615036Y4542098D01*
X13616423Y4543000D01*
X13617047Y4543555D01*
X13617671Y4544109D01*
Y4544179D01*
X13617809Y4544248D01*
X13617947Y4544456D01*
X13618156Y4544733D01*
X13618642Y4545427D01*
X13619127Y4546398D01*
X13619682Y4547576D01*
X13620168Y4548963D01*
X13620514Y4550489D01*
X13620583Y4551321D01*
X13620651Y4552222D01*
Y4552777D01*
X13620583Y4553193D01*
X13620514Y4553678D01*
X13620444Y4554233D01*
X13620097Y4555551D01*
X13619612Y4557076D01*
X13619266Y4557839D01*
X13618851Y4558671D01*
X13618364Y4559503D01*
X13617809Y4560266D01*
X13617184Y4561029D01*
X13616423Y4561791D01*
X13616353Y4561861D01*
X13616216Y4561930D01*
X13616006Y4562138D01*
X13615660Y4562416D01*
X13615173Y4562693D01*
X13614690Y4563040D01*
X13614066Y4563386D01*
X13613371Y4563802D01*
X13612608Y4564149D01*
X13611777Y4564496D01*
X13610806Y4564843D01*
X13609834Y4565120D01*
X13608727Y4565397D01*
X13607547Y4565605D01*
X13606367Y4565675D01*
X13605051Y4565744D01*
X13604980D01*
X13604773D01*
X13604427D01*
X13603941Y4565675D01*
X13603386Y4565605D01*
X13602693Y4565536D01*
X13601999Y4565397D01*
X13601167Y4565259D01*
X13599503Y4564843D01*
X13597701Y4564149D01*
X13596867Y4563733D01*
X13596036Y4563178D01*
X13595204Y4562624D01*
X13594441Y4561930D01*
X13594373Y4561861D01*
X13594302Y4561791D01*
X13594093Y4561514D01*
X13593817Y4561237D01*
X13593539Y4560890D01*
X13593193Y4560405D01*
X13592847Y4559919D01*
X13592430Y4559295D01*
X13592084Y4558602D01*
X13591737Y4557908D01*
X13591113Y4556175D01*
X13590836Y4555273D01*
X13590627Y4554233D01*
X13590558Y4553193D01*
X13590489Y4552084D01*
Y4551460D01*
X13590558Y4550697D01*
X13590697Y4549795D01*
X13590906Y4548686D01*
X13591251Y4547507D01*
X13591669Y4546328D01*
X13592291Y4545149D01*
X13592361Y4545011D01*
X13592569Y4544664D01*
X13592986Y4544109D01*
X13593469Y4543416D01*
X13594164Y4542722D01*
X13594926Y4541890D01*
X13595828Y4541128D01*
X13596799Y4540434D01*
X13595760Y4533084D01*
X13562891Y4539255D01*
Y4571083D01*
X13570380D01*
Y4545496D01*
X13587576Y4542098D01*
X13587508Y4542168D01*
X13587367Y4542376D01*
X13587230Y4542653D01*
X13586952Y4543069D01*
X13586674Y4543624D01*
X13586328Y4544248D01*
X13585912Y4544941D01*
X13585565Y4545773D01*
X13585219Y4546606D01*
X13584802Y4547576D01*
X13584180Y4549587D01*
X13583900Y4550697D01*
X13583693Y4551806D01*
X13583624Y4552985D01*
X13583554Y4554164D01*
Y4554511D01*
X13583624Y4554996D01*
Y4555551D01*
X13583763Y4556244D01*
X13583832Y4557076D01*
X13584039Y4558047D01*
X13584248Y4559018D01*
X13584595Y4560127D01*
X13584941Y4561237D01*
X13585426Y4562416D01*
X13585982Y4563594D01*
X13586674Y4564773D01*
X13587437Y4565952D01*
X13588339Y4567131D01*
X13589378Y4568240D01*
X13589449Y4568310D01*
X13589658Y4568518D01*
X13590002Y4568795D01*
X13590419Y4569142D01*
X13590974Y4569627D01*
X13591737Y4570113D01*
X13592500Y4570598D01*
X13593401Y4571153D01*
X13594441Y4571707D01*
X13595621Y4572193D01*
X13596799Y4572748D01*
X13598186Y4573164D01*
X13599573Y4573510D01*
X13601099Y4573788D01*
X13602693Y4573996D01*
X13604356Y4574065D01*
X13604427D01*
X13604773D01*
X13605190D01*
X13605814Y4573996D01*
D02*
G37*
G36*
X13626060Y4516095D02*
X13612747Y4507635D01*
X13612679Y4507566D01*
X13612469Y4507497D01*
X13612193Y4507289D01*
X13611777Y4507011D01*
X13611292Y4506734D01*
X13610738Y4506318D01*
X13609488Y4505486D01*
X13608032Y4504515D01*
X13606577Y4503544D01*
X13605190Y4502504D01*
X13603941Y4501533D01*
X13603873D01*
X13603802Y4501395D01*
X13603456Y4501117D01*
X13602901Y4500701D01*
X13602277Y4500077D01*
X13601582Y4499453D01*
X13600890Y4498690D01*
X13600197Y4497928D01*
X13599712Y4497234D01*
X13599641Y4497165D01*
X13599503Y4496887D01*
X13599295Y4496541D01*
X13599017Y4496055D01*
X13598740Y4495431D01*
X13598463Y4494807D01*
X13598186Y4494114D01*
X13597978Y4493351D01*
Y4493282D01*
X13597908Y4493074D01*
X13597839Y4492727D01*
X13597771Y4492241D01*
Y4491548D01*
X13597701Y4490716D01*
X13597630Y4489745D01*
Y4478858D01*
X13626060D01*
Y4470399D01*
X13562057D01*
Y4500146D01*
X13562128Y4500909D01*
Y4501672D01*
X13562196Y4502573D01*
X13562267Y4503614D01*
X13562476Y4505694D01*
X13562820Y4507843D01*
X13563237Y4509924D01*
X13563515Y4510825D01*
X13563792Y4511727D01*
Y4511796D01*
X13563861Y4511935D01*
X13564000Y4512143D01*
X13564139Y4512489D01*
X13564555Y4513321D01*
X13565179Y4514292D01*
X13566011Y4515471D01*
X13567120Y4516650D01*
X13568369Y4517829D01*
X13569894Y4518869D01*
X13569963D01*
X13570102Y4519007D01*
X13570309Y4519146D01*
X13570657Y4519285D01*
X13571072Y4519493D01*
X13571558Y4519701D01*
X13572113Y4519978D01*
X13572737Y4520256D01*
X13574193Y4520741D01*
X13575787Y4521157D01*
X13577591Y4521434D01*
X13579533Y4521573D01*
X13579602D01*
X13579810D01*
X13580226D01*
X13580643Y4521504D01*
X13581265Y4521434D01*
X13581960Y4521365D01*
X13582722Y4521226D01*
X13583554Y4521018D01*
X13585358Y4520464D01*
X13586328Y4520117D01*
X13587299Y4519701D01*
X13588271Y4519215D01*
X13589241Y4518591D01*
X13590141Y4517898D01*
X13591043Y4517135D01*
X13591113Y4517066D01*
X13591251Y4516927D01*
X13591460Y4516650D01*
X13591806Y4516303D01*
X13592152Y4515818D01*
X13592569Y4515263D01*
X13593054Y4514570D01*
X13593539Y4513737D01*
X13594025Y4512836D01*
X13594511Y4511865D01*
X13594997Y4510756D01*
X13595480Y4509508D01*
X13595897Y4508190D01*
X13596313Y4506734D01*
X13596660Y4505139D01*
X13596938Y4503475D01*
Y4503544D01*
X13597008Y4503614D01*
X13597215Y4504030D01*
X13597562Y4504654D01*
X13597978Y4505416D01*
X13598463Y4506249D01*
X13598949Y4507081D01*
X13599573Y4507913D01*
X13600127Y4508606D01*
X13600197Y4508676D01*
X13600266Y4508745D01*
X13600475Y4508953D01*
X13600751Y4509230D01*
X13601099Y4509577D01*
X13601514Y4509993D01*
X13602486Y4510894D01*
X13603732Y4511935D01*
X13605190Y4513113D01*
X13606853Y4514362D01*
X13608656Y4515610D01*
X13626060Y4526704D01*
Y4516095D01*
D02*
G37*
G36*
X13611777Y5187004D02*
X13627101D01*
Y5179168D01*
X13611777D01*
Y5151293D01*
X13604565D01*
X13563100Y5180555D01*
Y5187004D01*
X13604565D01*
Y5195672D01*
X13611777D01*
Y5187004D01*
D02*
G37*
G36*
X13627101Y5138395D02*
X13613788Y5129935D01*
X13613718Y5129866D01*
X13613510Y5129797D01*
X13613232Y5129589D01*
X13612817Y5129311D01*
X13612331Y5129034D01*
X13611777Y5128618D01*
X13610529Y5127786D01*
X13609071Y5126815D01*
X13607616Y5125844D01*
X13606229Y5124804D01*
X13604980Y5123833D01*
X13604912D01*
X13604842Y5123695D01*
X13604495Y5123417D01*
X13603941Y5123001D01*
X13603317Y5122377D01*
X13602625Y5121753D01*
X13601930Y5120990D01*
X13601237Y5120228D01*
X13600751Y5119534D01*
X13600682Y5119465D01*
X13600543Y5119187D01*
X13600336Y5118841D01*
X13600058Y5118355D01*
X13599780Y5117731D01*
X13599503Y5117107D01*
X13599226Y5116414D01*
X13599017Y5115651D01*
Y5115582D01*
X13598949Y5115374D01*
X13598878Y5115027D01*
X13598810Y5114541D01*
Y5113848D01*
X13598740Y5113016D01*
X13598671Y5112045D01*
Y5101158D01*
X13627101D01*
Y5092699D01*
X13563100D01*
Y5122446D01*
X13563168Y5123209D01*
Y5123972D01*
X13563237Y5124873D01*
X13563307Y5125914D01*
X13563515Y5127994D01*
X13563861Y5130143D01*
X13564278Y5132224D01*
X13564555Y5133125D01*
X13564832Y5134027D01*
Y5134096D01*
X13564902Y5134235D01*
X13565041Y5134443D01*
X13565179Y5134789D01*
X13565594Y5135621D01*
X13566219Y5136592D01*
X13567052Y5137771D01*
X13568161Y5138950D01*
X13569409Y5140129D01*
X13570934Y5141169D01*
X13571004D01*
X13571143Y5141307D01*
X13571350Y5141446D01*
X13571696Y5141585D01*
X13572113Y5141793D01*
X13572598Y5142001D01*
X13573154Y5142278D01*
X13573776Y5142556D01*
X13575233Y5143041D01*
X13576828Y5143457D01*
X13578632Y5143734D01*
X13580573Y5143873D01*
X13580643D01*
X13580850D01*
X13581265D01*
X13581682Y5143804D01*
X13582306Y5143734D01*
X13583000Y5143665D01*
X13583763Y5143526D01*
X13584595Y5143318D01*
X13586398Y5142764D01*
X13587367Y5142417D01*
X13588339Y5142001D01*
X13589310Y5141515D01*
X13590282Y5140891D01*
X13591182Y5140198D01*
X13592084Y5139435D01*
X13592152Y5139366D01*
X13592291Y5139227D01*
X13592500Y5138950D01*
X13592847Y5138603D01*
X13593193Y5138118D01*
X13593610Y5137563D01*
X13594093Y5136870D01*
X13594580Y5136037D01*
X13595065Y5135136D01*
X13595551Y5134165D01*
X13596036Y5133056D01*
X13596521Y5131808D01*
X13596938Y5130490D01*
X13597354Y5129034D01*
X13597701Y5127439D01*
X13597978Y5125775D01*
Y5125844D01*
X13598047Y5125914D01*
X13598254Y5126330D01*
X13598602Y5126954D01*
X13599017Y5127716D01*
X13599503Y5128549D01*
X13599989Y5129381D01*
X13600613Y5130213D01*
X13601167Y5130906D01*
X13601237Y5130976D01*
X13601306Y5131045D01*
X13601514Y5131253D01*
X13601791Y5131530D01*
X13602138Y5131877D01*
X13602554Y5132293D01*
X13603525Y5133194D01*
X13604773Y5134235D01*
X13606229Y5135413D01*
X13607893Y5136662D01*
X13609695Y5137910D01*
X13627101Y5149004D01*
Y5138395D01*
D02*
G37*
G36*
X4801102Y8009353D02*
X4801032Y8008591D01*
Y8007828D01*
X4800963Y8006926D01*
X4800894Y8005886D01*
X4800686Y8003806D01*
X4800339Y8001656D01*
X4799923Y7999576D01*
X4799645Y7998675D01*
X4799368Y7997773D01*
Y7997704D01*
X4799299Y7997565D01*
X4799160Y7997357D01*
X4799021Y7997010D01*
X4798605Y7996178D01*
X4797981Y7995208D01*
X4797149Y7994029D01*
X4796040Y7992850D01*
X4794792Y7991671D01*
X4793266Y7990631D01*
X4793197D01*
X4793058Y7990492D01*
X4792850Y7990354D01*
X4792503Y7990215D01*
X4792087Y7990007D01*
X4791602Y7989799D01*
X4791047Y7989521D01*
X4790423Y7989244D01*
X4788967Y7988759D01*
X4787372Y7988343D01*
X4785569Y7988065D01*
X4783627Y7987927D01*
X4783558D01*
X4783350D01*
X4782934D01*
X4782518Y7987996D01*
X4781894Y7988065D01*
X4781200Y7988135D01*
X4780438Y7988273D01*
X4779606Y7988481D01*
X4777803Y7989036D01*
X4776832Y7989383D01*
X4775861Y7989799D01*
X4774890Y7990284D01*
X4773920Y7990908D01*
X4773018Y7991602D01*
X4772117Y7992365D01*
X4772047Y7992434D01*
X4771909Y7992573D01*
X4771701Y7992850D01*
X4771354Y7993197D01*
X4771007Y7993682D01*
X4770591Y7994237D01*
X4770106Y7994930D01*
X4769620Y7995762D01*
X4769135Y7996664D01*
X4768650Y7997634D01*
X4768164Y7998744D01*
X4767679Y7999992D01*
X4767263Y8001310D01*
X4766847Y8002766D01*
X4766500Y8004361D01*
X4766223Y8006025D01*
Y8005956D01*
X4766153Y8005886D01*
X4765945Y8005470D01*
X4765599Y8004846D01*
X4765182Y8004083D01*
X4764697Y8003251D01*
X4764212Y8002419D01*
X4763588Y8001587D01*
X4763033Y8000894D01*
X4762964Y8000824D01*
X4762894Y8000755D01*
X4762686Y8000547D01*
X4762409Y8000269D01*
X4762062Y7999923D01*
X4761646Y7999507D01*
X4760675Y7998605D01*
X4759427Y7997565D01*
X4757971Y7996386D01*
X4756307Y7995138D01*
X4754504Y7993890D01*
X4737099Y7982795D01*
Y7993405D01*
X4750413Y8001864D01*
X4750482Y8001934D01*
X4750690Y8002003D01*
X4750967Y8002211D01*
X4751383Y8002488D01*
X4751869Y8002766D01*
X4752424Y8003182D01*
X4753672Y8004014D01*
X4755128Y8004985D01*
X4756584Y8005956D01*
X4757971Y8006996D01*
X4759219Y8007966D01*
X4759288D01*
X4759358Y8008105D01*
X4759704Y8008383D01*
X4760259Y8008799D01*
X4760883Y8009423D01*
X4761577Y8010047D01*
X4762270Y8010809D01*
X4762964Y8011572D01*
X4763449Y8012266D01*
X4763518Y8012335D01*
X4763657Y8012612D01*
X4763865Y8012959D01*
X4764142Y8013444D01*
X4764420Y8014069D01*
X4764697Y8014693D01*
X4764974Y8015386D01*
X4765182Y8016149D01*
Y8016218D01*
X4765252Y8016426D01*
X4765321Y8016773D01*
X4765391Y8017258D01*
Y8017952D01*
X4765460Y8018784D01*
X4765529Y8019755D01*
Y8030641D01*
X4737099D01*
Y8039101D01*
X4801102D01*
Y8009353D01*
D02*
G37*
G36*
X4738833Y7978843D02*
X4739665Y7978773D01*
X4740566Y7978565D01*
X4741537Y7978357D01*
X4742508Y7978011D01*
X4742577D01*
X4742716Y7977941D01*
X4742924Y7977872D01*
X4743270Y7977733D01*
X4743617Y7977525D01*
X4744103Y7977317D01*
X4745212Y7976763D01*
X4746529Y7976069D01*
X4747986Y7975168D01*
X4749511Y7974128D01*
X4751037Y7972879D01*
X4751106Y7972810D01*
X4751245Y7972741D01*
X4751453Y7972533D01*
X4751799Y7972186D01*
X4752146Y7971839D01*
X4752632Y7971354D01*
X4753186Y7970868D01*
X4753810Y7970244D01*
X4754504Y7969551D01*
X4755197Y7968788D01*
X4756029Y7967956D01*
X4756861Y7966985D01*
X4757763Y7966015D01*
X4758664Y7964905D01*
X4759635Y7963796D01*
X4760675Y7962547D01*
X4760745Y7962409D01*
X4761091Y7962062D01*
X4761507Y7961577D01*
X4762131Y7960883D01*
X4762825Y7960051D01*
X4763657Y7959080D01*
X4764558Y7957971D01*
X4765599Y7956861D01*
X4767748Y7954504D01*
X4770036Y7952215D01*
X4771146Y7951106D01*
X4772255Y7950066D01*
X4773296Y7949164D01*
X4774266Y7948402D01*
X4774336Y7948332D01*
X4774474Y7948263D01*
X4774752Y7948055D01*
X4775098Y7947847D01*
X4775584Y7947500D01*
X4776069Y7947223D01*
X4777317Y7946529D01*
X4778774Y7945836D01*
X4780368Y7945212D01*
X4782033Y7944796D01*
X4782865Y7944727D01*
X4783697Y7944657D01*
X4783766D01*
X4783905D01*
X4784182D01*
X4784460Y7944727D01*
X4784876D01*
X4785361Y7944865D01*
X4786401Y7945073D01*
X4787649Y7945489D01*
X4788967Y7946113D01*
X4789660Y7946460D01*
X4790284Y7946945D01*
X4790908Y7947431D01*
X4791532Y7948055D01*
X4791602Y7948124D01*
X4791671Y7948194D01*
X4791810Y7948402D01*
X4792018Y7948679D01*
X4792295Y7949026D01*
X4792573Y7949442D01*
X4793197Y7950413D01*
X4793751Y7951730D01*
X4794306Y7953186D01*
X4794653Y7954920D01*
X4794792Y7955891D01*
Y7957416D01*
X4794722Y7957832D01*
Y7958318D01*
X4794584Y7958872D01*
X4794375Y7960120D01*
X4793959Y7961577D01*
X4793335Y7963102D01*
X4792919Y7963865D01*
X4792503Y7964628D01*
X4791949Y7965321D01*
X4791324Y7966015D01*
X4791255Y7966084D01*
X4791186Y7966153D01*
X4790978Y7966292D01*
X4790700Y7966569D01*
X4790354Y7966777D01*
X4789938Y7967055D01*
X4789452Y7967401D01*
X4788897Y7967679D01*
X4788273Y7968025D01*
X4787580Y7968303D01*
X4785916Y7968858D01*
X4784113Y7969274D01*
X4783073Y7969343D01*
X4781963Y7969412D01*
X4782795Y7977456D01*
X4782934D01*
X4783211Y7977387D01*
X4783627Y7977317D01*
X4784252Y7977248D01*
X4785014Y7977109D01*
X4785916Y7976901D01*
X4786887Y7976693D01*
X4787927Y7976347D01*
X4788967Y7976000D01*
X4790146Y7975584D01*
X4791255Y7975029D01*
X4792365Y7974474D01*
X4793543Y7973781D01*
X4794584Y7973018D01*
X4795624Y7972186D01*
X4796525Y7971215D01*
X4796594Y7971146D01*
X4796733Y7970938D01*
X4796941Y7970660D01*
X4797288Y7970244D01*
X4797635Y7969690D01*
X4798051Y7968996D01*
X4798467Y7968233D01*
X4798952Y7967332D01*
X4799368Y7966361D01*
X4799784Y7965252D01*
X4800200Y7964073D01*
X4800547Y7962755D01*
X4800894Y7961369D01*
X4801102Y7959912D01*
X4801240Y7958318D01*
X4801310Y7956653D01*
Y7955752D01*
X4801240Y7955128D01*
X4801171Y7954365D01*
X4801032Y7953464D01*
X4800894Y7952424D01*
X4800686Y7951383D01*
X4800408Y7950205D01*
X4800062Y7949026D01*
X4799645Y7947778D01*
X4799160Y7946599D01*
X4798536Y7945351D01*
X4797843Y7944172D01*
X4797080Y7943062D01*
X4796178Y7942022D01*
X4796109Y7941953D01*
X4795970Y7941814D01*
X4795624Y7941537D01*
X4795277Y7941190D01*
X4794792Y7940774D01*
X4794167Y7940289D01*
X4793474Y7939803D01*
X4792642Y7939318D01*
X4791810Y7938832D01*
X4790839Y7938347D01*
X4789799Y7937862D01*
X4788689Y7937446D01*
X4787441Y7937099D01*
X4786193Y7936822D01*
X4784876Y7936683D01*
X4783489Y7936614D01*
X4783419D01*
X4783350D01*
X4783142D01*
X4782865D01*
X4782102Y7936683D01*
X4781131Y7936822D01*
X4779952Y7937030D01*
X4778704Y7937307D01*
X4777317Y7937654D01*
X4775931Y7938208D01*
X4775861D01*
X4775792Y7938278D01*
X4775584Y7938347D01*
X4775306Y7938486D01*
X4774544Y7938902D01*
X4773573Y7939457D01*
X4772394Y7940219D01*
X4771077Y7941121D01*
X4769690Y7942161D01*
X4768164Y7943478D01*
X4768095Y7943548D01*
X4767956Y7943617D01*
X4767748Y7943894D01*
X4767401Y7944172D01*
X4766985Y7944588D01*
X4766500Y7945073D01*
X4765876Y7945628D01*
X4765252Y7946321D01*
X4764489Y7947154D01*
X4763657Y7948055D01*
X4762686Y7949026D01*
X4761715Y7950135D01*
X4760606Y7951314D01*
X4759496Y7952632D01*
X4758248Y7954088D01*
X4756931Y7955613D01*
X4756861Y7955683D01*
X4756653Y7955891D01*
X4756376Y7956307D01*
X4755960Y7956723D01*
X4755475Y7957347D01*
X4754920Y7957971D01*
X4753672Y7959427D01*
X4752354Y7960953D01*
X4750967Y7962409D01*
X4750343Y7963102D01*
X4749789Y7963726D01*
X4749234Y7964281D01*
X4748818Y7964697D01*
X4748748Y7964766D01*
X4748471Y7965044D01*
X4748055Y7965390D01*
X4747500Y7965876D01*
X4746876Y7966431D01*
X4746183Y7966985D01*
X4744657Y7968095D01*
Y7936544D01*
X4737099D01*
Y7978912D01*
X4737238D01*
X4737584D01*
X4738139D01*
X4738833Y7978843D01*
D02*
G37*
G36*
X5049811Y6401440D02*
X5050573Y6401371D01*
X5051475Y6401232D01*
X5052515Y6401093D01*
X5053555Y6400885D01*
X5054734Y6400608D01*
X5055913Y6400261D01*
X5057161Y6399845D01*
X5058340Y6399360D01*
X5059588Y6398736D01*
X5060767Y6398042D01*
X5061876Y6397280D01*
X5062916Y6396378D01*
X5062986Y6396309D01*
X5063124Y6396170D01*
X5063402Y6395823D01*
X5063748Y6395477D01*
X5064164Y6394991D01*
X5064650Y6394367D01*
X5065135Y6393674D01*
X5065621Y6392842D01*
X5066106Y6392010D01*
X5066591Y6391039D01*
X5067077Y6389999D01*
X5067493Y6388889D01*
X5067839Y6387641D01*
X5068117Y6386393D01*
X5068256Y6385075D01*
X5068325Y6383689D01*
Y6383619D01*
Y6383550D01*
Y6383342D01*
Y6383064D01*
X5068256Y6382302D01*
X5068117Y6381331D01*
X5067909Y6380152D01*
X5067631Y6378904D01*
X5067285Y6377517D01*
X5066730Y6376130D01*
Y6376061D01*
X5066661Y6375992D01*
X5066591Y6375784D01*
X5066453Y6375506D01*
X5066037Y6374743D01*
X5065482Y6373773D01*
X5064719Y6372594D01*
X5063818Y6371276D01*
X5062778Y6369889D01*
X5061460Y6368364D01*
X5061391Y6368295D01*
X5061321Y6368156D01*
X5061044Y6367948D01*
X5060767Y6367601D01*
X5060351Y6367185D01*
X5059865Y6366700D01*
X5059310Y6366076D01*
X5058617Y6365452D01*
X5057785Y6364689D01*
X5056883Y6363857D01*
X5055913Y6362886D01*
X5054803Y6361915D01*
X5053624Y6360806D01*
X5052307Y6359696D01*
X5050851Y6358448D01*
X5049325Y6357131D01*
X5049256Y6357061D01*
X5049048Y6356853D01*
X5048632Y6356576D01*
X5048216Y6356160D01*
X5047592Y6355674D01*
X5046968Y6355120D01*
X5045511Y6353871D01*
X5043986Y6352554D01*
X5042530Y6351167D01*
X5041836Y6350543D01*
X5041212Y6349988D01*
X5040657Y6349434D01*
X5040241Y6349018D01*
X5040172Y6348948D01*
X5039895Y6348671D01*
X5039548Y6348255D01*
X5039063Y6347700D01*
X5038508Y6347076D01*
X5037953Y6346383D01*
X5036844Y6344857D01*
X5068394D01*
Y6337299D01*
X5026026D01*
Y6337437D01*
Y6337784D01*
Y6338339D01*
X5026096Y6339032D01*
X5026165Y6339864D01*
X5026373Y6340766D01*
X5026581Y6341737D01*
X5026928Y6342707D01*
Y6342777D01*
X5026997Y6342915D01*
X5027066Y6343123D01*
X5027205Y6343470D01*
X5027413Y6343817D01*
X5027621Y6344302D01*
X5028176Y6345412D01*
X5028869Y6346729D01*
X5029771Y6348185D01*
X5030811Y6349711D01*
X5032059Y6351236D01*
X5032128Y6351306D01*
X5032198Y6351444D01*
X5032406Y6351653D01*
X5032752Y6351999D01*
X5033099Y6352346D01*
X5033585Y6352831D01*
X5034070Y6353386D01*
X5034694Y6354010D01*
X5035387Y6354704D01*
X5036150Y6355397D01*
X5036982Y6356229D01*
X5037953Y6357061D01*
X5038924Y6357963D01*
X5040033Y6358864D01*
X5041143Y6359835D01*
X5042391Y6360875D01*
X5042530Y6360944D01*
X5042876Y6361291D01*
X5043362Y6361707D01*
X5044055Y6362331D01*
X5044887Y6363025D01*
X5045858Y6363857D01*
X5046968Y6364758D01*
X5048077Y6365798D01*
X5050435Y6367948D01*
X5052723Y6370236D01*
X5053832Y6371346D01*
X5054873Y6372455D01*
X5055774Y6373495D01*
X5056537Y6374466D01*
X5056606Y6374535D01*
X5056675Y6374674D01*
X5056883Y6374951D01*
X5057091Y6375298D01*
X5057438Y6375784D01*
X5057716Y6376269D01*
X5058409Y6377517D01*
X5059102Y6378973D01*
X5059726Y6380568D01*
X5060143Y6382232D01*
X5060212Y6383064D01*
X5060281Y6383897D01*
Y6383966D01*
Y6384105D01*
Y6384382D01*
X5060212Y6384659D01*
Y6385075D01*
X5060073Y6385561D01*
X5059865Y6386601D01*
X5059449Y6387849D01*
X5058825Y6389167D01*
X5058478Y6389860D01*
X5057993Y6390484D01*
X5057508Y6391108D01*
X5056883Y6391732D01*
X5056814Y6391802D01*
X5056745Y6391871D01*
X5056537Y6392010D01*
X5056259Y6392218D01*
X5055913Y6392495D01*
X5055497Y6392772D01*
X5054526Y6393396D01*
X5053208Y6393951D01*
X5051752Y6394506D01*
X5050019Y6394853D01*
X5049048Y6394991D01*
X5047522D01*
X5047106Y6394922D01*
X5046621D01*
X5046066Y6394783D01*
X5044818Y6394575D01*
X5043362Y6394159D01*
X5041836Y6393535D01*
X5041073Y6393119D01*
X5040311Y6392703D01*
X5039617Y6392148D01*
X5038924Y6391524D01*
X5038855Y6391455D01*
X5038785Y6391385D01*
X5038647Y6391177D01*
X5038369Y6390900D01*
X5038161Y6390553D01*
X5037884Y6390137D01*
X5037537Y6389652D01*
X5037260Y6389097D01*
X5036913Y6388473D01*
X5036636Y6387780D01*
X5036081Y6386115D01*
X5035665Y6384313D01*
X5035595Y6383272D01*
X5035526Y6382163D01*
X5027482Y6382995D01*
Y6383134D01*
X5027552Y6383411D01*
X5027621Y6383827D01*
X5027690Y6384451D01*
X5027829Y6385214D01*
X5028037Y6386115D01*
X5028245Y6387086D01*
X5028592Y6388126D01*
X5028939Y6389167D01*
X5029355Y6390345D01*
X5029909Y6391455D01*
X5030464Y6392564D01*
X5031158Y6393743D01*
X5031920Y6394783D01*
X5032752Y6395823D01*
X5033723Y6396725D01*
X5033793Y6396794D01*
X5034001Y6396933D01*
X5034278Y6397141D01*
X5034694Y6397488D01*
X5035249Y6397834D01*
X5035942Y6398250D01*
X5036705Y6398666D01*
X5037606Y6399152D01*
X5038577Y6399568D01*
X5039687Y6399984D01*
X5040865Y6400400D01*
X5042183Y6400747D01*
X5043570Y6401093D01*
X5045026Y6401301D01*
X5046621Y6401440D01*
X5048285Y6401509D01*
X5049186D01*
X5049811Y6401440D01*
D02*
G37*
G36*
X4990246Y6401232D02*
X4991078D01*
X4991910Y6401163D01*
X4993782Y6401093D01*
X4995654Y6400885D01*
X4997527Y6400677D01*
X4998359Y6400469D01*
X4999122Y6400331D01*
X4999191D01*
X4999399Y6400261D01*
X4999676Y6400192D01*
X5000023Y6400053D01*
X5000508Y6399915D01*
X5001063Y6399776D01*
X5002381Y6399290D01*
X5003837Y6398666D01*
X5005362Y6397904D01*
X5006957Y6396933D01*
X5008483Y6395754D01*
X5008552Y6395685D01*
X5008691Y6395546D01*
X5008968Y6395338D01*
X5009315Y6394991D01*
X5009731Y6394575D01*
X5010216Y6394020D01*
X5010771Y6393466D01*
X5011326Y6392772D01*
X5011950Y6392010D01*
X5012574Y6391177D01*
X5013198Y6390276D01*
X5013822Y6389305D01*
X5015001Y6387156D01*
X5016041Y6384798D01*
Y6384729D01*
X5016180Y6384521D01*
X5016249Y6384105D01*
X5016457Y6383619D01*
X5016665Y6382995D01*
X5016873Y6382232D01*
X5017081Y6381400D01*
X5017359Y6380429D01*
X5017567Y6379320D01*
X5017775Y6378141D01*
X5017983Y6376893D01*
X5018191Y6375576D01*
X5018399Y6374189D01*
X5018468Y6372732D01*
X5018607Y6369612D01*
Y6369543D01*
Y6369265D01*
Y6368919D01*
Y6368364D01*
X5018537Y6367740D01*
Y6366977D01*
X5018468Y6366145D01*
X5018399Y6365244D01*
X5018191Y6363233D01*
X5017844Y6361083D01*
X5017428Y6358864D01*
X5016873Y6356645D01*
Y6356576D01*
X5016804Y6356368D01*
X5016665Y6356090D01*
X5016596Y6355744D01*
X5016388Y6355258D01*
X5016180Y6354704D01*
X5015694Y6353386D01*
X5015070Y6351930D01*
X5014307Y6350335D01*
X5013475Y6348810D01*
X5012505Y6347353D01*
Y6347284D01*
X5012366Y6347215D01*
X5012227Y6347007D01*
X5012019Y6346729D01*
X5011534Y6346105D01*
X5010771Y6345273D01*
X5009939Y6344302D01*
X5008968Y6343331D01*
X5007859Y6342430D01*
X5006680Y6341529D01*
X5006611D01*
X5006541Y6341459D01*
X5006125Y6341182D01*
X5005432Y6340835D01*
X5004530Y6340350D01*
X5003421Y6339864D01*
X5002103Y6339310D01*
X5000578Y6338824D01*
X4998983Y6338339D01*
X4998914D01*
X4998775Y6338270D01*
X4998567D01*
X4998220Y6338200D01*
X4997804Y6338131D01*
X4997249Y6337992D01*
X4996695Y6337923D01*
X4996071Y6337853D01*
X4994545Y6337645D01*
X4992811Y6337437D01*
X4990870Y6337368D01*
X4988790Y6337299D01*
X4965699D01*
Y6401301D01*
X4989552D01*
X4990246Y6401232D01*
D02*
G37*
%LPC*%
G36*
X9696869Y4569081D02*
X9696800D01*
X9696592D01*
X9696245D01*
X9695760Y4569012D01*
X9695205Y4568943D01*
X9694511Y4568873D01*
X9693818Y4568804D01*
X9692986Y4568665D01*
X9691322Y4568180D01*
X9689519Y4567556D01*
X9688617Y4567140D01*
X9687785Y4566654D01*
X9686953Y4566100D01*
X9686190Y4565476D01*
X9686121Y4565406D01*
X9685982Y4565337D01*
X9685844Y4565129D01*
X9685566Y4564851D01*
X9685289Y4564505D01*
X9684942Y4564089D01*
X9684180Y4563049D01*
X9683417Y4561800D01*
X9682793Y4560275D01*
X9682515Y4559512D01*
X9682307Y4558611D01*
X9682238Y4557709D01*
X9682169Y4556808D01*
Y4556322D01*
X9682238Y4555906D01*
X9682307Y4555490D01*
X9682377Y4554936D01*
X9682723Y4553687D01*
X9683209Y4552231D01*
X9683555Y4551468D01*
X9683971Y4550706D01*
X9684457Y4549943D01*
X9685081Y4549180D01*
X9685705Y4548417D01*
X9686468Y4547655D01*
X9686537Y4547585D01*
X9686676Y4547516D01*
X9686884Y4547308D01*
X9687231Y4547031D01*
X9687647Y4546753D01*
X9688201Y4546476D01*
X9688756Y4546129D01*
X9689450Y4545782D01*
X9690212Y4545366D01*
X9691044Y4545020D01*
X9691946Y4544742D01*
X9692986Y4544465D01*
X9695136Y4543979D01*
X9696314Y4543910D01*
X9697563Y4543841D01*
X9697632D01*
X9697840D01*
X9698117D01*
X9698603Y4543910D01*
X9699088Y4543979D01*
X9699712Y4544049D01*
X9701099Y4544326D01*
X9702694Y4544742D01*
X9704289Y4545366D01*
X9705121Y4545782D01*
X9705953Y4546268D01*
X9706716Y4546823D01*
X9707478Y4547447D01*
X9707548Y4547516D01*
X9707617Y4547585D01*
X9707825Y4547793D01*
X9708033Y4548140D01*
X9708311Y4548487D01*
X9708657Y4548903D01*
X9709004Y4549388D01*
X9709351Y4549943D01*
X9710044Y4551330D01*
X9710668Y4552855D01*
X9711084Y4554658D01*
X9711154Y4555629D01*
X9711223Y4556600D01*
Y4557154D01*
X9711154Y4557501D01*
X9711084Y4557987D01*
X9711015Y4558472D01*
X9710738Y4559720D01*
X9710321Y4561176D01*
X9709628Y4562632D01*
X9709212Y4563395D01*
X9708727Y4564158D01*
X9708103Y4564851D01*
X9707478Y4565545D01*
X9707409Y4565614D01*
X9707270Y4565684D01*
X9707062Y4565892D01*
X9706785Y4566100D01*
X9706369Y4566377D01*
X9705884Y4566654D01*
X9705329Y4567001D01*
X9704705Y4567348D01*
X9704011Y4567625D01*
X9703179Y4567972D01*
X9702347Y4568249D01*
X9701376Y4568527D01*
X9700336Y4568735D01*
X9699296Y4568943D01*
X9698117Y4569012D01*
X9696869Y4569081D01*
D02*
G37*
G36*
X9693333Y4516936D02*
X9693263D01*
X9693125D01*
X9692917D01*
X9692570Y4516867D01*
X9692223D01*
X9691738Y4516797D01*
X9690698Y4516520D01*
X9689519Y4516104D01*
X9688271Y4515549D01*
X9687092Y4514717D01*
X9686468Y4514162D01*
X9685913Y4513608D01*
X9685844Y4513538D01*
X9685774Y4513469D01*
X9685636Y4513261D01*
X9685428Y4512984D01*
X9685220Y4512637D01*
X9684942Y4512152D01*
X9684665Y4511666D01*
X9684388Y4511042D01*
X9684110Y4510349D01*
X9683902Y4509586D01*
X9683625Y4508754D01*
X9683417Y4507852D01*
X9683209Y4506812D01*
X9683070Y4505703D01*
X9682931Y4504524D01*
Y4482959D01*
X9704081D01*
Y4502097D01*
X9704011Y4502582D01*
Y4503137D01*
X9703942Y4504455D01*
X9703803Y4505911D01*
X9703595Y4507436D01*
X9703318Y4508892D01*
X9702902Y4510210D01*
Y4510279D01*
X9702833Y4510349D01*
X9702694Y4510765D01*
X9702416Y4511319D01*
X9702000Y4512082D01*
X9701446Y4512845D01*
X9700822Y4513677D01*
X9699989Y4514509D01*
X9699088Y4515203D01*
X9698949Y4515272D01*
X9698603Y4515480D01*
X9698117Y4515757D01*
X9697354Y4516104D01*
X9696522Y4516381D01*
X9695552Y4516659D01*
X9694442Y4516867D01*
X9693333Y4516936D01*
D02*
G37*
G36*
X10103669Y4665142D02*
X10082519D01*
Y4646003D01*
X10082589Y4645518D01*
Y4644963D01*
X10082658Y4643646D01*
X10082797Y4642189D01*
X10083005Y4640664D01*
X10083282Y4639208D01*
X10083698Y4637890D01*
Y4637821D01*
X10083767Y4637751D01*
X10083906Y4637335D01*
X10084184Y4636781D01*
X10084600Y4636018D01*
X10085154Y4635255D01*
X10085778Y4634423D01*
X10086611Y4633591D01*
X10087512Y4632898D01*
X10087651Y4632828D01*
X10087997Y4632620D01*
X10088483Y4632343D01*
X10089246Y4631996D01*
X10090078Y4631719D01*
X10091048Y4631441D01*
X10092158Y4631233D01*
X10093267Y4631164D01*
X10093337D01*
X10093475D01*
X10093683D01*
X10094030Y4631233D01*
X10094377D01*
X10094862Y4631303D01*
X10095902Y4631580D01*
X10097081Y4631996D01*
X10098329Y4632551D01*
X10099508Y4633383D01*
X10100132Y4633938D01*
X10100687Y4634492D01*
X10100756Y4634562D01*
X10100826Y4634631D01*
X10100964Y4634839D01*
X10101172Y4635116D01*
X10101380Y4635463D01*
X10101658Y4635949D01*
X10101935Y4636434D01*
X10102212Y4637058D01*
X10102490Y4637751D01*
X10102698Y4638514D01*
X10102975Y4639346D01*
X10103183Y4640248D01*
X10103391Y4641288D01*
X10103530Y4642397D01*
X10103669Y4643576D01*
Y4665142D01*
D02*
G37*
G36*
X10094724Y4601832D02*
X10094654D01*
X10094515D01*
X10094307D01*
X10093961Y4601763D01*
X10093545D01*
X10093129Y4601694D01*
X10092089Y4601486D01*
X10090910Y4601139D01*
X10089662Y4600653D01*
X10088413Y4599960D01*
X10087304Y4598989D01*
X10087165Y4598851D01*
X10086888Y4598435D01*
X10086402Y4597810D01*
X10085917Y4596909D01*
X10085362Y4595869D01*
X10084877Y4594551D01*
X10084600Y4593026D01*
X10084461Y4591362D01*
Y4590946D01*
X10084530Y4590599D01*
Y4590183D01*
X10084600Y4589767D01*
X10084808Y4588727D01*
X10085154Y4587548D01*
X10085640Y4586300D01*
X10086333Y4585052D01*
X10087304Y4583873D01*
X10087443Y4583734D01*
X10087789Y4583387D01*
X10088413Y4582971D01*
X10089246Y4582417D01*
X10090216Y4581862D01*
X10091464Y4581446D01*
X10092782Y4581099D01*
X10094238Y4580960D01*
X10094307D01*
X10094446D01*
X10094654D01*
X10095001Y4581030D01*
X10095764Y4581099D01*
X10096804Y4581307D01*
X10097913Y4581654D01*
X10099161Y4582209D01*
X10100340Y4582971D01*
X10100964Y4583387D01*
X10101519Y4583942D01*
X10101588D01*
X10101658Y4584081D01*
X10102004Y4584497D01*
X10102490Y4585121D01*
X10103045Y4586022D01*
X10103530Y4587062D01*
X10104015Y4588380D01*
X10104362Y4589836D01*
X10104501Y4590599D01*
Y4591847D01*
X10104431Y4592194D01*
Y4592540D01*
X10104362Y4593026D01*
X10104154Y4594066D01*
X10103807Y4595245D01*
X10103253Y4596493D01*
X10102559Y4597741D01*
X10101588Y4598920D01*
X10101450Y4599059D01*
X10101103Y4599405D01*
X10100479Y4599821D01*
X10099647Y4600376D01*
X10098676Y4600931D01*
X10097497Y4601347D01*
X10096180Y4601694D01*
X10094724Y4601832D01*
D02*
G37*
G36*
X10065184Y4604398D02*
X10065114D01*
X10065045D01*
X10064629D01*
X10063936Y4604329D01*
X10063104Y4604190D01*
X10062133Y4604051D01*
X10061023Y4603774D01*
X10059844Y4603358D01*
X10058666Y4602872D01*
X10058527Y4602803D01*
X10058180Y4602595D01*
X10057556Y4602179D01*
X10056863Y4601694D01*
X10056100Y4601000D01*
X10055337Y4600237D01*
X10054505Y4599267D01*
X10053812Y4598157D01*
Y4598088D01*
X10053742Y4598018D01*
X10053534Y4597602D01*
X10053257Y4596978D01*
X10052980Y4596077D01*
X10052702Y4595106D01*
X10052425Y4593927D01*
X10052217Y4592679D01*
X10052148Y4591362D01*
Y4590807D01*
X10052217Y4590391D01*
X10052286Y4589905D01*
X10052356Y4589351D01*
X10052633Y4588033D01*
X10053049Y4586577D01*
X10053673Y4584982D01*
X10054089Y4584219D01*
X10054575Y4583457D01*
X10055129Y4582694D01*
X10055753Y4582000D01*
X10055823Y4581931D01*
X10055892Y4581862D01*
X10056100Y4581654D01*
X10056377Y4581446D01*
X10056793Y4581168D01*
X10057210Y4580822D01*
X10057695Y4580475D01*
X10058250Y4580128D01*
X10059567Y4579504D01*
X10061162Y4578880D01*
X10062896Y4578464D01*
X10063866Y4578395D01*
X10064906Y4578325D01*
X10064976D01*
X10065184D01*
X10065461D01*
X10065877Y4578395D01*
X10066363Y4578464D01*
X10066917Y4578533D01*
X10068235Y4578811D01*
X10069691Y4579227D01*
X10071286Y4579920D01*
X10072049Y4580336D01*
X10072811Y4580891D01*
X10073574Y4581446D01*
X10074268Y4582139D01*
X10074337Y4582209D01*
X10074406Y4582278D01*
X10074614Y4582486D01*
X10074822Y4582833D01*
X10075169Y4583179D01*
X10075446Y4583595D01*
X10075793Y4584150D01*
X10076140Y4584705D01*
X10076833Y4586092D01*
X10077457Y4587687D01*
X10077873Y4589559D01*
X10077943Y4590530D01*
X10078012Y4591570D01*
Y4592124D01*
X10077943Y4592471D01*
X10077873Y4592957D01*
X10077804Y4593511D01*
X10077527Y4594829D01*
X10077111Y4596285D01*
X10076487Y4597810D01*
X10076071Y4598573D01*
X10075585Y4599336D01*
X10074961Y4600099D01*
X10074337Y4600792D01*
X10074268Y4600862D01*
X10074198Y4600931D01*
X10073990Y4601139D01*
X10073713Y4601347D01*
X10073297Y4601624D01*
X10072881Y4601902D01*
X10072395Y4602248D01*
X10071841Y4602595D01*
X10070523Y4603288D01*
X10068928Y4603843D01*
X10067125Y4604259D01*
X10066224Y4604329D01*
X10065184Y4604398D01*
D02*
G37*
G36*
X10318528Y4665141D02*
X10297379D01*
Y4646003D01*
X10297448Y4645518D01*
Y4644963D01*
X10297518Y4643645D01*
X10297656Y4642189D01*
X10297864Y4640664D01*
X10298142Y4639207D01*
X10298558Y4637890D01*
Y4637821D01*
X10298627Y4637751D01*
X10298766Y4637335D01*
X10299043Y4636780D01*
X10299459Y4636018D01*
X10300014Y4635255D01*
X10300638Y4634423D01*
X10301470Y4633591D01*
X10302372Y4632897D01*
X10302510Y4632828D01*
X10302857Y4632620D01*
X10303342Y4632343D01*
X10304105Y4631996D01*
X10304937Y4631718D01*
X10305908Y4631441D01*
X10307017Y4631233D01*
X10308127Y4631164D01*
X10308196D01*
X10308335D01*
X10308543D01*
X10308890Y4631233D01*
X10309236D01*
X10309722Y4631302D01*
X10310762Y4631580D01*
X10311941Y4631996D01*
X10313189Y4632551D01*
X10314368Y4633383D01*
X10314992Y4633937D01*
X10315547Y4634492D01*
X10315616Y4634561D01*
X10315685Y4634631D01*
X10315824Y4634839D01*
X10316032Y4635116D01*
X10316240Y4635463D01*
X10316517Y4635948D01*
X10316795Y4636434D01*
X10317072Y4637058D01*
X10317349Y4637751D01*
X10317557Y4638514D01*
X10317835Y4639346D01*
X10318043Y4640248D01*
X10318251Y4641288D01*
X10318390Y4642397D01*
X10318528Y4643576D01*
Y4665141D01*
D02*
G37*
G36*
X10611669Y4478742D02*
X10590519D01*
Y4459603D01*
X10590589Y4459118D01*
Y4458563D01*
X10590658Y4457246D01*
X10590797Y4455789D01*
X10591005Y4454264D01*
X10591282Y4452808D01*
X10591698Y4451490D01*
Y4451421D01*
X10591767Y4451352D01*
X10591906Y4450935D01*
X10592184Y4450381D01*
X10592600Y4449618D01*
X10593154Y4448855D01*
X10593778Y4448023D01*
X10594611Y4447191D01*
X10595512Y4446498D01*
X10595651Y4446428D01*
X10595997Y4446220D01*
X10596483Y4445943D01*
X10597246Y4445596D01*
X10598078Y4445319D01*
X10599048Y4445041D01*
X10600158Y4444833D01*
X10601267Y4444764D01*
X10601337D01*
X10601475D01*
X10601683D01*
X10602030Y4444833D01*
X10602377D01*
X10602862Y4444903D01*
X10603902Y4445180D01*
X10605081Y4445596D01*
X10606329Y4446151D01*
X10607508Y4446983D01*
X10608132Y4447538D01*
X10608687Y4448092D01*
X10608756Y4448162D01*
X10608826Y4448231D01*
X10608964Y4448439D01*
X10609172Y4448717D01*
X10609380Y4449063D01*
X10609658Y4449549D01*
X10609935Y4450034D01*
X10610212Y4450658D01*
X10610490Y4451352D01*
X10610698Y4452114D01*
X10610975Y4452946D01*
X10611183Y4453848D01*
X10611391Y4454888D01*
X10611530Y4455997D01*
X10611669Y4457176D01*
Y4478742D01*
D02*
G37*
G36*
X10587815Y4418483D02*
X10587746D01*
X10587818Y4418481D01*
X10587815Y4418483D01*
D02*
G37*
G36*
X10575472Y4417305D02*
X10575403D01*
X10575264D01*
X10575056D01*
X10574779D01*
X10574432Y4417235D01*
X10574016D01*
X10572976Y4417097D01*
X10571797Y4416889D01*
X10570479Y4416611D01*
X10569093Y4416195D01*
X10567706Y4415640D01*
X10567636D01*
X10567567Y4415571D01*
X10567359Y4415432D01*
X10567082Y4415294D01*
X10566458Y4414947D01*
X10565626Y4414392D01*
X10564724Y4413699D01*
X10563823Y4412867D01*
X10562921Y4411965D01*
X10562089Y4410856D01*
Y4410786D01*
X10562020Y4410717D01*
X10561812Y4410301D01*
X10561465Y4409677D01*
X10561118Y4408845D01*
X10560772Y4407874D01*
X10560425Y4406765D01*
X10560217Y4405516D01*
X10560148Y4404268D01*
Y4403783D01*
X10560217Y4403436D01*
X10560286Y4402951D01*
X10560356Y4402465D01*
X10560633Y4401287D01*
X10561118Y4399969D01*
X10561465Y4399206D01*
X10561812Y4398513D01*
X10562297Y4397750D01*
X10562783Y4397057D01*
X10563407Y4396363D01*
X10564100Y4395670D01*
X10564169Y4395601D01*
X10564308Y4395531D01*
X10564516Y4395323D01*
X10564863Y4395115D01*
X10565279Y4394838D01*
X10565764Y4394560D01*
X10566319Y4394214D01*
X10567012Y4393867D01*
X10567706Y4393520D01*
X10568538Y4393174D01*
X10569439Y4392896D01*
X10570410Y4392619D01*
X10571450Y4392411D01*
X10572629Y4392203D01*
X10573808Y4392133D01*
X10575056Y4392064D01*
X10575125D01*
X10575333D01*
X10575680D01*
X10576166Y4392133D01*
X10576720Y4392203D01*
X10577344Y4392272D01*
X10578038Y4392341D01*
X10578801Y4392480D01*
X10580465Y4392896D01*
X10582198Y4393520D01*
X10583100Y4393936D01*
X10583932Y4394422D01*
X10584695Y4394976D01*
X10585457Y4395601D01*
X10585527Y4395670D01*
X10585596Y4395739D01*
X10585804Y4395947D01*
X10586081Y4396225D01*
X10586359Y4396571D01*
X10586706Y4396987D01*
X10587399Y4398028D01*
X10588092Y4399345D01*
X10588716Y4400871D01*
X10589202Y4402604D01*
X10589271Y4403575D01*
X10589341Y4404546D01*
Y4405031D01*
X10589271Y4405447D01*
X10589202Y4405863D01*
X10589132Y4406418D01*
X10588855Y4407666D01*
X10588370Y4409122D01*
X10587676Y4410648D01*
X10587260Y4411411D01*
X10586775Y4412173D01*
X10586151Y4412936D01*
X10585457Y4413629D01*
X10585388Y4413699D01*
X10585249Y4413768D01*
X10585041Y4413976D01*
X10584764Y4414184D01*
X10584417Y4414462D01*
X10583932Y4414808D01*
X10583377Y4415155D01*
X10582753Y4415432D01*
X10582129Y4415779D01*
X10581366Y4416126D01*
X10579633Y4416750D01*
X10577691Y4417166D01*
X10576582Y4417235D01*
X10575472Y4417305D01*
D02*
G37*
G36*
X13579533Y4512836D02*
X13579463D01*
X13579324D01*
X13579117D01*
X13578770Y4512767D01*
X13578423D01*
X13577937Y4512697D01*
X13576898Y4512420D01*
X13575719Y4512004D01*
X13574471Y4511449D01*
X13573293Y4510617D01*
X13572668Y4510062D01*
X13572113Y4509508D01*
X13572044Y4509438D01*
X13571974Y4509369D01*
X13571835Y4509161D01*
X13571628Y4508884D01*
X13571420Y4508537D01*
X13571143Y4508051D01*
X13570865Y4507566D01*
X13570589Y4506942D01*
X13570309Y4506249D01*
X13570102Y4505486D01*
X13569826Y4504654D01*
X13569617Y4503752D01*
X13569409Y4502712D01*
X13569270Y4501603D01*
X13569131Y4500424D01*
Y4478858D01*
X13590282D01*
Y4497997D01*
X13590211Y4498482D01*
Y4499037D01*
X13590141Y4500354D01*
X13590002Y4501811D01*
X13589795Y4503336D01*
X13589519Y4504792D01*
X13589102Y4506110D01*
Y4506179D01*
X13589034Y4506249D01*
X13588895Y4506665D01*
X13588615Y4507219D01*
X13588200Y4507982D01*
X13587646Y4508745D01*
X13587022Y4509577D01*
X13586189Y4510409D01*
X13585287Y4511102D01*
X13585149Y4511172D01*
X13584802Y4511380D01*
X13584317Y4511657D01*
X13583554Y4512004D01*
X13582722Y4512281D01*
X13581752Y4512559D01*
X13580643Y4512767D01*
X13579533Y4512836D01*
D02*
G37*
G36*
X13604565Y5179168D02*
X13575719D01*
X13604565Y5158990D01*
Y5179168D01*
D02*
G37*
G36*
X13580573Y5135136D02*
X13580502D01*
X13580365D01*
X13580157D01*
X13579810Y5135067D01*
X13579463D01*
X13578978Y5134997D01*
X13577937Y5134720D01*
X13576759Y5134304D01*
X13575511Y5133749D01*
X13574332Y5132917D01*
X13573708Y5132362D01*
X13573154Y5131808D01*
X13573083Y5131738D01*
X13573015Y5131669D01*
X13572876Y5131461D01*
X13572668Y5131184D01*
X13572459Y5130837D01*
X13572182Y5130351D01*
X13571906Y5129866D01*
X13571628Y5129242D01*
X13571350Y5128549D01*
X13571143Y5127786D01*
X13570865Y5126954D01*
X13570657Y5126052D01*
X13570448Y5125012D01*
X13570309Y5123903D01*
X13570171Y5122724D01*
Y5101158D01*
X13591321D01*
Y5120297D01*
X13591251Y5120782D01*
Y5121337D01*
X13591182Y5122654D01*
X13591043Y5124111D01*
X13590836Y5125636D01*
X13590558Y5127092D01*
X13590141Y5128410D01*
Y5128479D01*
X13590073Y5128549D01*
X13589934Y5128965D01*
X13589658Y5129519D01*
X13589241Y5130282D01*
X13588686Y5131045D01*
X13588062Y5131877D01*
X13587230Y5132709D01*
X13586328Y5133402D01*
X13586189Y5133472D01*
X13585843Y5133680D01*
X13585358Y5133957D01*
X13584595Y5134304D01*
X13583763Y5134581D01*
X13582793Y5134859D01*
X13581682Y5135067D01*
X13580573Y5135136D01*
D02*
G37*
G36*
X4794029Y8030641D02*
X4772879D01*
Y8011503D01*
X4772949Y8011018D01*
Y8010463D01*
X4773018Y8009145D01*
X4773157Y8007689D01*
X4773365Y8006164D01*
X4773642Y8004707D01*
X4774058Y8003390D01*
Y8003321D01*
X4774128Y8003251D01*
X4774266Y8002835D01*
X4774544Y8002280D01*
X4774960Y8001518D01*
X4775514Y8000755D01*
X4776139Y7999923D01*
X4776971Y7999091D01*
X4777872Y7998397D01*
X4778011Y7998328D01*
X4778357Y7998120D01*
X4778843Y7997843D01*
X4779606Y7997496D01*
X4780438Y7997218D01*
X4781409Y7996941D01*
X4782518Y7996733D01*
X4783627Y7996664D01*
X4783697D01*
X4783835D01*
X4784044D01*
X4784390Y7996733D01*
X4784737D01*
X4785222Y7996802D01*
X4786262Y7997080D01*
X4787441Y7997496D01*
X4788689Y7998051D01*
X4789868Y7998883D01*
X4790492Y7999437D01*
X4791047Y7999992D01*
X4791116Y8000061D01*
X4791186Y8000131D01*
X4791324Y8000339D01*
X4791532Y8000616D01*
X4791740Y8000963D01*
X4792018Y8001448D01*
X4792295Y8001934D01*
X4792573Y8002558D01*
X4792850Y8003251D01*
X4793058Y8004014D01*
X4793335Y8004846D01*
X4793543Y8005748D01*
X4793751Y8006788D01*
X4793890Y8007897D01*
X4794029Y8009076D01*
Y8030641D01*
D02*
G37*
G36*
X4988928Y6393743D02*
X4974158D01*
Y6344857D01*
X4988859D01*
X4989414Y6344926D01*
X4990038D01*
X4991425Y6344996D01*
X4993019Y6345134D01*
X4994684Y6345342D01*
X4996279Y6345620D01*
X4997735Y6345966D01*
X4997804D01*
X4997873Y6346036D01*
X4998081Y6346105D01*
X4998359Y6346175D01*
X4998983Y6346452D01*
X4999815Y6346799D01*
X5000716Y6347284D01*
X5001687Y6347839D01*
X5002658Y6348532D01*
X5003490Y6349295D01*
X5003559Y6349364D01*
X5003629Y6349434D01*
X5003976Y6349850D01*
X5004530Y6350543D01*
X5005224Y6351444D01*
X5005917Y6352623D01*
X5006680Y6354010D01*
X5007443Y6355605D01*
X5008136Y6357408D01*
Y6357477D01*
X5008205Y6357616D01*
X5008275Y6357893D01*
X5008413Y6358309D01*
X5008552Y6358795D01*
X5008691Y6359419D01*
X5008829Y6360112D01*
X5009037Y6360875D01*
X5009176Y6361707D01*
X5009315Y6362678D01*
X5009454Y6363649D01*
X5009592Y6364758D01*
X5009800Y6367116D01*
X5009870Y6369751D01*
Y6369889D01*
Y6370167D01*
Y6370722D01*
X5009800Y6371415D01*
Y6372247D01*
X5009731Y6373218D01*
X5009592Y6374258D01*
X5009454Y6375437D01*
X5009037Y6377933D01*
X5008483Y6380499D01*
X5007651Y6382926D01*
X5007096Y6384105D01*
X5006541Y6385145D01*
X5006472Y6385214D01*
X5006402Y6385353D01*
X5006194Y6385630D01*
X5005917Y6386046D01*
X5005640Y6386462D01*
X5005224Y6386948D01*
X5004322Y6388057D01*
X5003143Y6389305D01*
X5001757Y6390484D01*
X5000231Y6391594D01*
X4999399Y6392010D01*
X4998497Y6392426D01*
X4998428D01*
X4998359Y6392495D01*
X4998151Y6392564D01*
X4997873Y6392634D01*
X4997457Y6392703D01*
X4997041Y6392842D01*
X4996487Y6392980D01*
X4995862Y6393119D01*
X4995169Y6393188D01*
X4994337Y6393327D01*
X4993436Y6393466D01*
X4992465Y6393535D01*
X4991355Y6393604D01*
X4990176Y6393674D01*
X4988928Y6393743D01*
D02*
G37*
%LPD*%
D45*
X4608200Y6494800D02*
X5323200D01*
Y6179800D02*
Y6494800D01*
X4608200Y6179800D02*
X5323200D01*
X4608200D02*
Y6494800D01*
X9658400Y4319500D02*
Y4629500D01*
X9823400D01*
Y4319500D02*
Y4629500D01*
X9658400Y4319500D02*
X9823400D01*
X10141111Y4503189D02*
Y4844011D01*
X9950289Y4503189D02*
X10141111D01*
X9950289D02*
Y4844011D01*
X10141111D01*
X10357011Y4503189D02*
Y4844011D01*
X10166189Y4503189D02*
X10357011D01*
X10166189D02*
Y4844011D01*
X10357011D01*
X10636200Y4332200D02*
Y4642200D01*
X10471200Y4332200D02*
X10636200D01*
X10471200D02*
Y4642200D01*
X10636200D01*
X13531689Y4299989D02*
Y4640811D01*
X13722511D01*
Y4299989D02*
Y4640811D01*
X13531689Y4299989D02*
X13722511D01*
X13533994Y4927094D02*
Y5258306D01*
X13720206D01*
Y4927094D02*
Y5258306D01*
X13533994Y4927094D02*
X13720206D01*
X4957511Y7608790D02*
Y8469410D01*
X4516689Y7608790D02*
X4957511D01*
X4516689D02*
Y8469410D01*
X4957511D01*
%TF.MD5,d660a9ad764ed813bd1818ca4a48106e*%
M02*
