%TF.GenerationSoftware,Altium Limited,Altium Designer,23.3.1 (30)*%
G04 Layer_Color=32768*
%FSLAX26Y26*%
%MOIN*%
%TF.SameCoordinates,D9B6CB64-BBF7-4A69-970E-EE5AFB7FCE0F*%
%TF.FilePolarity,Positive*%
%TF.FileFunction,Other,Top_Courtyard*%
%TF.Part,Single*%
G01*
G75*
%TA.AperFunction,NonConductor*%
%ADD45C,0.007874*%
%ADD46C,0.006000*%
%ADD47C,0.003937*%
%ADD73C,0.001000*%
%ADD74C,0.001968*%
G36*
X1661638Y3419000D02*
Y3111000D01*
X1441638Y2891000D01*
X1133638D01*
X913638Y3111000D01*
Y3419000D01*
X1133638Y3639000D01*
X1441638D01*
X1661638Y3419000D01*
D02*
G37*
G36*
X726844Y2808951D02*
X562844D01*
Y3409951D01*
X726844D01*
Y2808951D01*
D02*
G37*
G36*
X1653065Y2639454D02*
Y2331454D01*
X1433065Y2111454D01*
X1125065D01*
X905065Y2331454D01*
Y2639454D01*
X1125065Y2859454D01*
X1433065D01*
X1653065Y2639454D01*
D02*
G37*
D45*
X1814252Y2557008D02*
X2095748D01*
Y2432992D02*
Y2557008D01*
X1814252Y2432992D02*
X2095748D01*
X1814252D02*
Y2557008D01*
X3802520Y1700591D02*
Y1822638D01*
X3867480D01*
Y1700591D02*
Y1822638D01*
X3802520Y1700591D02*
X3867480D01*
X3992563Y1772909D02*
Y1907091D01*
X3917437Y1772909D02*
X3992563D01*
X3917437D02*
Y1907091D01*
X3992563D01*
X4077563Y1772909D02*
Y1907091D01*
X4002437Y1772909D02*
X4077563D01*
X4002437D02*
Y1907091D01*
X4077563D01*
X4187480Y1705591D02*
Y1827638D01*
X4122520Y1705591D02*
X4187480D01*
X4122520D02*
Y1827638D01*
X4187480D01*
X5327437Y1692909D02*
Y1827091D01*
X5402563D01*
Y1692909D02*
Y1827091D01*
X5327437Y1692909D02*
X5402563D01*
X5328344Y1939801D02*
Y2070199D01*
X5401656D01*
Y1939801D02*
Y2070199D01*
X5328344Y1939801D02*
X5401656D01*
X1951776Y2995587D02*
Y3334413D01*
X1778224Y2995587D02*
X1951776D01*
X1778224D02*
Y3334413D01*
X1951776D01*
D46*
X562844Y2808951D02*
Y3409951D01*
X726844D01*
Y2808951D02*
Y3409951D01*
X562844Y2808951D02*
X726844D01*
D47*
X134685Y1645276D02*
X1209488D01*
X134685D02*
Y2054724D01*
X1209488D01*
Y1645276D02*
Y2054724D01*
X1214488Y1195276D02*
Y1604724D01*
X139685D02*
X1214488D01*
X139685Y1195276D02*
Y1604724D01*
Y1195276D02*
X1214488D01*
X1215315Y750276D02*
Y1159724D01*
X140512D02*
X1215315D01*
X140512Y750276D02*
Y1159724D01*
Y750276D02*
X1215315D01*
X1219488Y330276D02*
Y739724D01*
X144685D02*
X1219488D01*
X144685Y330276D02*
Y739724D01*
Y330276D02*
X1219488D01*
X1242091Y1488250D02*
X1496028D01*
Y1744155D01*
X1242091D02*
X1496028D01*
X1242091Y1488250D02*
Y1744155D01*
X3670866Y1356693D02*
Y1640158D01*
X3529134Y1356693D02*
X3670866D01*
X3529134D02*
Y1640158D01*
X3670866D01*
X5124683Y714751D02*
Y998215D01*
X5266415D01*
Y714751D02*
Y998215D01*
X5124683Y714751D02*
X5266415D01*
X5119134Y1364842D02*
Y1648307D01*
X5260866D01*
Y1364842D02*
Y1648307D01*
X5119134Y1364842D02*
X5260866D01*
X5119134Y2024842D02*
Y2308307D01*
X5260866D01*
Y2024842D02*
Y2308307D01*
X5119134Y2024842D02*
X5260866D01*
X5114134Y2699843D02*
Y2983307D01*
X5255866D01*
Y2699843D02*
Y2983307D01*
X5114134Y2699843D02*
X5255866D01*
X2296614Y1993661D02*
Y3076339D01*
X3623386Y1993661D02*
Y3076339D01*
X2296614D02*
X3623386D01*
X2296614Y1993661D02*
X3623386D01*
X2940315Y2535000D02*
X2979685D01*
X2960000Y2515315D02*
Y2554685D01*
X3814213Y1918189D02*
Y2141811D01*
Y1918189D02*
X4199252D01*
Y2141811D01*
X3814213D02*
X4199252D01*
X1229961Y602047D02*
X1483898D01*
Y857953D01*
X1229961D02*
X1483898D01*
X1229961Y602047D02*
Y857953D01*
X4059843Y2236614D02*
Y2748425D01*
X3721260D02*
X4059843D01*
X3721260Y2236614D02*
Y2748425D01*
Y2236614D02*
X4059843D01*
D73*
X1433065Y2111454D02*
X1653065Y2331454D01*
Y2639454D01*
X1433065Y2859454D02*
X1653065Y2639454D01*
X1125065Y2859454D02*
X1433065D01*
X905065Y2639454D02*
X1125065Y2859454D01*
X905065Y2331454D02*
Y2639454D01*
Y2331454D02*
X1125065Y2111454D01*
X1433065D01*
X1441638Y2891000D02*
X1661638Y3111000D01*
Y3419000D01*
X1441638Y3639000D02*
X1661638Y3419000D01*
X1133638Y3639000D02*
X1441638D01*
X913638Y3419000D02*
X1133638Y3639000D01*
X913638Y3111000D02*
Y3419000D01*
Y3111000D02*
X1133638Y2891000D01*
X1441638D01*
D74*
X5060669Y871575D02*
G03*
X5060669Y871575I-270669J0D01*
G01*
Y1521575D02*
G03*
X5060669Y1521575I-270669J0D01*
G01*
X5055669Y2171575D02*
G03*
X5055669Y2171575I-270669J0D01*
G01*
X5050669Y2841575D02*
G03*
X5050669Y2841575I-270669J0D01*
G01*
X1747205Y2619646D02*
Y2950354D01*
X2022795D01*
Y2619646D02*
Y2950354D01*
X1747205Y2619646D02*
X2022795D01*
X2047008Y3338465D02*
X2172992D01*
X2047008Y2621929D02*
Y3338465D01*
Y2621929D02*
X2172992D01*
Y3338465D01*
X3886732Y1744882D02*
X4103268D01*
X3886732Y1451575D02*
Y1744882D01*
Y1451575D02*
X4103268D01*
Y1744882D01*
X1805039Y3424921D02*
Y3625709D01*
Y3424921D02*
X2234173D01*
Y3625709D01*
X1805039D02*
X2234173D01*
X1930394Y2034370D02*
X2229606D01*
X1930394Y140669D02*
Y2034370D01*
Y140669D02*
X2229606D01*
Y2034370D01*
X1625394Y140630D02*
X1924606D01*
Y2034331D01*
X1625394D02*
X1924606D01*
X1625394Y140630D02*
Y2034331D01*
%TF.MD5,d53baf3bf150ad40d6d594118f4434ff*%
M02*
