%TF.GenerationSoftware,Altium Limited,Altium Designer,23.3.1 (30)*%
G04 Layer_Color=128*
%FSLAX45Y45*%
%MOMM*%
%TF.SameCoordinates,B78A920C-B21B-4EC0-8B15-6B7EDFA50413*%
%TF.FilePolarity,Positive*%
%TF.FileFunction,Drillmap*%
%TF.Part,Single*%
G01*
G75*
%TA.AperFunction,NonConductor*%
%ADD91C,0.12700*%
D91*
X2779600Y4699000D02*
X2884600D01*
X2832100Y4646500D02*
Y4751500D01*
X529600Y4699000D02*
X634600D01*
X582100Y4646500D02*
Y4751500D01*
X2820486Y6313054D02*
X2927166D01*
X2873826Y6259714D02*
Y6366394D01*
X3570486Y6313054D02*
X3677166D01*
X3623826Y6259714D02*
Y6366394D01*
X542300Y3556000D02*
X647300D01*
X594800Y3503500D02*
Y3608500D01*
X2792300Y3556000D02*
X2897300D01*
X2844800Y3503500D02*
Y3608500D01*
X544400Y2425700D02*
X649400D01*
X596900Y2373200D02*
Y2478200D01*
X2794400Y2425700D02*
X2899400D01*
X2846900Y2373200D02*
Y2478200D01*
X555000Y1358900D02*
X660000D01*
X607500Y1306400D02*
Y1411400D01*
X2805000Y1358900D02*
X2910000D01*
X2857500Y1306400D02*
Y1411400D01*
X13779500Y558800D02*
X14160500D01*
X13970000Y368300D02*
Y749300D01*
X13779500Y9652000D02*
X14160500D01*
X13970000Y9461500D02*
Y9842500D01*
X368300Y9652000D02*
X749300D01*
X558800Y9461500D02*
Y9842500D01*
X317500Y558800D02*
X698500D01*
X508000Y368300D02*
Y749300D01*
X14069952Y1873717D02*
X14198984D01*
X14134468Y1809201D02*
Y1938233D01*
X14069952Y2419817D02*
X14198984D01*
X14134468Y2355301D02*
Y2484333D01*
X9106500Y4056000D02*
X9181500D01*
X9144000Y4018500D02*
Y4093500D01*
X9106500Y3556000D02*
X9181500D01*
X9144000Y3518500D02*
Y3593500D01*
X13159193Y1925467D02*
X13234193D01*
X13196693Y1887967D02*
Y1962967D01*
X13159193Y2425467D02*
X13234193D01*
X13196693Y2387967D02*
Y2462967D01*
X13145100Y3576700D02*
X13220100D01*
X13182600Y3539200D02*
Y3614200D01*
X13145100Y4076700D02*
X13220100D01*
X13182600Y4039200D02*
Y4114200D01*
X13145100Y5253100D02*
X13220100D01*
X13182600Y5215600D02*
Y5290600D01*
X13145100Y5753100D02*
X13220100D01*
X13182600Y5715600D02*
Y5790600D01*
X13132401Y6967600D02*
X13207401D01*
X13169901Y6930100D02*
Y7005100D01*
X13132401Y7467600D02*
X13207401D01*
X13169901Y7430100D02*
Y7505100D01*
X9625584Y2942368D02*
X9754616D01*
X9690100Y2877852D02*
Y3006884D01*
X9079484Y2942368D02*
X9208516D01*
X9144000Y2877852D02*
Y3006884D01*
X1666834Y8469506D02*
X1753194D01*
X1710014Y8426326D02*
Y8512686D01*
X1666834Y8088506D02*
X1753194D01*
X1710014Y8045326D02*
Y8131686D01*
X1666834Y7707506D02*
X1753194D01*
X1710014Y7664326D02*
Y7750686D01*
X1666834Y7326506D02*
X1753194D01*
X1710014Y7283326D02*
Y7369686D01*
X5319400Y6744700D02*
X5399400D01*
X5359400Y6704700D02*
Y6784700D01*
X5319400Y8394700D02*
X5399400D01*
X5359400Y8354700D02*
Y8434700D01*
X4754867Y9510115D02*
X4883899D01*
X4819383Y9445599D02*
Y9574631D01*
X4208767Y9510115D02*
X4337799D01*
X4273283Y9445599D02*
Y9574631D01*
X6768084Y9499600D02*
X6897116D01*
X6832600Y9435084D02*
Y9564116D01*
X6221984Y9499600D02*
X6351016D01*
X6286500Y9435084D02*
Y9564116D01*
X14121384Y4991100D02*
X14250417D01*
X14185899Y4926584D02*
Y5055616D01*
X14121384Y4445000D02*
X14250417D01*
X14185899Y4380484D02*
Y4509516D01*
X545084Y5892800D02*
X674116D01*
X609600Y5828284D02*
Y5957316D01*
X545084Y6438900D02*
X674116D01*
X609600Y6374384D02*
Y6503416D01*
X5318800Y8877300D02*
X5450800D01*
X5384800Y8811300D02*
Y8943300D01*
X4808800Y8877300D02*
X4940800D01*
X4874800Y8811300D02*
Y8943300D01*
X5063800Y8877300D02*
X5195800D01*
X5129800Y8811300D02*
Y8943300D01*
X5233200Y457300D02*
X5333200D01*
X5283200Y407300D02*
Y507300D01*
X5233200Y5067300D02*
X5333200D01*
X5283200Y5017300D02*
Y5117300D01*
X4458500Y5067200D02*
X4558500D01*
X4508500Y5017200D02*
Y5117200D01*
X4458500Y457200D02*
X4558500D01*
X4508500Y407200D02*
Y507200D01*
X12126600Y2463800D02*
X12206600D01*
X12166600Y2423800D02*
Y2503800D01*
X12126600Y1963800D02*
X12206600D01*
X12166600Y1923800D02*
Y2003800D01*
X12126600Y4114800D02*
X12206600D01*
X12166600Y4074800D02*
Y4154800D01*
X12126600Y3614800D02*
X12206600D01*
X12166600Y3574800D02*
Y3654800D01*
X12113900Y5765800D02*
X12193900D01*
X12153900Y5725800D02*
Y5805800D01*
X12113900Y5265800D02*
X12193900D01*
X12153900Y5225800D02*
Y5305800D01*
X12101200Y7467600D02*
X12181200D01*
X12141200Y7427600D02*
Y7507600D01*
X12101200Y6967600D02*
X12181200D01*
X12141200Y6927600D02*
Y7007600D01*
X2842260Y8293100D02*
X2948940D01*
X2895600Y8239760D02*
Y8346440D01*
X3592260Y8293100D02*
X3698940D01*
X3645600Y8239760D02*
Y8346440D01*
X10937240Y3898900D02*
X11008360D01*
X10972800Y3863340D02*
Y3934460D01*
X5120640Y6451600D02*
X5191760D01*
X5156200Y6416040D02*
Y6487160D01*
%TF.MD5,06244c44d86dcfa35aa81d625d744ab0*%
M02*
