G04*
G04 #@! TF.GenerationSoftware,Altium Limited,Altium Designer,23.3.1 (30)*
G04*
G04 Layer_Physical_Order=2*
G04 Layer_Color=16711680*
%FSLAX44Y44*%
%MOMM*%
G71*
G04*
G04 #@! TF.SameCoordinates,7FF98350-13BF-4DC0-BCDE-F856E8DDA7C8*
G04*
G04*
G04 #@! TF.FilePolarity,Positive*
G04*
G01*
G75*
%ADD42C,1.5748*%
%ADD47C,1.3716*%
%ADD54C,2.5400*%
%ADD55C,0.7620*%
%ADD61C,1.5750*%
%ADD62C,5.5880*%
%ADD63O,1.7780X2.2860*%
%ADD64C,1.2000*%
%ADD65O,2.2860X1.7780*%
%ADD66C,1.9800*%
%ADD67R,1.9800X1.9800*%
%ADD68C,1.5000*%
%ADD69R,1.5000X1.5000*%
%ADD70R,1.2000X1.2000*%
%ADD71C,1.2700*%
G36*
X1441450Y1003300D02*
Y12700D01*
X12700D01*
Y1004941D01*
X13599Y1005838D01*
X1441450Y1003300D01*
D02*
G37*
%LPC*%
G36*
X1399319Y994664D02*
X1398270D01*
Y966470D01*
X1426464D01*
Y967519D01*
X1425739Y972100D01*
X1424305Y976510D01*
X1422200Y980642D01*
X1419474Y984395D01*
X1416194Y987674D01*
X1412442Y990400D01*
X1408310Y992505D01*
X1403900Y993939D01*
X1399319Y994664D01*
D02*
G37*
G36*
X1395730D02*
X1394681D01*
X1390101Y993939D01*
X1385690Y992505D01*
X1381557Y990400D01*
X1377805Y987674D01*
X1374526Y984395D01*
X1371800Y980642D01*
X1369695Y976510D01*
X1368262Y972100D01*
X1367536Y967519D01*
Y966470D01*
X1395730D01*
Y994664D01*
D02*
G37*
G36*
X58199D02*
X57150D01*
Y966470D01*
X85344D01*
Y967519D01*
X84619Y972100D01*
X83185Y976510D01*
X81080Y980642D01*
X78354Y984395D01*
X75075Y987674D01*
X71322Y990400D01*
X67190Y992505D01*
X62779Y993939D01*
X58199Y994664D01*
D02*
G37*
G36*
X54610D02*
X53561D01*
X48980Y993939D01*
X44570Y992505D01*
X40437Y990400D01*
X36686Y987674D01*
X33406Y984395D01*
X30680Y980642D01*
X28575Y976510D01*
X27141Y972100D01*
X26416Y967519D01*
Y966470D01*
X54610D01*
Y994664D01*
D02*
G37*
G36*
X429868Y961515D02*
X428598D01*
Y952281D01*
X440205D01*
X440014Y953730D01*
X438965Y956263D01*
X437296Y958439D01*
X435120Y960108D01*
X432587Y961157D01*
X429868Y961515D01*
D02*
G37*
G36*
X426058D02*
X424788D01*
X422070Y961157D01*
X419536Y960108D01*
X417361Y958439D01*
X415692Y956263D01*
X414642Y953730D01*
X414452Y952281D01*
X426058D01*
Y961515D01*
D02*
G37*
G36*
X631190Y960464D02*
X629920D01*
Y951230D01*
X641527D01*
X641336Y952679D01*
X640287Y955212D01*
X638617Y957387D01*
X636442Y959057D01*
X633909Y960106D01*
X631190Y960464D01*
D02*
G37*
G36*
X627380D02*
X626110D01*
X623391Y960106D01*
X620858Y959057D01*
X618683Y957387D01*
X617013Y955212D01*
X615964Y952679D01*
X615773Y951230D01*
X627380D01*
Y960464D01*
D02*
G37*
G36*
X440205Y949742D02*
X428598D01*
Y940508D01*
X429868D01*
X432587Y940865D01*
X435120Y941915D01*
X437296Y943584D01*
X438965Y945760D01*
X440014Y948293D01*
X440205Y949742D01*
D02*
G37*
G36*
X426058D02*
X414452D01*
X414642Y948293D01*
X415692Y945760D01*
X417361Y943584D01*
X419536Y941915D01*
X422070Y940865D01*
X424788Y940508D01*
X426058D01*
Y949742D01*
D02*
G37*
G36*
X484478Y962540D02*
X479398D01*
X476414Y962147D01*
X473634Y960995D01*
X471246Y959163D01*
X469414Y956776D01*
X468262Y953995D01*
X467870Y951012D01*
X468262Y948028D01*
X469414Y945247D01*
X471246Y942859D01*
X473634Y941027D01*
X476414Y939876D01*
X479398Y939483D01*
X484478D01*
X487462Y939876D01*
X490243Y941027D01*
X492630Y942859D01*
X494462Y945247D01*
X495614Y948028D01*
X496007Y951012D01*
X495614Y953995D01*
X494462Y956776D01*
X492630Y959163D01*
X490243Y960995D01*
X487462Y962147D01*
X484478Y962540D01*
D02*
G37*
G36*
X641527Y948690D02*
X629920D01*
Y939456D01*
X631190D01*
X633909Y939814D01*
X636442Y940863D01*
X638617Y942533D01*
X640287Y944708D01*
X641336Y947241D01*
X641527Y948690D01*
D02*
G37*
G36*
X627380D02*
X615773D01*
X615964Y947241D01*
X617013Y944708D01*
X618683Y942533D01*
X620858Y940863D01*
X623391Y939814D01*
X626110Y939456D01*
X627380D01*
Y948690D01*
D02*
G37*
G36*
X1426464Y963930D02*
X1398270D01*
Y935736D01*
X1399319D01*
X1403900Y936461D01*
X1408310Y937895D01*
X1412442Y940000D01*
X1416194Y942726D01*
X1419474Y946005D01*
X1422200Y949758D01*
X1424305Y953890D01*
X1425739Y958300D01*
X1426464Y962881D01*
Y963930D01*
D02*
G37*
G36*
X1395730D02*
X1367536D01*
Y962881D01*
X1368262Y958300D01*
X1369695Y953890D01*
X1371800Y949758D01*
X1374526Y946005D01*
X1377805Y942726D01*
X1381557Y940000D01*
X1385690Y937895D01*
X1390101Y936461D01*
X1394681Y935736D01*
X1395730D01*
Y963930D01*
D02*
G37*
G36*
X85344D02*
X57150D01*
Y935736D01*
X58199D01*
X62779Y936461D01*
X67190Y937895D01*
X71322Y940000D01*
X75075Y942726D01*
X78354Y946005D01*
X81080Y949758D01*
X83185Y953890D01*
X84619Y958300D01*
X85344Y962881D01*
Y963930D01*
D02*
G37*
G36*
X54610D02*
X26416D01*
Y962881D01*
X27141Y958300D01*
X28575Y953890D01*
X30680Y949758D01*
X33406Y946005D01*
X36686Y942726D01*
X40437Y940000D01*
X44570Y937895D01*
X48980Y936461D01*
X53561Y935736D01*
X54610D01*
Y963930D01*
D02*
G37*
G36*
X512980Y903044D02*
X509992Y902749D01*
X507120Y901878D01*
X504472Y900463D01*
X502151Y898559D01*
X501190Y897387D01*
X499920Y897841D01*
Y900170D01*
X475040D01*
Y875290D01*
X497666D01*
Y647800D01*
X497961Y644812D01*
X498832Y641940D01*
X500247Y639292D01*
X502151Y636972D01*
X504791Y634332D01*
X507112Y632427D01*
X509760Y631012D01*
X512632Y630140D01*
X515620Y629846D01*
X518608Y630140D01*
X521480Y631012D01*
X524128Y632427D01*
X526449Y634332D01*
X528353Y636652D01*
X529768Y639300D01*
X530639Y642172D01*
X530934Y645160D01*
X530639Y648148D01*
X529768Y651020D01*
X528353Y653668D01*
X528294Y653740D01*
Y668243D01*
X529564Y668769D01*
X530696Y667636D01*
X532644Y666512D01*
X534816Y665930D01*
X537064D01*
X539236Y666512D01*
X541184Y667636D01*
X542774Y669226D01*
X543898Y671174D01*
X544480Y673346D01*
Y675594D01*
X543898Y677766D01*
X542774Y679714D01*
X541184Y681304D01*
X539236Y682428D01*
X537064Y683010D01*
X534816D01*
X532644Y682428D01*
X530696Y681304D01*
X529564Y680171D01*
X528294Y680697D01*
Y833243D01*
X529564Y833769D01*
X530696Y832636D01*
X532644Y831512D01*
X534816Y830930D01*
X537064D01*
X539236Y831512D01*
X541184Y832636D01*
X542774Y834226D01*
X543898Y836174D01*
X544480Y838346D01*
Y840594D01*
X543898Y842766D01*
X542774Y844714D01*
X541184Y846304D01*
X539236Y847428D01*
X537064Y848010D01*
X534816D01*
X532644Y847428D01*
X530696Y846304D01*
X529564Y845171D01*
X528294Y845697D01*
Y880172D01*
X529564Y880490D01*
X531465Y878588D01*
X534071Y877085D01*
X536976Y876306D01*
X537210D01*
Y887730D01*
Y899154D01*
X536976D01*
X534071Y898375D01*
X531465Y896871D01*
X529338Y894744D01*
X528530Y893344D01*
X527155Y893502D01*
X527128Y893590D01*
X525713Y896238D01*
X523809Y898559D01*
X521488Y900463D01*
X518840Y901878D01*
X515968Y902749D01*
X512980Y903044D01*
D02*
G37*
G36*
X539984Y899154D02*
X539750D01*
Y889000D01*
X549904D01*
Y889234D01*
X549126Y892140D01*
X547621Y894744D01*
X545494Y896871D01*
X542890Y898375D01*
X539984Y899154D01*
D02*
G37*
G36*
X549904Y886460D02*
X539750D01*
Y876306D01*
X539984D01*
X542890Y877085D01*
X545494Y878588D01*
X547621Y880715D01*
X549126Y883320D01*
X549904Y886226D01*
Y886460D01*
D02*
G37*
G36*
X172271Y855288D02*
Y848221D01*
X179339D01*
X178812Y850186D01*
X177709Y852097D01*
X176148Y853658D01*
X174237Y854761D01*
X172271Y855288D01*
D02*
G37*
G36*
X169731D02*
X167766Y854761D01*
X165855Y853658D01*
X164294Y852097D01*
X163191Y850186D01*
X162664Y848221D01*
X169731D01*
Y855288D01*
D02*
G37*
G36*
X179339Y845681D02*
X172271D01*
Y838613D01*
X174237Y839140D01*
X176148Y840243D01*
X177709Y841804D01*
X178812Y843715D01*
X179339Y845681D01*
D02*
G37*
G36*
X169731D02*
X162664D01*
X163191Y843715D01*
X164294Y841804D01*
X165855Y840243D01*
X167766Y839140D01*
X169731Y838613D01*
Y845681D01*
D02*
G37*
G36*
X365830Y838699D02*
Y830580D01*
X373949D01*
X373317Y832937D01*
X372080Y835080D01*
X370331Y836830D01*
X368187Y838067D01*
X365830Y838699D01*
D02*
G37*
G36*
X363290D02*
X360933Y838067D01*
X358789Y836830D01*
X357040Y835080D01*
X355802Y832937D01*
X355171Y830580D01*
X363290D01*
Y838699D01*
D02*
G37*
G36*
X373949Y828040D02*
X365830D01*
Y819921D01*
X368187Y820553D01*
X370331Y821790D01*
X372080Y823540D01*
X373317Y825683D01*
X373949Y828040D01*
D02*
G37*
G36*
X363290D02*
X355171D01*
X355802Y825683D01*
X357040Y823540D01*
X358789Y821790D01*
X360933Y820553D01*
X363290Y819921D01*
Y828040D01*
D02*
G37*
G36*
X290931Y839724D02*
X288189D01*
X285540Y839014D01*
X283166Y837643D01*
X281227Y835704D01*
X279856Y833330D01*
X279146Y830681D01*
Y827939D01*
X279856Y825290D01*
X281227Y822916D01*
X283166Y820977D01*
X285540Y819606D01*
X288189Y818896D01*
X290931D01*
X293580Y819606D01*
X295954Y820977D01*
X297893Y822916D01*
X299264Y825290D01*
X299974Y827939D01*
Y830681D01*
X299264Y833330D01*
X297893Y835704D01*
X295954Y837643D01*
X293580Y839014D01*
X290931Y839724D01*
D02*
G37*
G36*
X172239Y818249D02*
X169764D01*
X167374Y817608D01*
X165231Y816371D01*
X163481Y814621D01*
X162244Y812478D01*
X161603Y810088D01*
Y807613D01*
X162244Y805223D01*
X163481Y803080D01*
X165231Y801330D01*
X167374Y800093D01*
X169764Y799453D01*
X172239D01*
X174629Y800093D01*
X176772Y801330D01*
X178522Y803080D01*
X179759Y805223D01*
X180399Y807613D01*
Y810088D01*
X179759Y812478D01*
X178522Y814621D01*
X176772Y816371D01*
X174629Y817608D01*
X172239Y818249D01*
D02*
G37*
G36*
Y780149D02*
X169764D01*
X167374Y779508D01*
X165231Y778271D01*
X163481Y776521D01*
X162244Y774378D01*
X161603Y771988D01*
Y769513D01*
X162244Y767123D01*
X163481Y764980D01*
X165231Y763230D01*
X167374Y761993D01*
X169764Y761353D01*
X172239D01*
X174629Y761993D01*
X176772Y763230D01*
X178522Y764980D01*
X179759Y767123D01*
X180399Y769513D01*
Y771988D01*
X179759Y774378D01*
X178522Y776521D01*
X176772Y778271D01*
X174629Y779508D01*
X172239Y780149D01*
D02*
G37*
G36*
X1318114Y755300D02*
X1315866D01*
X1313694Y754718D01*
X1311746Y753594D01*
X1310156Y752004D01*
X1309032Y750056D01*
X1308450Y747884D01*
Y745636D01*
X1309032Y743464D01*
X1310156Y741516D01*
X1311746Y739926D01*
X1313694Y738802D01*
X1315866Y738220D01*
X1318114D01*
X1320286Y738802D01*
X1322234Y739926D01*
X1323824Y741516D01*
X1324948Y743464D01*
X1325530Y745636D01*
Y747884D01*
X1324948Y750056D01*
X1323824Y752004D01*
X1322234Y753594D01*
X1320286Y754718D01*
X1318114Y755300D01*
D02*
G37*
G36*
X1222660D02*
X1205580D01*
Y738220D01*
X1222660D01*
Y755300D01*
D02*
G37*
G36*
X172239Y742049D02*
X169764D01*
X167374Y741408D01*
X165231Y740171D01*
X163481Y738421D01*
X162244Y736278D01*
X161603Y733888D01*
Y731413D01*
X162244Y729023D01*
X163481Y726880D01*
X165231Y725130D01*
X167374Y723893D01*
X169764Y723253D01*
X172239D01*
X174629Y723893D01*
X176772Y725130D01*
X178522Y726880D01*
X179759Y729023D01*
X180399Y731413D01*
Y733888D01*
X179759Y736278D01*
X178522Y738421D01*
X176772Y740171D01*
X174629Y741408D01*
X172239Y742049D01*
D02*
G37*
G36*
X1318260Y704209D02*
Y698030D01*
X1324439D01*
X1324001Y699664D01*
X1323011Y701380D01*
X1321610Y702781D01*
X1319894Y703771D01*
X1318260Y704209D01*
D02*
G37*
G36*
X1215390D02*
Y698030D01*
X1221569D01*
X1221131Y699664D01*
X1220141Y701380D01*
X1218740Y702781D01*
X1217024Y703771D01*
X1215390Y704209D01*
D02*
G37*
G36*
X1212850D02*
X1211216Y703771D01*
X1209500Y702781D01*
X1208099Y701380D01*
X1207109Y699664D01*
X1206671Y698030D01*
X1212850D01*
Y704209D01*
D02*
G37*
G36*
X1315720D02*
X1314086Y703771D01*
X1312370Y702781D01*
X1310969Y701380D01*
X1309979Y699664D01*
X1309541Y698030D01*
X1315720D01*
Y704209D01*
D02*
G37*
G36*
X1324439Y695490D02*
X1318260D01*
Y689311D01*
X1319894Y689749D01*
X1321610Y690739D01*
X1323011Y692140D01*
X1324001Y693856D01*
X1324439Y695490D01*
D02*
G37*
G36*
X1221569D02*
X1215390D01*
Y689311D01*
X1217024Y689749D01*
X1218740Y690739D01*
X1220141Y692140D01*
X1221131Y693856D01*
X1221569Y695490D01*
D02*
G37*
G36*
X1212850D02*
X1206671D01*
X1207109Y693856D01*
X1208099Y692140D01*
X1209500Y690739D01*
X1211216Y689749D01*
X1212850Y689311D01*
Y695490D01*
D02*
G37*
G36*
X1315720D02*
X1309541D01*
X1309979Y693856D01*
X1310969Y692140D01*
X1312370Y690739D01*
X1314086Y689749D01*
X1315720Y689311D01*
Y695490D01*
D02*
G37*
G36*
X363653Y640695D02*
Y632575D01*
X371772D01*
X371140Y634933D01*
X369903Y637076D01*
X368153Y638826D01*
X366010Y640063D01*
X363653Y640695D01*
D02*
G37*
G36*
X361113D02*
X358755Y640063D01*
X356612Y638826D01*
X354862Y637076D01*
X353625Y634933D01*
X352993Y632575D01*
X361113D01*
Y640695D01*
D02*
G37*
G36*
X60960Y657959D02*
X57976Y657566D01*
X55196Y656414D01*
X52808Y654582D01*
X50976Y652194D01*
X49824Y649414D01*
X49431Y646430D01*
Y641350D01*
X49824Y638366D01*
X50976Y635586D01*
X52808Y633198D01*
X55196Y631366D01*
X57976Y630214D01*
X60960Y629821D01*
X63944Y630214D01*
X66724Y631366D01*
X69112Y633198D01*
X70944Y635586D01*
X72096Y638366D01*
X72489Y641350D01*
Y646430D01*
X72096Y649414D01*
X70944Y652194D01*
X69112Y654582D01*
X66724Y656414D01*
X63944Y657566D01*
X60960Y657959D01*
D02*
G37*
G36*
X371772Y630035D02*
X363653D01*
Y621916D01*
X366010Y622548D01*
X368153Y623785D01*
X369903Y625535D01*
X371140Y627678D01*
X371772Y630035D01*
D02*
G37*
G36*
X361113D02*
X352993D01*
X353625Y627678D01*
X354862Y625535D01*
X356612Y623785D01*
X358755Y622548D01*
X361113Y621916D01*
Y630035D01*
D02*
G37*
G36*
X288754Y641719D02*
X286012D01*
X283363Y641010D01*
X280988Y639639D01*
X279049Y637700D01*
X277678Y635325D01*
X276969Y632677D01*
Y629934D01*
X277678Y627286D01*
X279049Y624911D01*
X280988Y622972D01*
X283363Y621601D01*
X286012Y620891D01*
X288754D01*
X291402Y621601D01*
X293777Y622972D01*
X295716Y624911D01*
X297087Y627286D01*
X297797Y629934D01*
Y632677D01*
X297087Y635325D01*
X295716Y637700D01*
X293777Y639639D01*
X291402Y641010D01*
X288754Y641719D01*
D02*
G37*
G36*
X60960Y603349D02*
X57976Y602956D01*
X55196Y601804D01*
X52808Y599972D01*
X50976Y597584D01*
X49824Y594804D01*
X49431Y591820D01*
Y586740D01*
X49824Y583756D01*
X50976Y580976D01*
X52808Y578588D01*
X55196Y576756D01*
X57976Y575604D01*
X60960Y575211D01*
X63944Y575604D01*
X66724Y576756D01*
X69112Y578588D01*
X70944Y580976D01*
X72096Y583756D01*
X72489Y586740D01*
Y591820D01*
X72096Y594804D01*
X70944Y597584D01*
X69112Y599972D01*
X66724Y601804D01*
X63944Y602956D01*
X60960Y603349D01*
D02*
G37*
G36*
X1223930Y585120D02*
X1206850D01*
Y568040D01*
X1223930D01*
Y585120D01*
D02*
G37*
G36*
X1319384Y583850D02*
X1317136D01*
X1314964Y583268D01*
X1313016Y582144D01*
X1311426Y580554D01*
X1310302Y578606D01*
X1309720Y576434D01*
Y574186D01*
X1310302Y572014D01*
X1311426Y570066D01*
X1313016Y568476D01*
X1314964Y567352D01*
X1317136Y566770D01*
X1319384D01*
X1321556Y567352D01*
X1323504Y568476D01*
X1325094Y570066D01*
X1326218Y572014D01*
X1326800Y574186D01*
Y576434D01*
X1326218Y578606D01*
X1325094Y580554D01*
X1323504Y582144D01*
X1321556Y583268D01*
X1319384Y583850D01*
D02*
G37*
G36*
X1216660Y534029D02*
Y527850D01*
X1222839D01*
X1222401Y529484D01*
X1221411Y531200D01*
X1220010Y532601D01*
X1218294Y533591D01*
X1216660Y534029D01*
D02*
G37*
G36*
X1214120D02*
X1212486Y533591D01*
X1210770Y532601D01*
X1209369Y531200D01*
X1208379Y529484D01*
X1207941Y527850D01*
X1214120D01*
Y534029D01*
D02*
G37*
G36*
X1319530Y532759D02*
Y526580D01*
X1325709D01*
X1325271Y528214D01*
X1324281Y529930D01*
X1322880Y531331D01*
X1321164Y532321D01*
X1319530Y532759D01*
D02*
G37*
G36*
X1316990D02*
X1315356Y532321D01*
X1313640Y531331D01*
X1312239Y529930D01*
X1311249Y528214D01*
X1310811Y526580D01*
X1316990D01*
Y532759D01*
D02*
G37*
G36*
X1222839Y525310D02*
X1216660D01*
Y519131D01*
X1218294Y519569D01*
X1220010Y520559D01*
X1221411Y521960D01*
X1222401Y523676D01*
X1222839Y525310D01*
D02*
G37*
G36*
X1214120D02*
X1207941D01*
X1208379Y523676D01*
X1209369Y521960D01*
X1210770Y520559D01*
X1212486Y519569D01*
X1214120Y519131D01*
Y525310D01*
D02*
G37*
G36*
X1325709Y524040D02*
X1319530D01*
Y517861D01*
X1321164Y518299D01*
X1322880Y519289D01*
X1324281Y520690D01*
X1325271Y522406D01*
X1325709Y524040D01*
D02*
G37*
G36*
X1316990D02*
X1310811D01*
X1311249Y522406D01*
X1312239Y520690D01*
X1313640Y519289D01*
X1315356Y518299D01*
X1316990Y517861D01*
Y524040D01*
D02*
G37*
G36*
X452120Y515722D02*
Y507990D01*
X459852D01*
X459259Y510203D01*
X458071Y512261D01*
X456391Y513941D01*
X454333Y515129D01*
X452120Y515722D01*
D02*
G37*
G36*
X449580D02*
X447367Y515129D01*
X445309Y513941D01*
X443629Y512261D01*
X442441Y510203D01*
X441848Y507990D01*
X449580D01*
Y515722D01*
D02*
G37*
G36*
X459852Y505450D02*
X452120D01*
Y497718D01*
X454333Y498311D01*
X456391Y499499D01*
X458071Y501179D01*
X459259Y503237D01*
X459852Y505450D01*
D02*
G37*
G36*
X449580D02*
X441848D01*
X442441Y503237D01*
X443629Y501179D01*
X445309Y499499D01*
X447367Y498311D01*
X449580Y497718D01*
Y505450D01*
D02*
G37*
G36*
X538360Y516770D02*
X518280D01*
Y496690D01*
X538360D01*
Y516770D01*
D02*
G37*
G36*
X1418590Y513179D02*
X1415606Y512786D01*
X1412826Y511634D01*
X1410438Y509802D01*
X1408606Y507414D01*
X1407454Y504634D01*
X1407061Y501650D01*
Y496570D01*
X1407454Y493586D01*
X1408606Y490806D01*
X1410438Y488418D01*
X1412826Y486586D01*
X1415606Y485434D01*
X1418590Y485041D01*
X1421574Y485434D01*
X1424354Y486586D01*
X1426742Y488418D01*
X1428574Y490806D01*
X1429726Y493586D01*
X1430119Y496570D01*
Y501650D01*
X1429726Y504634D01*
X1428574Y507414D01*
X1426742Y509802D01*
X1424354Y511634D01*
X1421574Y512786D01*
X1418590Y513179D01*
D02*
G37*
G36*
X284480Y479290D02*
Y471170D01*
X292600D01*
X291968Y473528D01*
X290731Y475671D01*
X288981Y477421D01*
X286838Y478658D01*
X284480Y479290D01*
D02*
G37*
G36*
X281940D02*
X279582Y478658D01*
X277439Y477421D01*
X275689Y475671D01*
X274452Y473528D01*
X273820Y471170D01*
X281940D01*
Y479290D01*
D02*
G37*
G36*
X292600Y468630D02*
X284480D01*
Y460510D01*
X286838Y461142D01*
X288981Y462379D01*
X290731Y464129D01*
X291968Y466272D01*
X292600Y468630D01*
D02*
G37*
G36*
X281940D02*
X273820D01*
X274452Y466272D01*
X275689Y464129D01*
X277439Y462379D01*
X279582Y461142D01*
X281940Y460510D01*
Y468630D01*
D02*
G37*
G36*
X59581Y480315D02*
X56839D01*
X54190Y479605D01*
X51815Y478234D01*
X49876Y476295D01*
X48505Y473920D01*
X47795Y471271D01*
Y468529D01*
X48505Y465880D01*
X49876Y463505D01*
X51815Y461566D01*
X54190Y460195D01*
X56839Y459485D01*
X59581D01*
X62230Y460195D01*
X64605Y461566D01*
X66544Y463505D01*
X67915Y465880D01*
X68625Y468529D01*
Y471271D01*
X67915Y473920D01*
X66544Y476295D01*
X64605Y478234D01*
X62230Y479605D01*
X59581Y480315D01*
D02*
G37*
G36*
X1419860Y457377D02*
Y445770D01*
X1429094D01*
Y447040D01*
X1428736Y449759D01*
X1427687Y452292D01*
X1426017Y454467D01*
X1423842Y456137D01*
X1421309Y457186D01*
X1419860Y457377D01*
D02*
G37*
G36*
X1417320D02*
X1415871Y457186D01*
X1413338Y456137D01*
X1411163Y454467D01*
X1409493Y452292D01*
X1408444Y449759D01*
X1408086Y447040D01*
Y445770D01*
X1417320D01*
Y457377D01*
D02*
G37*
G36*
X1429094Y443230D02*
X1419860D01*
Y431623D01*
X1421309Y431814D01*
X1423842Y432863D01*
X1426017Y434533D01*
X1427687Y436708D01*
X1428736Y439241D01*
X1429094Y441960D01*
Y443230D01*
D02*
G37*
G36*
X1417320D02*
X1408086D01*
Y441960D01*
X1408444Y439241D01*
X1409493Y436708D01*
X1411163Y434533D01*
X1413338Y432863D01*
X1415871Y431814D01*
X1417320Y431623D01*
Y443230D01*
D02*
G37*
G36*
X915670Y413049D02*
Y406870D01*
X921849D01*
X921411Y408504D01*
X920421Y410220D01*
X919020Y411621D01*
X917304Y412611D01*
X915670Y413049D01*
D02*
G37*
G36*
X913130D02*
X911496Y412611D01*
X909780Y411621D01*
X908379Y410220D01*
X907389Y408504D01*
X906951Y406870D01*
X913130D01*
Y413049D01*
D02*
G37*
G36*
X1225200Y420020D02*
X1208120D01*
Y402940D01*
X1225200D01*
Y420020D01*
D02*
G37*
G36*
X1319384Y416210D02*
X1317136D01*
X1314964Y415628D01*
X1313016Y414504D01*
X1311426Y412914D01*
X1310302Y410966D01*
X1309720Y408794D01*
Y406546D01*
X1310302Y404374D01*
X1311426Y402426D01*
X1313016Y400836D01*
X1314964Y399712D01*
X1317136Y399130D01*
X1319384D01*
X1321556Y399712D01*
X1323504Y400836D01*
X1325094Y402426D01*
X1326218Y404374D01*
X1326800Y406546D01*
Y408794D01*
X1326218Y410966D01*
X1325094Y412914D01*
X1323504Y414504D01*
X1321556Y415628D01*
X1319384Y416210D01*
D02*
G37*
G36*
X921849Y404330D02*
X915670D01*
Y398151D01*
X917304Y398589D01*
X919020Y399579D01*
X920421Y400980D01*
X921411Y402696D01*
X921849Y404330D01*
D02*
G37*
G36*
X913130D02*
X906951D01*
X907389Y402696D01*
X908379Y400980D01*
X909780Y399579D01*
X911496Y398589D01*
X913130Y398151D01*
Y404330D01*
D02*
G37*
G36*
X685800Y961489D02*
X680720D01*
X677736Y961096D01*
X674956Y959944D01*
X672568Y958112D01*
X670736Y955724D01*
X669584Y952944D01*
X669191Y949960D01*
X669584Y946976D01*
X670736Y944196D01*
X672568Y941808D01*
X674956Y939976D01*
X677736Y938824D01*
X680720Y938431D01*
X685800D01*
X687896Y938707D01*
X831082Y795522D01*
X833182Y794118D01*
X835660Y793626D01*
X996808D01*
X1090806Y699628D01*
Y395988D01*
X1090166Y395349D01*
X1088996Y393321D01*
X1088390Y391060D01*
Y388720D01*
X1088996Y386459D01*
X1090166Y384431D01*
X1091821Y382776D01*
X1093849Y381606D01*
X1096110Y381000D01*
X1098450D01*
X1100711Y381606D01*
X1102739Y382776D01*
X1104394Y384431D01*
X1105564Y386459D01*
X1106170Y388720D01*
Y391060D01*
X1105564Y393321D01*
X1104394Y395349D01*
X1103754Y395988D01*
Y702310D01*
X1103262Y704788D01*
X1101858Y706888D01*
X1004068Y804678D01*
X1001968Y806082D01*
X999490Y806574D01*
X838342D01*
X697053Y947864D01*
X697329Y949960D01*
X696936Y952944D01*
X695784Y955724D01*
X693952Y958112D01*
X691564Y959944D01*
X688784Y961096D01*
X685800Y961489D01*
D02*
G37*
G36*
X1217930Y368929D02*
Y362750D01*
X1224109D01*
X1223671Y364384D01*
X1222681Y366100D01*
X1221280Y367501D01*
X1219564Y368491D01*
X1217930Y368929D01*
D02*
G37*
G36*
X1215390D02*
X1213756Y368491D01*
X1212040Y367501D01*
X1210639Y366100D01*
X1209649Y364384D01*
X1209211Y362750D01*
X1215390D01*
Y368929D01*
D02*
G37*
G36*
X1319530Y365119D02*
Y358940D01*
X1325709D01*
X1325271Y360574D01*
X1324281Y362290D01*
X1322880Y363691D01*
X1321164Y364681D01*
X1319530Y365119D01*
D02*
G37*
G36*
X1316990D02*
X1315356Y364681D01*
X1313640Y363691D01*
X1312239Y362290D01*
X1311249Y360574D01*
X1310811Y358940D01*
X1316990D01*
Y365119D01*
D02*
G37*
G36*
X285750Y364990D02*
Y356870D01*
X293870D01*
X293239Y359228D01*
X292001Y361371D01*
X290251Y363121D01*
X288108Y364358D01*
X285750Y364990D01*
D02*
G37*
G36*
X283210D02*
X280852Y364358D01*
X278709Y363121D01*
X276959Y361371D01*
X275721Y359228D01*
X275090Y356870D01*
X283210D01*
Y364990D01*
D02*
G37*
G36*
X1224109Y360210D02*
X1217930D01*
Y354031D01*
X1219564Y354469D01*
X1221280Y355459D01*
X1222681Y356860D01*
X1223671Y358576D01*
X1224109Y360210D01*
D02*
G37*
G36*
X1215390D02*
X1209211D01*
X1209649Y358576D01*
X1210639Y356860D01*
X1212040Y355459D01*
X1213756Y354469D01*
X1215390Y354031D01*
Y360210D01*
D02*
G37*
G36*
X1325709Y356400D02*
X1319530D01*
Y350221D01*
X1321164Y350659D01*
X1322880Y351649D01*
X1324281Y353050D01*
X1325271Y354766D01*
X1325709Y356400D01*
D02*
G37*
G36*
X1316990D02*
X1310811D01*
X1311249Y354766D01*
X1312239Y353050D01*
X1313640Y351649D01*
X1315356Y350659D01*
X1316990Y350221D01*
Y356400D01*
D02*
G37*
G36*
X915524Y364140D02*
X913276D01*
X911104Y363558D01*
X909156Y362434D01*
X907566Y360844D01*
X906442Y358896D01*
X905860Y356724D01*
Y354476D01*
X906442Y352304D01*
X907566Y350356D01*
X909156Y348766D01*
X911104Y347642D01*
X913276Y347060D01*
X915524D01*
X917696Y347642D01*
X919644Y348766D01*
X921234Y350356D01*
X922358Y352304D01*
X922940Y354476D01*
Y356724D01*
X922358Y358896D01*
X921234Y360844D01*
X919644Y362434D01*
X917696Y363558D01*
X915524Y364140D01*
D02*
G37*
G36*
X293870Y354330D02*
X285750D01*
Y346210D01*
X288108Y346842D01*
X290251Y348079D01*
X292001Y349829D01*
X293239Y351972D01*
X293870Y354330D01*
D02*
G37*
G36*
X283210D02*
X275090D01*
X275721Y351972D01*
X276959Y349829D01*
X278709Y348079D01*
X280852Y346842D01*
X283210Y346210D01*
Y354330D01*
D02*
G37*
G36*
X60851Y366015D02*
X58109D01*
X55460Y365305D01*
X53085Y363934D01*
X51146Y361995D01*
X49775Y359620D01*
X49065Y356971D01*
Y354229D01*
X49775Y351580D01*
X51146Y349205D01*
X53085Y347266D01*
X55460Y345895D01*
X58109Y345185D01*
X60851D01*
X63500Y345895D01*
X65875Y347266D01*
X67814Y349205D01*
X69185Y351580D01*
X69895Y354229D01*
Y356971D01*
X69185Y359620D01*
X67814Y361995D01*
X65875Y363934D01*
X63500Y365305D01*
X60851Y366015D01*
D02*
G37*
G36*
X971550Y304741D02*
X970280D01*
Y295507D01*
X981887D01*
X981696Y296955D01*
X980647Y299489D01*
X978977Y301664D01*
X976802Y303333D01*
X974269Y304383D01*
X971550Y304741D01*
D02*
G37*
G36*
X967740D02*
X966470D01*
X963751Y304383D01*
X961218Y303333D01*
X959043Y301664D01*
X957373Y299489D01*
X956324Y296955D01*
X956133Y295507D01*
X967740D01*
Y304741D01*
D02*
G37*
G36*
X981887Y292967D02*
X970280D01*
Y283733D01*
X971550D01*
X974269Y284091D01*
X976802Y285140D01*
X978977Y286810D01*
X980647Y288985D01*
X981696Y291518D01*
X981887Y292967D01*
D02*
G37*
G36*
X967740D02*
X956133D01*
X956324Y291518D01*
X957373Y288985D01*
X959043Y286810D01*
X961218Y285140D01*
X963751Y284091D01*
X966470Y283733D01*
X967740D01*
Y292967D01*
D02*
G37*
G36*
X916940Y305765D02*
X911860D01*
X908876Y305373D01*
X906096Y304221D01*
X903708Y302389D01*
X901876Y300001D01*
X900724Y297221D01*
X900331Y294237D01*
X900724Y291253D01*
X901876Y288472D01*
X903708Y286085D01*
X906096Y284253D01*
X908876Y283101D01*
X911860Y282708D01*
X916940D01*
X919924Y283101D01*
X922704Y284253D01*
X925092Y286085D01*
X926924Y288472D01*
X928076Y291253D01*
X928469Y294237D01*
X928076Y297221D01*
X926924Y300001D01*
X925092Y302389D01*
X922704Y304221D01*
X919924Y305373D01*
X916940Y305765D01*
D02*
G37*
G36*
X285960Y251960D02*
Y243840D01*
X294080D01*
X293449Y246198D01*
X292211Y248341D01*
X290461Y250091D01*
X288318Y251329D01*
X285960Y251960D01*
D02*
G37*
G36*
X283420D02*
X281062Y251329D01*
X278919Y250091D01*
X277169Y248341D01*
X275932Y246198D01*
X275300Y243840D01*
X283420D01*
Y251960D01*
D02*
G37*
G36*
X1225200Y254920D02*
X1208120D01*
Y237840D01*
X1225200D01*
Y254920D01*
D02*
G37*
G36*
X1320794Y251087D02*
X1318545D01*
X1316373Y250505D01*
X1314426Y249380D01*
X1312836Y247790D01*
X1311711Y245843D01*
X1311129Y243671D01*
Y241422D01*
X1311711Y239250D01*
X1312836Y237303D01*
X1314426Y235713D01*
X1316373Y234589D01*
X1318545Y234007D01*
X1320794D01*
X1322966Y234589D01*
X1324913Y235713D01*
X1326503Y237303D01*
X1327627Y239250D01*
X1328209Y241422D01*
Y243671D01*
X1327627Y245843D01*
X1326503Y247790D01*
X1324913Y249380D01*
X1322966Y250505D01*
X1320794Y251087D01*
D02*
G37*
G36*
X294080Y241300D02*
X285960D01*
Y233180D01*
X288318Y233811D01*
X290461Y235049D01*
X292211Y236799D01*
X293449Y238942D01*
X294080Y241300D01*
D02*
G37*
G36*
X283420D02*
X275300D01*
X275932Y238942D01*
X277169Y236799D01*
X278919Y235049D01*
X281062Y233811D01*
X283420Y233180D01*
Y241300D01*
D02*
G37*
G36*
X61061Y252985D02*
X58319D01*
X55670Y252275D01*
X53295Y250904D01*
X51356Y248965D01*
X49985Y246590D01*
X49275Y243941D01*
Y241199D01*
X49985Y238550D01*
X51356Y236175D01*
X53295Y234236D01*
X55670Y232865D01*
X58319Y232155D01*
X61061D01*
X63710Y232865D01*
X66085Y234236D01*
X68024Y236175D01*
X69395Y238550D01*
X70105Y241199D01*
Y243941D01*
X69395Y246590D01*
X68024Y248965D01*
X66085Y250904D01*
X63710Y252275D01*
X61061Y252985D01*
D02*
G37*
G36*
X1413447Y256050D02*
X1410463Y255658D01*
X1407682Y254506D01*
X1405295Y252674D01*
X1403463Y250286D01*
X1402311Y247505D01*
X1401918Y244522D01*
Y239442D01*
X1402311Y236458D01*
X1403463Y233677D01*
X1405295Y231290D01*
X1407682Y229458D01*
X1410463Y228306D01*
X1413447Y227913D01*
X1416431Y228306D01*
X1419211Y229458D01*
X1421599Y231290D01*
X1423431Y233677D01*
X1424583Y236458D01*
X1424975Y239442D01*
Y244522D01*
X1424583Y247505D01*
X1423431Y250286D01*
X1421599Y252674D01*
X1419211Y254506D01*
X1416431Y255658D01*
X1413447Y256050D01*
D02*
G37*
G36*
X1217930Y203829D02*
Y197650D01*
X1224109D01*
X1223671Y199284D01*
X1222681Y201000D01*
X1221280Y202401D01*
X1219564Y203391D01*
X1217930Y203829D01*
D02*
G37*
G36*
X1215390D02*
X1213756Y203391D01*
X1212040Y202401D01*
X1210639Y201000D01*
X1209649Y199284D01*
X1209211Y197650D01*
X1215390D01*
Y203829D01*
D02*
G37*
G36*
X1320939Y199996D02*
Y193817D01*
X1327119D01*
X1326681Y195451D01*
X1325690Y197167D01*
X1324289Y198567D01*
X1322574Y199558D01*
X1320939Y199996D01*
D02*
G37*
G36*
X1318399D02*
X1316765Y199558D01*
X1315050Y198567D01*
X1313649Y197167D01*
X1312658Y195451D01*
X1312220Y193817D01*
X1318399D01*
Y199996D01*
D02*
G37*
G36*
X1224109Y195110D02*
X1217930D01*
Y188931D01*
X1219564Y189369D01*
X1221280Y190359D01*
X1222681Y191760D01*
X1223671Y193476D01*
X1224109Y195110D01*
D02*
G37*
G36*
X1215390D02*
X1209211D01*
X1209649Y193476D01*
X1210639Y191760D01*
X1212040Y190359D01*
X1213756Y189369D01*
X1215390Y188931D01*
Y195110D01*
D02*
G37*
G36*
X1414717Y200248D02*
Y188642D01*
X1423951D01*
Y189912D01*
X1423593Y192630D01*
X1422543Y195164D01*
X1420874Y197339D01*
X1418699Y199008D01*
X1416165Y200058D01*
X1414717Y200248D01*
D02*
G37*
G36*
X1412177D02*
X1410728Y200058D01*
X1408195Y199008D01*
X1406019Y197339D01*
X1404350Y195164D01*
X1403301Y192630D01*
X1402943Y189912D01*
Y188642D01*
X1412177D01*
Y200248D01*
D02*
G37*
G36*
X1327119Y191277D02*
X1320939D01*
Y185098D01*
X1322574Y185535D01*
X1324289Y186526D01*
X1325690Y187927D01*
X1326681Y189643D01*
X1327119Y191277D01*
D02*
G37*
G36*
X1318399D02*
X1312220D01*
X1312658Y189643D01*
X1313649Y187927D01*
X1315050Y186526D01*
X1316765Y185535D01*
X1318399Y185098D01*
Y191277D01*
D02*
G37*
G36*
X1423951Y186102D02*
X1414717D01*
Y174495D01*
X1416165Y174686D01*
X1418699Y175735D01*
X1420874Y177404D01*
X1422543Y179580D01*
X1423593Y182113D01*
X1423951Y184832D01*
Y186102D01*
D02*
G37*
G36*
X1412177D02*
X1402943D01*
Y184832D01*
X1403301Y182113D01*
X1404350Y179580D01*
X1406019Y177404D01*
X1408195Y175735D01*
X1410728Y174686D01*
X1412177Y174495D01*
Y186102D01*
D02*
G37*
G36*
X287020Y145280D02*
Y137160D01*
X295140D01*
X294508Y139518D01*
X293271Y141661D01*
X291521Y143411D01*
X289378Y144649D01*
X287020Y145280D01*
D02*
G37*
G36*
X284480D02*
X282122Y144649D01*
X279979Y143411D01*
X278229Y141661D01*
X276992Y139518D01*
X276360Y137160D01*
X284480D01*
Y145280D01*
D02*
G37*
G36*
X295140Y134620D02*
X287020D01*
Y126500D01*
X289378Y127132D01*
X291521Y128369D01*
X293271Y130119D01*
X294508Y132262D01*
X295140Y134620D01*
D02*
G37*
G36*
X284480D02*
X276360D01*
X276992Y132262D01*
X278229Y130119D01*
X279979Y128369D01*
X282122Y127132D01*
X284480Y126500D01*
Y134620D01*
D02*
G37*
G36*
X62121Y146305D02*
X59379D01*
X56730Y145595D01*
X54355Y144224D01*
X52416Y142285D01*
X51045Y139910D01*
X50335Y137261D01*
Y134519D01*
X51045Y131870D01*
X52416Y129495D01*
X54355Y127556D01*
X56730Y126185D01*
X59379Y125475D01*
X62121D01*
X64770Y126185D01*
X67145Y127556D01*
X69084Y129495D01*
X70455Y131870D01*
X71165Y134519D01*
Y137261D01*
X70455Y139910D01*
X69084Y142285D01*
X67145Y144224D01*
X64770Y145595D01*
X62121Y146305D01*
D02*
G37*
G36*
X1399319Y85344D02*
X1398270D01*
Y57150D01*
X1426464D01*
Y58199D01*
X1425739Y62779D01*
X1424305Y67190D01*
X1422200Y71322D01*
X1419474Y75075D01*
X1416194Y78354D01*
X1412442Y81080D01*
X1408310Y83185D01*
X1403900Y84619D01*
X1399319Y85344D01*
D02*
G37*
G36*
X1395730D02*
X1394681D01*
X1390101Y84619D01*
X1385690Y83185D01*
X1381557Y81080D01*
X1377805Y78354D01*
X1374526Y75075D01*
X1371800Y71322D01*
X1369695Y67190D01*
X1368262Y62779D01*
X1367536Y58199D01*
Y57150D01*
X1395730D01*
Y85344D01*
D02*
G37*
G36*
X53119D02*
X52070D01*
Y57150D01*
X80264D01*
Y58199D01*
X79538Y62779D01*
X78105Y67190D01*
X76000Y71322D01*
X73274Y75075D01*
X69995Y78354D01*
X66242Y81080D01*
X62110Y83185D01*
X57699Y84619D01*
X53119Y85344D01*
D02*
G37*
G36*
X49530D02*
X48481D01*
X43900Y84619D01*
X39490Y83185D01*
X35357Y81080D01*
X31606Y78354D01*
X28326Y75075D01*
X25600Y71322D01*
X23495Y67190D01*
X22062Y62779D01*
X21336Y58199D01*
Y57150D01*
X49530D01*
Y85344D01*
D02*
G37*
G36*
X529590Y54732D02*
Y47000D01*
X537322D01*
X536729Y49213D01*
X535541Y51271D01*
X533861Y52951D01*
X531803Y54139D01*
X529590Y54732D01*
D02*
G37*
G36*
X527050D02*
X524837Y54139D01*
X522779Y52951D01*
X521099Y51271D01*
X519911Y49213D01*
X519318Y47000D01*
X527050D01*
Y54732D01*
D02*
G37*
G36*
X537322Y44460D02*
X529590D01*
Y36728D01*
X531803Y37321D01*
X533861Y38509D01*
X535541Y40189D01*
X536729Y42247D01*
X537322Y44460D01*
D02*
G37*
G36*
X527050D02*
X519318D01*
X519911Y42247D01*
X521099Y40189D01*
X522779Y38509D01*
X524837Y37321D01*
X527050Y36728D01*
Y44460D01*
D02*
G37*
G36*
X460890Y55760D02*
X440810D01*
Y35680D01*
X460890D01*
Y55760D01*
D02*
G37*
G36*
X1426464Y54610D02*
X1398270D01*
Y26416D01*
X1399319D01*
X1403900Y27141D01*
X1408310Y28575D01*
X1412442Y30680D01*
X1416194Y33406D01*
X1419474Y36686D01*
X1422200Y40437D01*
X1424305Y44570D01*
X1425739Y48980D01*
X1426464Y53561D01*
Y54610D01*
D02*
G37*
G36*
X1395730D02*
X1367536D01*
Y53561D01*
X1368262Y48980D01*
X1369695Y44570D01*
X1371800Y40437D01*
X1374526Y36686D01*
X1377805Y33406D01*
X1381557Y30680D01*
X1385690Y28575D01*
X1390101Y27141D01*
X1394681Y26416D01*
X1395730D01*
Y54610D01*
D02*
G37*
G36*
X80264D02*
X52070D01*
Y26416D01*
X53119D01*
X57699Y27141D01*
X62110Y28575D01*
X66242Y30680D01*
X69995Y33406D01*
X73274Y36686D01*
X76000Y40437D01*
X78105Y44570D01*
X79538Y48980D01*
X80264Y53561D01*
Y54610D01*
D02*
G37*
G36*
X49530D02*
X21336D01*
Y53561D01*
X22062Y48980D01*
X23495Y44570D01*
X25600Y40437D01*
X28326Y36686D01*
X31606Y33406D01*
X35357Y30680D01*
X39490Y28575D01*
X43900Y27141D01*
X48481Y26416D01*
X49530D01*
Y54610D01*
D02*
G37*
%LPD*%
D42*
X287383Y631305D02*
D03*
X362383D02*
D03*
X289560Y829310D02*
D03*
X364560D02*
D03*
D47*
X171001Y846951D02*
D03*
Y808851D02*
D03*
Y770751D02*
D03*
Y732651D02*
D03*
D54*
X512980Y647800D02*
Y887730D01*
Y647800D02*
X515620Y645160D01*
D55*
X999490Y800100D02*
X1097280Y702310D01*
Y389890D02*
Y702310D01*
X835660Y800100D02*
X999490D01*
X685800Y949960D02*
X835660Y800100D01*
X683260Y949960D02*
X685800D01*
D61*
X283210Y469900D02*
D03*
X58210D02*
D03*
X59480Y355600D02*
D03*
X284480D02*
D03*
X59690Y242570D02*
D03*
X284690D02*
D03*
X60750Y135890D02*
D03*
X285750D02*
D03*
D62*
X1397000Y55880D02*
D03*
Y965200D02*
D03*
X55880D02*
D03*
X50800Y55880D02*
D03*
D63*
X1413447Y187372D02*
D03*
Y241982D02*
D03*
X1418590Y499110D02*
D03*
Y444500D02*
D03*
X60960Y589280D02*
D03*
Y643890D02*
D03*
D64*
X914400Y405600D02*
D03*
Y355600D02*
D03*
X1319669Y192547D02*
D03*
Y242547D02*
D03*
X1318260Y357670D02*
D03*
Y407670D02*
D03*
Y525310D02*
D03*
Y575310D02*
D03*
X1316990Y696760D02*
D03*
Y746760D02*
D03*
X535940Y674470D02*
D03*
Y839470D02*
D03*
X1216660Y196380D02*
D03*
Y361480D02*
D03*
X1215390Y526580D02*
D03*
X1214120Y696760D02*
D03*
D65*
X969010Y294237D02*
D03*
X914400D02*
D03*
X481938Y951012D02*
D03*
X427328D02*
D03*
X683260Y949960D02*
D03*
X628650D02*
D03*
D66*
X538480Y887730D02*
D03*
X512980D02*
D03*
D67*
X487480D02*
D03*
D68*
X528320Y45730D02*
D03*
X450850Y506720D02*
D03*
D69*
X528320Y506730D02*
D03*
X450850Y45720D02*
D03*
D70*
X1216660Y246380D02*
D03*
Y411480D02*
D03*
X1215390Y576580D02*
D03*
X1214120Y746760D02*
D03*
D71*
X1097280Y389890D02*
D03*
X515620Y645160D02*
D03*
M02*
