G04*
G04 #@! TF.GenerationSoftware,Altium Limited,Altium Designer,23.3.1 (30)*
G04*
G04 Layer_Color=16711935*
%FSLAX44Y44*%
%MOMM*%
G71*
G04*
G04 #@! TF.SameCoordinates,7FF98350-13BF-4DC0-BCDE-F856E8DDA7C8*
G04*
G04*
G04 #@! TF.FilePolarity,Positive*
G04*
G01*
G75*
%ADD10C,0.2000*%
G36*
X970859Y457775D02*
X970963D01*
X971088Y457768D01*
X971219Y457761D01*
X971365Y457747D01*
X971517Y457733D01*
X971677Y457719D01*
X972003Y457671D01*
X972322Y457602D01*
X972467Y457560D01*
X972613Y457511D01*
X972620D01*
X972648Y457497D01*
X972682Y457484D01*
X972731Y457463D01*
X972793Y457435D01*
X972863Y457401D01*
X972939Y457359D01*
X973022Y457317D01*
X973196Y457206D01*
X973383Y457068D01*
X973556Y456908D01*
X973639Y456818D01*
X973716Y456721D01*
X973723Y456714D01*
X973729Y456700D01*
X973750Y456665D01*
X973771Y456631D01*
X973799Y456575D01*
X973834Y456520D01*
X973868Y456451D01*
X973903Y456367D01*
X973938Y456284D01*
X973972Y456187D01*
X974000Y456090D01*
X974035Y455979D01*
X974076Y455743D01*
X974083Y455618D01*
X974090Y455487D01*
Y455417D01*
X974083Y455362D01*
X974076Y455299D01*
X974069Y455223D01*
X974055Y455140D01*
X974035Y455050D01*
X973986Y454856D01*
X973951Y454758D01*
X973917Y454655D01*
X973868Y454551D01*
X973813Y454446D01*
X973750Y454349D01*
X973674Y454259D01*
X973667Y454252D01*
X973653Y454239D01*
X973633Y454218D01*
X973598Y454183D01*
X973556Y454148D01*
X973501Y454107D01*
X973438Y454058D01*
X973369Y454010D01*
X973293Y453961D01*
X973203Y453913D01*
X973105Y453871D01*
X973001Y453822D01*
X972890Y453781D01*
X972773Y453746D01*
X972641Y453718D01*
X972502Y453698D01*
X972440Y454453D01*
X972447D01*
X972461Y454460D01*
X972488D01*
X972530Y454474D01*
X972571Y454481D01*
X972620Y454495D01*
X972738Y454530D01*
X972863Y454578D01*
X972988Y454641D01*
X973105Y454724D01*
X973161Y454766D01*
X973210Y454814D01*
X973216Y454828D01*
X973244Y454863D01*
X973286Y454925D01*
X973327Y455001D01*
X973369Y455105D01*
X973411Y455223D01*
X973438Y455355D01*
X973445Y455507D01*
Y455570D01*
X973438Y455639D01*
X973424Y455722D01*
X973404Y455820D01*
X973376Y455924D01*
X973341Y456034D01*
X973286Y456138D01*
X973279Y456152D01*
X973258Y456187D01*
X973216Y456236D01*
X973168Y456298D01*
X973105Y456367D01*
X973029Y456443D01*
X972939Y456520D01*
X972842Y456589D01*
X972828Y456596D01*
X972793Y456617D01*
X972731Y456652D01*
X972641Y456693D01*
X972537Y456735D01*
X972412Y456783D01*
X972260Y456832D01*
X972093Y456880D01*
X972086D01*
X972072Y456887D01*
X972045Y456894D01*
X972010Y456901D01*
X971968Y456908D01*
X971920Y456915D01*
X971857Y456929D01*
X971795Y456943D01*
X971649Y456964D01*
X971490Y456978D01*
X971316Y456991D01*
X971136Y456998D01*
X971122D01*
X971095D01*
X971046D01*
X970984D01*
X970991Y456984D01*
X971011Y456978D01*
X971039Y456957D01*
X971108Y456901D01*
X971192Y456832D01*
X971289Y456735D01*
X971393Y456624D01*
X971490Y456499D01*
X971587Y456353D01*
Y456347D01*
X971594Y456333D01*
X971608Y456312D01*
X971622Y456284D01*
X971642Y456242D01*
X971656Y456201D01*
X971698Y456090D01*
X971746Y455958D01*
X971781Y455806D01*
X971809Y455639D01*
X971816Y455466D01*
Y455431D01*
X971809Y455390D01*
Y455334D01*
X971795Y455265D01*
X971788Y455188D01*
X971767Y455098D01*
X971746Y455001D01*
X971712Y454897D01*
X971677Y454793D01*
X971628Y454682D01*
X971573Y454571D01*
X971511Y454453D01*
X971434Y454342D01*
X971344Y454231D01*
X971247Y454128D01*
X971240Y454121D01*
X971219Y454107D01*
X971185Y454079D01*
X971143Y454044D01*
X971088Y454003D01*
X971018Y453954D01*
X970935Y453906D01*
X970838Y453857D01*
X970741Y453802D01*
X970623Y453753D01*
X970498Y453704D01*
X970367Y453663D01*
X970221Y453628D01*
X970061Y453601D01*
X969902Y453587D01*
X969728Y453580D01*
X969715D01*
X969687D01*
X969631Y453587D01*
X969569D01*
X969486Y453601D01*
X969389Y453607D01*
X969285Y453628D01*
X969167Y453649D01*
X969049Y453684D01*
X968917Y453718D01*
X968785Y453767D01*
X968661Y453822D01*
X968529Y453885D01*
X968397Y453961D01*
X968279Y454051D01*
X968161Y454148D01*
X968155Y454155D01*
X968134Y454176D01*
X968106Y454211D01*
X968071Y454252D01*
X968023Y454308D01*
X967974Y454377D01*
X967919Y454453D01*
X967863Y454544D01*
X967808Y454641D01*
X967752Y454752D01*
X967704Y454869D01*
X967655Y454994D01*
X967620Y455133D01*
X967593Y455279D01*
X967572Y455424D01*
X967565Y455584D01*
Y455646D01*
X967572Y455688D01*
Y455743D01*
X967586Y455806D01*
X967593Y455882D01*
X967607Y455958D01*
X967648Y456138D01*
X967711Y456326D01*
X967745Y456423D01*
X967794Y456527D01*
X967842Y456624D01*
X967905Y456721D01*
X967912Y456728D01*
X967919Y456742D01*
X967940Y456769D01*
X967967Y456804D01*
X968002Y456853D01*
X968044Y456901D01*
X968092Y456957D01*
X968148Y457012D01*
X968210Y457075D01*
X968286Y457144D01*
X968363Y457206D01*
X968446Y457276D01*
X968543Y457338D01*
X968640Y457401D01*
X968751Y457456D01*
X968862Y457511D01*
X968869D01*
X968889Y457525D01*
X968924Y457539D01*
X968980Y457553D01*
X969042Y457574D01*
X969118Y457595D01*
X969209Y457622D01*
X969319Y457650D01*
X969437Y457671D01*
X969569Y457699D01*
X969722Y457719D01*
X969881Y457740D01*
X970054Y457754D01*
X970242Y457768D01*
X970443Y457782D01*
X970658D01*
X970672D01*
X970713D01*
X970776D01*
X970859Y457775D01*
D02*
G37*
G36*
X973986Y452020D02*
X972655Y451174D01*
X972648Y451167D01*
X972627Y451160D01*
X972599Y451139D01*
X972558Y451111D01*
X972509Y451083D01*
X972454Y451042D01*
X972329Y450959D01*
X972183Y450862D01*
X972038Y450764D01*
X971899Y450660D01*
X971774Y450563D01*
X971767D01*
X971760Y450550D01*
X971726Y450522D01*
X971670Y450480D01*
X971608Y450418D01*
X971538Y450355D01*
X971469Y450279D01*
X971400Y450203D01*
X971351Y450133D01*
X971344Y450126D01*
X971330Y450099D01*
X971310Y450064D01*
X971282Y450015D01*
X971254Y449953D01*
X971226Y449891D01*
X971199Y449821D01*
X971178Y449745D01*
Y449738D01*
X971171Y449717D01*
X971164Y449683D01*
X971157Y449634D01*
Y449565D01*
X971150Y449482D01*
X971143Y449384D01*
Y448296D01*
X973986D01*
Y447450D01*
X967586D01*
Y450425D01*
X967593Y450501D01*
Y450577D01*
X967600Y450667D01*
X967607Y450771D01*
X967627Y450979D01*
X967662Y451194D01*
X967704Y451402D01*
X967731Y451493D01*
X967759Y451583D01*
Y451590D01*
X967766Y451604D01*
X967780Y451624D01*
X967794Y451659D01*
X967835Y451742D01*
X967898Y451839D01*
X967981Y451957D01*
X968092Y452075D01*
X968217Y452193D01*
X968369Y452297D01*
X968376D01*
X968390Y452311D01*
X968411Y452325D01*
X968446Y452338D01*
X968487Y452359D01*
X968536Y452380D01*
X968591Y452408D01*
X968654Y452436D01*
X968799Y452484D01*
X968959Y452526D01*
X969139Y452553D01*
X969333Y452567D01*
X969340D01*
X969361D01*
X969403D01*
X969444Y452560D01*
X969507Y452553D01*
X969576Y452547D01*
X969652Y452533D01*
X969735Y452512D01*
X969916Y452456D01*
X970013Y452422D01*
X970110Y452380D01*
X970207Y452332D01*
X970304Y452269D01*
X970394Y452200D01*
X970484Y452123D01*
X970491Y452117D01*
X970505Y452103D01*
X970526Y452075D01*
X970561Y452040D01*
X970595Y451992D01*
X970637Y451936D01*
X970685Y451867D01*
X970734Y451784D01*
X970782Y451694D01*
X970831Y451596D01*
X970880Y451486D01*
X970928Y451361D01*
X970970Y451229D01*
X971011Y451083D01*
X971046Y450924D01*
X971074Y450757D01*
Y450764D01*
X971081Y450771D01*
X971102Y450813D01*
X971136Y450875D01*
X971178Y450952D01*
X971226Y451035D01*
X971275Y451118D01*
X971337Y451201D01*
X971393Y451271D01*
X971400Y451278D01*
X971407Y451284D01*
X971427Y451305D01*
X971455Y451333D01*
X971490Y451368D01*
X971531Y451409D01*
X971628Y451499D01*
X971753Y451604D01*
X971899Y451721D01*
X972065Y451846D01*
X972246Y451971D01*
X973986Y453080D01*
Y452020D01*
D02*
G37*
G36*
X1011074Y464385D02*
X1011067Y464309D01*
Y464233D01*
X1011060Y464143D01*
X1011053Y464039D01*
X1011032Y463831D01*
X1010998Y463616D01*
X1010956Y463408D01*
X1010928Y463317D01*
X1010901Y463227D01*
Y463220D01*
X1010894Y463206D01*
X1010880Y463186D01*
X1010866Y463151D01*
X1010825Y463068D01*
X1010762Y462971D01*
X1010679Y462853D01*
X1010568Y462735D01*
X1010443Y462617D01*
X1010291Y462513D01*
X1010284D01*
X1010270Y462499D01*
X1010249Y462485D01*
X1010214Y462472D01*
X1010173Y462451D01*
X1010124Y462430D01*
X1010069Y462402D01*
X1010006Y462374D01*
X1009861Y462326D01*
X1009701Y462284D01*
X1009521Y462257D01*
X1009327Y462243D01*
X1009320D01*
X1009299D01*
X1009257D01*
X1009216Y462250D01*
X1009153Y462257D01*
X1009084Y462263D01*
X1009008Y462277D01*
X1008925Y462298D01*
X1008744Y462354D01*
X1008647Y462388D01*
X1008550Y462430D01*
X1008453Y462478D01*
X1008356Y462541D01*
X1008266Y462610D01*
X1008176Y462687D01*
X1008169Y462693D01*
X1008155Y462707D01*
X1008134Y462735D01*
X1008099Y462770D01*
X1008065Y462818D01*
X1008023Y462874D01*
X1007975Y462943D01*
X1007926Y463026D01*
X1007878Y463116D01*
X1007829Y463214D01*
X1007780Y463324D01*
X1007732Y463449D01*
X1007690Y463581D01*
X1007649Y463727D01*
X1007614Y463886D01*
X1007586Y464053D01*
Y464046D01*
X1007579Y464039D01*
X1007559Y463997D01*
X1007524Y463935D01*
X1007482Y463858D01*
X1007434Y463775D01*
X1007385Y463692D01*
X1007323Y463609D01*
X1007267Y463539D01*
X1007260Y463532D01*
X1007253Y463526D01*
X1007233Y463505D01*
X1007205Y463477D01*
X1007170Y463442D01*
X1007129Y463401D01*
X1007031Y463311D01*
X1006907Y463206D01*
X1006761Y463089D01*
X1006595Y462964D01*
X1006414Y462839D01*
X1004674Y461730D01*
Y462790D01*
X1006005Y463637D01*
X1006012Y463643D01*
X1006033Y463650D01*
X1006061Y463671D01*
X1006102Y463699D01*
X1006151Y463727D01*
X1006206Y463768D01*
X1006331Y463851D01*
X1006477Y463949D01*
X1006622Y464046D01*
X1006761Y464150D01*
X1006886Y464247D01*
X1006893D01*
X1006900Y464260D01*
X1006934Y464288D01*
X1006990Y464330D01*
X1007052Y464392D01*
X1007122Y464455D01*
X1007191Y464531D01*
X1007260Y464607D01*
X1007309Y464677D01*
X1007316Y464683D01*
X1007330Y464711D01*
X1007350Y464746D01*
X1007378Y464795D01*
X1007406Y464857D01*
X1007434Y464919D01*
X1007461Y464989D01*
X1007482Y465065D01*
Y465072D01*
X1007489Y465093D01*
X1007496Y465127D01*
X1007503Y465176D01*
Y465245D01*
X1007510Y465328D01*
X1007517Y465425D01*
Y466514D01*
X1004674D01*
Y467360D01*
X1011074D01*
Y464385D01*
D02*
G37*
G36*
X1006629Y461237D02*
X1006685D01*
X1006747Y461230D01*
X1006817Y461216D01*
X1006893Y461203D01*
X1007052Y461168D01*
X1007226Y461112D01*
X1007399Y461036D01*
X1007482Y460988D01*
X1007565Y460932D01*
X1007572Y460925D01*
X1007586Y460918D01*
X1007607Y460897D01*
X1007635Y460870D01*
X1007670Y460842D01*
X1007704Y460800D01*
X1007753Y460752D01*
X1007794Y460696D01*
X1007891Y460572D01*
X1007988Y460419D01*
X1008072Y460239D01*
X1008141Y460031D01*
Y460038D01*
X1008148Y460051D01*
X1008162Y460079D01*
X1008176Y460107D01*
X1008189Y460149D01*
X1008217Y460197D01*
X1008273Y460301D01*
X1008342Y460419D01*
X1008432Y460537D01*
X1008529Y460655D01*
X1008647Y460752D01*
X1008654D01*
X1008661Y460759D01*
X1008682Y460773D01*
X1008710Y460787D01*
X1008779Y460828D01*
X1008869Y460870D01*
X1008987Y460911D01*
X1009126Y460953D01*
X1009278Y460981D01*
X1009445Y460988D01*
X1009452D01*
X1009472D01*
X1009514Y460981D01*
X1009563D01*
X1009618Y460974D01*
X1009687Y460960D01*
X1009764Y460946D01*
X1009854Y460925D01*
X1009944Y460897D01*
X1010034Y460863D01*
X1010131Y460828D01*
X1010235Y460780D01*
X1010332Y460717D01*
X1010429Y460655D01*
X1010526Y460578D01*
X1010617Y460488D01*
X1010623Y460481D01*
X1010637Y460467D01*
X1010658Y460440D01*
X1010693Y460398D01*
X1010727Y460350D01*
X1010769Y460287D01*
X1010811Y460218D01*
X1010859Y460135D01*
X1010901Y460045D01*
X1010942Y459940D01*
X1010984Y459837D01*
X1011019Y459719D01*
X1011053Y459587D01*
X1011074Y459455D01*
X1011088Y459310D01*
X1011095Y459157D01*
Y459074D01*
X1011088Y459018D01*
X1011081Y458949D01*
X1011067Y458866D01*
X1011053Y458776D01*
X1011032Y458672D01*
X1011005Y458568D01*
X1010977Y458457D01*
X1010936Y458346D01*
X1010887Y458235D01*
X1010832Y458117D01*
X1010762Y458013D01*
X1010693Y457902D01*
X1010603Y457805D01*
X1010596Y457798D01*
X1010582Y457784D01*
X1010554Y457756D01*
X1010519Y457722D01*
X1010471Y457687D01*
X1010415Y457645D01*
X1010346Y457597D01*
X1010277Y457548D01*
X1010193Y457500D01*
X1010103Y457451D01*
X1010006Y457410D01*
X1009902Y457375D01*
X1009791Y457340D01*
X1009673Y457313D01*
X1009549Y457299D01*
X1009424Y457292D01*
X1009417D01*
X1009403D01*
X1009382D01*
X1009348D01*
X1009313Y457299D01*
X1009264Y457305D01*
X1009160Y457319D01*
X1009042Y457347D01*
X1008911Y457389D01*
X1008779Y457451D01*
X1008647Y457527D01*
X1008640D01*
X1008633Y457541D01*
X1008592Y457569D01*
X1008536Y457625D01*
X1008460Y457701D01*
X1008384Y457805D01*
X1008294Y457923D01*
X1008217Y458068D01*
X1008141Y458235D01*
Y458228D01*
X1008134Y458207D01*
X1008120Y458179D01*
X1008106Y458138D01*
X1008085Y458089D01*
X1008058Y458034D01*
X1007988Y457902D01*
X1007905Y457756D01*
X1007794Y457611D01*
X1007670Y457465D01*
X1007517Y457340D01*
X1007510Y457333D01*
X1007496Y457326D01*
X1007475Y457313D01*
X1007441Y457292D01*
X1007399Y457271D01*
X1007350Y457243D01*
X1007295Y457215D01*
X1007233Y457181D01*
X1007087Y457125D01*
X1006914Y457077D01*
X1006720Y457042D01*
X1006616Y457028D01*
X1006505D01*
X1006498D01*
X1006470D01*
X1006428Y457035D01*
X1006366D01*
X1006296Y457049D01*
X1006213Y457056D01*
X1006123Y457077D01*
X1006026Y457098D01*
X1005915Y457132D01*
X1005804Y457167D01*
X1005693Y457215D01*
X1005575Y457271D01*
X1005458Y457340D01*
X1005347Y457416D01*
X1005229Y457507D01*
X1005125Y457611D01*
X1005118Y457618D01*
X1005104Y457638D01*
X1005076Y457673D01*
X1005041Y457715D01*
X1004993Y457777D01*
X1004951Y457846D01*
X1004896Y457930D01*
X1004847Y458020D01*
X1004799Y458124D01*
X1004743Y458242D01*
X1004702Y458367D01*
X1004660Y458498D01*
X1004618Y458644D01*
X1004591Y458796D01*
X1004577Y458963D01*
X1004570Y459136D01*
Y459178D01*
X1004577Y459226D01*
Y459296D01*
X1004584Y459372D01*
X1004598Y459469D01*
X1004618Y459573D01*
X1004639Y459684D01*
X1004667Y459802D01*
X1004709Y459927D01*
X1004750Y460051D01*
X1004806Y460183D01*
X1004868Y460308D01*
X1004944Y460433D01*
X1005027Y460558D01*
X1005125Y460669D01*
X1005132Y460676D01*
X1005152Y460696D01*
X1005180Y460724D01*
X1005229Y460759D01*
X1005284Y460800D01*
X1005347Y460849D01*
X1005423Y460904D01*
X1005513Y460953D01*
X1005610Y461008D01*
X1005714Y461064D01*
X1005832Y461112D01*
X1005950Y461154D01*
X1006081Y461189D01*
X1006227Y461216D01*
X1006373Y461237D01*
X1006525Y461244D01*
X1006532D01*
X1006553D01*
X1006588D01*
X1006629Y461237D01*
D02*
G37*
G36*
X1032560Y464385D02*
X1032553Y464309D01*
Y464233D01*
X1032546Y464143D01*
X1032539Y464039D01*
X1032518Y463831D01*
X1032484Y463616D01*
X1032442Y463408D01*
X1032414Y463317D01*
X1032387Y463227D01*
Y463220D01*
X1032380Y463206D01*
X1032366Y463186D01*
X1032352Y463151D01*
X1032310Y463068D01*
X1032248Y462971D01*
X1032165Y462853D01*
X1032054Y462735D01*
X1031929Y462617D01*
X1031777Y462513D01*
X1031770D01*
X1031756Y462499D01*
X1031735Y462485D01*
X1031700Y462472D01*
X1031659Y462451D01*
X1031610Y462430D01*
X1031555Y462402D01*
X1031492Y462374D01*
X1031347Y462326D01*
X1031187Y462284D01*
X1031007Y462257D01*
X1030813Y462243D01*
X1030806D01*
X1030785D01*
X1030743D01*
X1030702Y462250D01*
X1030639Y462257D01*
X1030570Y462263D01*
X1030494Y462277D01*
X1030411Y462298D01*
X1030230Y462354D01*
X1030133Y462388D01*
X1030036Y462430D01*
X1029939Y462478D01*
X1029842Y462541D01*
X1029752Y462610D01*
X1029662Y462687D01*
X1029655Y462693D01*
X1029641Y462707D01*
X1029620Y462735D01*
X1029585Y462770D01*
X1029551Y462818D01*
X1029509Y462874D01*
X1029461Y462943D01*
X1029412Y463026D01*
X1029363Y463116D01*
X1029315Y463214D01*
X1029266Y463324D01*
X1029218Y463449D01*
X1029176Y463581D01*
X1029135Y463727D01*
X1029100Y463886D01*
X1029072Y464053D01*
Y464046D01*
X1029065Y464039D01*
X1029044Y463997D01*
X1029010Y463935D01*
X1028968Y463858D01*
X1028920Y463775D01*
X1028871Y463692D01*
X1028809Y463609D01*
X1028753Y463539D01*
X1028746Y463532D01*
X1028739Y463526D01*
X1028719Y463505D01*
X1028691Y463477D01*
X1028656Y463442D01*
X1028615Y463401D01*
X1028518Y463311D01*
X1028393Y463206D01*
X1028247Y463089D01*
X1028081Y462964D01*
X1027900Y462839D01*
X1026160Y461730D01*
Y462790D01*
X1027491Y463637D01*
X1027498Y463643D01*
X1027519Y463650D01*
X1027547Y463671D01*
X1027588Y463699D01*
X1027637Y463727D01*
X1027692Y463768D01*
X1027817Y463851D01*
X1027963Y463949D01*
X1028108Y464046D01*
X1028247Y464150D01*
X1028372Y464247D01*
X1028379D01*
X1028386Y464260D01*
X1028420Y464288D01*
X1028476Y464330D01*
X1028538Y464392D01*
X1028608Y464455D01*
X1028677Y464531D01*
X1028746Y464607D01*
X1028795Y464677D01*
X1028802Y464683D01*
X1028816Y464711D01*
X1028837Y464746D01*
X1028864Y464795D01*
X1028892Y464857D01*
X1028920Y464919D01*
X1028947Y464989D01*
X1028968Y465065D01*
Y465072D01*
X1028975Y465093D01*
X1028982Y465127D01*
X1028989Y465176D01*
Y465245D01*
X1028996Y465328D01*
X1029003Y465425D01*
Y466514D01*
X1026160D01*
Y467360D01*
X1032560D01*
Y464385D01*
D02*
G37*
G36*
X1032477Y457042D02*
X1031860D01*
X1031853Y457049D01*
X1031832Y457070D01*
X1031790Y457104D01*
X1031742Y457146D01*
X1031673Y457201D01*
X1031596Y457271D01*
X1031506Y457340D01*
X1031402Y457423D01*
X1031284Y457514D01*
X1031152Y457611D01*
X1031007Y457715D01*
X1030854Y457819D01*
X1030695Y457923D01*
X1030515Y458034D01*
X1030327Y458152D01*
X1030133Y458262D01*
X1030119Y458269D01*
X1030085Y458290D01*
X1030029Y458318D01*
X1029946Y458359D01*
X1029849Y458408D01*
X1029731Y458470D01*
X1029599Y458533D01*
X1029454Y458602D01*
X1029294Y458672D01*
X1029121Y458748D01*
X1028934Y458824D01*
X1028746Y458900D01*
X1028545Y458977D01*
X1028337Y459053D01*
X1027914Y459185D01*
X1027907D01*
X1027880Y459192D01*
X1027831Y459206D01*
X1027775Y459219D01*
X1027699Y459240D01*
X1027609Y459261D01*
X1027505Y459289D01*
X1027394Y459310D01*
X1027269Y459337D01*
X1027131Y459358D01*
X1026985Y459386D01*
X1026833Y459407D01*
X1026673Y459434D01*
X1026507Y459455D01*
X1026160Y459483D01*
Y460287D01*
X1026167D01*
X1026195D01*
X1026236D01*
X1026292Y460280D01*
X1026368Y460273D01*
X1026451Y460266D01*
X1026555Y460260D01*
X1026666Y460246D01*
X1026798Y460232D01*
X1026930Y460211D01*
X1027082Y460190D01*
X1027242Y460162D01*
X1027415Y460128D01*
X1027595Y460093D01*
X1027783Y460045D01*
X1027977Y459996D01*
X1027990Y459989D01*
X1028025Y459982D01*
X1028081Y459968D01*
X1028157Y459940D01*
X1028254Y459913D01*
X1028372Y459878D01*
X1028497Y459837D01*
X1028635Y459788D01*
X1028788Y459733D01*
X1028954Y459670D01*
X1029128Y459608D01*
X1029301Y459531D01*
X1029669Y459372D01*
X1030043Y459185D01*
X1030057Y459178D01*
X1030085Y459157D01*
X1030140Y459129D01*
X1030209Y459095D01*
X1030293Y459039D01*
X1030390Y458984D01*
X1030501Y458914D01*
X1030626Y458845D01*
X1030750Y458762D01*
X1030889Y458672D01*
X1031166Y458477D01*
X1031451Y458269D01*
X1031589Y458158D01*
X1031721Y458047D01*
Y461182D01*
X1032477D01*
Y457042D01*
D02*
G37*
G36*
X1061874Y445745D02*
X1061867Y445669D01*
Y445593D01*
X1061860Y445503D01*
X1061853Y445399D01*
X1061833Y445191D01*
X1061798Y444976D01*
X1061756Y444768D01*
X1061729Y444678D01*
X1061701Y444587D01*
Y444580D01*
X1061694Y444566D01*
X1061680Y444546D01*
X1061666Y444511D01*
X1061625Y444428D01*
X1061562Y444331D01*
X1061479Y444213D01*
X1061368Y444095D01*
X1061243Y443977D01*
X1061091Y443873D01*
X1061084D01*
X1061070Y443859D01*
X1061049Y443845D01*
X1061014Y443831D01*
X1060973Y443811D01*
X1060924Y443790D01*
X1060869Y443762D01*
X1060806Y443734D01*
X1060661Y443686D01*
X1060501Y443644D01*
X1060321Y443617D01*
X1060127Y443603D01*
X1060120D01*
X1060099D01*
X1060057D01*
X1060016Y443610D01*
X1059953Y443617D01*
X1059884Y443624D01*
X1059808Y443637D01*
X1059725Y443658D01*
X1059544Y443714D01*
X1059447Y443748D01*
X1059350Y443790D01*
X1059253Y443839D01*
X1059156Y443901D01*
X1059066Y443970D01*
X1058976Y444047D01*
X1058969Y444053D01*
X1058955Y444067D01*
X1058934Y444095D01*
X1058899Y444130D01*
X1058865Y444178D01*
X1058823Y444234D01*
X1058775Y444303D01*
X1058726Y444386D01*
X1058678Y444476D01*
X1058629Y444574D01*
X1058580Y444684D01*
X1058532Y444809D01*
X1058490Y444941D01*
X1058449Y445087D01*
X1058414Y445246D01*
X1058386Y445412D01*
Y445406D01*
X1058379Y445399D01*
X1058359Y445357D01*
X1058324Y445295D01*
X1058282Y445218D01*
X1058234Y445135D01*
X1058185Y445052D01*
X1058123Y444969D01*
X1058067Y444899D01*
X1058060Y444893D01*
X1058053Y444885D01*
X1058033Y444865D01*
X1058005Y444837D01*
X1057970Y444802D01*
X1057929Y444761D01*
X1057831Y444671D01*
X1057707Y444566D01*
X1057561Y444449D01*
X1057395Y444324D01*
X1057214Y444199D01*
X1055474Y443090D01*
Y444151D01*
X1056805Y444996D01*
X1056812Y445003D01*
X1056833Y445010D01*
X1056861Y445031D01*
X1056902Y445059D01*
X1056951Y445087D01*
X1057006Y445128D01*
X1057131Y445211D01*
X1057277Y445308D01*
X1057422Y445406D01*
X1057561Y445510D01*
X1057686Y445607D01*
X1057693D01*
X1057700Y445620D01*
X1057734Y445648D01*
X1057790Y445690D01*
X1057852Y445752D01*
X1057922Y445815D01*
X1057991Y445891D01*
X1058060Y445967D01*
X1058109Y446037D01*
X1058116Y446044D01*
X1058130Y446071D01*
X1058150Y446106D01*
X1058178Y446155D01*
X1058206Y446217D01*
X1058234Y446279D01*
X1058261Y446349D01*
X1058282Y446425D01*
Y446432D01*
X1058289Y446453D01*
X1058296Y446487D01*
X1058303Y446536D01*
Y446605D01*
X1058310Y446688D01*
X1058317Y446786D01*
Y447874D01*
X1055474D01*
Y448720D01*
X1061874D01*
Y445745D01*
D02*
G37*
G36*
X1058643Y442625D02*
X1058698D01*
X1058768Y442618D01*
X1058920Y442611D01*
X1059093Y442597D01*
X1059288Y442576D01*
X1059496Y442549D01*
X1059718Y442507D01*
X1059939Y442466D01*
X1060161Y442410D01*
X1060383Y442341D01*
X1060598Y442264D01*
X1060806Y442174D01*
X1060993Y442063D01*
X1061160Y441945D01*
X1061167Y441939D01*
X1061195Y441918D01*
X1061229Y441883D01*
X1061278Y441834D01*
X1061333Y441779D01*
X1061396Y441703D01*
X1061458Y441619D01*
X1061527Y441522D01*
X1061597Y441412D01*
X1061659Y441287D01*
X1061722Y441155D01*
X1061777Y441009D01*
X1061826Y440857D01*
X1061860Y440690D01*
X1061888Y440517D01*
X1061895Y440330D01*
Y440253D01*
X1061888Y440205D01*
X1061881Y440143D01*
X1061874Y440066D01*
X1061860Y439983D01*
X1061840Y439893D01*
X1061791Y439692D01*
X1061756Y439595D01*
X1061715Y439484D01*
X1061666Y439380D01*
X1061604Y439283D01*
X1061541Y439186D01*
X1061465Y439089D01*
X1061458Y439082D01*
X1061444Y439068D01*
X1061423Y439040D01*
X1061389Y439012D01*
X1061347Y438971D01*
X1061292Y438929D01*
X1061229Y438881D01*
X1061160Y438832D01*
X1061084Y438783D01*
X1060993Y438735D01*
X1060896Y438686D01*
X1060792Y438638D01*
X1060682Y438596D01*
X1060564Y438562D01*
X1060439Y438527D01*
X1060300Y438506D01*
X1060238Y439290D01*
X1060245D01*
X1060258Y439297D01*
X1060279Y439304D01*
X1060314Y439310D01*
X1060397Y439331D01*
X1060494Y439366D01*
X1060605Y439408D01*
X1060716Y439463D01*
X1060820Y439519D01*
X1060910Y439588D01*
X1060917Y439595D01*
X1060924Y439602D01*
X1060945Y439622D01*
X1060966Y439643D01*
X1061021Y439713D01*
X1061084Y439810D01*
X1061146Y439921D01*
X1061195Y440059D01*
X1061236Y440212D01*
X1061243Y440295D01*
X1061250Y440378D01*
Y440441D01*
X1061236Y440517D01*
X1061222Y440607D01*
X1061195Y440711D01*
X1061160Y440822D01*
X1061105Y440933D01*
X1061035Y441044D01*
Y441051D01*
X1061021Y441058D01*
X1061007Y441079D01*
X1060987Y441106D01*
X1060924Y441169D01*
X1060834Y441252D01*
X1060723Y441349D01*
X1060584Y441446D01*
X1060425Y441536D01*
X1060245Y441626D01*
X1060238D01*
X1060224Y441633D01*
X1060189Y441647D01*
X1060147Y441661D01*
X1060099Y441675D01*
X1060030Y441696D01*
X1059953Y441717D01*
X1059870Y441737D01*
X1059773Y441758D01*
X1059662Y441772D01*
X1059537Y441793D01*
X1059406Y441814D01*
X1059267Y441828D01*
X1059114Y441834D01*
X1058948Y441841D01*
X1058782Y441848D01*
X1058795Y441834D01*
X1058816Y441821D01*
X1058844Y441800D01*
X1058920Y441737D01*
X1059017Y441661D01*
X1059121Y441557D01*
X1059225Y441439D01*
X1059322Y441307D01*
X1059413Y441162D01*
Y441155D01*
X1059419Y441141D01*
X1059433Y441120D01*
X1059447Y441092D01*
X1059461Y441051D01*
X1059482Y441009D01*
X1059523Y440898D01*
X1059558Y440767D01*
X1059593Y440621D01*
X1059621Y440462D01*
X1059628Y440295D01*
Y440260D01*
X1059621Y440219D01*
Y440163D01*
X1059607Y440094D01*
X1059600Y440018D01*
X1059579Y439928D01*
X1059558Y439831D01*
X1059523Y439733D01*
X1059489Y439622D01*
X1059440Y439511D01*
X1059385Y439401D01*
X1059315Y439283D01*
X1059239Y439172D01*
X1059149Y439061D01*
X1059045Y438957D01*
X1059038Y438950D01*
X1059017Y438936D01*
X1058989Y438908D01*
X1058941Y438867D01*
X1058885Y438825D01*
X1058816Y438783D01*
X1058733Y438728D01*
X1058643Y438679D01*
X1058539Y438631D01*
X1058428Y438575D01*
X1058303Y438534D01*
X1058171Y438485D01*
X1058033Y438451D01*
X1057880Y438423D01*
X1057721Y438409D01*
X1057554Y438402D01*
X1057547D01*
X1057526D01*
X1057499D01*
X1057450Y438409D01*
X1057402D01*
X1057339Y438416D01*
X1057263Y438423D01*
X1057187Y438437D01*
X1057013Y438465D01*
X1056826Y438513D01*
X1056632Y438575D01*
X1056431Y438666D01*
X1056424D01*
X1056410Y438679D01*
X1056382Y438693D01*
X1056348Y438714D01*
X1056306Y438742D01*
X1056257Y438770D01*
X1056140Y438853D01*
X1056015Y438950D01*
X1055883Y439075D01*
X1055751Y439220D01*
X1055640Y439380D01*
Y439387D01*
X1055626Y439401D01*
X1055613Y439428D01*
X1055599Y439463D01*
X1055578Y439505D01*
X1055557Y439553D01*
X1055529Y439616D01*
X1055509Y439678D01*
X1055453Y439831D01*
X1055412Y440011D01*
X1055384Y440205D01*
X1055370Y440413D01*
Y440455D01*
X1055377Y440510D01*
X1055384Y440579D01*
X1055391Y440663D01*
X1055412Y440760D01*
X1055432Y440864D01*
X1055460Y440982D01*
X1055502Y441106D01*
X1055543Y441238D01*
X1055606Y441370D01*
X1055675Y441502D01*
X1055758Y441640D01*
X1055855Y441765D01*
X1055966Y441897D01*
X1056091Y442015D01*
X1056098Y442022D01*
X1056126Y442043D01*
X1056167Y442070D01*
X1056230Y442112D01*
X1056306Y442160D01*
X1056403Y442209D01*
X1056521Y442264D01*
X1056660Y442320D01*
X1056812Y442382D01*
X1056985Y442438D01*
X1057180Y442486D01*
X1057395Y442535D01*
X1057630Y442576D01*
X1057887Y442604D01*
X1058164Y442625D01*
X1058463Y442632D01*
X1058469D01*
X1058483D01*
X1058511D01*
X1058546D01*
X1058587D01*
X1058643Y442625D01*
D02*
G37*
G36*
X1360581Y457400D02*
X1360658Y457393D01*
X1360741Y457379D01*
X1360838Y457365D01*
X1360949Y457344D01*
X1361060Y457316D01*
X1361185Y457282D01*
X1361309Y457240D01*
X1361434Y457192D01*
X1361559Y457136D01*
X1361691Y457067D01*
X1361816Y456990D01*
X1361933Y456900D01*
X1361940Y456893D01*
X1361968Y456873D01*
X1362003Y456838D01*
X1362051Y456789D01*
X1362114Y456727D01*
X1362176Y456651D01*
X1362253Y456561D01*
X1362322Y456456D01*
X1362391Y456346D01*
X1362467Y456221D01*
X1362530Y456082D01*
X1362585Y455929D01*
X1362641Y455770D01*
X1362675Y455597D01*
X1362703Y455416D01*
X1362710Y455222D01*
Y455139D01*
X1362703Y455077D01*
X1362696Y455000D01*
X1362682Y454917D01*
X1362668Y454820D01*
X1362648Y454716D01*
X1362627Y454605D01*
X1362592Y454487D01*
X1362551Y454369D01*
X1362502Y454251D01*
X1362447Y454134D01*
X1362384Y454016D01*
X1362308Y453905D01*
X1362225Y453794D01*
X1362218Y453787D01*
X1362204Y453773D01*
X1362176Y453745D01*
X1362135Y453711D01*
X1362086Y453662D01*
X1362031Y453614D01*
X1361961Y453565D01*
X1361878Y453509D01*
X1361795Y453454D01*
X1361698Y453399D01*
X1361587Y453350D01*
X1361476Y453302D01*
X1361351Y453253D01*
X1361219Y453218D01*
X1361074Y453190D01*
X1360928Y453170D01*
X1360866Y453995D01*
X1360873D01*
X1360893Y454002D01*
X1360921Y454009D01*
X1360963Y454016D01*
X1361011Y454023D01*
X1361074Y454043D01*
X1361205Y454078D01*
X1361351Y454134D01*
X1361504Y454210D01*
X1361642Y454300D01*
X1361705Y454356D01*
X1361767Y454411D01*
Y454418D01*
X1361781Y454425D01*
X1361795Y454446D01*
X1361816Y454473D01*
X1361864Y454543D01*
X1361913Y454640D01*
X1361968Y454758D01*
X1362017Y454896D01*
X1362051Y455049D01*
X1362058Y455132D01*
X1362065Y455222D01*
Y455278D01*
X1362058Y455319D01*
X1362051Y455368D01*
X1362044Y455423D01*
X1362010Y455555D01*
X1361961Y455708D01*
X1361927Y455784D01*
X1361885Y455867D01*
X1361836Y455950D01*
X1361781Y456027D01*
X1361718Y456103D01*
X1361642Y456179D01*
X1361635Y456186D01*
X1361622Y456193D01*
X1361601Y456214D01*
X1361566Y456242D01*
X1361517Y456269D01*
X1361469Y456304D01*
X1361407Y456339D01*
X1361337Y456380D01*
X1361261Y456415D01*
X1361178Y456450D01*
X1361081Y456484D01*
X1360983Y456512D01*
X1360873Y456540D01*
X1360755Y456561D01*
X1360637Y456567D01*
X1360505Y456574D01*
X1360498D01*
X1360477D01*
X1360443D01*
X1360394Y456567D01*
X1360339Y456561D01*
X1360269Y456554D01*
X1360200Y456540D01*
X1360117Y456526D01*
X1359950Y456484D01*
X1359770Y456415D01*
X1359687Y456373D01*
X1359604Y456318D01*
X1359520Y456262D01*
X1359444Y456193D01*
X1359437Y456186D01*
X1359430Y456179D01*
X1359409Y456151D01*
X1359382Y456124D01*
X1359354Y456089D01*
X1359319Y456040D01*
X1359285Y455992D01*
X1359243Y455929D01*
X1359208Y455860D01*
X1359174Y455791D01*
X1359111Y455617D01*
X1359084Y455527D01*
X1359063Y455423D01*
X1359056Y455319D01*
X1359049Y455208D01*
Y455146D01*
X1359056Y455070D01*
X1359070Y454980D01*
X1359091Y454869D01*
X1359125Y454751D01*
X1359167Y454633D01*
X1359229Y454515D01*
X1359236Y454501D01*
X1359257Y454466D01*
X1359299Y454411D01*
X1359347Y454342D01*
X1359416Y454272D01*
X1359493Y454189D01*
X1359583Y454113D01*
X1359680Y454043D01*
X1359576Y453308D01*
X1356289Y453926D01*
Y457108D01*
X1357038D01*
Y454550D01*
X1358758Y454210D01*
X1358751Y454217D01*
X1358737Y454238D01*
X1358723Y454265D01*
X1358695Y454307D01*
X1358667Y454362D01*
X1358633Y454425D01*
X1358591Y454494D01*
X1358557Y454577D01*
X1358522Y454661D01*
X1358480Y454758D01*
X1358418Y454959D01*
X1358390Y455070D01*
X1358369Y455181D01*
X1358362Y455299D01*
X1358355Y455416D01*
Y455451D01*
X1358362Y455500D01*
Y455555D01*
X1358376Y455624D01*
X1358383Y455708D01*
X1358404Y455805D01*
X1358425Y455902D01*
X1358459Y456013D01*
X1358494Y456124D01*
X1358543Y456242D01*
X1358598Y456359D01*
X1358667Y456477D01*
X1358744Y456595D01*
X1358834Y456713D01*
X1358938Y456824D01*
X1358945Y456831D01*
X1358966Y456852D01*
X1359000Y456880D01*
X1359042Y456914D01*
X1359097Y456963D01*
X1359174Y457011D01*
X1359250Y457060D01*
X1359340Y457115D01*
X1359444Y457171D01*
X1359562Y457219D01*
X1359680Y457275D01*
X1359819Y457316D01*
X1359957Y457351D01*
X1360110Y457379D01*
X1360269Y457400D01*
X1360436Y457407D01*
X1360443D01*
X1360477D01*
X1360519D01*
X1360581Y457400D01*
D02*
G37*
G36*
X1362606Y451609D02*
X1361275Y450764D01*
X1361268Y450757D01*
X1361247Y450750D01*
X1361219Y450729D01*
X1361178Y450701D01*
X1361129Y450673D01*
X1361074Y450632D01*
X1360949Y450549D01*
X1360803Y450452D01*
X1360658Y450354D01*
X1360519Y450250D01*
X1360394Y450153D01*
X1360387D01*
X1360380Y450140D01*
X1360346Y450112D01*
X1360290Y450070D01*
X1360228Y450008D01*
X1360158Y449945D01*
X1360089Y449869D01*
X1360020Y449793D01*
X1359971Y449723D01*
X1359964Y449716D01*
X1359950Y449689D01*
X1359930Y449654D01*
X1359902Y449605D01*
X1359874Y449543D01*
X1359846Y449481D01*
X1359819Y449411D01*
X1359798Y449335D01*
Y449328D01*
X1359791Y449307D01*
X1359784Y449273D01*
X1359777Y449224D01*
Y449155D01*
X1359770Y449072D01*
X1359763Y448974D01*
Y447886D01*
X1362606D01*
Y447040D01*
X1356206D01*
Y450015D01*
X1356213Y450091D01*
Y450167D01*
X1356220Y450257D01*
X1356227Y450361D01*
X1356248Y450569D01*
X1356282Y450784D01*
X1356324Y450992D01*
X1356351Y451082D01*
X1356379Y451173D01*
Y451180D01*
X1356386Y451194D01*
X1356400Y451214D01*
X1356414Y451249D01*
X1356456Y451332D01*
X1356518Y451429D01*
X1356601Y451547D01*
X1356712Y451665D01*
X1356837Y451783D01*
X1356989Y451887D01*
X1356996D01*
X1357010Y451901D01*
X1357031Y451915D01*
X1357066Y451928D01*
X1357107Y451949D01*
X1357156Y451970D01*
X1357211Y451998D01*
X1357274Y452026D01*
X1357419Y452074D01*
X1357579Y452116D01*
X1357759Y452143D01*
X1357953Y452157D01*
X1357960D01*
X1357981D01*
X1358023D01*
X1358064Y452150D01*
X1358127Y452143D01*
X1358196Y452136D01*
X1358272Y452123D01*
X1358355Y452102D01*
X1358536Y452046D01*
X1358633Y452012D01*
X1358730Y451970D01*
X1358827Y451922D01*
X1358924Y451859D01*
X1359014Y451790D01*
X1359104Y451713D01*
X1359111Y451707D01*
X1359125Y451693D01*
X1359146Y451665D01*
X1359181Y451630D01*
X1359215Y451582D01*
X1359257Y451526D01*
X1359305Y451457D01*
X1359354Y451374D01*
X1359402Y451284D01*
X1359451Y451186D01*
X1359500Y451076D01*
X1359548Y450951D01*
X1359590Y450819D01*
X1359631Y450673D01*
X1359666Y450514D01*
X1359694Y450348D01*
Y450354D01*
X1359701Y450361D01*
X1359722Y450403D01*
X1359756Y450465D01*
X1359798Y450542D01*
X1359846Y450625D01*
X1359895Y450708D01*
X1359957Y450791D01*
X1360013Y450861D01*
X1360020Y450868D01*
X1360027Y450874D01*
X1360047Y450895D01*
X1360075Y450923D01*
X1360110Y450958D01*
X1360151Y450999D01*
X1360249Y451089D01*
X1360373Y451194D01*
X1360519Y451311D01*
X1360685Y451436D01*
X1360866Y451561D01*
X1362606Y452670D01*
Y451609D01*
D02*
G37*
G36*
X1361178Y518700D02*
X1362710D01*
Y517917D01*
X1361178D01*
Y515129D01*
X1360457D01*
X1356310Y518055D01*
Y518700D01*
X1360457D01*
Y519567D01*
X1361178D01*
Y518700D01*
D02*
G37*
G36*
X1362710Y513839D02*
X1361379Y512994D01*
X1361372Y512987D01*
X1361351Y512980D01*
X1361323Y512959D01*
X1361282Y512931D01*
X1361233Y512903D01*
X1361178Y512862D01*
X1361053Y512779D01*
X1360907Y512682D01*
X1360762Y512584D01*
X1360623Y512480D01*
X1360498Y512383D01*
X1360491D01*
X1360484Y512369D01*
X1360450Y512342D01*
X1360394Y512300D01*
X1360332Y512238D01*
X1360262Y512175D01*
X1360193Y512099D01*
X1360124Y512023D01*
X1360075Y511953D01*
X1360068Y511946D01*
X1360054Y511919D01*
X1360034Y511884D01*
X1360006Y511836D01*
X1359978Y511773D01*
X1359950Y511711D01*
X1359923Y511641D01*
X1359902Y511565D01*
Y511558D01*
X1359895Y511537D01*
X1359888Y511503D01*
X1359881Y511454D01*
Y511385D01*
X1359874Y511302D01*
X1359867Y511204D01*
Y510116D01*
X1362710D01*
Y509270D01*
X1356310D01*
Y512245D01*
X1356317Y512321D01*
Y512397D01*
X1356324Y512487D01*
X1356331Y512591D01*
X1356351Y512799D01*
X1356386Y513014D01*
X1356428Y513222D01*
X1356456Y513312D01*
X1356483Y513403D01*
Y513410D01*
X1356490Y513424D01*
X1356504Y513444D01*
X1356518Y513479D01*
X1356559Y513562D01*
X1356622Y513659D01*
X1356705Y513777D01*
X1356816Y513895D01*
X1356941Y514013D01*
X1357093Y514117D01*
X1357100D01*
X1357114Y514131D01*
X1357135Y514145D01*
X1357170Y514159D01*
X1357211Y514179D01*
X1357260Y514200D01*
X1357315Y514228D01*
X1357378Y514256D01*
X1357523Y514304D01*
X1357683Y514346D01*
X1357863Y514373D01*
X1358057Y514387D01*
X1358064D01*
X1358085D01*
X1358127D01*
X1358168Y514380D01*
X1358231Y514373D01*
X1358300Y514366D01*
X1358376Y514353D01*
X1358459Y514332D01*
X1358640Y514276D01*
X1358737Y514242D01*
X1358834Y514200D01*
X1358931Y514151D01*
X1359028Y514089D01*
X1359118Y514020D01*
X1359208Y513943D01*
X1359215Y513937D01*
X1359229Y513923D01*
X1359250Y513895D01*
X1359285Y513860D01*
X1359319Y513812D01*
X1359361Y513756D01*
X1359409Y513687D01*
X1359458Y513604D01*
X1359507Y513514D01*
X1359555Y513416D01*
X1359604Y513306D01*
X1359652Y513181D01*
X1359694Y513049D01*
X1359735Y512903D01*
X1359770Y512744D01*
X1359798Y512578D01*
Y512584D01*
X1359805Y512591D01*
X1359825Y512633D01*
X1359860Y512695D01*
X1359902Y512772D01*
X1359950Y512855D01*
X1359999Y512938D01*
X1360061Y513021D01*
X1360117Y513091D01*
X1360124Y513098D01*
X1360131Y513105D01*
X1360151Y513125D01*
X1360179Y513153D01*
X1360214Y513188D01*
X1360255Y513229D01*
X1360352Y513319D01*
X1360477Y513424D01*
X1360623Y513541D01*
X1360789Y513666D01*
X1360970Y513791D01*
X1362710Y514900D01*
Y513839D01*
D02*
G37*
G36*
X480110Y800935D02*
X480103Y800859D01*
Y800783D01*
X480096Y800693D01*
X480089Y800589D01*
X480069Y800381D01*
X480034Y800166D01*
X479992Y799958D01*
X479964Y799867D01*
X479937Y799777D01*
Y799770D01*
X479930Y799756D01*
X479916Y799736D01*
X479902Y799701D01*
X479860Y799618D01*
X479798Y799521D01*
X479715Y799403D01*
X479604Y799285D01*
X479479Y799167D01*
X479327Y799063D01*
X479320D01*
X479306Y799049D01*
X479285Y799035D01*
X479250Y799022D01*
X479209Y799001D01*
X479160Y798980D01*
X479105Y798952D01*
X479042Y798924D01*
X478897Y798876D01*
X478737Y798834D01*
X478557Y798807D01*
X478363Y798793D01*
X478356D01*
X478335D01*
X478293D01*
X478252Y798800D01*
X478189Y798807D01*
X478120Y798813D01*
X478044Y798827D01*
X477961Y798848D01*
X477780Y798904D01*
X477683Y798938D01*
X477586Y798980D01*
X477489Y799028D01*
X477392Y799091D01*
X477302Y799160D01*
X477212Y799237D01*
X477205Y799243D01*
X477191Y799257D01*
X477170Y799285D01*
X477135Y799320D01*
X477101Y799368D01*
X477059Y799424D01*
X477011Y799493D01*
X476962Y799576D01*
X476913Y799666D01*
X476865Y799763D01*
X476816Y799874D01*
X476768Y799999D01*
X476726Y800131D01*
X476685Y800277D01*
X476650Y800436D01*
X476622Y800602D01*
Y800596D01*
X476615Y800589D01*
X476595Y800547D01*
X476560Y800485D01*
X476518Y800408D01*
X476470Y800325D01*
X476421Y800242D01*
X476359Y800159D01*
X476303Y800089D01*
X476296Y800082D01*
X476289Y800076D01*
X476269Y800055D01*
X476241Y800027D01*
X476206Y799992D01*
X476165Y799951D01*
X476068Y799861D01*
X475943Y799756D01*
X475797Y799639D01*
X475631Y799514D01*
X475450Y799389D01*
X473710Y798280D01*
Y799341D01*
X475041Y800186D01*
X475048Y800193D01*
X475069Y800200D01*
X475097Y800221D01*
X475138Y800249D01*
X475187Y800277D01*
X475242Y800318D01*
X475367Y800401D01*
X475513Y800499D01*
X475658Y800596D01*
X475797Y800700D01*
X475922Y800797D01*
X475929D01*
X475936Y800810D01*
X475970Y800838D01*
X476026Y800880D01*
X476088Y800942D01*
X476158Y801005D01*
X476227Y801081D01*
X476296Y801157D01*
X476345Y801227D01*
X476352Y801234D01*
X476366Y801261D01*
X476386Y801296D01*
X476414Y801345D01*
X476442Y801407D01*
X476470Y801469D01*
X476497Y801539D01*
X476518Y801615D01*
Y801622D01*
X476525Y801643D01*
X476532Y801677D01*
X476539Y801726D01*
Y801795D01*
X476546Y801878D01*
X476553Y801975D01*
Y803064D01*
X473710D01*
Y803910D01*
X480110D01*
Y800935D01*
D02*
G37*
G36*
X473883Y797884D02*
X473966Y797877D01*
X474057Y797857D01*
X474154Y797836D01*
X474251Y797801D01*
X474258D01*
X474272Y797794D01*
X474292Y797787D01*
X474327Y797773D01*
X474362Y797753D01*
X474410Y797732D01*
X474521Y797676D01*
X474653Y797607D01*
X474799Y797517D01*
X474951Y797413D01*
X475104Y797288D01*
X475111Y797281D01*
X475124Y797274D01*
X475145Y797253D01*
X475180Y797219D01*
X475215Y797184D01*
X475263Y797135D01*
X475319Y797087D01*
X475381Y797025D01*
X475450Y796955D01*
X475520Y796879D01*
X475603Y796796D01*
X475686Y796699D01*
X475776Y796601D01*
X475866Y796490D01*
X475964Y796380D01*
X476068Y796255D01*
X476074Y796241D01*
X476109Y796206D01*
X476151Y796158D01*
X476213Y796088D01*
X476283Y796005D01*
X476366Y795908D01*
X476456Y795797D01*
X476560Y795686D01*
X476775Y795450D01*
X477004Y795222D01*
X477115Y795111D01*
X477225Y795007D01*
X477329Y794917D01*
X477427Y794840D01*
X477434Y794833D01*
X477447Y794826D01*
X477475Y794806D01*
X477510Y794785D01*
X477558Y794750D01*
X477607Y794722D01*
X477732Y794653D01*
X477877Y794584D01*
X478037Y794521D01*
X478203Y794480D01*
X478286Y794473D01*
X478370Y794466D01*
X478377D01*
X478391D01*
X478418D01*
X478446Y794473D01*
X478488D01*
X478536Y794486D01*
X478640Y794507D01*
X478765Y794549D01*
X478897Y794611D01*
X478966Y794646D01*
X479028Y794695D01*
X479091Y794743D01*
X479153Y794806D01*
X479160Y794812D01*
X479167Y794819D01*
X479181Y794840D01*
X479202Y794868D01*
X479230Y794903D01*
X479257Y794944D01*
X479320Y795041D01*
X479375Y795173D01*
X479431Y795319D01*
X479465Y795492D01*
X479479Y795589D01*
Y795742D01*
X479472Y795783D01*
Y795832D01*
X479458Y795887D01*
X479437Y796012D01*
X479396Y796158D01*
X479333Y796310D01*
X479292Y796386D01*
X479250Y796463D01*
X479195Y796532D01*
X479132Y796601D01*
X479126Y796608D01*
X479118Y796615D01*
X479098Y796629D01*
X479070Y796657D01*
X479035Y796678D01*
X478994Y796705D01*
X478945Y796740D01*
X478890Y796768D01*
X478827Y796803D01*
X478758Y796830D01*
X478591Y796886D01*
X478411Y796927D01*
X478307Y796934D01*
X478196Y796941D01*
X478279Y797746D01*
X478293D01*
X478321Y797739D01*
X478363Y797732D01*
X478425Y797725D01*
X478501Y797711D01*
X478591Y797690D01*
X478689Y797669D01*
X478793Y797635D01*
X478897Y797600D01*
X479015Y797558D01*
X479126Y797503D01*
X479236Y797448D01*
X479354Y797378D01*
X479458Y797302D01*
X479562Y797219D01*
X479652Y797122D01*
X479659Y797115D01*
X479673Y797094D01*
X479694Y797066D01*
X479729Y797025D01*
X479763Y796969D01*
X479805Y796900D01*
X479847Y796823D01*
X479895Y796733D01*
X479937Y796636D01*
X479978Y796525D01*
X480020Y796407D01*
X480055Y796276D01*
X480089Y796137D01*
X480110Y795991D01*
X480124Y795832D01*
X480131Y795665D01*
Y795575D01*
X480124Y795513D01*
X480117Y795436D01*
X480103Y795346D01*
X480089Y795242D01*
X480069Y795138D01*
X480041Y795021D01*
X480006Y794903D01*
X479964Y794778D01*
X479916Y794660D01*
X479854Y794535D01*
X479784Y794417D01*
X479708Y794306D01*
X479618Y794202D01*
X479611Y794195D01*
X479597Y794181D01*
X479562Y794154D01*
X479528Y794119D01*
X479479Y794077D01*
X479417Y794029D01*
X479347Y793980D01*
X479264Y793932D01*
X479181Y793883D01*
X479084Y793835D01*
X478980Y793786D01*
X478869Y793745D01*
X478744Y793710D01*
X478619Y793682D01*
X478488Y793668D01*
X478349Y793661D01*
X478342D01*
X478335D01*
X478314D01*
X478286D01*
X478210Y793668D01*
X478113Y793682D01*
X477995Y793703D01*
X477870Y793731D01*
X477732Y793765D01*
X477593Y793821D01*
X477586D01*
X477579Y793828D01*
X477558Y793835D01*
X477531Y793849D01*
X477454Y793890D01*
X477357Y793946D01*
X477239Y794022D01*
X477108Y794112D01*
X476969Y794216D01*
X476816Y794348D01*
X476810Y794355D01*
X476796Y794362D01*
X476775Y794389D01*
X476740Y794417D01*
X476698Y794459D01*
X476650Y794507D01*
X476588Y794563D01*
X476525Y794632D01*
X476449Y794715D01*
X476366Y794806D01*
X476269Y794903D01*
X476171Y795014D01*
X476061Y795131D01*
X475950Y795263D01*
X475825Y795409D01*
X475693Y795561D01*
X475686Y795568D01*
X475665Y795589D01*
X475638Y795631D01*
X475596Y795672D01*
X475547Y795735D01*
X475492Y795797D01*
X475367Y795943D01*
X475235Y796095D01*
X475097Y796241D01*
X475034Y796310D01*
X474979Y796373D01*
X474923Y796428D01*
X474882Y796470D01*
X474875Y796477D01*
X474847Y796504D01*
X474805Y796539D01*
X474750Y796588D01*
X474688Y796643D01*
X474618Y796699D01*
X474466Y796809D01*
Y793654D01*
X473710D01*
Y797891D01*
X473724D01*
X473758D01*
X473814D01*
X473883Y797884D01*
D02*
G37*
G36*
X504981Y640144D02*
X505057Y640137D01*
X505148Y640123D01*
X505252Y640109D01*
X505355Y640089D01*
X505473Y640061D01*
X505591Y640026D01*
X505716Y639985D01*
X505834Y639936D01*
X505959Y639874D01*
X506077Y639804D01*
X506188Y639728D01*
X506292Y639638D01*
X506299Y639631D01*
X506312Y639617D01*
X506340Y639582D01*
X506375Y639548D01*
X506416Y639499D01*
X506465Y639437D01*
X506513Y639367D01*
X506562Y639284D01*
X506611Y639201D01*
X506659Y639104D01*
X506708Y639000D01*
X506749Y638889D01*
X506784Y638764D01*
X506812Y638639D01*
X506826Y638507D01*
X506833Y638369D01*
Y638362D01*
Y638355D01*
Y638334D01*
Y638306D01*
X506826Y638230D01*
X506812Y638133D01*
X506791Y638015D01*
X506763Y637890D01*
X506729Y637752D01*
X506673Y637613D01*
Y637606D01*
X506666Y637599D01*
X506659Y637578D01*
X506645Y637551D01*
X506604Y637474D01*
X506548Y637377D01*
X506472Y637259D01*
X506382Y637128D01*
X506278Y636989D01*
X506146Y636836D01*
X506139Y636829D01*
X506132Y636816D01*
X506104Y636795D01*
X506077Y636760D01*
X506035Y636718D01*
X505987Y636670D01*
X505931Y636608D01*
X505862Y636545D01*
X505779Y636469D01*
X505688Y636386D01*
X505591Y636289D01*
X505480Y636191D01*
X505362Y636081D01*
X505231Y635970D01*
X505085Y635845D01*
X504933Y635713D01*
X504926Y635706D01*
X504905Y635685D01*
X504863Y635658D01*
X504822Y635616D01*
X504759Y635567D01*
X504697Y635512D01*
X504551Y635387D01*
X504399Y635255D01*
X504253Y635117D01*
X504184Y635054D01*
X504121Y634999D01*
X504066Y634943D01*
X504024Y634902D01*
X504017Y634895D01*
X503989Y634867D01*
X503955Y634826D01*
X503906Y634770D01*
X503851Y634708D01*
X503795Y634638D01*
X503684Y634486D01*
X506839D01*
Y633730D01*
X502603D01*
Y633744D01*
Y633778D01*
Y633834D01*
X502610Y633903D01*
X502617Y633986D01*
X502637Y634077D01*
X502658Y634174D01*
X502693Y634271D01*
Y634278D01*
X502700Y634291D01*
X502707Y634312D01*
X502720Y634347D01*
X502741Y634382D01*
X502762Y634430D01*
X502818Y634541D01*
X502887Y634673D01*
X502977Y634818D01*
X503081Y634971D01*
X503206Y635124D01*
X503213Y635131D01*
X503220Y635144D01*
X503241Y635165D01*
X503275Y635200D01*
X503310Y635235D01*
X503358Y635283D01*
X503407Y635339D01*
X503469Y635401D01*
X503539Y635470D01*
X503615Y635540D01*
X503698Y635623D01*
X503795Y635706D01*
X503892Y635796D01*
X504003Y635886D01*
X504114Y635984D01*
X504239Y636087D01*
X504253Y636094D01*
X504288Y636129D01*
X504336Y636171D01*
X504406Y636233D01*
X504489Y636302D01*
X504586Y636386D01*
X504697Y636476D01*
X504808Y636580D01*
X505043Y636795D01*
X505272Y637024D01*
X505383Y637135D01*
X505487Y637245D01*
X505577Y637350D01*
X505654Y637447D01*
X505661Y637453D01*
X505667Y637467D01*
X505688Y637495D01*
X505709Y637530D01*
X505744Y637578D01*
X505772Y637627D01*
X505841Y637752D01*
X505910Y637897D01*
X505973Y638057D01*
X506014Y638223D01*
X506021Y638306D01*
X506028Y638390D01*
Y638397D01*
Y638410D01*
Y638438D01*
X506021Y638466D01*
Y638507D01*
X506007Y638556D01*
X505987Y638660D01*
X505945Y638785D01*
X505882Y638917D01*
X505848Y638986D01*
X505799Y639048D01*
X505751Y639111D01*
X505688Y639173D01*
X505681Y639180D01*
X505675Y639187D01*
X505654Y639201D01*
X505626Y639222D01*
X505591Y639249D01*
X505550Y639277D01*
X505453Y639340D01*
X505321Y639395D01*
X505175Y639451D01*
X505002Y639485D01*
X504905Y639499D01*
X504752D01*
X504711Y639492D01*
X504662D01*
X504607Y639478D01*
X504482Y639458D01*
X504336Y639416D01*
X504184Y639353D01*
X504107Y639312D01*
X504031Y639270D01*
X503962Y639215D01*
X503892Y639152D01*
X503885Y639146D01*
X503879Y639138D01*
X503865Y639118D01*
X503837Y639090D01*
X503816Y639055D01*
X503788Y639014D01*
X503754Y638965D01*
X503726Y638910D01*
X503691Y638847D01*
X503664Y638778D01*
X503608Y638611D01*
X503567Y638431D01*
X503559Y638327D01*
X503553Y638216D01*
X502748Y638299D01*
Y638313D01*
X502755Y638341D01*
X502762Y638383D01*
X502769Y638445D01*
X502783Y638521D01*
X502804Y638611D01*
X502825Y638709D01*
X502859Y638813D01*
X502894Y638917D01*
X502935Y639035D01*
X502991Y639146D01*
X503046Y639256D01*
X503116Y639374D01*
X503192Y639478D01*
X503275Y639582D01*
X503372Y639673D01*
X503379Y639679D01*
X503400Y639693D01*
X503428Y639714D01*
X503469Y639749D01*
X503525Y639783D01*
X503594Y639825D01*
X503671Y639867D01*
X503761Y639915D01*
X503858Y639957D01*
X503969Y639998D01*
X504086Y640040D01*
X504218Y640075D01*
X504357Y640109D01*
X504503Y640130D01*
X504662Y640144D01*
X504828Y640151D01*
X504919D01*
X504981Y640144D01*
D02*
G37*
G36*
X499025Y640123D02*
X499108D01*
X499191Y640116D01*
X499378Y640109D01*
X499565Y640089D01*
X499753Y640068D01*
X499836Y640047D01*
X499912Y640033D01*
X499919D01*
X499940Y640026D01*
X499968Y640019D01*
X500002Y640005D01*
X500051Y639991D01*
X500106Y639978D01*
X500238Y639929D01*
X500384Y639867D01*
X500536Y639790D01*
X500696Y639693D01*
X500848Y639575D01*
X500855Y639568D01*
X500869Y639555D01*
X500897Y639534D01*
X500932Y639499D01*
X500973Y639458D01*
X501022Y639402D01*
X501077Y639347D01*
X501133Y639277D01*
X501195Y639201D01*
X501257Y639118D01*
X501320Y639028D01*
X501382Y638931D01*
X501500Y638716D01*
X501604Y638480D01*
Y638473D01*
X501618Y638452D01*
X501625Y638410D01*
X501646Y638362D01*
X501666Y638299D01*
X501687Y638223D01*
X501708Y638140D01*
X501736Y638043D01*
X501757Y637932D01*
X501777Y637814D01*
X501798Y637689D01*
X501819Y637558D01*
X501840Y637419D01*
X501847Y637273D01*
X501861Y636961D01*
Y636954D01*
Y636926D01*
Y636892D01*
Y636836D01*
X501854Y636774D01*
Y636698D01*
X501847Y636614D01*
X501840Y636524D01*
X501819Y636323D01*
X501784Y636108D01*
X501743Y635886D01*
X501687Y635664D01*
Y635658D01*
X501680Y635637D01*
X501666Y635609D01*
X501660Y635574D01*
X501639Y635526D01*
X501618Y635470D01*
X501569Y635339D01*
X501507Y635193D01*
X501431Y635033D01*
X501348Y634881D01*
X501250Y634735D01*
Y634728D01*
X501237Y634721D01*
X501223Y634701D01*
X501202Y634673D01*
X501153Y634610D01*
X501077Y634527D01*
X500994Y634430D01*
X500897Y634333D01*
X500786Y634243D01*
X500668Y634153D01*
X500661D01*
X500654Y634146D01*
X500612Y634118D01*
X500543Y634084D01*
X500453Y634035D01*
X500342Y633986D01*
X500210Y633931D01*
X500058Y633882D01*
X499898Y633834D01*
X499891D01*
X499878Y633827D01*
X499857D01*
X499822Y633820D01*
X499780Y633813D01*
X499725Y633799D01*
X499669Y633792D01*
X499607Y633785D01*
X499454Y633764D01*
X499281Y633744D01*
X499087Y633737D01*
X498879Y633730D01*
X496570D01*
Y640130D01*
X498955D01*
X499025Y640123D01*
D02*
G37*
%LPC*%
G36*
X969687Y456908D02*
X969680D01*
X969659D01*
X969624D01*
X969576Y456901D01*
X969520Y456894D01*
X969451Y456887D01*
X969382Y456880D01*
X969299Y456866D01*
X969132Y456818D01*
X968952Y456756D01*
X968862Y456714D01*
X968779Y456665D01*
X968695Y456610D01*
X968619Y456548D01*
X968612Y456541D01*
X968598Y456534D01*
X968584Y456513D01*
X968557Y456485D01*
X968529Y456451D01*
X968494Y456409D01*
X968418Y456305D01*
X968342Y456180D01*
X968279Y456027D01*
X968251Y455951D01*
X968231Y455861D01*
X968224Y455771D01*
X968217Y455681D01*
Y455632D01*
X968224Y455591D01*
X968231Y455549D01*
X968238Y455494D01*
X968272Y455369D01*
X968321Y455223D01*
X968355Y455147D01*
X968397Y455071D01*
X968446Y454994D01*
X968508Y454918D01*
X968570Y454842D01*
X968647Y454766D01*
X968654Y454758D01*
X968668Y454752D01*
X968688Y454731D01*
X968723Y454703D01*
X968765Y454675D01*
X968820Y454648D01*
X968876Y454613D01*
X968945Y454578D01*
X969021Y454537D01*
X969104Y454502D01*
X969195Y454474D01*
X969299Y454446D01*
X969514Y454398D01*
X969631Y454391D01*
X969756Y454384D01*
X969763D01*
X969784D01*
X969812D01*
X969860Y454391D01*
X969909Y454398D01*
X969971Y454405D01*
X970110Y454433D01*
X970269Y454474D01*
X970429Y454537D01*
X970512Y454578D01*
X970595Y454627D01*
X970672Y454682D01*
X970748Y454745D01*
X970755Y454752D01*
X970762Y454758D01*
X970782Y454779D01*
X970803Y454814D01*
X970831Y454849D01*
X970866Y454890D01*
X970900Y454939D01*
X970935Y454994D01*
X971004Y455133D01*
X971067Y455285D01*
X971108Y455466D01*
X971115Y455563D01*
X971122Y455660D01*
Y455715D01*
X971115Y455750D01*
X971108Y455799D01*
X971102Y455847D01*
X971074Y455972D01*
X971032Y456118D01*
X970963Y456263D01*
X970921Y456339D01*
X970873Y456416D01*
X970810Y456485D01*
X970748Y456554D01*
X970741Y456561D01*
X970727Y456568D01*
X970706Y456589D01*
X970678Y456610D01*
X970637Y456638D01*
X970588Y456665D01*
X970533Y456700D01*
X970471Y456735D01*
X970401Y456763D01*
X970318Y456797D01*
X970235Y456825D01*
X970138Y456853D01*
X970034Y456874D01*
X969930Y456894D01*
X969812Y456901D01*
X969687Y456908D01*
D02*
G37*
G36*
X969333Y451694D02*
X969326D01*
X969313D01*
X969292D01*
X969257Y451687D01*
X969222D01*
X969174Y451680D01*
X969070Y451652D01*
X968952Y451610D01*
X968827Y451555D01*
X968709Y451472D01*
X968647Y451416D01*
X968591Y451361D01*
X968584Y451354D01*
X968577Y451347D01*
X968564Y451326D01*
X968543Y451298D01*
X968522Y451264D01*
X968494Y451215D01*
X968466Y451167D01*
X968439Y451104D01*
X968411Y451035D01*
X968390Y450959D01*
X968363Y450875D01*
X968342Y450785D01*
X968321Y450681D01*
X968307Y450570D01*
X968293Y450452D01*
Y448296D01*
X970408D01*
Y450210D01*
X970401Y450258D01*
Y450314D01*
X970394Y450446D01*
X970380Y450591D01*
X970359Y450744D01*
X970332Y450889D01*
X970290Y451021D01*
Y451028D01*
X970283Y451035D01*
X970269Y451077D01*
X970242Y451132D01*
X970200Y451208D01*
X970145Y451284D01*
X970082Y451368D01*
X969999Y451451D01*
X969909Y451520D01*
X969895Y451527D01*
X969860Y451548D01*
X969812Y451576D01*
X969735Y451610D01*
X969652Y451638D01*
X969555Y451666D01*
X969444Y451687D01*
X969333Y451694D01*
D02*
G37*
G36*
X1010367Y466514D02*
X1008252D01*
Y464600D01*
X1008259Y464552D01*
Y464496D01*
X1008266Y464365D01*
X1008280Y464219D01*
X1008300Y464066D01*
X1008328Y463921D01*
X1008370Y463789D01*
Y463782D01*
X1008377Y463775D01*
X1008391Y463733D01*
X1008418Y463678D01*
X1008460Y463602D01*
X1008515Y463526D01*
X1008578Y463442D01*
X1008661Y463359D01*
X1008751Y463290D01*
X1008765Y463283D01*
X1008800Y463262D01*
X1008848Y463234D01*
X1008925Y463200D01*
X1009008Y463172D01*
X1009105Y463144D01*
X1009216Y463123D01*
X1009327Y463116D01*
X1009334D01*
X1009348D01*
X1009368D01*
X1009403Y463123D01*
X1009438D01*
X1009486Y463130D01*
X1009590Y463158D01*
X1009708Y463200D01*
X1009833Y463255D01*
X1009951Y463338D01*
X1010013Y463394D01*
X1010069Y463449D01*
X1010076Y463456D01*
X1010083Y463463D01*
X1010096Y463484D01*
X1010117Y463512D01*
X1010138Y463546D01*
X1010166Y463595D01*
X1010193Y463643D01*
X1010221Y463706D01*
X1010249Y463775D01*
X1010270Y463851D01*
X1010297Y463935D01*
X1010318Y464025D01*
X1010339Y464129D01*
X1010353Y464240D01*
X1010367Y464358D01*
Y466514D01*
D02*
G37*
G36*
X1009472Y460183D02*
X1009465D01*
X1009452D01*
X1009431D01*
X1009396Y460176D01*
X1009354D01*
X1009313Y460169D01*
X1009209Y460149D01*
X1009091Y460114D01*
X1008966Y460065D01*
X1008841Y459996D01*
X1008730Y459899D01*
X1008717Y459885D01*
X1008689Y459843D01*
X1008640Y459781D01*
X1008592Y459691D01*
X1008536Y459587D01*
X1008488Y459455D01*
X1008460Y459303D01*
X1008446Y459136D01*
Y459095D01*
X1008453Y459060D01*
Y459018D01*
X1008460Y458977D01*
X1008481Y458873D01*
X1008515Y458755D01*
X1008564Y458630D01*
X1008633Y458505D01*
X1008730Y458387D01*
X1008744Y458373D01*
X1008779Y458339D01*
X1008841Y458297D01*
X1008925Y458242D01*
X1009022Y458186D01*
X1009146Y458145D01*
X1009278Y458110D01*
X1009424Y458096D01*
X1009431D01*
X1009445D01*
X1009465D01*
X1009500Y458103D01*
X1009576Y458110D01*
X1009680Y458131D01*
X1009791Y458165D01*
X1009916Y458221D01*
X1010034Y458297D01*
X1010096Y458339D01*
X1010152Y458394D01*
X1010159D01*
X1010166Y458408D01*
X1010200Y458450D01*
X1010249Y458512D01*
X1010304Y458602D01*
X1010353Y458706D01*
X1010402Y458838D01*
X1010436Y458984D01*
X1010450Y459060D01*
Y459185D01*
X1010443Y459219D01*
Y459254D01*
X1010436Y459303D01*
X1010415Y459407D01*
X1010381Y459524D01*
X1010325Y459649D01*
X1010256Y459774D01*
X1010159Y459892D01*
X1010145Y459906D01*
X1010110Y459940D01*
X1010048Y459982D01*
X1009965Y460038D01*
X1009868Y460093D01*
X1009750Y460135D01*
X1009618Y460169D01*
X1009472Y460183D01*
D02*
G37*
G36*
X1006518Y460440D02*
X1006511D01*
X1006505D01*
X1006463D01*
X1006394Y460433D01*
X1006310Y460419D01*
X1006213Y460405D01*
X1006102Y460377D01*
X1005984Y460336D01*
X1005867Y460287D01*
X1005853Y460280D01*
X1005818Y460260D01*
X1005756Y460218D01*
X1005686Y460169D01*
X1005610Y460100D01*
X1005534Y460024D01*
X1005451Y459927D01*
X1005381Y459816D01*
Y459809D01*
X1005374Y459802D01*
X1005353Y459760D01*
X1005326Y459698D01*
X1005298Y459608D01*
X1005270Y459511D01*
X1005242Y459393D01*
X1005222Y459268D01*
X1005215Y459136D01*
Y459081D01*
X1005222Y459039D01*
X1005229Y458991D01*
X1005236Y458935D01*
X1005263Y458803D01*
X1005305Y458658D01*
X1005367Y458498D01*
X1005409Y458422D01*
X1005458Y458346D01*
X1005513Y458269D01*
X1005575Y458200D01*
X1005582Y458193D01*
X1005589Y458186D01*
X1005610Y458165D01*
X1005638Y458145D01*
X1005679Y458117D01*
X1005721Y458082D01*
X1005770Y458047D01*
X1005825Y458013D01*
X1005957Y457950D01*
X1006116Y457888D01*
X1006290Y457846D01*
X1006387Y457840D01*
X1006491Y457832D01*
X1006498D01*
X1006518D01*
X1006546D01*
X1006588Y457840D01*
X1006636Y457846D01*
X1006692Y457853D01*
X1006824Y457881D01*
X1006969Y457923D01*
X1007129Y457992D01*
X1007205Y458034D01*
X1007281Y458089D01*
X1007357Y458145D01*
X1007427Y458214D01*
X1007434Y458221D01*
X1007441Y458228D01*
X1007461Y458249D01*
X1007482Y458283D01*
X1007517Y458318D01*
X1007545Y458359D01*
X1007579Y458415D01*
X1007614Y458470D01*
X1007683Y458609D01*
X1007746Y458769D01*
X1007787Y458956D01*
X1007794Y459053D01*
X1007801Y459157D01*
Y459212D01*
X1007794Y459247D01*
X1007787Y459296D01*
X1007780Y459351D01*
X1007753Y459483D01*
X1007711Y459628D01*
X1007649Y459781D01*
X1007607Y459857D01*
X1007559Y459934D01*
X1007496Y460010D01*
X1007434Y460079D01*
X1007427Y460086D01*
X1007420Y460093D01*
X1007399Y460114D01*
X1007371Y460135D01*
X1007330Y460162D01*
X1007288Y460190D01*
X1007240Y460225D01*
X1007184Y460260D01*
X1007052Y460329D01*
X1006893Y460384D01*
X1006712Y460426D01*
X1006622Y460433D01*
X1006518Y460440D01*
D02*
G37*
G36*
X1031853Y466514D02*
X1029738D01*
Y464600D01*
X1029745Y464552D01*
Y464496D01*
X1029752Y464365D01*
X1029766Y464219D01*
X1029787Y464066D01*
X1029814Y463921D01*
X1029856Y463789D01*
Y463782D01*
X1029863Y463775D01*
X1029877Y463733D01*
X1029904Y463678D01*
X1029946Y463602D01*
X1030001Y463526D01*
X1030064Y463442D01*
X1030147Y463359D01*
X1030237Y463290D01*
X1030251Y463283D01*
X1030286Y463262D01*
X1030334Y463234D01*
X1030411Y463200D01*
X1030494Y463172D01*
X1030591Y463144D01*
X1030702Y463123D01*
X1030813Y463116D01*
X1030820D01*
X1030834D01*
X1030854D01*
X1030889Y463123D01*
X1030924D01*
X1030972Y463130D01*
X1031076Y463158D01*
X1031194Y463200D01*
X1031319Y463255D01*
X1031437Y463338D01*
X1031499Y463394D01*
X1031555Y463449D01*
X1031562Y463456D01*
X1031569Y463463D01*
X1031582Y463484D01*
X1031603Y463512D01*
X1031624Y463546D01*
X1031652Y463595D01*
X1031680Y463643D01*
X1031707Y463706D01*
X1031735Y463775D01*
X1031756Y463851D01*
X1031784Y463935D01*
X1031804Y464025D01*
X1031825Y464129D01*
X1031839Y464240D01*
X1031853Y464358D01*
Y466514D01*
D02*
G37*
G36*
X1061167Y447874D02*
X1059052D01*
Y445960D01*
X1059059Y445912D01*
Y445856D01*
X1059066Y445725D01*
X1059080Y445579D01*
X1059100Y445426D01*
X1059128Y445281D01*
X1059170Y445149D01*
Y445142D01*
X1059177Y445135D01*
X1059191Y445093D01*
X1059218Y445038D01*
X1059260Y444962D01*
X1059315Y444885D01*
X1059378Y444802D01*
X1059461Y444719D01*
X1059551Y444650D01*
X1059565Y444643D01*
X1059600Y444622D01*
X1059648Y444594D01*
X1059725Y444560D01*
X1059808Y444532D01*
X1059905Y444504D01*
X1060016Y444483D01*
X1060127Y444476D01*
X1060134D01*
X1060147D01*
X1060168D01*
X1060203Y444483D01*
X1060238D01*
X1060286Y444490D01*
X1060390Y444518D01*
X1060508Y444560D01*
X1060633Y444615D01*
X1060751Y444698D01*
X1060813Y444754D01*
X1060869Y444809D01*
X1060876Y444816D01*
X1060883Y444823D01*
X1060896Y444844D01*
X1060917Y444872D01*
X1060938Y444906D01*
X1060966Y444955D01*
X1060993Y445003D01*
X1061021Y445066D01*
X1061049Y445135D01*
X1061070Y445211D01*
X1061097Y445295D01*
X1061118Y445385D01*
X1061139Y445489D01*
X1061153Y445600D01*
X1061167Y445718D01*
Y447874D01*
D02*
G37*
G36*
X1058782Y441848D02*
X1058775D01*
X1058782Y441848D01*
X1058782Y441848D01*
D02*
G37*
G36*
X1057547Y441730D02*
X1057540D01*
X1057526D01*
X1057506D01*
X1057478D01*
X1057443Y441724D01*
X1057402D01*
X1057298Y441710D01*
X1057180Y441689D01*
X1057048Y441661D01*
X1056909Y441619D01*
X1056771Y441564D01*
X1056764D01*
X1056757Y441557D01*
X1056736Y441543D01*
X1056708Y441529D01*
X1056646Y441495D01*
X1056563Y441439D01*
X1056472Y441370D01*
X1056382Y441287D01*
X1056292Y441197D01*
X1056209Y441086D01*
Y441079D01*
X1056202Y441072D01*
X1056181Y441030D01*
X1056146Y440968D01*
X1056112Y440885D01*
X1056077Y440787D01*
X1056042Y440676D01*
X1056022Y440552D01*
X1056015Y440427D01*
Y440378D01*
X1056022Y440344D01*
X1056029Y440295D01*
X1056036Y440247D01*
X1056063Y440129D01*
X1056112Y439997D01*
X1056146Y439921D01*
X1056181Y439851D01*
X1056230Y439775D01*
X1056278Y439706D01*
X1056341Y439636D01*
X1056410Y439567D01*
X1056417Y439560D01*
X1056431Y439553D01*
X1056452Y439532D01*
X1056486Y439511D01*
X1056528Y439484D01*
X1056576Y439456D01*
X1056632Y439421D01*
X1056701Y439387D01*
X1056771Y439352D01*
X1056854Y439317D01*
X1056944Y439290D01*
X1057041Y439262D01*
X1057145Y439241D01*
X1057263Y439220D01*
X1057381Y439213D01*
X1057506Y439206D01*
X1057513D01*
X1057533D01*
X1057568D01*
X1057617Y439213D01*
X1057672Y439220D01*
X1057734Y439227D01*
X1057804Y439234D01*
X1057880Y439248D01*
X1058046Y439290D01*
X1058220Y439352D01*
X1058310Y439394D01*
X1058393Y439442D01*
X1058469Y439498D01*
X1058546Y439560D01*
X1058553Y439567D01*
X1058560Y439574D01*
X1058580Y439595D01*
X1058608Y439622D01*
X1058636Y439657D01*
X1058671Y439699D01*
X1058740Y439803D01*
X1058809Y439935D01*
X1058872Y440087D01*
X1058920Y440260D01*
X1058927Y440358D01*
X1058934Y440455D01*
Y440503D01*
X1058927Y440545D01*
X1058920Y440586D01*
X1058913Y440642D01*
X1058885Y440767D01*
X1058837Y440912D01*
X1058768Y441065D01*
X1058726Y441141D01*
X1058678Y441217D01*
X1058615Y441294D01*
X1058546Y441363D01*
X1058539Y441370D01*
X1058525Y441377D01*
X1058504Y441398D01*
X1058476Y441418D01*
X1058442Y441446D01*
X1058393Y441481D01*
X1058338Y441516D01*
X1058275Y441543D01*
X1058213Y441578D01*
X1058137Y441613D01*
X1057963Y441675D01*
X1057769Y441717D01*
X1057658Y441724D01*
X1057547Y441730D01*
D02*
G37*
G36*
X1357953Y451284D02*
X1357946D01*
X1357932D01*
X1357912D01*
X1357877Y451277D01*
X1357842D01*
X1357794Y451270D01*
X1357690Y451242D01*
X1357572Y451200D01*
X1357447Y451145D01*
X1357329Y451062D01*
X1357267Y451006D01*
X1357211Y450951D01*
X1357204Y450944D01*
X1357197Y450937D01*
X1357184Y450916D01*
X1357163Y450888D01*
X1357142Y450854D01*
X1357114Y450805D01*
X1357086Y450757D01*
X1357059Y450694D01*
X1357031Y450625D01*
X1357010Y450549D01*
X1356983Y450465D01*
X1356962Y450375D01*
X1356941Y450271D01*
X1356927Y450160D01*
X1356913Y450042D01*
Y447886D01*
X1359028D01*
Y449800D01*
X1359021Y449848D01*
Y449904D01*
X1359014Y450035D01*
X1359000Y450181D01*
X1358979Y450334D01*
X1358952Y450479D01*
X1358910Y450611D01*
Y450618D01*
X1358903Y450625D01*
X1358889Y450667D01*
X1358862Y450722D01*
X1358820Y450798D01*
X1358765Y450874D01*
X1358702Y450958D01*
X1358619Y451041D01*
X1358529Y451110D01*
X1358515Y451117D01*
X1358480Y451138D01*
X1358432Y451166D01*
X1358355Y451200D01*
X1358272Y451228D01*
X1358175Y451256D01*
X1358064Y451277D01*
X1357953Y451284D01*
D02*
G37*
G36*
X1360457Y517917D02*
X1357572D01*
X1360457Y515899D01*
Y517917D01*
D02*
G37*
G36*
X1358057Y513514D02*
X1358050D01*
X1358036D01*
X1358016D01*
X1357981Y513507D01*
X1357946D01*
X1357898Y513500D01*
X1357794Y513472D01*
X1357676Y513430D01*
X1357551Y513375D01*
X1357433Y513292D01*
X1357371Y513236D01*
X1357315Y513181D01*
X1357308Y513174D01*
X1357301Y513167D01*
X1357288Y513146D01*
X1357267Y513118D01*
X1357246Y513084D01*
X1357218Y513035D01*
X1357191Y512987D01*
X1357163Y512924D01*
X1357135Y512855D01*
X1357114Y512779D01*
X1357086Y512695D01*
X1357066Y512605D01*
X1357045Y512501D01*
X1357031Y512390D01*
X1357017Y512272D01*
Y510116D01*
X1359132D01*
Y512030D01*
X1359125Y512078D01*
Y512134D01*
X1359118Y512265D01*
X1359104Y512411D01*
X1359084Y512564D01*
X1359056Y512709D01*
X1359014Y512841D01*
Y512848D01*
X1359007Y512855D01*
X1358993Y512896D01*
X1358966Y512952D01*
X1358924Y513028D01*
X1358869Y513105D01*
X1358806Y513188D01*
X1358723Y513271D01*
X1358633Y513340D01*
X1358619Y513347D01*
X1358584Y513368D01*
X1358536Y513396D01*
X1358459Y513430D01*
X1358376Y513458D01*
X1358279Y513486D01*
X1358168Y513507D01*
X1358057Y513514D01*
D02*
G37*
G36*
X479403Y803064D02*
X477288D01*
Y801150D01*
X477295Y801102D01*
Y801046D01*
X477302Y800915D01*
X477316Y800769D01*
X477337Y800616D01*
X477364Y800471D01*
X477406Y800339D01*
Y800332D01*
X477413Y800325D01*
X477427Y800284D01*
X477454Y800228D01*
X477496Y800152D01*
X477551Y800076D01*
X477614Y799992D01*
X477697Y799909D01*
X477787Y799840D01*
X477801Y799833D01*
X477836Y799812D01*
X477884Y799784D01*
X477961Y799750D01*
X478044Y799722D01*
X478141Y799694D01*
X478252Y799673D01*
X478363Y799666D01*
X478370D01*
X478383D01*
X478404D01*
X478439Y799673D01*
X478474D01*
X478522Y799680D01*
X478626Y799708D01*
X478744Y799750D01*
X478869Y799805D01*
X478987Y799888D01*
X479049Y799944D01*
X479105Y799999D01*
X479112Y800006D01*
X479118Y800013D01*
X479132Y800034D01*
X479153Y800062D01*
X479174Y800096D01*
X479202Y800145D01*
X479230Y800193D01*
X479257Y800256D01*
X479285Y800325D01*
X479306Y800401D01*
X479333Y800485D01*
X479354Y800575D01*
X479375Y800679D01*
X479389Y800790D01*
X479403Y800908D01*
Y803064D01*
D02*
G37*
G36*
X498893Y639374D02*
X497416D01*
Y634486D01*
X498886D01*
X498941Y634493D01*
X499004D01*
X499142Y634500D01*
X499302Y634513D01*
X499468Y634534D01*
X499628Y634562D01*
X499773Y634597D01*
X499780D01*
X499787Y634604D01*
X499808Y634610D01*
X499836Y634618D01*
X499898Y634645D01*
X499981Y634680D01*
X500072Y634728D01*
X500169Y634784D01*
X500266Y634853D01*
X500349Y634930D01*
X500356Y634936D01*
X500363Y634943D01*
X500398Y634985D01*
X500453Y635054D01*
X500522Y635144D01*
X500592Y635262D01*
X500668Y635401D01*
X500744Y635560D01*
X500814Y635741D01*
Y635748D01*
X500821Y635762D01*
X500827Y635789D01*
X500841Y635831D01*
X500855Y635880D01*
X500869Y635942D01*
X500883Y636011D01*
X500904Y636087D01*
X500918Y636171D01*
X500932Y636268D01*
X500945Y636365D01*
X500959Y636476D01*
X500980Y636712D01*
X500987Y636975D01*
Y636989D01*
Y637017D01*
Y637072D01*
X500980Y637141D01*
Y637225D01*
X500973Y637322D01*
X500959Y637426D01*
X500945Y637544D01*
X500904Y637793D01*
X500848Y638050D01*
X500765Y638293D01*
X500710Y638410D01*
X500654Y638515D01*
X500647Y638521D01*
X500640Y638535D01*
X500619Y638563D01*
X500592Y638605D01*
X500564Y638646D01*
X500522Y638695D01*
X500432Y638806D01*
X500314Y638931D01*
X500176Y639048D01*
X500023Y639159D01*
X499940Y639201D01*
X499850Y639243D01*
X499843D01*
X499836Y639249D01*
X499815Y639256D01*
X499787Y639263D01*
X499746Y639270D01*
X499704Y639284D01*
X499649Y639298D01*
X499586Y639312D01*
X499517Y639319D01*
X499434Y639333D01*
X499344Y639347D01*
X499246Y639353D01*
X499136Y639360D01*
X499018Y639367D01*
X498893Y639374D01*
D02*
G37*
%LPD*%
D10*
X460820Y649480D02*
X532320D01*
Y617980D02*
Y649480D01*
X460820Y617980D02*
X532320D01*
X460820D02*
Y649480D01*
X965840Y431950D02*
Y462950D01*
X982340D01*
Y431950D02*
Y462950D01*
X965840Y431950D02*
X982340D01*
X1014111Y450319D02*
Y484401D01*
X995029Y450319D02*
X1014111D01*
X995029D02*
Y484401D01*
X1014111D01*
X1035701Y450319D02*
Y484401D01*
X1016619Y450319D02*
X1035701D01*
X1016619D02*
Y484401D01*
X1035701D01*
X1063620Y433220D02*
Y464220D01*
X1047120Y433220D02*
X1063620D01*
X1047120D02*
Y464220D01*
X1063620D01*
X1353169Y429999D02*
Y464081D01*
X1372251D01*
Y429999D02*
Y464081D01*
X1353169Y429999D02*
X1372251D01*
X1353399Y492709D02*
Y525831D01*
X1372021D01*
Y492709D02*
Y525831D01*
X1353399Y492709D02*
X1372021D01*
X495751Y760879D02*
Y846941D01*
X451669Y760879D02*
X495751D01*
X451669D02*
Y846941D01*
X495751D01*
M02*
