%TF.GenerationSoftware,Altium Limited,Altium Designer,23.3.1 (30)*%
G04 Layer_Color=16711935*
%FSLAX26Y26*%
%MOIN*%
%TF.SameCoordinates,4932A310-E953-401E-A278-E884588CB871*%
%TF.FilePolarity,Negative*%
%TF.FileFunction,Soldermask,Bot*%
%TF.Part,Single*%
G01*
G75*
%TA.AperFunction,ComponentPad*%
%ADD33C,0.062000*%
%ADD38C,0.054000*%
%ADD61C,0.067008*%
%TA.AperFunction,ViaPad*%
%ADD62C,0.225000*%
%TA.AperFunction,ComponentPad*%
%ADD63O,0.075000X0.095000*%
%ADD64C,0.052244*%
%ADD65O,0.095000X0.075000*%
%ADD66C,0.082953*%
%ADD67R,0.082953X0.082953*%
%ADD68C,0.064055*%
%ADD69R,0.064055X0.064055*%
%ADD70R,0.052244X0.052244*%
%TA.AperFunction,ViaPad*%
%ADD71C,0.055000*%
D33*
X1131428Y2485454D02*
D03*
X1426703D02*
D03*
X1140000Y3265000D02*
D03*
X1435276D02*
D03*
D38*
X673234Y3334451D02*
D03*
Y3184451D02*
D03*
Y3034451D02*
D03*
Y2884451D02*
D03*
D61*
X1115000Y1850000D02*
D03*
X229173D02*
D03*
X234173Y1400000D02*
D03*
X1120000D02*
D03*
X235000Y955000D02*
D03*
X1120827D02*
D03*
X239173Y535000D02*
D03*
X1125000D02*
D03*
D62*
X5500000Y220000D02*
D03*
Y3800000D02*
D03*
X220000D02*
D03*
X200000Y220000D02*
D03*
D63*
X5564751Y737684D02*
D03*
Y952684D02*
D03*
X5585000Y1965000D02*
D03*
Y1750000D02*
D03*
X240000Y2320000D02*
D03*
Y2535000D02*
D03*
D64*
X3600000Y1596850D02*
D03*
Y1400000D02*
D03*
X5195549Y758058D02*
D03*
Y954908D02*
D03*
X5190000Y1408150D02*
D03*
Y1605000D02*
D03*
Y2068150D02*
D03*
Y2265000D02*
D03*
X5185000Y2743150D02*
D03*
Y2940000D02*
D03*
X2110000Y2655394D02*
D03*
Y3305000D02*
D03*
X4790000Y773150D02*
D03*
Y1423150D02*
D03*
X4785000Y2073150D02*
D03*
X4780000Y2743150D02*
D03*
D65*
X3815000Y1158413D02*
D03*
X3600000D02*
D03*
X1897395Y3744140D02*
D03*
X1682395D02*
D03*
X2690000Y3740000D02*
D03*
X2475000D02*
D03*
D66*
X2120000Y3495000D02*
D03*
X2019606D02*
D03*
D67*
X1919213D02*
D03*
D68*
X2080000Y180039D02*
D03*
X1775000Y1994961D02*
D03*
D69*
X2080000Y1995000D02*
D03*
X1775000Y180000D02*
D03*
D70*
X4790000Y970000D02*
D03*
Y1620000D02*
D03*
X4785000Y2270000D02*
D03*
X4780000Y2940000D02*
D03*
D71*
X4320000Y1535000D02*
D03*
X2030000Y2540000D02*
D03*
%TF.MD5,aa5e4bb9bdc1e81b0e807946097b8c4e*%
M02*
