%TF.GenerationSoftware,Altium Limited,Altium Designer,23.3.1 (30)*%
G04 Layer_Color=16711935*
%FSLAX45Y45*%
%MOMM*%
%TF.SameCoordinates,B78A920C-B21B-4EC0-8B15-6B7EDFA50413*%
%TF.FilePolarity,Positive*%
%TF.FileFunction,Other,Top_3D_Body*%
%TF.Part,Single*%
G01*
G75*
%TA.AperFunction,NonConductor*%
%ADD45C,0.20000*%
%ADD47C,0.10000*%
%ADD72C,0.00000*%
%ADD73C,0.02540*%
D45*
X442100Y4279000D02*
X2972100D01*
X442100D02*
Y5119000D01*
X2972100D01*
Y4279000D02*
Y5119000D01*
X4537900Y6788900D02*
Y7358900D01*
X5037900D01*
Y6788900D02*
Y7358900D01*
X4537900Y6788900D02*
X5037900D01*
X2984800Y3136000D02*
Y3976000D01*
X454800D02*
X2984800D01*
X454800Y3136000D02*
Y3976000D01*
Y3136000D02*
X2984800D01*
X2986900Y2005700D02*
Y2845700D01*
X456900D02*
X2986900D01*
X456900Y2005700D02*
Y2845700D01*
Y2005700D02*
X2986900D01*
X2997500Y938900D02*
Y1778900D01*
X467500D02*
X2997500D01*
X467500Y938900D02*
Y1778900D01*
Y938900D02*
X2997500D01*
X4728200Y6484800D02*
X5203200D01*
Y6189800D02*
Y6484800D01*
X4728200Y6189800D02*
X5203200D01*
X4728200D02*
Y6484800D01*
X9274000Y3606000D02*
Y4006000D01*
X9014000Y3606000D02*
X9274000D01*
X9014000D02*
Y4006000D01*
X9274000D01*
X13066695Y1975466D02*
Y2375467D01*
X13326694D01*
Y1975466D02*
Y2375467D01*
X13066695Y1975466D02*
X13326694D01*
X13052600Y3626700D02*
Y4026700D01*
X13312601D01*
Y3626700D02*
Y4026700D01*
X13052600Y3626700D02*
X13312601D01*
X13052600Y5303100D02*
Y5703100D01*
X13312601D01*
Y5303100D02*
Y5703100D01*
X13052600Y5303100D02*
X13312601D01*
X13039900Y7017600D02*
Y7417600D01*
X13299899D01*
Y7017600D02*
Y7417600D01*
X13039900Y7017600D02*
X13299899D01*
X9670900Y4364500D02*
Y4584500D01*
X9810900D01*
Y4364500D02*
Y4584500D01*
X9670900Y4364500D02*
X9810900D01*
X10108200Y4573600D02*
Y4773600D01*
X9983200Y4573600D02*
X10108200D01*
X9983200D02*
Y4773600D01*
X10108200D01*
X10324100Y4573600D02*
Y4773600D01*
X10199100Y4573600D02*
X10324100D01*
X10199100D02*
Y4773600D01*
X10324100D01*
X10623700Y4377200D02*
Y4597200D01*
X10483700Y4377200D02*
X10623700D01*
X10483700D02*
Y4597200D01*
X10623700D01*
X13564600Y4370400D02*
Y4570400D01*
X13689600D01*
Y4370400D02*
Y4570400D01*
X13564600Y4370400D02*
X13689600D01*
X13564600Y4992700D02*
Y5192700D01*
X13689600D01*
Y4992700D02*
Y5192700D01*
X13564600Y4992700D02*
X13689600D01*
X9880600Y4997400D02*
Y5315000D01*
Y4997400D02*
X10515600D01*
Y5315000D01*
X9880600D02*
X10515600D01*
X4894600Y7724100D02*
Y8354100D01*
X4579600Y7724100D02*
X4894600D01*
X4579600D02*
Y8354100D01*
X4894600D01*
D47*
X6418400Y7538900D02*
G03*
X6418400Y7538900I-50000J0D01*
G01*
X12804100Y2213800D02*
G03*
X12804100Y2213800I-637500J0D01*
G01*
Y3864800D02*
G03*
X12804100Y3864800I-637500J0D01*
G01*
X12791400Y5515800D02*
G03*
X12791400Y5515800I-637500J0D01*
G01*
X12778700Y7217600D02*
G03*
X12778700Y7217600I-637500J0D01*
G01*
X3352411Y3880154D02*
X3602411D01*
X3352411D02*
Y4330154D01*
X3602411D01*
Y3880154D02*
Y4330154D01*
X5918400Y5088900D02*
Y7788900D01*
X9118400Y5088900D02*
Y7788900D01*
X5918400D02*
X9118400D01*
X5918400Y5088900D02*
X9118400D01*
X5359400Y6744700D02*
Y7244700D01*
Y7894700D02*
Y8394700D01*
X5234400Y7894700D02*
X5484400D01*
X5234400Y7244700D02*
Y7894700D01*
Y7244700D02*
X5484400D01*
Y7894700D01*
X3321600Y1629200D02*
X3571600D01*
X3321600D02*
Y2079200D01*
X3571600D01*
Y1629200D02*
Y2079200D01*
X10265300Y4254500D02*
X10392300Y4127500D01*
X9902300Y4254500D02*
X10392300D01*
X9902300Y3864500D02*
Y4254500D01*
Y3864500D02*
X10392300D01*
Y4254500D01*
X4609800Y9056800D02*
X4737300Y9184300D01*
X4609800Y8724300D02*
Y9184300D01*
Y8724300D02*
X5649800D01*
Y9184300D01*
X4609800D02*
X5649800D01*
X10212000Y5881000D02*
Y6501000D01*
X9552000D02*
X10212000D01*
X9552000Y5881000D02*
Y6501000D01*
Y5881000D02*
X10212000D01*
X5283200Y457300D02*
Y1837300D01*
Y3687300D02*
Y5067300D01*
Y3687300D02*
X5628200Y3342300D01*
X4938200Y3687300D02*
X5628200D01*
X4938200Y1837300D02*
Y3687300D01*
Y1837300D02*
X5628200D01*
Y3687300D01*
X4508500Y3687200D02*
Y5067200D01*
Y457200D02*
Y1837200D01*
X4163500Y2182200D02*
X4508500Y1837200D01*
X4163500D02*
X4853500D01*
Y3687200D01*
X4163500D02*
X4853500D01*
X4163500Y1837200D02*
Y3687200D01*
D72*
X4173386Y6313054D02*
G03*
X4173386Y6313054I-924560J0D01*
G01*
X1815703Y7185536D02*
G03*
X1815703Y7185536I-20320J0D01*
G01*
X4195160Y8293100D02*
G03*
X4195160Y8293100I-924560J0D01*
G01*
D73*
X4262286Y6249554D02*
Y6376554D01*
X4198786Y6313054D02*
X4325786D01*
X1455023Y7160136D02*
X1820783D01*
X1455023D02*
Y8635876D01*
X1820783D01*
Y7160136D02*
Y8635876D01*
X1455023Y7160136D02*
Y8635876D01*
X4284060Y8229600D02*
Y8356600D01*
X4220560Y8293100D02*
X4347560D01*
X1423294Y7850381D02*
Y7892701D01*
Y7871541D01*
X1486773D01*
Y7913860D02*
X1444453D01*
X1423294Y7935020D01*
X1444453Y7956180D01*
X1486773D01*
X1455033D01*
Y7913860D01*
X1423294Y7977340D02*
X1486773D01*
Y8009080D01*
X1476193Y8019660D01*
X1465613D01*
X1455033Y8009080D01*
Y7977340D01*
Y8009080D01*
X1444453Y8019660D01*
X1433873D01*
X1423294Y8009080D01*
Y7977340D01*
%TF.MD5,27bdda3e1ca2b92a2e903fadaace1f5f*%
M02*
