%TF.GenerationSoftware,Altium Limited,Altium Designer,23.3.1 (30)*%
G04 Layer_Color=2752767*
%FSLAX45Y45*%
%MOMM*%
%TF.SameCoordinates,B78A920C-B21B-4EC0-8B15-6B7EDFA50413*%
%TF.FilePolarity,Positive*%
%TF.FileFunction,Drawing*%
%TF.Part,Single*%
G01*
G75*
%TA.AperFunction,NonConductor*%
%ADD91C,0.12700*%
%ADD92C,0.16933*%
D91*
X2781300Y4648200D02*
X2806700D01*
X2832100Y4673600D01*
X2857500Y4648200D01*
X2882900D01*
Y4673600D01*
X2857500Y4699000D01*
X2882900Y4724400D01*
Y4749800D01*
X2857500D01*
X2832100Y4724400D01*
X2806700Y4749800D01*
X2781300D01*
Y4724400D01*
X2806700Y4699000D01*
X2781300Y4673600D01*
Y4648200D01*
X531300D02*
X556700D01*
X582100Y4673600D01*
X607500Y4648200D01*
X632900D01*
Y4673600D01*
X607500Y4699000D01*
X632900Y4724400D01*
Y4749800D01*
X607500D01*
X582100Y4724400D01*
X556700Y4749800D01*
X531300D01*
Y4724400D01*
X556700Y4699000D01*
X531300Y4673600D01*
Y4648200D01*
X2873826Y6262254D02*
X2823026Y6363854D01*
X2924626D01*
X2873826Y6262254D01*
X3623826D02*
X3573026Y6363854D01*
X3674626D01*
X3623826Y6262254D01*
X544000Y3505200D02*
X569400D01*
X594800Y3530600D01*
X620200Y3505200D01*
X645600D01*
Y3530600D01*
X620200Y3556000D01*
X645600Y3581400D01*
Y3606800D01*
X620200D01*
X594800Y3581400D01*
X569400Y3606800D01*
X544000D01*
Y3581400D01*
X569400Y3556000D01*
X544000Y3530600D01*
Y3505200D01*
X2794000D02*
X2819400D01*
X2844800Y3530600D01*
X2870200Y3505200D01*
X2895600D01*
Y3530600D01*
X2870200Y3556000D01*
X2895600Y3581400D01*
Y3606800D01*
X2870200D01*
X2844800Y3581400D01*
X2819400Y3606800D01*
X2794000D01*
Y3581400D01*
X2819400Y3556000D01*
X2794000Y3530600D01*
Y3505200D01*
X546100Y2374900D02*
X571500D01*
X596900Y2400300D01*
X622300Y2374900D01*
X647700D01*
Y2400300D01*
X622300Y2425700D01*
X647700Y2451100D01*
Y2476500D01*
X622300D01*
X596900Y2451100D01*
X571500Y2476500D01*
X546100D01*
Y2451100D01*
X571500Y2425700D01*
X546100Y2400300D01*
Y2374900D01*
X2796100D02*
X2821500D01*
X2846900Y2400300D01*
X2872300Y2374900D01*
X2897700D01*
Y2400300D01*
X2872300Y2425700D01*
X2897700Y2451100D01*
Y2476500D01*
X2872300D01*
X2846900Y2451100D01*
X2821500Y2476500D01*
X2796100D01*
Y2451100D01*
X2821500Y2425700D01*
X2796100Y2400300D01*
Y2374900D01*
X556700Y1308100D02*
X582100D01*
X607500Y1333500D01*
X632900Y1308100D01*
X658300D01*
Y1333500D01*
X632900Y1358900D01*
X658300Y1384300D01*
Y1409700D01*
X632900D01*
X607500Y1384300D01*
X582100Y1409700D01*
X556700D01*
Y1384300D01*
X582100Y1358900D01*
X556700Y1333500D01*
Y1308100D01*
X2806700D02*
X2832100D01*
X2857500Y1333500D01*
X2882900Y1308100D01*
X2908300D01*
Y1333500D01*
X2882900Y1358900D01*
X2908300Y1384300D01*
Y1409700D01*
X2882900D01*
X2857500Y1384300D01*
X2832100Y1409700D01*
X2806700D01*
Y1384300D01*
X2832100Y1358900D01*
X2806700Y1333500D01*
Y1308100D01*
X13970000Y508000D02*
X13919200Y609600D01*
X14020799D01*
X13970000Y508000D01*
Y528320D02*
X13939520Y589280D01*
X14000481D01*
X13970000Y528320D01*
Y9601200D02*
X13919200Y9702800D01*
X14020799D01*
X13970000Y9601200D01*
Y9621520D02*
X13939520Y9682480D01*
X14000481D01*
X13970000Y9621520D01*
X558800Y9601200D02*
X508000Y9702800D01*
X609600D01*
X558800Y9601200D01*
Y9621520D02*
X528320Y9682480D01*
X589280D01*
X558800Y9621520D01*
X508000Y508000D02*
X457200Y609600D01*
X558800D01*
X508000Y508000D01*
Y528320D02*
X477520Y589280D01*
X538480D01*
X508000Y528320D01*
X14134468Y1822917D02*
X14159868Y1848317D01*
X14185268D01*
X14159868Y1873717D01*
X14185268Y1899117D01*
X14159868D01*
X14134468Y1924517D01*
X14109068Y1899117D01*
X14083669D01*
X14109068Y1873717D01*
X14083669Y1848317D01*
X14109068D01*
X14134468Y1822917D01*
Y2369017D02*
X14159868Y2394417D01*
X14185268D01*
X14159868Y2419817D01*
X14185268Y2445217D01*
X14159868D01*
X14134468Y2470617D01*
X14109068Y2445217D01*
X14083669D01*
X14109068Y2419817D01*
X14083669Y2394417D01*
X14109068D01*
X14134468Y2369017D01*
X9093200Y4005200D02*
Y4106800D01*
X9194800D01*
Y4005200D01*
X9093200D01*
X9113520Y4025520D02*
Y4086480D01*
X9174480D01*
Y4025520D01*
X9113520D01*
X9093200Y3505200D02*
Y3606800D01*
X9194800D01*
Y3505200D01*
X9093200D01*
X9113520Y3525520D02*
Y3586480D01*
X9174480D01*
Y3525520D01*
X9113520D01*
X13145894Y1874667D02*
Y1976267D01*
X13247495D01*
Y1874667D01*
X13145894D01*
X13166214Y1894987D02*
Y1955947D01*
X13227174D01*
Y1894987D01*
X13166214D01*
X13145894Y2374667D02*
Y2476267D01*
X13247495D01*
Y2374667D01*
X13145894D01*
X13166214Y2394987D02*
Y2455947D01*
X13227174D01*
Y2394987D01*
X13166214D01*
X13131799Y3525900D02*
Y3627500D01*
X13233400D01*
Y3525900D01*
X13131799D01*
X13152119Y3546220D02*
Y3607180D01*
X13213080D01*
Y3546220D01*
X13152119D01*
X13131799Y4025900D02*
Y4127500D01*
X13233400D01*
Y4025900D01*
X13131799D01*
X13152119Y4046220D02*
Y4107180D01*
X13213080D01*
Y4046220D01*
X13152119D01*
X13131799Y5202300D02*
Y5303900D01*
X13233400D01*
Y5202300D01*
X13131799D01*
X13152119Y5222620D02*
Y5283580D01*
X13213080D01*
Y5222620D01*
X13152119D01*
X13131799Y5702300D02*
Y5803900D01*
X13233400D01*
Y5702300D01*
X13131799D01*
X13152119Y5722620D02*
Y5783580D01*
X13213080D01*
Y5722620D01*
X13152119D01*
X13119099Y6916800D02*
Y7018400D01*
X13220700D01*
Y6916800D01*
X13119099D01*
X13139420Y6937120D02*
Y6998080D01*
X13200380D01*
Y6937120D01*
X13139420D01*
X13119099Y7416800D02*
Y7518400D01*
X13220700D01*
Y7416800D01*
X13119099D01*
X13139420Y7437120D02*
Y7498080D01*
X13200380D01*
Y7437120D01*
X13139420D01*
X9690100Y2891568D02*
X9715500Y2916968D01*
X9740900D01*
X9715500Y2942368D01*
X9740900Y2967768D01*
X9715500D01*
X9690100Y2993168D01*
X9664700Y2967768D01*
X9639300D01*
X9664700Y2942368D01*
X9639300Y2916968D01*
X9664700D01*
X9690100Y2891568D01*
X9144000D02*
X9169400Y2916968D01*
X9194800D01*
X9169400Y2942368D01*
X9194800Y2967768D01*
X9169400D01*
X9144000Y2993168D01*
X9118600Y2967768D01*
X9093200D01*
X9118600Y2942368D01*
X9093200Y2916968D01*
X9118600D01*
X9144000Y2891568D01*
X5308600Y6693900D02*
Y6795500D01*
X5410200D01*
Y6693900D01*
X5308600D01*
Y8343900D02*
Y8445500D01*
X5410200D01*
Y8343900D01*
X5308600D01*
X4819383Y9459315D02*
X4844783Y9484715D01*
X4870183D01*
X4844783Y9510115D01*
X4870183Y9535515D01*
X4844783D01*
X4819383Y9560915D01*
X4793983Y9535515D01*
X4768583D01*
X4793983Y9510115D01*
X4768583Y9484715D01*
X4793983D01*
X4819383Y9459315D01*
X4273283D02*
X4298683Y9484715D01*
X4324083D01*
X4298683Y9510115D01*
X4324083Y9535515D01*
X4298683D01*
X4273283Y9560915D01*
X4247883Y9535515D01*
X4222483D01*
X4247883Y9510115D01*
X4222483Y9484715D01*
X4247883D01*
X4273283Y9459315D01*
X6832600Y9448800D02*
X6858000Y9474200D01*
X6883400D01*
X6858000Y9499600D01*
X6883400Y9525000D01*
X6858000D01*
X6832600Y9550400D01*
X6807200Y9525000D01*
X6781800D01*
X6807200Y9499600D01*
X6781800Y9474200D01*
X6807200D01*
X6832600Y9448800D01*
X6286500D02*
X6311900Y9474200D01*
X6337300D01*
X6311900Y9499600D01*
X6337300Y9525000D01*
X6311900D01*
X6286500Y9550400D01*
X6261100Y9525000D01*
X6235700D01*
X6261100Y9499600D01*
X6235700Y9474200D01*
X6261100D01*
X6286500Y9448800D01*
X14185899Y4940300D02*
X14211301Y4965700D01*
X14236700D01*
X14211301Y4991100D01*
X14236700Y5016500D01*
X14211301D01*
X14185899Y5041900D01*
X14160500Y5016500D01*
X14135100D01*
X14160500Y4991100D01*
X14135100Y4965700D01*
X14160500D01*
X14185899Y4940300D01*
Y4394200D02*
X14211301Y4419600D01*
X14236700D01*
X14211301Y4445000D01*
X14236700Y4470400D01*
X14211301D01*
X14185899Y4495800D01*
X14160500Y4470400D01*
X14135100D01*
X14160500Y4445000D01*
X14135100Y4419600D01*
X14160500D01*
X14185899Y4394200D01*
X609600Y5842000D02*
X635000Y5867400D01*
X660400D01*
X635000Y5892800D01*
X660400Y5918200D01*
X635000D01*
X609600Y5943600D01*
X584200Y5918200D01*
X558800D01*
X584200Y5892800D01*
X558800Y5867400D01*
X584200D01*
X609600Y5842000D01*
Y6388100D02*
X635000Y6413500D01*
X660400D01*
X635000Y6438900D01*
X660400Y6464300D01*
X635000D01*
X609600Y6489700D01*
X584200Y6464300D01*
X558800D01*
X584200Y6438900D01*
X558800Y6413500D01*
X584200D01*
X609600Y6388100D01*
X5334000Y8826500D02*
X5359400Y8877300D01*
X5334000Y8928100D01*
X5384800Y8902700D01*
X5435600Y8928100D01*
X5410200Y8877300D01*
X5435600Y8826500D01*
X5384800Y8851900D01*
X5334000Y8826500D01*
X4824000D02*
X4849400Y8877300D01*
X4824000Y8928100D01*
X4874800Y8902700D01*
X4925600Y8928100D01*
X4900200Y8877300D01*
X4925600Y8826500D01*
X4874800Y8851900D01*
X4824000Y8826500D01*
X5079000D02*
X5104400Y8877300D01*
X5079000Y8928100D01*
X5129800Y8902700D01*
X5180600Y8928100D01*
X5155200Y8877300D01*
X5180600Y8826500D01*
X5129800Y8851900D01*
X5079000Y8826500D01*
X5257800Y431900D02*
Y406500D01*
X5308600D01*
Y431900D01*
X5334000D01*
Y482700D01*
X5308600D01*
Y508100D01*
X5257800D01*
Y482700D01*
X5232400D01*
Y431900D01*
X5257800D01*
Y5041900D02*
Y5016500D01*
X5308600D01*
Y5041900D01*
X5334000D01*
Y5092700D01*
X5308600D01*
Y5118100D01*
X5257800D01*
Y5092700D01*
X5232400D01*
Y5041900D01*
X5257800D01*
X4483100Y5041800D02*
Y5016400D01*
X4533900D01*
Y5041800D01*
X4559300D01*
Y5092600D01*
X4533900D01*
Y5118000D01*
X4483100D01*
Y5092600D01*
X4457700D01*
Y5041800D01*
X4483100D01*
Y431800D02*
Y406400D01*
X4533900D01*
Y431800D01*
X4559300D01*
Y482600D01*
X4533900D01*
Y508000D01*
X4483100D01*
Y482600D01*
X4457700D01*
Y431800D01*
X4483100D01*
X12115800Y2413000D02*
Y2514600D01*
X12217400D01*
Y2413000D01*
X12115800D01*
Y1913000D02*
Y2014600D01*
X12217400D01*
Y1913000D01*
X12115800D01*
Y4064000D02*
Y4165600D01*
X12217400D01*
Y4064000D01*
X12115800D01*
Y3564000D02*
Y3665600D01*
X12217400D01*
Y3564000D01*
X12115800D01*
X12103100Y5715000D02*
Y5816600D01*
X12204700D01*
Y5715000D01*
X12103100D01*
Y5215000D02*
Y5316600D01*
X12204700D01*
Y5215000D01*
X12103100D01*
X12090400Y7416800D02*
Y7518400D01*
X12192000D01*
Y7416800D01*
X12090400D01*
Y6916800D02*
Y7018400D01*
X12192000D01*
Y6916800D01*
X12090400D01*
X2895600Y8242300D02*
X2844800Y8343900D01*
X2946400D01*
X2895600Y8242300D01*
X3645600D02*
X3594800Y8343900D01*
X3696400D01*
X3645600Y8242300D01*
X10922000Y3898900D02*
X10972800Y3949700D01*
X11023600Y3898900D01*
X10972800Y3848100D01*
X10922000Y3898900D01*
X5105400Y6451600D02*
X5156200Y6502400D01*
X5207000Y6451600D01*
X5156200Y6400800D01*
X5105400Y6451600D01*
D92*
X1760814Y8469506D02*
G03*
X1760814Y8469506I-50800J0D01*
G01*
Y8088506D02*
G03*
X1760814Y8088506I-50800J0D01*
G01*
Y7707506D02*
G03*
X1760814Y7707506I-50800J0D01*
G01*
Y7326506D02*
G03*
X1760814Y7326506I-50800J0D01*
G01*
%TF.MD5,5b86e29bf1027c74014175c6f814b365*%
M02*
