%TF.GenerationSoftware,Altium Limited,Altium Designer,23.3.1 (30)*%
G04 Layer_Color=16711935*
%FSLAX26Y26*%
%MOIN*%
%TF.SameCoordinates,D9B6CB64-BBF7-4A69-970E-EE5AFB7FCE0F*%
%TF.FilePolarity,Positive*%
%TF.FileFunction,Other,Top_3D_Body*%
%TF.Part,Single*%
G01*
G75*
%TA.AperFunction,NonConductor*%
%ADD45C,0.007874*%
%ADD47C,0.003937*%
%ADD72C,0.000000*%
%ADD73C,0.001000*%
D45*
X174055Y1684646D02*
X1170118D01*
X174055D02*
Y2015354D01*
X1170118D01*
Y1684646D02*
Y2015354D01*
X1786575Y2672795D02*
Y2897205D01*
X1983425D01*
Y2672795D02*
Y2897205D01*
X1786575Y2672795D02*
X1983425D01*
X1175118Y1234646D02*
Y1565354D01*
X179055D02*
X1175118D01*
X179055Y1234646D02*
Y1565354D01*
Y1234646D02*
X1175118D01*
X1175945Y789646D02*
Y1120354D01*
X179882D02*
X1175945D01*
X179882Y789646D02*
Y1120354D01*
Y789646D02*
X1175945D01*
X1180118Y369646D02*
Y700354D01*
X184055D02*
X1180118D01*
X184055Y369646D02*
Y700354D01*
Y369646D02*
X1180118D01*
X1861496Y2553071D02*
X2048504D01*
Y2436929D02*
Y2553071D01*
X1861496Y2436929D02*
X2048504D01*
X1861496D02*
Y2553071D01*
X3651181Y1419685D02*
Y1577165D01*
X3548819Y1419685D02*
X3651181D01*
X3548819D02*
Y1577165D01*
X3651181D01*
X5144368Y777743D02*
Y935223D01*
X5246730D01*
Y777743D02*
Y935223D01*
X5144368Y777743D02*
X5246730D01*
X5138819Y1427835D02*
Y1585315D01*
X5241181D01*
Y1427835D02*
Y1585315D01*
X5138819Y1427835D02*
X5241181D01*
X5138819Y2087835D02*
Y2245315D01*
X5241181D01*
Y2087835D02*
Y2245315D01*
X5138819Y2087835D02*
X5241181D01*
X5133819Y2762835D02*
Y2920315D01*
X5236181D01*
Y2762835D02*
Y2920315D01*
X5133819Y2762835D02*
X5236181D01*
X3807441Y1718307D02*
Y1804921D01*
X3862559D01*
Y1718307D02*
Y1804921D01*
X3807441Y1718307D02*
X3862559D01*
X3979606Y1800630D02*
Y1879370D01*
X3930394Y1800630D02*
X3979606D01*
X3930394D02*
Y1879370D01*
X3979606D01*
X4064606Y1800630D02*
Y1879370D01*
X4015394Y1800630D02*
X4064606D01*
X4015394D02*
Y1879370D01*
X4064606D01*
X4182559Y1723307D02*
Y1809921D01*
X4127441Y1723307D02*
X4182559D01*
X4127441D02*
Y1809921D01*
X4182559D01*
X5340394Y1720630D02*
Y1799370D01*
X5389606D01*
Y1720630D02*
Y1799370D01*
X5340394Y1720630D02*
X5389606D01*
X5340394Y1965630D02*
Y2044370D01*
X5389606D01*
Y1965630D02*
Y2044370D01*
X5340394Y1965630D02*
X5389606D01*
X3890000Y1967480D02*
Y2092520D01*
Y1967480D02*
X4140000D01*
Y2092520D01*
X3890000D02*
X4140000D01*
X1927008Y3040984D02*
Y3289016D01*
X1802992Y3040984D02*
X1927008D01*
X1802992D02*
Y3289016D01*
X1927008D01*
D47*
X2526929Y2968071D02*
G03*
X2526929Y2968071I-19685J0D01*
G01*
X5040984Y871575D02*
G03*
X5040984Y871575I-250984J0D01*
G01*
Y1521575D02*
G03*
X5040984Y1521575I-250984J0D01*
G01*
X5035984Y2171575D02*
G03*
X5035984Y2171575I-250984J0D01*
G01*
X5030984Y2841575D02*
G03*
X5030984Y2841575I-250984J0D01*
G01*
X1319847Y1527620D02*
X1418272D01*
X1319847D02*
Y1704785D01*
X1418272D01*
Y1527620D02*
Y1704785D01*
X2330079Y2003504D02*
Y3066496D01*
X3589921Y2003504D02*
Y3066496D01*
X2330079D02*
X3589921D01*
X2330079Y2003504D02*
X3589921D01*
X2110000Y2655394D02*
Y2852244D01*
Y3108150D02*
Y3305000D01*
X2060787Y3108150D02*
X2159213D01*
X2060787Y2852244D02*
Y3108150D01*
Y2852244D02*
X2159213D01*
Y3108150D01*
X1307716Y641417D02*
X1406142D01*
X1307716D02*
Y818583D01*
X1406142D01*
Y641417D02*
Y818583D01*
X4041457Y1675000D02*
X4091457Y1625000D01*
X3898543Y1675000D02*
X4091457D01*
X3898543Y1521457D02*
Y1675000D01*
Y1521457D02*
X4091457D01*
Y1675000D01*
X1814882Y3565669D02*
X1865079Y3615866D01*
X1814882Y3434764D02*
Y3615866D01*
Y3434764D02*
X2224331D01*
Y3615866D01*
X1814882D02*
X2224331D01*
X4020472Y2315354D02*
Y2559449D01*
X3760630D02*
X4020472D01*
X3760630Y2315354D02*
Y2559449D01*
Y2315354D02*
X4020472D01*
X2080000Y180039D02*
Y723346D01*
Y1451693D02*
Y1995000D01*
Y1451693D02*
X2215827Y1315866D01*
X1944173Y1451693D02*
X2215827D01*
X1944173Y723346D02*
Y1451693D01*
Y723346D02*
X2215827D01*
Y1451693D01*
X1775000Y1451653D02*
Y1994961D01*
Y180000D02*
Y723307D01*
X1639173Y859134D02*
X1775000Y723307D01*
X1639173D02*
X1910827D01*
Y1451653D01*
X1639173D02*
X1910827D01*
X1639173Y723307D02*
Y1451653D01*
D72*
X1643065Y2485454D02*
G03*
X1643065Y2485454I-364000J0D01*
G01*
X714844Y2828951D02*
G03*
X714844Y2828951I-8000J0D01*
G01*
X1651638Y3265000D02*
G03*
X1651638Y3265000I-364000J0D01*
G01*
D73*
X1678065Y2460454D02*
Y2510454D01*
X1653065Y2485454D02*
X1703065D01*
X572844Y2818951D02*
X716844D01*
X572844D02*
Y3399951D01*
X716844D01*
Y2818951D02*
Y3399951D01*
X572844Y2818951D02*
Y3399951D01*
X1686638Y3240000D02*
Y3290000D01*
X1661638Y3265000D02*
X1711638D01*
X560352Y3090701D02*
Y3107363D01*
Y3099032D01*
X585344D01*
Y3115693D02*
X568682D01*
X560352Y3124024D01*
X568682Y3132354D01*
X585344D01*
X572848D01*
Y3115693D01*
X560352Y3140685D02*
X585344D01*
Y3153181D01*
X581178Y3157346D01*
X577013D01*
X572848Y3153181D01*
Y3140685D01*
Y3153181D01*
X568682Y3157346D01*
X564517D01*
X560352Y3153181D01*
Y3140685D01*
%TF.MD5,23f04a1b910cd5ee16c12293349b3b50*%
M02*
